<?xml version="1.0" encoding="utf-8"?>
<!-- Generator: Adobe Illustrator 19.2.1, SVG Export Plug-In . SVG Version: 6.00 Build 0)  -->
<svg version="1.1" id="Layer_1" xmlns="http://www.w3.org/2000/svg" xmlns:xlink="http://www.w3.org/1999/xlink" x="0px" y="0px"
	 viewBox="0 0 378 213" style="enable-background:new 0 0 378 213;" xml:space="preserve">
<style type="text/css">
	.st0{display:none;}
	.st1{display:inline;fill:#DB5640;}
	.st2{display:inline;}
	.st3{fill:#F9F9F3;}
	.st4{display:inline;fill:#5E7BA7;}
	.st5{display:inline;fill:#65B3B9;}
	.st6{display:inline;fill:#786D5D;}
	.st7{display:inline;fill:#87B44E;}
	.st8{fill:#2C3133;}
	.st9{fill:#6E7171;}
</style>
<g id="articles" class="st0">
	<path class="st1" d="M27.5-11C42.7-11,55,1.3,55,16.5S42.7,44,27.5,44C12.3,44,0,31.7,0,16.5S12.3-11,27.5-11L27.5-11z"/>
	<g class="st2">
		<path class="st3" d="M33.3,2.3L16.8,6.1c-1,0.2-1.6,1.2-1.4,2.2l5,21.8c0.2,1,1.2,1.6,2.2,1.4l16.5-3.8c1-0.2,1.6-1.2,1.4-2.2
			l-5-21.8C35.2,2.7,34.2,2.1,33.3,2.3L33.3,2.3z M33.3,4.7L38,25.1l-15.5,3.6L17.8,8.3L33.3,4.7z"/>
		<path class="st3" d="M20.2,10.9c0.1,0.6-0.2,1.1-0.8,1.3L15.8,13c-0.6,0.1-1.1-0.2-1.2-0.8l0,0c-0.1-0.6,0.2-1.1,0.8-1.3l3.7-0.9
			C19.5,10,20.1,10.3,20.2,10.9L20.2,10.9z"/>
		<path class="st3" d="M21.3,15.6c0.1,0.6-0.2,1.1-0.8,1.3l-3.7,0.9c-0.6,0.1-1.1-0.2-1.2-0.8l0,0c-0.1-0.6,0.2-1.1,0.8-1.3l3.7-0.9
			C20.6,14.7,21.2,15.1,21.3,15.6L21.3,15.6z"/>
		<path class="st3" d="M22.4,20.4c0.1,0.6-0.2,1.1-0.8,1.3l-3.7,0.9c-0.6,0.1-1.1-0.2-1.2-0.8l0,0c-0.1-0.6,0.2-1.1,0.8-1.3l3.7-0.9
			C21.7,19.5,22.2,19.9,22.4,20.4C22.4,20.4,22.4,20.4,22.4,20.4L22.4,20.4z"/>
		<path class="st3" d="M23.5,25.2c0.1,0.6-0.2,1.1-0.8,1.3L19,27.3c-0.6,0.1-1.1-0.2-1.2-0.8l0,0c-0.1-0.6,0.2-1.1,0.8-1.3l3.7-0.9
			C22.8,24.3,23.3,24.6,23.5,25.2L23.5,25.2z"/>
		<path class="st3" d="M20.1,2.8l9.4,18.5l2.5-1.3L22.6,1.5L20.1,2.8z"/>
		<path class="st3" d="M29.4,21.1l2.5-1.3l0.5,4.2L29.4,21.1z"/>
	</g>
</g>
<g id="photos" class="st0">
	<path class="st4" d="M27.5-11C42.7-11,55,1.3,55,16.5S42.7,44,27.5,44C12.3,44,0,31.7,0,16.5S12.3-11,27.5-11L27.5-11z"/>
	<g class="st2">
		<path class="st3" d="M16.6,29.1c-1.6,0-2.6-1-2.6-2.6V6l-2.6,0.3C10.5,6.4,9.9,7.1,10,8l2.5,20.8c0.1,0.8,0.9,1.4,1.7,1.3l7.8-0.8
			L16.6,29.1L16.6,29.1L16.6,29.1z"/>
		<path class="st3" d="M33.5,3h-16C16.6,3,16,3.9,16,4.8v20.7c0,0.8,0.7,1.5,1.5,1.5h16c0.8,0,1.5-0.7,1.5-1.5v-21
			C35,3.7,34.3,3,33.5,3L33.5,3z M33,5l0,15H18V5H33z"/>
		<path class="st3" d="M43.7,6.7L37.2,6l0,2.6l5.4,0.1L41,22.8l-3.9-0.1V27c0,1.2-1.3,2.1-2.2,2.1l5.8,0.9c0.8,0.1,1.6-0.5,1.7-1.3
			L45,8.4C45.1,7.6,44.5,6.8,43.7,6.7L43.7,6.7L43.7,6.7z"/>
	</g>
</g>
<g id="video" class="st0">
	<path class="st5" d="M27.5-11C42.7-11,55,1.3,55,16.5S42.7,44,27.5,44C12.3,44,0,31.7,0,16.5S12.3-11,27.5-11L27.5-11z"/>
	<g class="st2">
		<path class="st3" d="M42.1,29.9H14.9c-1.6,0-2.9-1.2-2.9-2.8V11.7c0-1.5,1.3-2.8,2.9-2.8h27.2c1.6,0,2.9,1.2,2.9,2.8v15.5
			C45,28.7,43.7,29.9,42.1,29.9L42.1,29.9z M15,10.9c-0.5,0-1,0.4-1,0.9V27c0,0.5,0.4,0.9,1,0.9h27c0.5,0,1-0.4,1-0.9V11.8
			c0-0.5-0.4-0.9-1-0.9C42,10.9,15,10.9,15,10.9L15,10.9z"/>
		<path class="st3" d="M38.1,9.7c-3.5,0-4.6,0-7.9,0c0-1.6,1.8-2.8,3.9-2.8S38.1,8.1,38.1,9.7L38.1,9.7z"/>
		<path class="st3" d="M35.8,7.7c-1.5,0-2.1,0-3.5,0C32.3,6.8,33.1,6,34,6S35.8,6.8,35.8,7.7L35.8,7.7z"/>
		<path class="st3" d="M33,6.9L29.5,2l1.1-0.8l3.5,4.9L33,6.9z"/>
		<path class="st3" d="M39,19.9c0,0.6-0.4,1-1,1s-1-0.4-1-1c0-0.6,0.4-1,1-1C38.5,18.9,39,19.4,39,19.9L39,19.9z"/>
		<path class="st3" d="M42,19.9c0,0.6-0.4,1-1,1c-0.5,0-1-0.4-1-1c0-0.6,0.4-1,1-1C41.5,18.9,42,19.4,42,19.9L42,19.9z"/>
		<path class="st3" d="M42,15.4c0,1.4-1.1,2.5-2.5,2.5c-1.4,0-2.5-1.1-2.5-2.5s1.1-2.5,2.5-2.5C40.8,12.9,42,14.1,42,15.4L42,15.4z"
			/>
		<path class="st3" d="M16.9,30.1l-0.6,7.3c-0.1,0.5,1.2,0.8,1.4,0.1l3-7.8L16.9,30.1z"/>
		<path class="st3" d="M40.1,30.1l0.6,7.3c0.1,0.5-1.2,0.8-1.3,0.1l-3-7.8L40.1,30.1z"/>
		<path class="st3" d="M25.8,26.9h-0.7c-3.7,0-6.1-0.2-7.5-0.5c-1.1-0.3-1.6-0.5-2-1.5c-0.2-0.4-0.6-1.7-0.6-5.4v-0.3
			c0-3.7,0.5-5,0.6-5.4c0.4-0.9,0.9-1.2,2-1.5c1.4-0.3,3.9-0.5,7.5-0.5h0.7c3.7,0,6.1,0.2,7.5,0.5c1.1,0.3,1.6,0.5,2,1.5
			c0.2,0.4,0.6,1.7,0.6,5.4v0.3c0,3.7-0.5,5-0.6,5.4c-0.4,0.9-0.9,1.2-2,1.5C31.9,26.8,29.5,26.9,25.8,26.9L25.8,26.9z M25.2,13.3
			c-3.5,0-5.8,0.1-7.1,0.4c-0.8,0.2-0.9,0.3-1,0.7c-0.1,0.4-0.6,1.4-0.6,4.9v0.3c0,3.5,0.4,4.5,0.6,4.9c0.2,0.4,0.2,0.5,1,0.7
			c1.3,0.3,3.6,0.4,7.1,0.4h0.6c3.5,0,5.8-0.1,7.1-0.4c0.8-0.2,0.9-0.3,1-0.7c0.1-0.4,0.6-1.4,0.6-4.9v-0.3c0-3.5-0.4-4.5-0.6-4.9
			c-0.2-0.4-0.2-0.5-1-0.7c-1.3-0.3-3.6-0.4-7.1-0.4L25.2,13.3L25.2,13.3L25.2,13.3z"/>
		<path class="st3" d="M37,23.9h5v1h-5V23.9z"/>
		<path class="st3" d="M37,21.9h5v1h-5V21.9z"/>
		<path class="st3" d="M31.2,1.2c0,0.8-0.7,1.4-1.5,1.4S28.2,2,28.2,1.2c0-0.8,0.7-1.4,1.5-1.4S31.2,0.4,31.2,1.2L31.2,1.2z"/>
		<path class="st3" d="M34.1,6.6l5.8-8.1L41-0.8l-5.8,8.1L34.1,6.6z"/>
		<path class="st3" d="M41-0.3c-0.8,0.3-1.6-0.1-1.9-0.8c-0.3-0.7,0.1-1.5,0.9-1.8c0.8-0.3,1.6,0.1,1.9,0.8
			C42.2-1.4,41.8-0.6,41-0.3L41-0.3z"/>
	</g>
</g>
<g id="quote" class="st0">
	<path class="st6" d="M27.5-11C42.7-11,55,1.3,55,16.5S42.7,44,27.5,44C12.3,44,0,31.7,0,16.5S12.3-11,27.5-11L27.5-11z"/>
	<g class="st2">
		<path class="st3" d="M45,23.1L43.6,9.9c-0.1-1-1-1.7-2-1.6l-29.1,3.1c-1,0.1-1.7,1-1.6,1.9l1.4,13.2c0.1,1,1,1.7,2,1.6L43.4,25
			C44.4,24.9,45.1,24.1,45,23.1L45,23.1z M19,19.6c-0.4,0.4-0.8,0.6-1.4,0.7c-0.7,0.1-1.2-0.2-1.8-0.6s-0.8-1.2-0.9-2
			c-0.1-1,0.2-2,0.7-2.8s1.5-1.6,2.9-2.2l0,0.6c-0.8,0.4-1.4,0.9-1.8,1.5c-0.4,0.7-0.6,1.3-0.5,2c0,0.1,0,0.2,0.1,0.3
			c0,0,0.1,0.1,0.1,0.1c0,0,0.1,0,0.2-0.1c0.2-0.2,0.5-0.3,0.9-0.3c0.4,0,0.8,0.1,1.2,0.4c0.4,0.3,0.6,0.7,0.6,1.2
			C19.6,18.7,19.4,19.2,19,19.6L19,19.6L19,19.6z M25.1,19.1c-0.4,0.4-0.8,0.6-1.4,0.7c-0.7,0.1-1.2-0.2-1.8-0.6
			c-0.5-0.5-0.8-1.2-0.9-2c-0.1-1,0.2-2,0.7-2.8c0.6-0.9,1.5-1.6,2.9-2.2l0,0.6c-0.8,0.4-1.4,0.9-1.8,1.5c-0.4,0.7-0.6,1.3-0.5,2
			c0,0.1,0,0.2,0.1,0.3c0,0,0.1,0.1,0.1,0.1c0,0,0.1,0,0.2-0.1c0.2-0.2,0.5-0.3,0.9-0.3c0.4,0,0.8,0.1,1.2,0.4
			c0.4,0.3,0.6,0.7,0.6,1.2C25.6,18.2,25.4,18.7,25.1,19.1L25.1,19.1z"/>
		<path class="st3" d="M26.1,8L15,6c-1-0.2-1.9,0.5-2.1,1.4l-0.4,1.9L26.1,8z"/>
		<path class="st3" d="M35.4,27.7l5.1,1.2c1,0.2,1.9-0.5,2.1-1.4l0.1-0.7L35.4,27.7z"/>
	</g>
</g>
<g id="link" class="st0">
	<path class="st7" d="M27.5-11C42.7-11,55,1.3,55,16.5S42.7,44,27.5,44C12.3,44,0,31.7,0,16.5S12.3-11,27.5-11L27.5-11z"/>
	<g class="st2">
		<path class="st3" d="M19.1,10.9c0,1.6-1.4,3-3,3s-3-1.3-3-3s1.4-3,3-3S19.1,9.3,19.1,10.9L19.1,10.9z"/>
		<path class="st3" d="M17.5,13.2l5.7,6.5h-2.5l-3.1-3.2v2.3l4.7,8.2h-3.2l-3-5.8L13.1,27H9.9l4.7-8.2v-2.3l-3.1,3.2H9l6-6.5
			C15,13.2,17.5,13.2,17.5,13.2C17.5,13.2,17.5,13.2,17.5,13.2L17.5,13.2z"/>
		<path class="st3" d="M31,10.9c0,1.6-1.4,3-3,3s-3-1.3-3-3s1.4-3,3-3S31,9.3,31,10.9L31,10.9z"/>
		<path class="st3" d="M29.4,13.2l5.7,6.5h-2.5l-3.1-3.2v2.3l4.7,8.2h-3.2l-3-5.8L25,27h-3.2l4.7-8.2v-2.3l-3.1,3.2h-2.5l6-6.5
			C26.9,13.2,29.4,13.2,29.4,13.2C29.4,13.2,29.4,13.2,29.4,13.2L29.4,13.2z"/>
		<path class="st3" d="M42.9,10.9c0,1.6-1.4,3-3,3s-3-1.3-3-3s1.4-3,3-3S42.9,9.3,42.9,10.9L42.9,10.9z"/>
		<path class="st3" d="M41.3,13.2l5.7,6.5h-2.5l-3.1-3.2v2.3l4.7,8.2H43l-3-5.8L36.9,27h-3.2l4.7-8.2v-2.3l-3.1,3.2h-2.5l6-6.5
			C38.8,13.2,41.3,13.2,41.3,13.2C41.3,13.2,41.3,13.2,41.3,13.2L41.3,13.2z"/>
	</g>
</g>
<rect class="st8" width="378" height="213"/>
<g id="video_1_">
	<g>
		<path class="st9" d="M226.4,137h-74.7c-4.4,0-8-3.4-8-7.6V86.9c0-4.2,3.6-7.6,8-7.6h74.7c4.4,0,8,3.3,8,7.6v42.5
			C234.4,133.5,230.9,137.1,226.4,137L226.4,137L226.4,137L226.4,137z M151.9,84.9c-1.5,0-2.7,1.1-2.7,2.5v41.8
			c0,1.4,1.1,2.5,2.7,2.5h74.3c1.5,0,2.7-1.1,2.7-2.5V87.4c0-1.4-1.2-2.5-2.7-2.5C226.2,84.9,151.9,84.9,151.9,84.9L151.9,84.9
			L151.9,84.9z"/>
		<path class="st9" d="M215.4,81.3c-9.5,0-12.7,0-21.6,0c0-4.3,4.8-7.7,10.8-7.7S215.4,77.2,215.4,81.3L215.4,81.3z"/>
		<path class="st9" d="M209.1,75.9c-4.2,0-5.7,0-9.7,0c0-2.6,2.2-4.6,4.8-4.6C206.9,71.1,209.1,73.4,209.1,75.9L209.1,75.9z"/>
		<path class="st9" d="M201.7,73.4l-4.2-8l3.1-2.3l4.2,8L201.7,73.4z"/>
		<path class="st9" d="M217.9,109.6c0,1.5-1.2,2.7-2.7,2.7s-2.7-1.2-2.7-2.7c0-1.5,1.2-2.8,2.7-2.8
			C216.6,106.9,217.9,108,217.9,109.6L217.9,109.6z"/>
		<path class="st9" d="M226.1,109.6c0,1.5-1.2,2.7-2.7,2.7c-1.5,0-2.7-1.2-2.7-2.7c0-1.5,1.2-2.8,2.7-2.8
			C224.9,106.9,226.2,108,226.1,109.6L226.1,109.6z"/>
		<path class="st9" d="M226.1,97.2c0,3.8-3.1,6.9-6.9,6.9c-3.8,0-6.9-3.1-6.9-6.9c0-3.8,3.1-6.9,6.9-6.9
			C223,90.4,226.1,93.4,226.1,97.2L226.1,97.2z"/>
		<path class="st9" d="M157.3,137.4l-1.8,20.2c-0.2,1.4,3.3,2.2,3.6,0.2l8.1-21.6L157.3,137.4z"/>
		<path class="st9" d="M220.9,137.4l1.8,20.2c0.2,1.4-3.2,2.1-3.7,0.2l-8.1-21.6L220.9,137.4z"/>
		<path class="st9" d="M181.7,128.8h-1.8c-10.1,0-16.9-0.4-20.7-1.3c-3-0.7-4.5-1.4-5.5-4c-0.4-1.2-1.8-4.6-1.8-14.8v-0.9
			c0-10.3,1.3-13.7,1.7-14.8c1-2.6,2.5-3.3,5.5-4c3.9-0.9,10.7-1.3,20.7-1.3h1.8c10.1,0,16.8,0.5,20.6,1.3c3,0.8,4.4,1.4,5.5,4.1
			c0.4,1.1,1.7,4.7,1.7,14.8v0.9c0,10.3-1.3,13.7-1.7,14.8c-1,2.6-2.5,3.3-5.5,4.1C198.6,128.3,191.8,128.8,181.7,128.8
			C181.6,128.8,181.7,128.8,181.7,128.8z M179.9,91.2c-9.5,0-16.1,0.4-19.5,1.2c-2.3,0.5-2.4,0.7-2.8,1.9c-0.4,1-1.5,4-1.5,13.4v0.9
			c0,9.6,1.1,12.4,1.7,13.4c0.4,1.1,0.5,1.4,2.7,1.9c3.5,0.8,9.9,1.1,19.5,1.2h1.8c9.5,0,16.1-0.4,19.5-1.2c2.3-0.5,2.4-0.7,2.8-1.8
			c0.4-1,1.5-4,1.5-13.4v-0.9c0-9.5-1.1-12.4-1.5-13.4c-0.4-1.1-0.6-1.3-2.9-1.8c-3.5-0.8-10-1.2-19.5-1.2h-1.8L179.9,91.2
			C179.9,91.2,179.9,91.2,179.9,91.2L179.9,91.2z"/>
		<path class="st9" d="M212.4,120.5h13.8v2.8h-13.8V120.5z"/>
		<path class="st9" d="M212.4,115h13.8v2.8h-13.8V115z"/>
		<path class="st9" d="M202.2,63.1c0,2.1-1.8,3.9-4.1,3.9c-2.2,0-4.1-1.7-4.1-3.9s1.8-3.9,4.1-3.9C200.4,59.3,202.2,60.9,202.2,63.1
			L202.2,63.1z"/>
		<path class="st9" d="M204.6,71.2l7.6-14.1l3.4,2L208,73.2L204.6,71.2z"/>
		<path class="st9" d="M215.6,60.6c-2.1,0.7-4.4-0.3-5.2-2.3c-0.8-2,0.3-4.2,2.4-5c2.1-0.7,4.4,0.3,5.2,2.3
			C218.8,57.7,217.6,59.9,215.6,60.6L215.6,60.6z"/>
	</g>
</g>
</svg>
