<?xml version="1.0" encoding="UTF-8"?>
<svg width="350px" height="387px" viewBox="0 0 350 387" version="1.1" xmlns="http://www.w3.org/2000/svg" xmlns:xlink="http://www.w3.org/1999/xlink">
    <!-- Generator: Sketch 45.2 (43514) - http://www.bohemiancoding.com/sketch -->
    <title>Logo Slice</title>
    <desc>Created with Sketch.</desc>
    <defs></defs>
    <g id="Page-1" stroke="none" stroke-width="1" fill="none" fill-rule="evenodd" fill-opacity="0.75">
        <g id="Logo" transform="translate(-28.000000, 0.000000)" fill="#FFFFFF">
            <g id="Logo-Part" transform="translate(134.000000, 0.000000)">
                <path d="M86.3871246,19 L87,19 L87,122 L86.3871246,122 C85.9695098,131.682595 77.9875792,139.404297 68.2021484,139.404297 C58.4167177,139.404297 50.4347871,131.682595 50.0171726,122.000007 L50,122 L50,19 L50.0171723,19 C50.0057634,18.7354789 50,18.4694867 50,18.2021484 C50,8.14937944 58.1493794,0 68.2021484,0 C78.2549174,0 86.4042969,8.14937944 86.4042969,18.2021484 C86.4042969,18.4694867 86.3985335,18.7354789 86.3871243,19.0000075 Z" id="Top-Arm"></path>
                <circle id="Path" cx="20.1035156" cy="43.1035156" r="20"></circle>
                <path d="M74.7272292,104.204495 L74.8010104,104.076702 L33.3903385,80.1682399 C31.8341248,78.8813 30.0602828,77.8482334 28.1322506,77.1324814 L27.9027861,77 L27.8792828,77.0407088 C25.9775648,76.3667825 23.9305415,76 21.7978516,76 C11.7450826,76 3.59570312,84.1493794 3.59570312,94.2021484 C3.59570312,102.210519 8.76750047,109.010952 15.9533526,111.445705 L55.5985495,134.33487 C58.8692404,137.474587 63.3103405,139.404297 68.2021484,139.404297 C78.2549174,139.404297 86.4042969,131.254917 86.4042969,121.202148 C86.4042969,113.448922 81.5567936,106.82789 74.7272292,104.204495 Z" id="Bottom-Arm"></path>
            </g>
            <g id="Logo-Part" transform="translate(83.295863, 153.833648) rotate(-60.000000) translate(-83.295863, -153.833648) translate(39.795863, 83.833648)">
                <path d="M86.3871246,19 L87,19 L87,122 L86.3871246,122 C85.9695098,131.682595 77.9875792,139.404297 68.2021484,139.404297 C58.4167177,139.404297 50.4347871,131.682595 50.0171726,122.000007 L50,122 L50,19 L50.0171723,19 C50.0057634,18.7354789 50,18.4694867 50,18.2021484 C50,8.14937944 58.1493794,0 68.2021484,0 C78.2549174,0 86.4042969,8.14937944 86.4042969,18.2021484 C86.4042969,18.4694867 86.3985335,18.7354789 86.3871243,19.0000075 Z" id="Top-Arm"></path>
                <circle id="Path" cx="20.1035156" cy="43.1035156" r="20"></circle>
                <path d="M74.7272292,104.204495 L74.8010104,104.076702 L33.3903385,80.1682399 C31.8341248,78.8813 30.0602828,77.8482334 28.1322506,77.1324814 L27.9027861,77 L27.8792828,77.0407088 C25.9775648,76.3667825 23.9305415,76 21.7978516,76 C11.7450826,76 3.59570312,84.1493794 3.59570312,94.2021484 C3.59570312,102.210519 8.76750047,109.010952 15.9533526,111.445705 L55.5985495,134.33487 C58.8692404,137.474587 63.3103405,139.404297 68.2021484,139.404297 C78.2549174,139.404297 86.4042969,131.254917 86.4042969,121.202148 C86.4042969,113.448922 81.5567936,106.82789 74.7272292,104.204495 Z" id="Bottom-Arm"></path>
            </g>
            <g id="Logo-Part" transform="translate(108.795863, 277.333648) rotate(-120.000000) translate(-108.795863, -277.333648) translate(65.295863, 207.333648)">
                <path d="M86.3871246,19 L87,19 L87,122 L86.3871246,122 C85.9695098,131.682595 77.9875792,139.404297 68.2021484,139.404297 C58.4167177,139.404297 50.4347871,131.682595 50.0171726,122.000007 L50,122 L50,19 L50.0171723,19 C50.0057634,18.7354789 50,18.4694867 50,18.2021484 C50,8.14937944 58.1493794,0 68.2021484,0 C78.2549174,0 86.4042969,8.14937944 86.4042969,18.2021484 C86.4042969,18.4694867 86.3985335,18.7354789 86.3871243,19.0000075 Z" id="Top-Arm"></path>
                <circle id="Path" cx="20.1035156" cy="43.1035156" r="20"></circle>
                <path d="M74.7272292,104.204495 L74.8010104,104.076702 L33.3903385,80.1682399 C31.8341248,78.8813 30.0602828,77.8482334 28.1322506,77.1324814 L27.9027861,77 L27.8792828,77.0407088 C25.9775648,76.3667825 23.9305415,76 21.7978516,76 C11.7450826,76 3.59570312,84.1493794 3.59570312,94.2021484 C3.59570312,102.210519 8.76750047,109.010952 15.9533526,111.445705 L55.5985495,134.33487 C58.8692404,137.474587 63.3103405,139.404297 68.2021484,139.404297 C78.2549174,139.404297 86.4042969,131.254917 86.4042969,121.202148 C86.4042969,113.448922 81.5567936,106.82789 74.7272292,104.204495 Z" id="Bottom-Arm"></path>
            </g>
            <g id="Logo-Part" transform="translate(228.500000, 317.000000) rotate(-180.000000) translate(-228.500000, -317.000000) translate(185.000000, 247.000000)">
                <path d="M86.3871246,19 L87,19 L87,122 L86.3871246,122 C85.9695098,131.682595 77.9875792,139.404297 68.2021484,139.404297 C58.4167177,139.404297 50.4347871,131.682595 50.0171726,122.000007 L50,122 L50,19 L50.0171723,19 C50.0057634,18.7354789 50,18.4694867 50,18.2021484 C50,8.14937944 58.1493794,0 68.2021484,0 C78.2549174,0 86.4042969,8.14937944 86.4042969,18.2021484 C86.4042969,18.4694867 86.3985335,18.7354789 86.3871243,19.0000075 Z" id="Top-Arm"></path>
                <circle id="Path" cx="20.1035156" cy="43.1035156" r="20"></circle>
                <path d="M74.7272292,104.204495 L74.8010104,104.076702 L33.3903385,80.1682399 C31.8341248,78.8813 30.0602828,77.8482334 28.1322506,77.1324814 L27.9027861,77 L27.8792828,77.0407088 C25.9775648,76.3667825 23.9305415,76 21.7978516,76 C11.7450826,76 3.59570312,84.1493794 3.59570312,94.2021484 C3.59570312,102.210519 8.76750047,109.010952 15.9533526,111.445705 L55.5985495,134.33487 C58.8692404,137.474587 63.3103405,139.404297 68.2021484,139.404297 C78.2549174,139.404297 86.4042969,131.254917 86.4042969,121.202148 C86.4042969,113.448922 81.5567936,106.82789 74.7272292,104.204495 Z" id="Bottom-Arm"></path>
            </g>
            <g id="Logo-Part" transform="translate(322.704137, 233.166352) rotate(-240.000000) translate(-322.704137, -233.166352) translate(279.204137, 163.166352)">
                <path d="M86.3871246,19 L87,19 L87,122 L86.3871246,122 C85.9695098,131.682595 77.9875792,139.404297 68.2021484,139.404297 C58.4167177,139.404297 50.4347871,131.682595 50.0171726,122.000007 L50,122 L50,19 L50.0171723,19 C50.0057634,18.7354789 50,18.4694867 50,18.2021484 C50,8.14937944 58.1493794,0 68.2021484,0 C78.2549174,0 86.4042969,8.14937944 86.4042969,18.2021484 C86.4042969,18.4694867 86.3985335,18.7354789 86.3871243,19.0000075 Z" id="Top-Arm"></path>
                <circle id="Path" cx="20.1035156" cy="43.1035156" r="20"></circle>
                <path d="M74.7272292,104.204495 L74.8010104,104.076702 L33.3903385,80.1682399 C31.8341248,78.8813 30.0602828,77.8482334 28.1322506,77.1324814 L27.9027861,77 L27.8792828,77.0407088 C25.9775648,76.3667825 23.9305415,76 21.7978516,76 C11.7450826,76 3.59570312,84.1493794 3.59570312,94.2021484 C3.59570312,102.210519 8.76750047,109.010952 15.9533526,111.445705 L55.5985495,134.33487 C58.8692404,137.474587 63.3103405,139.404297 68.2021484,139.404297 C78.2549174,139.404297 86.4042969,131.254917 86.4042969,121.202148 C86.4042969,113.448922 81.5567936,106.82789 74.7272292,104.204495 Z" id="Bottom-Arm"></path>
            </g>
            <g id="Logo-Part" transform="translate(297.204137, 109.666352) rotate(-300.000000) translate(-297.204137, -109.666352) translate(253.704137, 39.666352)">
                <path d="M86.3871246,19 L87,19 L87,122 L86.3871246,122 C85.9695098,131.682595 77.9875792,139.404297 68.2021484,139.404297 C58.4167177,139.404297 50.4347871,131.682595 50.0171726,122.000007 L50,122 L50,19 L50.0171723,19 C50.0057634,18.7354789 50,18.4694867 50,18.2021484 C50,8.14937944 58.1493794,0 68.2021484,0 C78.2549174,0 86.4042969,8.14937944 86.4042969,18.2021484 C86.4042969,18.4694867 86.3985335,18.7354789 86.3871243,19.0000075 Z" id="Top-Arm"></path>
                <circle id="Path" cx="20.1035156" cy="43.1035156" r="20"></circle>
                <path d="M74.7272292,104.204495 L74.8010104,104.076702 L33.3903385,80.1682399 C31.8341248,78.8813 30.0602828,77.8482334 28.1322506,77.1324814 L27.9027861,77 L27.8792828,77.0407088 C25.9775648,76.3667825 23.9305415,76 21.7978516,76 C11.7450826,76 3.59570312,84.1493794 3.59570312,94.2021484 C3.59570312,102.210519 8.76750047,109.010952 15.9533526,111.445705 L55.5985495,134.33487 C58.8692404,137.474587 63.3103405,139.404297 68.2021484,139.404297 C78.2549174,139.404297 86.4042969,131.254917 86.4042969,121.202148 C86.4042969,113.448922 81.5567936,106.82789 74.7272292,104.204495 Z" id="Bottom-Arm"></path>
            </g>
        </g>
    </g>
</svg>
