<?xml version="1.0" standalone="no"?>
<!DOCTYPE svg PUBLIC "-//W3C//DTD SVG 1.1//EN" "http://www.w3.org/Graphics/SVG/1.1/DTD/svg11.dtd" >
<svg xmlns="http://www.w3.org/2000/svg">
<metadata></metadata>
<defs>
<font id="flexodemi" horiz-adv-x="1379" >
<font-face units-per-em="2048" ascent="1618" descent="-430" />
<missing-glyph horiz-adv-x="537" />
<glyph unicode="&#xfb01;" horiz-adv-x="1293" d="M46 921v173h185v105q0 161 86 247t255 86q73 0 144 -11l-17 -162h-81q-73 0 -113 -38.5t-40 -114.5v-112h680v-1094h-235v921h-445v-921h-234v921h-185zM885 1390q0 80 30.5 111t111.5 31t111.5 -30.5t30.5 -111.5t-30 -111.5t-112 -30.5t-112 30.5t-30 111.5z" />
<glyph unicode="&#xfb02;" horiz-adv-x="1279" d="M46 921v173h185v105q0 161 86 247t255 86q270 0 554 -15v-1223q0 -75 18.5 -132t61.5 -114l-204 -97q-110 125 -110 332v1076h-274q-73 0 -113 -38.5t-40 -114.5v-112h231v-173h-231v-921h-234v921h-185z" />
<glyph unicode="&#xfb03;" horiz-adv-x="1982" d="M46 921v173h185v105q0 161 86 247t255 86q73 0 144 -11l-17 -162h-81q-73 0 -113 -38.5t-40 -114.5v-112h455v105q0 161 86 247t255 86q73 0 144 -11l-17 -162h-80q-73 0 -113.5 -38.5t-40.5 -114.5v-112h680v-1094h-235v921h-445v-921h-234v921h-455v-921h-234v921h-185 zM1575 1390q0 81 30 111.5t111 30.5t111.5 -30.5t30.5 -111.5t-30 -111.5t-112 -30.5t-111.5 30.5t-29.5 111.5z" />
<glyph unicode="&#xfb04;" horiz-adv-x="1968" d="M46 921v173h185v105q0 161 86 247t255 86q73 0 144 -11l-17 -162h-81q-73 0 -113 -38.5t-40 -114.5v-112h455v105q0 161 86 247t255 86q271 0 554 -15v-1223q0 -75 18.5 -132t61.5 -114l-203 -97q-111 126 -111 332v1076h-273q-73 0 -113.5 -38.5t-40.5 -114.5v-112h232 v-173h-232v-921h-234v921h-455v-921h-234v921h-185z" />
<glyph horiz-adv-x="2048" />
<glyph horiz-adv-x="2048" />
<glyph unicode="&#xd;" horiz-adv-x="2048" />
<glyph unicode=" "  horiz-adv-x="537" />
<glyph unicode="&#x09;" horiz-adv-x="537" />
<glyph unicode="&#xa0;" horiz-adv-x="537" />
<glyph unicode="!" horiz-adv-x="572" d="M144 127q0 80 30.5 111t111.5 31t111.5 -30.5t30.5 -111.5t-30 -111.5t-112 -30.5t-112 30.5t-30 111.5zM146 1432h279l-40 -1015h-199z" />
<glyph unicode="&#x22;" horiz-adv-x="794" d="M122 1517h210l-18 -551h-173zM463 1517h210l-18 -551h-173z" />
<glyph unicode="#" horiz-adv-x="1184" d="M74 413v170h223l38 267h-207v171h231l59 411h173l-59 -411h224l60 411h173l-60 -411h180v-171h-204l-38 -267h185v-170h-210l-60 -413h-174l61 413h-225l-59 -413h-174l61 413h-198zM470 583h224l38 267h-224z" />
<glyph unicode="$" horiz-adv-x="1037" d="M70 1016q0 185 92 274t279 108v192h168v-188q178 -6 334 -38l-21 -186q-183 27 -296 27q-33 0 -55 -0.5t-58 -4t-60.5 -9.5t-53 -18t-46 -28.5t-29.5 -43t-12 -59.5q0 -46 12 -80t32.5 -55.5t54 -38t69 -27.5t85.5 -24l24 -6q100 -27 167 -59t116.5 -80t72.5 -116.5 t23 -162.5q0 -186 -93 -282t-277 -118v-194h-168v187q-186 3 -357 39l23 191q201 -29 358 -29q131 0 197.5 41.5t66.5 157.5q0 42 -13.5 75t-33.5 53.5t-52.5 37.5t-62.5 27.5t-71 22.5l-21 6q-59 18 -100.5 33t-86 35.5t-73.5 42t-56.5 51t-43.5 65t-25 81t-9 100.5z" />
<glyph unicode="%" horiz-adv-x="1744" d="M85 1014q0 91 7.5 154.5t27.5 117.5t55.5 86t90.5 49.5t133 17.5q77 0 132.5 -17.5t90.5 -49.5t55.5 -86t28 -118t7.5 -154t-7.5 -153.5t-28 -117.5t-55.5 -86t-90.5 -49.5t-132.5 -17.5q-78 0 -133 17.5t-90.5 49.5t-55.5 86t-27.5 117.5t-7.5 153.5zM256 1014 q0 -46 0.5 -72.5t3.5 -62t8.5 -55.5t16 -42.5t25.5 -34t37.5 -19t51.5 -7.5q34 0 59 8.5t40.5 29t24.5 42t13.5 60.5t5.5 69.5t1 83.5t-1 84t-5.5 69.5t-13.5 60t-24.5 42.5t-40.5 29.5t-59 8.5q-29 0 -51.5 -7.5t-37.5 -19t-25.5 -34.5t-16 -43t-8.5 -55.5t-3.5 -62 t-0.5 -72.5zM367 -29l840 1490h168l-840 -1490h-168zM1030 417q0 90 7.5 153.5t27.5 118t55.5 86.5t90.5 49.5t132 17.5q97 0 159 -25.5t96 -82t46.5 -130t12.5 -187.5t-12.5 -187.5t-46.5 -130t-96 -81.5t-159 -25q-96 0 -158 25t-96 81.5t-46.5 130t-12.5 187.5zM1200 417 q0 -46 0.5 -72.5t3.5 -62t8.5 -55.5t16 -42.5t25.5 -34t37.5 -19t51.5 -7.5t51.5 7.5t37.5 19t25.5 34t16 42.5t8.5 55.5t3.5 62t0.5 72.5t-0.5 72.5t-3.5 62t-8.5 55.5t-16 43t-25.5 34.5t-37.5 19t-51.5 7.5t-51.5 -7.5t-37.5 -19t-25.5 -34.5t-16 -43t-8.5 -55.5 t-3.5 -62t-0.5 -72.5z" />
<glyph unicode="&#x26;" horiz-adv-x="1384" d="M84 398q0 140 75 230.5t220 152.5q-39 48 -56.5 71.5t-43 67t-36 88.5t-10.5 99q0 91 29.5 158t83 105.5t121.5 57t152 18.5q76 0 140.5 -17.5t117.5 -54t83.5 -99.5t30.5 -148q0 -255 -308 -387l273 -303q40 85 51 241l219 -9q-23 -237 -125 -403l239 -266h-283l-96 112 q-73 -69 -169 -98t-231 -29q-242 0 -359.5 102.5t-117.5 310.5zM319 380q0 -56 24 -99t63 -68t84.5 -37.5t93.5 -12.5q147 0 246 101l-334 379q-64 -40 -97.5 -69.5t-56.5 -78t-23 -115.5zM452 1102q0 -47 18 -91t38.5 -70.5t59.5 -69.5q42 21 72.5 40.5t63.5 48.5 t50.5 65.5t17.5 79.5q0 166 -159 166q-72 0 -116.5 -40.5t-44.5 -128.5z" />
<glyph unicode="'" horiz-adv-x="452" d="M122 1517h209l-18 -551h-173z" />
<glyph unicode="(" horiz-adv-x="635" d="M98 570q0 138 15.5 259t52.5 243t105.5 229.5t165.5 191.5l131 -108q-233 -233 -233 -815q0 -583 233 -816l-131 -107q-97 84 -165.5 191.5t-105.5 229.5t-52.5 243t-15.5 259z" />
<glyph unicode=")" horiz-adv-x="635" d="M68 -246q232 232 232 816q0 583 -232 815l130 108q340 -293 340 -923t-340 -923z" />
<glyph unicode="*" horiz-adv-x="929" d="M66 1002v162h256l-129 223l144 82l128 -222l127 222l144 -82l-131 -223h259v-162h-259l129 -225l-142 -78l-127 219l-128 -219l-143 80l129 223h-257z" />
<glyph unicode="+" horiz-adv-x="1182" d="M83 497v211h400v402h215v-402h402v-211h-402v-404h-215v404h-400z" />
<glyph unicode="," horiz-adv-x="521" d="M54 -269l125 514h265l-193 -514h-197z" />
<glyph unicode="-" horiz-adv-x="793" d="M131 446v196h531v-196h-531z" />
<glyph unicode="." horiz-adv-x="519" d="M118 127q0 81 30 111.5t111 30.5t111.5 -30.5t30.5 -111.5t-30 -111.5t-112 -30.5t-111.5 30.5t-29.5 111.5z" />
<glyph unicode="/" horiz-adv-x="908" d="M54 -165l581 1647h206l-582 -1647h-205z" />
<glyph unicode="0" horiz-adv-x="1273" d="M125 694q0 151 12.5 257.5t45.5 196.5t90.5 143.5t147 82.5t216.5 29t216.5 -29t147 -82.5t90.5 -143.5t45.5 -196.5t12.5 -257.5t-12.5 -257.5t-45.5 -196.5t-90.5 -143.5t-147 -82.5t-216.5 -29t-216.5 29t-147 82.5t-90.5 143.5t-45.5 196.5t-12.5 257.5zM369 694 q0 -95 2 -148t9.5 -122.5t24.5 -106t46 -73.5t75.5 -52t110.5 -15q43 0 78 8t61.5 21t46.5 37t33.5 47t23 61.5t14.5 70t8 83t3.5 89.5t0.5 100t-0.5 100t-3.5 89.5t-8 83t-14.5 70.5t-23 62t-33.5 47t-46.5 37t-61.5 21t-78 8t-78 -8t-61 -21t-46.5 -37.5t-34 -47 t-22.5 -61.5t-14.5 -70t-8 -83t-3 -90t-0.5 -100z" />
<glyph unicode="1" horiz-adv-x="755" d="M28 1278q203 30 374 111h195v-1389h-241v1148q-138 -37 -318 -59z" />
<glyph unicode="2" horiz-adv-x="1160" d="M95 0q27 150 44.5 228t48.5 167t72.5 138t106.5 96.5t160 88.5q76 32 124.5 59.5t85.5 62.5t53 77.5t16 98.5q0 114 -74 151t-282 37q-136 0 -311 -28l-22 183q235 44 445 44q88 0 158.5 -9.5t133.5 -33.5t105.5 -62.5t67 -99t24.5 -139.5q0 -185 -101 -309.5 t-304 -206.5q-82 -33 -132 -64t-79.5 -73t-42.5 -85t-22 -114h680v-207h-955z" />
<glyph unicode="3" horiz-adv-x="1147" d="M90 29l26 185q230 -29 341 -29q91 0 148.5 8.5t101.5 32.5t63 68.5t19 115.5q0 184 -167 205q-119 14 -284 14h-30v177q162 3 314 25q81 12 116 60.5t35 132.5q0 50 -14.5 84.5t-36.5 53.5t-61.5 29.5t-75.5 13t-93 2.5q-145 0 -364 -29l-24 182q228 43 412 43 q86 0 154.5 -8t136 -30.5t112.5 -60.5t73 -101.5t28 -148.5q0 -227 -201 -323q107 -42 165 -116t58 -195q0 -123 -36 -208.5t-107.5 -134.5t-166.5 -70.5t-224 -21.5q-181 0 -418 44z" />
<glyph unicode="4" horiz-adv-x="1212" d="M52 451q0 80 95 202l488 629q53 68 99 94.5t103 26.5q55 0 90 -37t35 -109v-752h176v-184h-176v-321h-238v321h-505q-92 0 -129.5 34t-37.5 96zM292 505h433v575z" />
<glyph unicode="5" horiz-adv-x="1158" d="M101 30l26 186q206 -30 344 -30q65 0 109 3.5t84 14t63.5 29t41.5 49t25 74t7 104.5q0 48 -15.5 84.5t-45.5 59.5t-64.5 38t-82.5 22t-88 9.5t-92 2.5q-143 0 -280 -7l50 720h836v-206h-629l-22 -324q48 3 95 3q80 0 141.5 -4t126 -15t110.5 -30.5t88.5 -52t68.5 -77 t41 -107.5t15 -142q0 -236 -130 -342.5t-389 -106.5q-219 0 -434 45z" />
<glyph unicode="6" horiz-adv-x="1239" d="M118 562q0 167 13 285.5t46.5 216.5t88 159t141.5 103.5t202.5 59.5t275.5 17q42 0 154 -2l20 -190q-32 -2 -100 -3t-113 -2.5t-111 -9t-111 -20.5t-95 -39t-80.5 -62t-51 -92t-21.5 -128q155 21 272 21q123 0 210 -19t155 -66.5t101.5 -134t33.5 -215.5q0 -108 -25 -188 t-69 -131t-112 -82t-145.5 -43t-178.5 -12q-100 0 -178 17.5t-132.5 53.5t-92 84t-58.5 115.5t-30 140.5t-9 166zM358 534q0 -61 4.5 -107t20 -95.5t42.5 -81t74.5 -52t113.5 -20.5q169 0 232 58.5t63 207.5q0 147 -72 199.5t-225 52.5q-89 0 -248 -23q-5 -55 -5 -139z" />
<glyph unicode="7" horiz-adv-x="1060" d="M61 1183v206h821q69 0 107 -30t38 -82q0 -37 -21 -82l-540 -1195h-277l581 1183h-709z" />
<glyph unicode="8" horiz-adv-x="1243" d="M108 380q0 123 53 198t171 142q-109 58 -156.5 136t-47.5 205q0 342 494 342q77 0 143 -8.5t133 -31.5t114 -60t76.5 -99t29.5 -143q0 -125 -40.5 -198.5t-164.5 -139.5q115 -63 169.5 -140.5t54.5 -202.5q0 -94 -27 -165t-72.5 -114.5t-113.5 -70t-139.5 -36 t-162.5 -9.5q-119 0 -209 19.5t-160.5 63.5t-107.5 122.5t-37 189.5zM343 386q0 -64 20.5 -107.5t60.5 -66t86.5 -31.5t111.5 -9q63 0 109.5 9t86.5 31.5t61 66t21 107.5q0 82 -25.5 127t-97.5 72t-212 41q-222 -42 -222 -240zM356 1027q0 -49 12 -82t46 -62.5t100.5 -46.5 t168.5 -22q112 27 161 73t49 140q0 49 -14 85t-37 57t-59.5 33t-73.5 16t-87 4q-49 0 -84.5 -3.5t-71.5 -16t-59 -33t-37 -56.5t-14 -86z" />
<glyph unicode="9" horiz-adv-x="1239" d="M90 948q0 134 37 225t110.5 140.5t165 69.5t218.5 20q120 0 208 -26.5t144 -73.5t89 -121t46 -158.5t13 -196.5q0 -167 -13 -285.5t-46.5 -216.5t-88 -159.5t-142 -103.5t-203 -59.5t-275.5 -17.5q-8 0 -21 0.5t-49 1t-83 1.5l-20 190q32 2 100 3t113 2.5t111 9t111 20.5 t95 39t80.5 62t51 92t21.5 128q-163 -22 -272 -22q-98 0 -172 11.5t-138 41t-104.5 78.5t-63.5 125t-23 180zM331 945q0 -147 72 -199.5t225 -52.5q96 0 248 22q5 55 5 140q0 61 -4.5 107t-20 95.5t-42.5 81t-74.5 52t-113.5 20.5q-169 0 -232 -58.5t-63 -207.5z" />
<glyph unicode=":" horiz-adv-x="577" d="M147 127q0 80 30.5 111t111.5 31t111.5 -30.5t30.5 -111.5t-30 -111.5t-112 -30.5t-112 30.5t-30 111.5zM147 867q0 80 30.5 111t111.5 31t111.5 -30.5t30.5 -111.5t-30 -111.5t-112 -30.5t-112 30.5t-30 111.5z" />
<glyph unicode=";" horiz-adv-x="568" d="M76 -269l124 514h266l-194 -514h-196zM196 867q0 81 30 111.5t111 30.5t111.5 -30.5t30.5 -111.5t-30 -111.5t-112 -30.5t-111.5 30.5t-29.5 111.5z" />
<glyph unicode="&#x3c;" horiz-adv-x="1253" d="M79 504v195l1033 440v-223l-751 -314l751 -316v-222z" />
<glyph unicode="=" horiz-adv-x="1296" d="M139 277v211h1017v-211h-1017zM139 715v210h1017v-210h-1017z" />
<glyph unicode="&#x3e;" horiz-adv-x="1253" d="M141 64v222l752 316l-752 314v223l1033 -440v-195z" />
<glyph unicode="?" horiz-adv-x="1066" d="M61 1402q198 44 410 44q73 0 129 -4t113 -15.5t98 -30.5t78 -51t60 -76t36 -106t13 -140q0 -100 -24.5 -170.5t-64.5 -106.5t-88 -58t-96 -32t-88.5 -20.5t-66.5 -32.5t-27 -60l-5 -126h-201l-5 132q-2 24 -2 51q0 56 14 94.5t38 58.5t55 32t65 17.5t68 11.5t65 18.5 t55 33t38 60t14 96.5q0 129 -62.5 173.5t-243.5 44.5q-180 0 -333 -30zM296 127q0 81 30 111.5t111 30.5t111.5 -30.5t30.5 -111.5t-30 -111.5t-112 -30.5t-111.5 30.5t-29.5 111.5z" />
<glyph unicode="@" horiz-adv-x="1839" d="M104 547q0 197 55 338.5t165 227.5t263 125.5t359 39.5q86 0 155 -17.5t125.5 -56t87.5 -107.5t31 -164v-430q0 -102 -9 -201q-70 -43 -185 -69.5t-243 -26.5q-217 0 -314.5 84t-97.5 257q0 146 70 230t224 113q78 15 326 29q0 99 -39 136.5t-142 37.5 q-147 0 -252.5 -26.5t-185 -88t-119 -169t-39.5 -262.5q0 -153 38.5 -259.5t116 -168.5t182.5 -89.5t249 -27.5q145 0 249.5 27.5t182 89.5t116 168.5t38.5 259.5q0 119 -25 213l224 65q36 -125 36 -278q0 -380 -207 -555t-614 -175q-408 0 -614.5 174.5t-206.5 555.5z M726 551q0 -98 52.5 -134t164.5 -36q34 0 87 11t80 26q6 53 6 147v202q-159 -5 -235 -27q-61 -17 -91.5 -35t-47 -54.5t-16.5 -99.5z" />
<glyph unicode="A" horiz-adv-x="1368" d="M39 0l434 1276q58 170 215 170t214 -170l427 -1276h-265l-121 380h-528l-119 -380h-257zM474 569h409l-206 648z" />
<glyph unicode="B" horiz-adv-x="1316" d="M162 23v1386q200 37 457 37q91 0 164 -7.5t152 -31.5t131.5 -63.5t87 -110t34.5 -165.5q0 -119 -54 -208t-158 -128q234 -78 234 -359q0 -68 -16 -124t-43.5 -95.5t-69 -69.5t-88.5 -49t-106 -30t-117 -15.5t-126 -4.5q-268 0 -482 38zM410 194q107 -14 226 -14 q80 0 133.5 8t100.5 31t69.5 69.5t22.5 118.5q0 60 -17 103t-45 68.5t-72.5 40.5t-90.5 20t-108 5h-219v-450zM410 820h219q61 0 104.5 4.5t86 18.5t68.5 38t41.5 64.5t15.5 96.5t-16 95.5t-41 62t-69.5 35t-88.5 16t-111 3.5q-99 0 -209 -14v-420z" />
<glyph unicode="C" horiz-adv-x="1143" d="M119 716q0 159 16 272t55 204t106 144.5t168 81.5t242 28q203 0 359 -39l-22 -190q-153 24 -281 24q-81 0 -142.5 -14.5t-102.5 -35t-69 -63.5t-42.5 -77t-22 -100t-8.5 -109t-1 -126t1 -126t8.5 -109.5t22 -100.5t42.5 -76.5t69 -63t102.5 -35t142.5 -14.5q135 0 281 23 l22 -189q-160 -40 -359 -40q-141 0 -242 28t-168 82t-106 145t-55 204t-16 272z" />
<glyph unicode="D" horiz-adv-x="1371" d="M162 23v1386q200 37 457 37q100 0 180.5 -11t143 -35t110 -56.5t81.5 -80.5t56 -102t35 -126t18 -147.5t5 -171.5q0 -110 -7 -194t-24.5 -163.5t-48 -135.5t-78 -103t-113.5 -75.5t-155 -44t-203 -15.5q-251 0 -457 38zM412 198q90 -12 167 -12q61 0 112.5 6t90.5 21 t70 30t53.5 43.5t38.5 51t25.5 63t15.5 68t8.5 78t3 81.5t0.5 88t-0.5 88t-3 81.5t-8.5 78t-15.5 68t-25.5 63t-38.5 51t-53.5 43.5t-70 30t-90.5 21t-112.5 6q-69 0 -167 -13v-1035z" />
<glyph unicode="E" horiz-adv-x="1142" d="M154 334v763q0 68 14.5 120.5t37 88t62 60.5t75.5 38t92.5 20.5t99.5 9t108 1.5q191 0 378 -9v-190h-384q-103 0 -151 -18.5t-65.5 -63t-17.5 -140.5v-188h590v-195h-590v-213q0 -96 17.5 -140.5t65.5 -63t151 -18.5h384v-190q-208 -10 -378 -10q-65 0 -108 1.5t-99.5 9 t-92.5 20.5t-75.5 38t-62 60.5t-37 88t-14.5 120.5z" />
<glyph unicode="F" horiz-adv-x="1086" d="M157 0v1097q0 68 14.5 120.5t37 88t62 60.5t75.5 38t92.5 20.5t99.5 9t108 1.5q191 0 378 -9v-190h-384q-78 0 -121.5 -8.5t-69.5 -35t-34 -66.5t-8 -112v-188h590v-195h-590v-631h-250z" />
<glyph unicode="G" horiz-adv-x="1318" d="M121 716q0 133 11 233t37 184.5t69 141t108.5 96t154.5 57.5t207 18q257 0 447 -38l-22 -191q-161 24 -369 24q-81 0 -142.5 -15t-102.5 -35t-69 -63t-42 -77t-21.5 -100.5t-8.5 -109t-1 -125.5t1 -125.5t8.5 -109t21.5 -100.5t42 -77t69 -63t102.5 -35t142.5 -15 q61 0 99 8.5t55 28t21.5 38.5t4.5 52v275h-246v191h492v-536q0 -52 -13 -92.5t-33.5 -68t-56.5 -46.5t-72 -30t-91 -17t-101 -7.5t-115 -1.5q-118 0 -207 18.5t-154 58.5t-108.5 97.5t-69.5 142t-37 183.5t-11 231z" />
<glyph unicode="H" horiz-adv-x="1410" d="M162 0v1432h250v-599h586v599h251v-1432h-251v631h-586v-631h-250z" />
<glyph unicode="I" horiz-adv-x="570" d="M160 0v1432h250v-1432h-250z" />
<glyph unicode="J" horiz-adv-x="835" d="M21 27l21 187q96 -30 196 -30q38 0 70.5 11t62 36.5t46.5 74.5t17 117v1009h251v-967q0 -132 -20 -220t-69.5 -148t-131.5 -86t-207 -26q-133 0 -236 42z" />
<glyph unicode="K" horiz-adv-x="1279" d="M162 0v1432h250v-664l526 664h289l-562 -686l573 -746h-304l-522 703v-703h-250z" />
<glyph unicode="L" horiz-adv-x="1013" d="M157 334v1098h250v-1014q0 -96 17.5 -140.5t65.5 -63t151 -18.5h359v-191q-239 -9 -354 -9q-65 0 -108 1.5t-99.5 9t-92.5 20.5t-75.5 38t-62 60.5t-37 88t-14.5 120.5z" />
<glyph unicode="M" horiz-adv-x="1727" d="M136 0l58 1270q5 92 43 134t121 42q57 0 106 -38t79 -114l318 -801l322 797q31 76 81 116t107 40q83 0 121.5 -42t43.5 -135l56 -1269h-241l-45 1096h-1l-303 -799q-38 -103 -139 -103t-141 103l-308 797h-2l-46 -1094h-230z" />
<glyph unicode="N" horiz-adv-x="1438" d="M162 0v1265q0 181 154 181q68 0 121.5 -37t98.5 -122l518 -976v1121h223v-1265q0 -182 -154 -182q-71 0 -123 36.5t-98 124.5l-517 978v-1124h-223z" />
<glyph unicode="O" d="M123 716q0 201 26.5 334t91.5 224.5t174 131.5t275 40t275 -40t174 -131.5t91.5 -224.5t26.5 -334q0 -161 -17 -276t-55.5 -204.5t-104.5 -143t-161.5 -80.5t-228.5 -27t-228.5 27t-161.5 80.5t-104.5 143t-55.5 204.5t-17 276zM377 716q0 -56 0.5 -91t2.5 -83.5t7 -78 t12.5 -68t19.5 -61.5t29 -49.5t40 -42t52.5 -29t67 -19.5t82.5 -6t82.5 6t67 19.5t52.5 29t40 42t29 49.5t19.5 61.5t12.5 68t7 78t2.5 83.5t0.5 91t-0.5 91t-2.5 83.5t-7 78t-12.5 68t-19.5 61.5t-29 49.5t-40 42t-52.5 29t-67 19.5t-82.5 6t-82.5 -6t-67 -19.5t-52.5 -29 t-40 -42t-29 -49.5t-19.5 -61.5t-12.5 -68t-7 -78t-2.5 -83.5t-0.5 -91z" />
<glyph unicode="P" horiz-adv-x="1251" d="M162 0v1409q200 37 457 37q104 0 181.5 -9t154 -37.5t125.5 -76.5t79 -129.5t30 -193.5q0 -110 -27 -191t-73.5 -131t-118.5 -80.5t-151 -41.5t-183 -11q-110 0 -224 7v-552h-250zM412 747q69 -9 207 -9q165 0 243.5 56.5t78.5 205.5q0 138 -69.5 196t-244.5 58 q-108 0 -215 -14v-493z" />
<glyph unicode="Q" d="M123 716q0 201 26.5 334t91.5 224.5t174 131.5t275 40t275 -40t174 -131.5t91.5 -224.5t26.5 -334q0 -316 -72.5 -481t-253.5 -220q44 -67 100.5 -107t161.5 -94l-160 -114q-9 5 -35.5 17.5t-38.5 18.5t-37.5 19t-39.5 22t-37 24t-37.5 28t-33.5 31.5t-32.5 36.5t-27 41 t-24.5 47q-133 0 -228.5 27t-161.5 80.5t-104.5 143t-55.5 204.5t-17 276zM377 716q0 -56 0.5 -91t2.5 -83.5t7 -78t12.5 -68t19.5 -61.5t29 -49.5t40 -42t52.5 -29t67 -19.5t82.5 -6t82.5 6t67 19.5t52.5 29t40 42t29 49.5t19.5 61.5t12.5 68t7 78t2.5 83.5t0.5 91t-0.5 91 t-2.5 83.5t-7 78t-12.5 68t-19.5 61.5t-29 49.5t-40 42t-52.5 29t-67 19.5t-82.5 6t-82.5 -6t-67 -19.5t-52.5 -29t-40 -42t-29 -49.5t-19.5 -61.5t-12.5 -68t-7 -78t-2.5 -83.5t-0.5 -91z" />
<glyph unicode="R" horiz-adv-x="1306" d="M162 0v1409q200 37 457 37q103 0 180 -9t154 -37t126 -75.5t79.5 -128t30.5 -191.5q0 -187 -77 -286.5t-221 -136.5l335 -582h-291l-304 556q-109 0 -219 7v-563h-250zM412 759q69 -9 207 -9q163 0 242.5 55t79.5 201q0 135 -70.5 192t-243.5 57q-108 0 -215 -14v-482z " />
<glyph unicode="S" horiz-adv-x="1122" d="M102 1046q0 218 125 309t380 91q201 0 395 -40l-22 -192q-182 28 -305 28q-34 0 -57 -0.5t-59.5 -4t-62 -10t-55 -19t-48 -30t-30.5 -44.5t-12 -61q0 -47 12.5 -81.5t32.5 -56t55 -38.5t70 -28t86 -25q21 -5 31 -8q103 -28 172 -60.5t120.5 -82.5t75 -120t23.5 -167 q0 -224 -132 -322.5t-393 -98.5q-201 0 -399 41l24 198q216 -30 369 -30q136 0 204.5 42.5t68.5 161.5q0 43 -13.5 76.5t-34 55t-54 39t-63.5 28t-74 23.5q-16 4 -24 7q-86 26 -142 47.5t-111 55.5t-85.5 75t-49 101.5t-18.5 139.5z" />
<glyph unicode="T" horiz-adv-x="1053" d="M37 1233v199h979v-199h-365v-1233h-250v1233h-364z" />
<glyph unicode="U" horiz-adv-x="1366" d="M151 476v956h247v-972q0 -144 64.5 -206t219.5 -62t220 62t65 206v972h246v-956q0 -114 -25 -199.5t-69 -141t-112 -89.5t-146 -47.5t-179 -13.5t-179 13.5t-146 47.5t-112 89.5t-69 141t-25 199.5z" />
<glyph unicode="V" horiz-adv-x="1308" d="M37 1432h266l354 -1168l359 1168h255l-416 -1275q-29 -91 -78 -131.5t-122 -40.5t-121.5 40.5t-78.5 131.5z" />
<glyph unicode="W" horiz-adv-x="1837" d="M70 1432h251l219 -1159h1l206 828q22 89 65.5 128.5t112.5 39.5q68 0 112 -40t65 -129l199 -826h2l221 1158h244l-271 -1268q-38 -179 -184 -179t-190 178l-204 823l-203 -823q-44 -178 -189 -178q-147 0 -185 178z" />
<glyph unicode="X" horiz-adv-x="1327" d="M58 0l465 729l-447 703h284l305 -497l308 497h269l-443 -695l470 -737h-288l-328 527l-320 -527h-275z" />
<glyph unicode="Y" horiz-adv-x="1216" d="M22 1432h268l319 -638l327 638h258l-462 -879v-553h-250v553z" />
<glyph unicode="Z" horiz-adv-x="1156" d="M84 93q0 43 34 99l626 1038h-616v202h796q68 0 103.5 -24.5t35.5 -68.5q0 -42 -34 -99l-623 -1037h651v-203h-833q-68 0 -104 24t-36 69z" />
<glyph unicode="[" horiz-adv-x="644" d="M160 -334v1814h422v-175h-206v-1462h205v-177h-421z" />
<glyph unicode="\" horiz-adv-x="908" d="M68 1482h205l581 -1647h-205z" />
<glyph unicode="]" horiz-adv-x="644" d="M63 1305v175h422v-1814h-421v177h205v1462h-206z" />
<glyph unicode="^" horiz-adv-x="1048" d="M74 625l353 807h195l353 -807h-219l-231 536l-232 -536h-219z" />
<glyph unicode="_" horiz-adv-x="1026" d="M-6 -186h1038v-103h-1038v103z" />
<glyph unicode="`" horiz-adv-x="517" d="M16 1479h255l192 -324h-181z" />
<glyph unicode="a" horiz-adv-x="1144" d="M94 326q0 148 70 234t224 109q111 17 388 29q0 116 -55 172t-178 56q-156 0 -380 -28l-19 171q236 40 421 40q77 0 139 -9t119.5 -32.5t96.5 -61.5t62 -99.5t23 -142.5v-482q0 -91 -10 -201q-170 -96 -489 -96q-217 0 -314.5 84t-97.5 257zM324 330q0 -98 52.5 -134 t164.5 -36q148 0 228 37q7 62 7 147v202q-222 -9 -297 -27q-89 -20 -122 -58t-33 -131z" />
<glyph unicode="b" horiz-adv-x="1187" d="M148 282v1235h233v-438q123 30 239 30q171 0 273.5 -52.5t153.5 -176t51 -333.5q0 -161 -28.5 -269t-93 -173t-158 -92.5t-231.5 -27.5q-260 0 -430 96q-9 99 -9 201zM381 348q0 -84 7 -146q70 -37 199 -37q55 0 97.5 11t71.5 28.5t49.5 47.5t31.5 59t17 72.5t7.5 78 t1.5 85.5q0 83 -3 126.5t-18 101t-45.5 85t-88.5 48t-143 20.5q-94 0 -184 -30v-550z" />
<glyph unicode="c" horiz-adv-x="969" d="M111 558q0 94 8 165.5t28 136t55.5 108.5t88.5 77t129 48.5t175 15.5q150 0 278 -38l-19 -173q-128 23 -190 23q-63 0 -108.5 -5.5t-80 -16t-57 -32.5t-37 -46.5t-21.5 -67t-9.5 -85.5t-2.5 -110q0 -47 0.5 -76.5t3 -66t7.5 -58.5t13 -48.5t20 -42t29.5 -32.5t40.5 -26 t53 -17t67 -11t83 -3q62 0 188 24l21 -178q-161 -38 -339 -38q-89 0 -158 21t-114.5 62t-76 91.5t-46.5 118.5t-22.5 133.5t-6.5 146.5z" />
<glyph unicode="d" horiz-adv-x="1188" d="M90 547q0 210 51 333.5t153.5 176t273.5 52.5q116 0 239 -30v438h233v-1235q0 -91 -10 -201q-170 -96 -430 -96q-138 0 -231.5 27.5t-157.5 93t-92.5 173t-28.5 268.5zM325 547q0 -51 1.5 -85.5t7.5 -78t17 -72t31.5 -59t49 -48t71 -28.5t97.5 -11q130 0 200 37 q7 62 7 146v550q-90 30 -185 30q-85 0 -142.5 -20.5t-88 -48t-46 -85t-18 -101t-2.5 -126.5z" />
<glyph unicode="e" horiz-adv-x="1178" d="M108 547q0 152 25 256t82.5 173.5t150 101t229.5 31.5q116 0 201 -25t138 -68.5t84.5 -112.5t43 -146.5t11.5 -181.5q0 -39 -3 -81q-92 -16 -257 -33t-280 -22l-193 -8q4 -77 26 -129t61.5 -80t88 -39.5t116.5 -11.5q168 0 392 28l20 -174q-251 -40 -473 -40 q-108 0 -189 28t-132.5 76t-84 120.5t-45 154t-12.5 183.5zM334 590l220 10q148 7 282 25q3 21 3 51q0 130 -56 193.5t-188 63.5q-67 0 -115 -17.5t-76 -45.5t-44 -74.5t-21 -93t-5 -112.5z" />
<glyph unicode="f" horiz-adv-x="743" d="M46 921v173h185v105q0 161 86 247t255 86q73 0 144 -11l-17 -162h-81q-73 0 -113 -38.5t-40 -114.5v-112h231v-173h-231v-921h-234v921h-185z" />
<glyph unicode="g" horiz-adv-x="1200" d="M104 559q0 157 29.5 263t94 169.5t157.5 90.5t229 27q261 0 431 -96q9 -99 9 -201v-885q0 -81 -23 -142.5t-62 -99.5t-96.5 -61.5t-119.5 -32.5t-139 -9q-187 0 -441 43l19 171q217 -31 396 -31q123 0 178 56t55 172v47q-123 -30 -239 -30q-126 0 -213.5 27.5t-148 91 t-88.5 169t-28 261.5zM339 559q0 -47 1 -77.5t5 -70t13 -64t23 -52.5t36 -45t52.5 -32t72.5 -21.5t95 -6.5q91 0 184 31v525q0 85 -7 147q-70 37 -200 37q-53 0 -95 -11t-71 -28t-49.5 -46t-32 -57.5t-17.5 -70t-8 -76t-2 -82.5z" />
<glyph unicode="h" horiz-adv-x="1200" d="M151 0v1517h233v-449q131 41 270 41q81 0 145 -11t108.5 -29.5t76.5 -48.5t50.5 -62t29 -76.5t14 -85t3.5 -94.5v-702h-233v674q0 71 -8.5 113.5t-35.5 75.5t-78.5 46t-135.5 13q-110 0 -206 -43v-879h-233z" />
<glyph unicode="i" horiz-adv-x="532" d="M124 1390q0 81 30 111.5t111 30.5t111.5 -30.5t30.5 -111.5t-30 -111.5t-112 -30.5t-111.5 30.5t-29.5 111.5zM149 0v1094h234v-1094h-234z" />
<glyph unicode="j" horiz-adv-x="537" d="M-92 -415l18 172q45 5 73.5 10t60.5 18.5t50 34t30 55.5t12 84v1135h234v-1092q0 -226 -99.5 -323t-323.5 -97q-28 0 -55 3zM127 1390q0 80 30.5 111t111.5 31t111 -30.5t30 -111.5t-29.5 -111.5t-111.5 -30.5t-112 30.5t-30 111.5z" />
<glyph unicode="k" horiz-adv-x="1104" d="M151 0v1517h232v-907l412 484h266l-451 -510l475 -584h-283l-419 538v-538h-232z" />
<glyph unicode="l" horiz-adv-x="513" d="M125 283v1234h234v-1223q0 -75 18.5 -132t61.5 -114l-203 -97q-111 126 -111 332z" />
<glyph unicode="m" horiz-adv-x="1778" d="M149 0v812q0 102 9 201q89 44 209.5 70t245.5 26q177 0 272 -69q172 69 353 69q100 0 172 -22t114 -57t66.5 -90t32 -110t7.5 -128v-702h-233v677q0 131 -45 189t-172 58q-106 0 -192 -48q18 -68 18 -174v-702h-234v677q0 131 -45 189t-171 58q-42 0 -90 -10t-78 -26 q-6 -53 -6 -147v-741h-233z" />
<glyph unicode="n" horiz-adv-x="1218" d="M148 0v812q0 102 9 201q195 96 494 96q81 0 144.5 -11t108 -29.5t76.5 -48.5t50 -62t29 -76.5t14 -85t3 -94.5v-702h-234v677q0 72 -8.5 114t-35 75t-77 46t-134.5 13q-129 0 -199 -37q-7 -62 -7 -147v-741h-233z" />
<glyph unicode="o" horiz-adv-x="1195" d="M110 547q0 308 109.5 435t377.5 127q267 0 377.5 -129t110.5 -433t-110.5 -433t-377.5 -129q-268 0 -377.5 127t-109.5 435zM345 547q0 -116 11 -186.5t41 -114t76.5 -59.5t123.5 -16q148 0 200.5 79t52.5 297t-52.5 297.5t-200.5 79.5q-102 0 -154.5 -32t-75 -111.5 t-22.5 -233.5z" />
<glyph unicode="p" horiz-adv-x="1188" d="M149 -403v1215q0 102 9 201q170 96 430 96q138 0 231.5 -27.5t158 -92.5t93 -173t28.5 -269q0 -210 -51 -333.5t-153.5 -176t-273.5 -52.5q-116 0 -239 30v-418h-233zM382 197q93 -31 184 -31q85 0 142.5 20.5t88 48t46 85t18 101t2.5 126.5q0 51 -1.5 85.5t-7.5 78 t-17 72.5t-31.5 59.5t-49 48t-71 28.5t-97.5 11q-130 0 -200 -37q-6 -53 -6 -147v-549z" />
<glyph unicode="q" horiz-adv-x="1188" d="M90 547q0 161 28.5 269t93 173t158 92.5t231.5 27.5q260 0 430 -96q9 -99 9 -201v-1215h-233v418q-123 -30 -239 -30q-171 0 -273.5 52.5t-153.5 176t-51 333.5zM326 547q0 -83 2.5 -126.5t18 -101t46 -85t88 -48t142.5 -20.5q91 0 184 31v549q0 94 -6 147 q-70 37 -200 37q-55 0 -97.5 -11t-71 -28.5t-49 -48t-31.5 -59.5t-17 -72.5t-7.5 -78t-1.5 -85.5z" />
<glyph unicode="r" horiz-adv-x="726" d="M147 0v812q0 102 9 201q170 96 430 96q59 0 102 -4l-18 -186q-42 5 -84 5q-130 0 -200 -37q-6 -53 -6 -147v-740h-233z" />
<glyph unicode="s" horiz-adv-x="1000" d="M102 28l22 175q168 -30 291 -30h42.5t45 2.5t50 6.5t43 13t39 22.5t24 34t10.5 47.5q0 26 -6 46.5t-19.5 36t-26 26t-36 19.5t-38.5 14t-44.5 13t-43.5 12q-144 43 -199 74q-123 69 -141 206q-3 25 -3 54q0 87 29 149t83.5 96t121 49t152.5 15q199 0 389 -42l-22 -172 q-159 30 -274 30q-27 0 -42 -0.5t-44.5 -2.5t-48 -6t-42 -12t-37 -19.5t-23 -30t-9.5 -41.5q0 -28 11 -50.5t25.5 -36.5t42 -27.5t45.5 -20t52 -17t47 -14.5q11 -4 33 -11q37 -12 55.5 -18.5t51 -19.5t49 -22t41.5 -25t37.5 -31.5t28.5 -38t23.5 -47.5t13 -57t5.5 -69 q0 -92 -32 -156.5t-92 -100t-133.5 -51t-168.5 -15.5q-203 0 -378 43z" />
<glyph unicode="t" horiz-adv-x="766" d="M45 921v173h185v271l235 38v-309h227v-173h-227v-617q0 -78 34 -108.5t112 -30.5q41 0 83 3l18 -167q-91 -16 -166 -16q-165 0 -240.5 73t-75.5 226v637h-185z" />
<glyph unicode="u" horiz-adv-x="1213" d="M141 393v701h234v-676q0 -72 8 -113.5t34.5 -75t77 -46.5t133.5 -13q130 0 198 36q7 62 7 147v741h232v-812q0 -102 -9 -201q-195 -96 -492 -96q-81 0 -144.5 11t-107.5 29.5t-75.5 49t-50 62t-29 76.5t-13.5 85.5t-3 94.5z" />
<glyph unicode="v" horiz-adv-x="1157" d="M49 1094h247l288 -873l289 873h237l-343 -958q-54 -151 -189 -151q-134 0 -188 151z" />
<glyph unicode="w" horiz-adv-x="1690" d="M68 1094h239l193 -870l190 641q43 143 160 143q119 0 161 -143l187 -639l195 868h230l-246 -956q-40 -153 -172 -153q-129 0 -176 153l-184 598l-183 -597q-47 -154 -176 -154q-134 0 -174 154z" />
<glyph unicode="x" horiz-adv-x="1184" d="M66 0l395 566l-366 528h267l238 -357l238 357h248l-365 -523l397 -571h-273l-264 394l-260 -394h-255z" />
<glyph unicode="y" horiz-adv-x="1101" d="M41 1094h247l300 -731l234 731h237l-510 -1497h-236l169 477z" />
<glyph unicode="z" horiz-adv-x="1124" d="M101 74q0 40 32 83l554 759h-542v178h776q43 0 68.5 -19.5t25.5 -53.5q0 -40 -32 -83l-551 -751h550v-187h-787q-43 0 -68.5 20t-25.5 54z" />
<glyph unicode="{" horiz-adv-x="646" d="M66 495v158q91 9 121.5 101t30.5 319q0 110 22.5 185t71.5 118.5t111.5 64t155.5 28.5l19 -157q-46 -6 -78 -23t-50 -39t-27.5 -58t-12 -68t-2.5 -81v-105q0 -46 -0.5 -69.5t-4 -68.5t-12 -73t-22.5 -61t-38 -56t-57 -37q44 -22 73 -63.5t41 -97.5t16 -100.5t4 -103.5 v-105q0 -49 2.5 -81t12 -68t27.5 -58t50 -38.5t78 -22.5l-19 -157q-93 8 -155.5 28.5t-111.5 64t-71.5 118.5t-22.5 185q0 228 -30.5 320t-121.5 101z" />
<glyph unicode="|" horiz-adv-x="516" d="M159 -403v1920h198v-1920h-198z" />
<glyph unicode="}" horiz-adv-x="646" d="M49 -165q46 6 78 22.5t49.5 38.5t27 58t12 68t2.5 81v105q0 59 4 103.5t16.5 100.5t41.5 97.5t73 63.5q-33 14 -57 37t-38 56t-23 61.5t-12.5 72.5t-4 68.5t-0.5 69.5v105q0 49 -2.5 81t-12 68t-27 58t-49.5 39t-78 23l18 157q93 -8 155.5 -28.5t111.5 -64t71.5 -118.5 t22.5 -185q0 -227 31 -319t122 -101v-158q-91 -9 -122 -101.5t-31 -319.5q0 -110 -22.5 -185t-71.5 -118.5t-111.5 -64t-155.5 -28.5z" />
<glyph unicode="~" horiz-adv-x="1270" d="M109 463q17 187 97.5 286t195.5 99q68 0 125 -18.5t94.5 -44.5t70.5 -52t68 -44.5t71 -18.5q94 0 125 170h205q-17 -187 -97.5 -286t-195.5 -99q-68 0 -125 18.5t-94.5 44.5t-70.5 52t-68 44.5t-71 18.5q-49 0 -79 -41.5t-45 -128.5h-206z" />
<glyph unicode="&#xa1;" horiz-adv-x="559" d="M138 954q0 81 30 111.5t112 30.5t112 -30.5t30 -111.5q0 -80 -30.5 -111t-111.5 -31t-111.5 30.5t-30.5 111.5zM141 -351l40 1015h199l40 -1015h-279z" />
<glyph unicode="&#xa2;" horiz-adv-x="886" d="M88 705q0 97 8.5 169t31 136.5t61 107.5t98.5 72.5t143 41.5v192h157v-185q125 -3 239 -36l-17 -168q-130 22 -184 22q-71 0 -120 -6t-84 -24.5t-54.5 -41.5t-31 -67t-14.5 -90.5t-3 -122.5q0 -51 1 -82t4 -69.5t9 -60.5t16.5 -48.5t26.5 -41t39 -30t53.5 -22.5 t69.5 -11.5t89 -4.5q60 0 182 24l20 -172q-116 -27 -241 -35v-188h-157v189q-85 10 -147.5 45.5t-99 85t-58.5 121.5t-29.5 142t-7.5 158z" />
<glyph unicode="&#xa3;" horiz-adv-x="1211" d="M85 611v180h176q-15 110 -15 225q0 90 26 159t69.5 111.5t108.5 69t135.5 37t156.5 10.5q70 0 125 -11t100 -36t76 -49.5t76 -67.5l-122 -144q-62 54 -118 80t-129 26q-147 0 -202.5 -54t-55.5 -178q0 -56 14 -178h308v-180h-289q4 -74 4 -116q0 -59 -19.5 -140 t-46.5 -150h279q183 0 339 24l22 -189q-70 -17 -200 -28.5t-268 -11.5h-330q-62 0 -92.5 26t-30.5 68q0 24 18 64.5t39.5 81t39.5 106t18 133.5q0 59 -10 132h-202z" />
<glyph unicode="&#xa4;" horiz-adv-x="1297" d="M104 286l150 146q-75 116 -75 253q0 141 77 257l-152 149l137 138l151 -151q115 76 256 76t256 -74l149 148l140 -137l-151 -147q79 -119 79 -259t-79 -254l151 -145l-140 -140l-149 151q-118 -76 -256 -76q-142 0 -258 76l-149 -151zM380 685q0 -109 77.5 -189 t190.5 -80q108 0 189.5 78.5t81.5 190.5q0 113 -79 193.5t-192 80.5q-109 0 -188.5 -80t-79.5 -194z" />
<glyph unicode="&#xa5;" horiz-adv-x="1136" d="M57 1389h247l265 -606l273 606h238l-297 -646h153v-151h-223l-25 -56v-75h248v-149h-248v-312h-243v312h-245v149h245v75l-25 56h-220v151h151z" />
<glyph unicode="&#xa6;" horiz-adv-x="475" d="M139 -289v661h198v-661h-198zM139 743v660h198v-660h-198z" />
<glyph unicode="&#xa7;" horiz-adv-x="1129" d="M87 636q0 168 172 275q-85 88 -85 197q0 151 111 244.5t304 93.5q199 0 389 -42l-22 -171q-173 32 -332 32q-104 0 -161 -36.5t-57 -105.5q0 -30 16 -57.5t37 -46.5t61.5 -41t69 -34.5t78.5 -32.5q46 -19 76 -32t73.5 -35.5t72.5 -42.5t61 -50t51 -61.5t31.5 -72.5 t12.5 -87q0 -163 -175 -269q99 -93 99 -220q0 -94 -41.5 -162.5t-112 -105.5t-149 -53.5t-166.5 -16.5q-199 0 -389 42l23 176q173 -32 331 -32h45t48 3t52.5 7.5t45.5 15t40.5 25t25.5 38t11 53.5q0 22 -8 41.5t-18.5 34.5t-33 31.5t-38.5 26.5t-49.5 25.5t-51.5 23 t-58 23.5t-62 25t-60 26.5t-60.5 31t-54.5 34.5t-51 40.5t-41 47t-33.5 55.5t-19.5 64t-8 75zM299 654q0 -59 38.5 -105.5t134.5 -91.5q39 -18 122.5 -47.5t125.5 -49.5q110 60 110 151q0 62 -45 109t-153 96q-31 14 -108.5 43t-119.5 50q-105 -58 -105 -155z" />
<glyph unicode="&#xa8;" horiz-adv-x="874" d="M111 1303q0 51 37 87t89 36q51 0 85 -35.5t34 -87.5t-34 -87.5t-85 -35.5q-52 0 -89 36t-37 87zM518 1303q0 52 35.5 87.5t87.5 35.5t87 -35.5t35 -87.5t-35 -87.5t-87 -35.5t-87.5 35.5t-35.5 87.5z" />
<glyph unicode="&#xa9;" horiz-adv-x="1648" d="M94 718q0 199 98 366.5t266 264.5t367 97q149 0 284 -57.5t233 -154.5t155.5 -232t57.5 -284q0 -199 -97.5 -367.5t-265.5 -267t-367 -98.5q-149 0 -284.5 58t-233 156.5t-155.5 234t-58 284.5zM240 718q0 -124 45.5 -234.5t123.5 -189t186.5 -124.5t229.5 -46 q162 0 296 77.5t211 214t77 302.5q0 164 -77 299.5t-211 213t-296 77.5q-121 0 -229.5 -46t-186.5 -124.5t-123.5 -188t-45.5 -231.5zM456 718q0 113 41.5 209.5t129 159.5t206.5 63q80 0 152.5 -28.5t129 -94t68.5 -156.5h-160q-11 71 -62 109.5t-128 38.5 q-93 0 -149.5 -80.5t-56.5 -220.5t54.5 -218.5t151.5 -78.5q73 0 125 44t65 119h160q-12 -137 -112.5 -220t-237.5 -83q-123 0 -209.5 58.5t-127 155.5t-40.5 223z" />
<glyph unicode="&#xaa;" horiz-adv-x="860" d="M105 879q0 200 203 233q69 11 260 19q0 79 -36.5 116.5t-118.5 37.5q-115 0 -261 -19l-13 117q156 27 289 27q67 0 117.5 -10.5t94 -35.5t66.5 -72.5t23 -116.5v-326q0 -69 -6 -136q-120 -67 -335 -67q-149 0 -216 57.5t-67 175.5zM268 881q0 -66 34.5 -90.5t109.5 -24.5 q100 0 153 25q3 87 3 99v137q-147 -6 -198 -18q-58 -13 -80 -39t-22 -89z" />
<glyph unicode="&#xab;" horiz-adv-x="1110" d="M55 530l298 421h226l-271 -421l271 -421h-226zM504 530l298 421h225l-269 -421l269 -421h-225z" />
<glyph unicode="&#xac;" horiz-adv-x="1276" d="M111 607v211h1017v-634h-223v423h-794z" />
<glyph unicode="&#xad;" horiz-adv-x="793" d="M131 446v196h531v-196h-531z" />
<glyph unicode="&#xae;" horiz-adv-x="1059" d="M86 1003q0 184 129.5 313.5t314.5 129.5q184 0 314 -129.5t130 -313.5t-130 -314.5t-314 -130.5t-314 130t-130 315zM188 1003q0 -147 99 -247t243 -100t243 100t99 247q0 146 -99 246t-243 100t-243 -100t-99 -246zM361 761v500h180q198 0 198 -149q0 -106 -94 -136 l105 -215h-121l-95 199h-65v-199h-108zM469 1048h59q104 0 104 64q0 33 -25 46.5t-82 13.5h-56v-124z" />
<glyph unicode="&#xaf;" horiz-adv-x="886" d="M138 1222v153h610v-153h-610z" />
<glyph unicode="&#xb0;" horiz-adv-x="800" d="M84 1131q0 131 92 223t223 92t223.5 -92.5t92.5 -222.5t-92.5 -222.5t-223.5 -92.5t-223 92t-92 223zM224 1131q0 -74 51 -125t124 -51q74 0 125.5 51.5t51.5 124.5t-51.5 124.5t-125.5 51.5q-73 0 -124 -51t-51 -125z" />
<glyph unicode="&#xb1;" horiz-adv-x="1216" d="M100 3v210h1016v-210h-1016zM100 656v210h398v333h221v-333h397v-210h-397v-336h-221v336h-398z" />
<glyph unicode="&#xb2;" horiz-adv-x="714" d="M58 836q12 65 19.5 102.5t19.5 83t24 71.5t30.5 55.5t42 49t55 39t72.5 37.5q84 35 119.5 70.5t35.5 95.5t-41 80t-154 20q-62 0 -193 -19l-15 126q159 29 274 29q68 0 119.5 -10t94 -33.5t64.5 -66t22 -102.5q0 -111 -61 -186t-184 -124q-82 -33 -111.5 -70t-40.5 -108 h397v-140h-589z" />
<glyph unicode="&#xb3;" horiz-adv-x="706" d="M55 857l18 126q150 -19 211 -19q98 0 139.5 24.5t41.5 97.5q0 100 -85 111q-59 8 -169 8h-27v122q109 3 195 15q76 12 76 103q0 62 -36.5 80.5t-113.5 18.5q-69 0 -225 -20l-17 125q146 28 256 28q53 0 95 -4.5t83.5 -18.5t69 -37t44.5 -62t17 -91q0 -126 -108 -189 q121 -55 121 -182q0 -145 -82.5 -205t-243.5 -60q-107 0 -260 29z" />
<glyph unicode="&#xb4;" horiz-adv-x="517" d="M55 1155l191 324h255l-266 -324h-180z" />
<glyph unicode="&#xb5;" horiz-adv-x="1295" d="M175 -403v1497h216v-666q0 -111 54 -179t154 -68q135 0 200.5 116.5t65.5 318.5v478h217v-676q0 -47 0.5 -68t3 -57t8.5 -53.5t16.5 -39.5t28 -35t41.5 -21v-159q-227 0 -283 213q-101 -213 -299 -213q-123 0 -208 91v-479h-215z" />
<glyph unicode="&#xb6;" horiz-adv-x="1308" d="M60 998q0 214 140.5 324t390.5 110h553v-1747h-186v1588h-235v-1588h-187v894q-137 3 -246.5 60t-169.5 151.5t-60 207.5z" />
<glyph unicode="&#xb7;" horiz-adv-x="535" d="M126 587q0 81 30 111.5t111 30.5t111.5 -30.5t30.5 -111.5t-30 -111.5t-112 -30.5t-111.5 30.5t-29.5 111.5z" />
<glyph unicode="&#xb8;" horiz-adv-x="450" d="M3 -393l37 97q65 -33 127 -33q34 0 57.5 14.5t23.5 45.5q0 30 -32.5 50.5t-69.5 27t-73 6.5l109 185h135l-74 -116q64 -4 112.5 -43.5t48.5 -101.5q0 -61 -34 -101.5t-85 -57t-115 -16.5q-95 0 -167 43z" />
<glyph unicode="&#xb9;" horiz-adv-x="479" d="M18 1602q127 18 230 66h131v-830h-168v667q-88 -21 -186 -33z" />
<glyph unicode="&#xba;" horiz-adv-x="884" d="M108 1029q0 209 75.5 295t258.5 86t258.5 -87.5t75.5 -293.5q0 -207 -75.5 -295t-258.5 -88t-258.5 87t-75.5 296zM274 1029q0 -152 34.5 -203.5t133.5 -51.5t134 53.5t35 201.5q0 147 -35 200.5t-134 53.5t-133.5 -51t-34.5 -203z" />
<glyph unicode="&#xbb;" horiz-adv-x="1110" d="M84 109l269 421l-269 421h225l298 -421l-298 -421h-225zM532 109l271 421l-271 421h226l298 -421l-298 -421h-226z" />
<glyph unicode="&#xbc;" horiz-adv-x="1536" d="M61 1363q133 21 230 67h131v-831h-168v667q-93 -22 -185 -32zM235 -29l841 1490h168l-841 -1490h-168zM796 273q0 49 59 125l285 368q33 41 62.5 57.5t66.5 16.5q39 0 63 -24t24 -71v-430h103v-127h-103v-188h-167v188h-281q-62 0 -87 22t-25 63zM973 315h217v287z" />
<glyph unicode="&#xbd;" horiz-adv-x="1713" d="M65 1363q133 21 230 67h131v-831h-168v667q-93 -22 -185 -32zM240 -29l840 1490h168l-841 -1490h-167zM1033 0q14 77 22.5 118.5t23.5 91.5t31 77t42 57.5t60.5 51.5t83.5 42q84 36 119 71t35 95q0 61 -40.5 80.5t-153.5 19.5q-82 0 -194 -18l-16 125q159 29 275 29 q68 0 119.5 -10t94 -33t64.5 -65t22 -103q0 -112 -61 -187t-184 -124q-82 -33 -111.5 -70t-39.5 -108h396v-140h-588z" />
<glyph unicode="&#xbe;" horiz-adv-x="1683" d="M81 618l18 127q150 -19 211 -19q98 0 139 24.5t41 98.5q0 99 -84 110q-59 8 -169 8h-27v122q109 3 195 15q76 12 76 103q0 62 -36.5 80t-113.5 18t-225 -19l-17 125q146 28 256 28q67 0 117.5 -8.5t96.5 -30.5t70.5 -66t24.5 -109q0 -125 -108 -188q121 -55 121 -182 q0 -145 -83 -205t-244 -60q-112 0 -259 28zM383 -29l840 1490h169l-841 -1490h-168zM943 273q0 50 58 125l286 368q32 41 61.5 57.5t66.5 16.5q39 0 63 -24t24 -71v-430h104v-127h-104v-188h-166v188h-282q-61 0 -86 22t-25 63zM1120 315h216v287z" />
<glyph unicode="&#xbf;" horiz-adv-x="1066" d="M68 58q0 100 25 170.5t64.5 106.5t87.5 58t96.5 32t89 20.5t66.5 32.5t27 60l4 126h202l5 -132q2 -24 2 -51q0 -56 -14 -94.5t-38 -58.5t-55 -32t-65 -18l-68 -12t-65 -18t-55 -33t-38 -60.5t-14 -96.5q0 -88 27 -133.5t91 -64.5t188 -19q180 0 333 30l41 -192 q-203 -45 -409 -45q-73 0 -129 4t-113 15.5t-98.5 31t-78.5 51.5t-60 76t-36 106t-13 140zM487 954q0 81 30 111.5t112 30.5t112 -30.5t30 -111.5q0 -80 -30.5 -111t-111.5 -31t-111.5 30.5t-30.5 111.5z" />
<glyph unicode="&#xc0;" horiz-adv-x="1368" d="M39 0l434 1276q58 170 215 170t214 -170l427 -1276h-265l-121 380h-528l-119 -380h-257zM312 1837h272l206 -262h-193zM474 569h409l-206 648z" />
<glyph unicode="&#xc1;" horiz-adv-x="1368" d="M39 0l434 1276q58 170 215 170t214 -170l427 -1276h-265l-121 380h-528l-119 -380h-257zM474 569h409l-206 648zM586 1563l205 262h273l-285 -262h-193z" />
<glyph unicode="&#xc2;" horiz-adv-x="1368" d="M39 0l434 1276q58 170 215 170t214 -170l427 -1276h-265l-121 380h-528l-119 -380h-257zM361 1563l242 262h158l247 -262h-193l-130 151l-133 -151h-191zM474 569h409l-206 648z" />
<glyph unicode="&#xc3;" horiz-adv-x="1368" d="M39 0l434 1276q58 170 215 170t214 -170l427 -1276h-265l-121 380h-528l-119 -380h-257zM404 1579q9 112 58 173.5t113 61.5q42 0 75 -16.5t49.5 -36t36.5 -36t38 -16.5q47 0 62 100h129q-9 -113 -58 -174t-113 -61q-42 0 -75 16.5t-49.5 36t-36.5 36t-38 16.5 q-49 0 -63 -100h-128zM474 569h409l-206 648z" />
<glyph unicode="&#xc4;" horiz-adv-x="1368" d="M39 0l434 1276q58 170 215 170t214 -170l427 -1276h-265l-121 380h-528l-119 -380h-257zM359 1690q0 52 36.5 87.5t88.5 35.5q51 0 85.5 -35.5t34.5 -87.5t-34 -87t-86 -35t-88.5 35.5t-36.5 86.5zM474 569h409l-206 648zM766 1690q0 52 35.5 87.5t87.5 35.5t86.5 -35.5 t34.5 -87.5t-34.5 -87t-86.5 -35t-87.5 35t-35.5 87z" />
<glyph unicode="&#xc5;" horiz-adv-x="1368" d="M39 0l434 1276q58 170 215 170t214 -170l427 -1276h-265l-121 380h-528l-119 -380h-257zM473 1755q0 88 62 150t150 62t149.5 -62t61.5 -150t-61.5 -149.5t-149.5 -61.5t-150 61.5t-62 149.5zM474 569h409l-206 648zM573 1755q0 -46 33 -78.5t79 -32.5t78.5 32.5 t32.5 78.5t-32.5 78.5t-78.5 32.5t-79 -32.5t-33 -78.5z" />
<glyph unicode="&#xc6;" horiz-adv-x="1869" d="M39 0l429 1247q21 60 54.5 100.5t79.5 61.5t95 29t112 8q126 0 213 -63q61 33 143 42.5t205 9.5q191 0 378 -9v-190h-384q-78 0 -121.5 -8.5t-69.5 -35t-34 -66.5t-8 -112v-188h589v-195h-589v-213q0 -72 8 -112t34 -66.5t69.5 -35t121.5 -8.5h384v-190 q-208 -10 -378 -10q-65 0 -108 1.5t-99.5 9t-92.5 20.5t-75.5 38t-62 60.5t-37 88t-14.5 120.5v46h-464l-121 -380h-257zM476 569h405v538q0 72 -24.5 104t-75.5 32q-49 0 -79 -29t-50 -90z" />
<glyph unicode="&#xc7;" horiz-adv-x="1143" d="M119 716q0 159 16 272t55 204t106 144.5t168 81.5t242 28q203 0 359 -39l-22 -190q-153 24 -281 24q-81 0 -142.5 -14.5t-102.5 -35t-69 -63.5t-42.5 -77t-22 -100t-8.5 -109t-1 -126t1 -126t8.5 -109.5t22 -100.5t42.5 -76.5t69 -63t102.5 -35t142.5 -14.5q135 0 281 23 l22 -189q-143 -35 -315 -39l-58 -92q64 -4 112 -43.5t48 -101.5q0 -61 -34 -101.5t-85 -57t-115 -16.5q-94 0 -166 43l36 97q65 -33 128 -33q34 0 57.5 14.5t23.5 45.5q0 23 -18.5 40.5t-47.5 26.5t-56.5 13t-53.5 4l97 163q-148 10 -245.5 57t-153.5 140.5t-78 219 t-22 311.5z" />
<glyph unicode="&#xc8;" horiz-adv-x="1142" d="M154 334v763q0 68 14.5 120.5t37 88t62 60.5t75.5 38t92.5 20.5t99.5 9t108 1.5q191 0 378 -9v-190h-384q-103 0 -151 -18.5t-65.5 -63t-17.5 -140.5v-188h590v-195h-590v-213q0 -96 17.5 -140.5t65.5 -63t151 -18.5h384v-190q-208 -10 -378 -10q-65 0 -108 1.5t-99.5 9 t-92.5 20.5t-75.5 38t-62 60.5t-37 88t-14.5 120.5zM331 1814h272l206 -262h-193z" />
<glyph unicode="&#xc9;" horiz-adv-x="1142" d="M154 334v763q0 68 14.5 120.5t37 88t62 60.5t75.5 38t92.5 20.5t99.5 9t108 1.5q191 0 378 -9v-190h-384q-103 0 -151 -18.5t-65.5 -63t-17.5 -140.5v-188h590v-195h-590v-213q0 -96 17.5 -140.5t65.5 -63t151 -18.5h384v-190q-208 -10 -378 -10q-65 0 -108 1.5t-99.5 9 t-92.5 20.5t-75.5 38t-62 60.5t-37 88t-14.5 120.5zM474 1552l206 262h272l-284 -262h-194z" />
<glyph unicode="&#xca;" horiz-adv-x="1142" d="M154 334v763q0 68 14.5 120.5t37 88t62 60.5t75.5 38t92.5 20.5t99.5 9t108 1.5q191 0 378 -9v-190h-384q-103 0 -151 -18.5t-65.5 -63t-17.5 -140.5v-188h590v-195h-590v-213q0 -96 17.5 -140.5t65.5 -63t151 -18.5h384v-190q-208 -10 -378 -10q-65 0 -108 1.5t-99.5 9 t-92.5 20.5t-75.5 38t-62 60.5t-37 88t-14.5 120.5zM295 1552l241 262h159l246 -262h-193l-129 151l-134 -151h-190z" />
<glyph unicode="&#xcb;" horiz-adv-x="1142" d="M154 334v763q0 68 14.5 120.5t37 88t62 60.5t75.5 38t92.5 20.5t99.5 9t108 1.5q191 0 378 -9v-190h-384q-103 0 -151 -18.5t-65.5 -63t-17.5 -140.5v-188h590v-195h-590v-213q0 -96 17.5 -140.5t65.5 -63t151 -18.5h384v-190q-208 -10 -378 -10q-65 0 -108 1.5t-99.5 9 t-92.5 20.5t-75.5 38t-62 60.5t-37 88t-14.5 120.5zM294 1681q0 51 36.5 86.5t88.5 35.5t86 -35t34 -87t-34.5 -87.5t-85.5 -35.5q-52 0 -88.5 35.5t-36.5 87.5zM700 1681q0 52 36 87t88 35t86.5 -35t34.5 -87t-34.5 -87.5t-86.5 -35.5t-88 35.5t-36 87.5z" />
<glyph unicode="&#xcc;" horiz-adv-x="570" d="M-86 1819h273l205 -263h-193zM160 0v1432h250v-1432h-250z" />
<glyph unicode="&#xcd;" horiz-adv-x="570" d="M160 0v1432h250v-1432h-250zM178 1556l205 263h273l-285 -263h-193z" />
<glyph unicode="&#xce;" horiz-adv-x="570" d="M-38 1547l241 262h159l246 -262h-193l-129 151l-134 -151h-190zM160 0v1432h250v-1432h-250z" />
<glyph unicode="&#xcf;" horiz-adv-x="570" d="M-41 1676q0 51 37 87t89 36q51 0 85.5 -35.5t34.5 -87.5t-34 -87t-86 -35t-89 35.5t-37 86.5zM160 0v1432h250v-1432h-250zM366 1676q0 52 36 87.5t88 35.5t86.5 -35.5t34.5 -87.5t-34.5 -87t-86.5 -35t-88 35t-36 87z" />
<glyph unicode="&#xd0;" horiz-adv-x="1419" d="M95 652v173h115v584q200 37 457 37q100 0 180.5 -11t143 -35t110 -56.5t81.5 -80.5t56 -102t35 -126t18 -147.5t5 -171.5q0 -110 -7 -194t-24.5 -163.5t-48 -135.5t-78 -103t-113.5 -75.5t-155 -44t-203 -15.5q-251 0 -457 38v629h-115zM460 198q90 -12 167 -12 q61 0 112.5 6t90.5 21t70 30t53.5 43.5t38.5 51t25.5 63t15.5 68t8.5 78t3 81.5t0.5 88t-0.5 88t-3 81.5t-8.5 78t-15.5 68t-25.5 63t-38.5 51t-53.5 43.5t-70 30t-90.5 21t-112.5 6q-69 0 -167 -13v-408h215v-173h-215v-454z" />
<glyph unicode="&#xd1;" horiz-adv-x="1438" d="M162 0v1265q0 181 154 181q68 0 121.5 -37t98.5 -122l518 -976v1121h223v-1265q0 -182 -154 -182q-71 0 -123 36.5t-98 124.5l-517 978v-1124h-223zM445 1578q9 112 58 173.5t113 61.5q42 0 75 -16.5t49.5 -36t36.5 -36t38 -16.5q47 0 62 100h129q-9 -113 -58 -174 t-113 -61q-42 0 -75 16.5t-49.5 36t-36.5 36t-38 16.5q-49 0 -63 -100h-128z" />
<glyph unicode="&#xd2;" d="M123 716q0 201 26.5 334t91.5 224.5t174 131.5t275 40t275 -40t174 -131.5t91.5 -224.5t26.5 -334q0 -161 -17 -276t-55.5 -204.5t-104.5 -143t-161.5 -80.5t-228.5 -27t-228.5 27t-161.5 80.5t-104.5 143t-55.5 204.5t-17 276zM372 1818h273l205 -262h-193zM377 716 q0 -56 0.5 -91t2.5 -83.5t7 -78t12.5 -68t19.5 -61.5t29 -49.5t40 -42t52.5 -29t67 -19.5t82.5 -6t82.5 6t67 19.5t52.5 29t40 42t29 49.5t19.5 61.5t12.5 68t7 78t2.5 83.5t0.5 91t-0.5 91t-2.5 83.5t-7 78t-12.5 68t-19.5 61.5t-29 49.5t-40 42t-52.5 29t-67 19.5t-82.5 6 t-82.5 -6t-67 -19.5t-52.5 -29t-40 -42t-29 -49.5t-19.5 -61.5t-12.5 -68t-7 -78t-2.5 -83.5t-0.5 -91z" />
<glyph unicode="&#xd3;" d="M123 716q0 201 26.5 334t91.5 224.5t174 131.5t275 40t275 -40t174 -131.5t91.5 -224.5t26.5 -334q0 -161 -17 -276t-55.5 -204.5t-104.5 -143t-161.5 -80.5t-228.5 -27t-228.5 27t-161.5 80.5t-104.5 143t-55.5 204.5t-17 276zM377 716q0 -56 0.5 -91t2.5 -83.5t7 -78 t12.5 -68t19.5 -61.5t29 -49.5t40 -42t52.5 -29t67 -19.5t82.5 -6t82.5 6t67 19.5t52.5 29t40 42t29 49.5t19.5 61.5t12.5 68t7 78t2.5 83.5t0.5 91t-0.5 91t-2.5 83.5t-7 78t-12.5 68t-19.5 61.5t-29 49.5t-40 42t-52.5 29t-67 19.5t-82.5 6t-82.5 -6t-67 -19.5t-52.5 -29 t-40 -42t-29 -49.5t-19.5 -61.5t-12.5 -68t-7 -78t-2.5 -83.5t-0.5 -91zM542 1556l205 262h273l-284 -262h-194z" />
<glyph unicode="&#xd4;" d="M123 716q0 201 26.5 334t91.5 224.5t174 131.5t275 40t275 -40t174 -131.5t91.5 -224.5t26.5 -334q0 -161 -17 -276t-55.5 -204.5t-104.5 -143t-161.5 -80.5t-228.5 -27t-228.5 27t-161.5 80.5t-104.5 143t-55.5 204.5t-17 276zM367 1556l241 262h159l246 -262h-193 l-129 152l-134 -152h-190zM377 716q0 -56 0.5 -91t2.5 -83.5t7 -78t12.5 -68t19.5 -61.5t29 -49.5t40 -42t52.5 -29t67 -19.5t82.5 -6t82.5 6t67 19.5t52.5 29t40 42t29 49.5t19.5 61.5t12.5 68t7 78t2.5 83.5t0.5 91t-0.5 91t-2.5 83.5t-7 78t-12.5 68t-19.5 61.5t-29 49.5 t-40 42t-52.5 29t-67 19.5t-82.5 6t-82.5 -6t-67 -19.5t-52.5 -29t-40 -42t-29 -49.5t-19.5 -61.5t-12.5 -68t-7 -78t-2.5 -83.5t-0.5 -91z" />
<glyph unicode="&#xd5;" d="M123 716q0 201 26.5 334t91.5 224.5t174 131.5t275 40t275 -40t174 -131.5t91.5 -224.5t26.5 -334q0 -161 -17 -276t-55.5 -204.5t-104.5 -143t-161.5 -80.5t-228.5 -27t-228.5 27t-161.5 80.5t-104.5 143t-55.5 204.5t-17 276zM377 716q0 -56 0.5 -91t2.5 -83.5t7 -78 t12.5 -68t19.5 -61.5t29 -49.5t40 -42t52.5 -29t67 -19.5t82.5 -6t82.5 6t67 19.5t52.5 29t40 42t29 49.5t19.5 61.5t12.5 68t7 78t2.5 83.5t0.5 91t-0.5 91t-2.5 83.5t-7 78t-12.5 68t-19.5 61.5t-29 49.5t-40 42t-52.5 29t-67 19.5t-82.5 6t-82.5 -6t-67 -19.5t-52.5 -29 t-40 -42t-29 -49.5t-19.5 -61.5t-12.5 -68t-7 -78t-2.5 -83.5t-0.5 -91zM409 1563q9 112 58 173t113 61q42 0 75 -16.5t49.5 -36t36.5 -36t38 -16.5q48 0 63 100h128q-9 -113 -58 -173.5t-113 -60.5q-42 0 -75 16.5t-49.5 36t-36.5 36t-38 16.5q-48 0 -62 -100h-129z" />
<glyph unicode="&#xd6;" d="M123 716q0 201 26.5 334t91.5 224.5t174 131.5t275 40t275 -40t174 -131.5t91.5 -224.5t26.5 -334q0 -161 -17 -276t-55.5 -204.5t-104.5 -143t-161.5 -80.5t-228.5 -27t-228.5 27t-161.5 80.5t-104.5 143t-55.5 204.5t-17 276zM364 1672q0 51 37 87t89 36 q51 0 85.5 -35.5t34.5 -87.5t-34 -87t-86 -35t-89 35.5t-37 86.5zM377 716q0 -56 0.5 -91t2.5 -83.5t7 -78t12.5 -68t19.5 -61.5t29 -49.5t40 -42t52.5 -29t67 -19.5t82.5 -6t82.5 6t67 19.5t52.5 29t40 42t29 49.5t19.5 61.5t12.5 68t7 78t2.5 83.5t0.5 91t-0.5 91 t-2.5 83.5t-7 78t-12.5 68t-19.5 61.5t-29 49.5t-40 42t-52.5 29t-67 19.5t-82.5 6t-82.5 -6t-67 -19.5t-52.5 -29t-40 -42t-29 -49.5t-19.5 -61.5t-12.5 -68t-7 -78t-2.5 -83.5t-0.5 -91zM771 1672q0 52 36 87.5t88 35.5t86.5 -35.5t34.5 -87.5t-34.5 -87t-86.5 -35t-88 35 t-36 87z" />
<glyph unicode="&#xd7;" horiz-adv-x="1099" d="M93 290l311 311l-311 311l148 146l310 -310l310 311l144 -147l-309 -310l311 -310l-146 -148l-311 311l-311 -311z" />
<glyph unicode="&#xd8;" d="M123 716q0 201 26.5 334t91.5 224.5t174 131.5t275 40q168 0 278 -43l87 157l154 -95l-91 -164q75 -84 107 -226t32 -359q0 -161 -17 -276t-55.5 -204.5t-104.5 -143t-161.5 -80.5t-228.5 -27q-164 0 -279 43l-87 -156l-153 94l91 164q-75 84 -107 226.5t-32 359.5z M377 716q0 -240 25 -332l458 825q-64 35 -170 35q-45 0 -82.5 -6t-67 -19.5t-52.5 -29t-40 -42t-29 -49.5t-19.5 -61.5t-12.5 -68t-7 -78t-2.5 -83.5t-0.5 -91zM519 222q64 -34 171 -34q45 0 82.5 6t67 19.5t52.5 29t40 42t29 49.5t19.5 61.5t12.5 68t7 78t2.5 83.5t0.5 91 q0 241 -25 333z" />
<glyph unicode="&#xd9;" horiz-adv-x="1366" d="M151 476v956h247v-972q0 -144 64.5 -206t219.5 -62t220 62t65 206v972h246v-956q0 -114 -25 -199.5t-69 -141t-112 -89.5t-146 -47.5t-179 -13.5t-179 13.5t-146 47.5t-112 89.5t-69 141t-25 199.5zM358 1808h273l205 -262h-193z" />
<glyph unicode="&#xda;" horiz-adv-x="1366" d="M151 476v956h247v-972q0 -144 64.5 -206t219.5 -62t220 62t65 206v972h246v-956q0 -114 -25 -199.5t-69 -141t-112 -89.5t-146 -47.5t-179 -13.5t-179 13.5t-146 47.5t-112 89.5t-69 141t-25 199.5zM539 1546l205 262h273l-285 -262h-193z" />
<glyph unicode="&#xdb;" horiz-adv-x="1366" d="M151 476v956h247v-972q0 -144 64.5 -206t219.5 -62t220 62t65 206v972h246v-956q0 -114 -25 -199.5t-69 -141t-112 -89.5t-146 -47.5t-179 -13.5t-179 13.5t-146 47.5t-112 89.5t-69 141t-25 199.5zM369 1546l242 262h158l247 -262h-193l-130 152l-133 -152h-191z" />
<glyph unicode="&#xdc;" horiz-adv-x="1366" d="M151 476v956h247v-972q0 -144 64.5 -206t219.5 -62t220 62t65 206v972h246v-956q0 -114 -25 -199.5t-69 -141t-112 -89.5t-146 -47.5t-179 -13.5t-179 13.5t-146 47.5t-112 89.5t-69 141t-25 199.5zM356 1677q0 51 37 87t89 36q51 0 85.5 -35.5t34.5 -87.5t-34 -87 t-86 -35t-89 35.5t-37 86.5zM763 1677q0 52 36 87.5t88 35.5t86.5 -35.5t34.5 -87.5t-34.5 -87t-86.5 -35t-88 35t-36 87z" />
<glyph unicode="&#xdd;" horiz-adv-x="1216" d="M22 1432h268l319 -638l327 638h258l-462 -879v-553h-250v553zM475 1540l205 262h273l-284 -262h-194z" />
<glyph unicode="&#xde;" horiz-adv-x="1228" d="M151 0v1432h249v-249q109 8 208 8q102 0 178.5 -8.5t154 -36t126.5 -74t79.5 -126.5t30.5 -190q0 -107 -28 -186.5t-74.5 -128t-119 -77.5t-151 -39.5t-180.5 -10.5q-110 0 -224 7v-321h-249zM400 516q69 -9 208 -9q80 0 135.5 10.5t99.5 37.5t65.5 77t21.5 124 q0 132 -71.5 187t-243.5 55q-108 0 -215 -14v-468z" />
<glyph unicode="&#xdf;" horiz-adv-x="1260" d="M144 0v970q0 302 112.5 432t372.5 130q235 0 350 -94.5t115 -250.5q0 -59 -18 -106t-47 -77t-64 -53.5t-69.5 -42t-63.5 -37.5t-47 -44.5t-18 -57.5q0 -35 18 -61t47.5 -40t67 -29t77 -28t77 -37.5t67 -56t47.5 -85.5t18 -124q0 -87 -27.5 -151t-78 -101t-114.5 -54 t-144 -17q-170 0 -326 48l18 174q160 -36 256 -36q24 0 42.5 1.5t46 8.5t45.5 19.5t31.5 38t13.5 60.5q0 51 -23 85.5t-59.5 53.5t-80.5 34.5t-88 35.5t-80.5 49t-59.5 83t-23 129q0 60 18 106t46.5 73.5t63.5 48.5t69.5 39t63 38t46.5 51.5t18 73.5q0 66 -56 106.5 t-175 40.5q-139 0 -195.5 -81.5t-56.5 -294.5v-970h-233z" />
<glyph unicode="&#xe0;" horiz-adv-x="1144" d="M94 326q0 148 70 234t224 109q111 17 388 29q0 116 -55 172t-178 56q-156 0 -380 -28l-19 171q236 40 421 40q77 0 139 -9t119.5 -32.5t96.5 -61.5t62 -99.5t23 -142.5v-482q0 -91 -10 -201q-170 -96 -489 -96q-217 0 -314.5 84t-97.5 257zM235 1558h255l191 -324h-180z M324 330q0 -98 52.5 -134t164.5 -36q148 0 228 37q7 62 7 147v202q-222 -9 -297 -27q-89 -20 -122 -58t-33 -131z" />
<glyph unicode="&#xe1;" horiz-adv-x="1144" d="M94 326q0 148 70 234t224 109q111 17 388 29q0 116 -55 172t-178 56q-156 0 -380 -28l-19 171q236 40 421 40q77 0 139 -9t119.5 -32.5t96.5 -61.5t62 -99.5t23 -142.5v-482q0 -91 -10 -201q-170 -96 -489 -96q-217 0 -314.5 84t-97.5 257zM324 330q0 -98 52.5 -134 t164.5 -36q148 0 228 37q7 62 7 147v202q-222 -9 -297 -27q-89 -20 -122 -58t-33 -131zM444 1232l192 324h255l-266 -324h-181z" />
<glyph unicode="&#xe2;" horiz-adv-x="1144" d="M94 326q0 148 70 234t224 109q111 17 388 29q0 116 -55 172t-178 56q-156 0 -380 -28l-19 171q236 40 421 40q77 0 139 -9t119.5 -32.5t96.5 -61.5t62 -99.5t23 -142.5v-482q0 -91 -10 -201q-170 -96 -489 -96q-217 0 -314.5 84t-97.5 257zM274 1226l226 324h148 l231 -324h-181l-121 187l-125 -187h-178zM324 330q0 -98 52.5 -134t164.5 -36q148 0 228 37q7 62 7 147v202q-222 -9 -297 -27q-89 -20 -122 -58t-33 -131z" />
<glyph unicode="&#xe3;" horiz-adv-x="1144" d="M94 326q0 148 70 234t224 109q111 17 388 29q0 116 -55 172t-178 56q-156 0 -380 -28l-19 171q236 40 421 40q77 0 139 -9t119.5 -32.5t96.5 -61.5t62 -99.5t23 -142.5v-482q0 -91 -10 -201q-170 -96 -489 -96q-217 0 -314.5 84t-97.5 257zM293 1274q9 117 58 180.5 t113 63.5q34 0 62 -11t45.5 -27t32 -32.5t29.5 -27.5t30 -11q48 0 63 104h128q-9 -117 -58 -180.5t-113 -63.5q-34 0 -62 11t-45.5 27.5t-32 32.5t-29.5 27t-30 11q-48 0 -62 -104h-129zM324 330q0 -98 52.5 -134t164.5 -36q148 0 228 37q7 62 7 147v202q-222 -9 -297 -27 q-89 -20 -122 -58t-33 -131z" />
<glyph unicode="&#xe4;" horiz-adv-x="1144" d="M94 326q0 148 70 234t224 109q111 17 388 29q0 116 -55 172t-178 56q-156 0 -380 -28l-19 171q236 40 421 40q77 0 139 -9t119.5 -32.5t96.5 -61.5t62 -99.5t23 -142.5v-482q0 -91 -10 -201q-170 -96 -489 -96q-217 0 -314.5 84t-97.5 257zM251 1385q0 52 36.5 87.5 t88.5 35.5q51 0 85.5 -35.5t34.5 -87.5t-34 -87t-86 -35t-88.5 35.5t-36.5 86.5zM324 330q0 -98 52.5 -134t164.5 -36q148 0 228 37q7 62 7 147v202q-222 -9 -297 -27q-89 -20 -122 -58t-33 -131zM657 1385q0 52 36 87.5t88 35.5t86.5 -35.5t34.5 -87.5t-34.5 -87t-86.5 -35 t-88 35t-36 87z" />
<glyph unicode="&#xe5;" horiz-adv-x="1144" d="M94 326q0 148 70 234t224 109q111 17 388 29q0 116 -55 172t-178 56q-156 0 -380 -28l-19 171q236 40 421 40q77 0 139 -9t119.5 -32.5t96.5 -61.5t62 -99.5t23 -142.5v-482q0 -91 -10 -201q-170 -96 -489 -96q-217 0 -314.5 84t-97.5 257zM324 330q0 -98 52.5 -134 t164.5 -36q148 0 228 37q7 62 7 147v202q-222 -9 -297 -27q-89 -20 -122 -58t-33 -131zM356 1419q0 88 62 150t150 62t150 -62t62 -150t-62 -150t-150 -62t-150 62t-62 150zM457 1419q0 -46 32.5 -78.5t78.5 -32.5t78.5 32.5t32.5 78.5t-32.5 78.5t-78.5 32.5t-78.5 -32.5 t-32.5 -78.5z" />
<glyph unicode="&#xe6;" horiz-adv-x="1846" d="M94 326q0 148 70 234t224 109q111 17 388 29q0 116 -55 172t-178 56q-156 0 -380 -28l-19 171q236 40 421 40q246 0 350 -99q112 99 348 99q116 0 201 -25t138 -68.5t84.5 -112.5t43 -146.5t11.5 -181.5q0 -39 -3 -81q-92 -16 -257 -33t-280 -22l-193 -8q4 -77 26 -129 t61.5 -80t88 -39.5t116.5 -11.5q168 0 392 28l20 -174q-251 -40 -473 -40q-179 0 -285 75q-166 -75 -448 -75q-217 0 -314.5 84t-97.5 257zM324 330q0 -98 52.5 -134t164.5 -36q148 0 228 37q7 62 7 147v202q-222 -9 -297 -27q-89 -20 -122 -58t-33 -131zM1002 590l220 10 q148 7 282 25q3 21 3 51q0 130 -56 193.5t-188 63.5q-67 0 -115 -17.5t-76 -45.5t-44 -74.5t-21 -93t-5 -112.5z" />
<glyph unicode="&#xe7;" horiz-adv-x="969" d="M111 558q0 94 8 165.5t28 136t55.5 108.5t88.5 77t129 48.5t175 15.5q150 0 278 -38l-19 -173q-128 23 -190 23q-63 0 -108.5 -5.5t-80 -16t-57 -32.5t-37 -46.5t-21.5 -67t-9.5 -85.5t-2.5 -110q0 -47 0.5 -76.5t3 -66t7.5 -58.5t13 -48.5t20 -42t29.5 -32.5t40.5 -26 t53 -17t67 -11t83 -3q62 0 188 24l21 -178q-109 -26 -244 -35l-59 -94q64 -4 112 -43.5t48 -101.5q0 -61 -34 -101.5t-85 -57t-115 -16.5q-94 0 -166 43l36 97q65 -33 128 -33q34 0 57.5 14.5t23.5 45.5q0 23 -18.5 40.5t-47.5 26.5t-56.5 13t-53.5 4l96 161 q-81 5 -143.5 28.5t-103.5 65t-69 91.5t-42.5 116.5t-20.5 129.5t-6 141z" />
<glyph unicode="&#xe8;" horiz-adv-x="1178" d="M108 547q0 152 25 256t82.5 173.5t150 101t229.5 31.5q116 0 201 -25t138 -68.5t84.5 -112.5t43 -146.5t11.5 -181.5q0 -39 -3 -81q-92 -16 -257 -33t-280 -22l-193 -8q4 -77 26 -129t61.5 -80t88 -39.5t116.5 -11.5q168 0 392 28l20 -174q-251 -40 -473 -40 q-108 0 -189 28t-132.5 76t-84 120.5t-45 154t-12.5 183.5zM310 1558h255l191 -324h-180zM334 590l220 10q148 7 282 25q3 21 3 51q0 130 -56 193.5t-188 63.5q-67 0 -115 -17.5t-76 -45.5t-44 -74.5t-21 -93t-5 -112.5z" />
<glyph unicode="&#xe9;" horiz-adv-x="1178" d="M108 547q0 152 25 256t82.5 173.5t150 101t229.5 31.5q116 0 201 -25t138 -68.5t84.5 -112.5t43 -146.5t11.5 -181.5q0 -39 -3 -81q-92 -16 -257 -33t-280 -22l-193 -8q4 -77 26 -129t61.5 -80t88 -39.5t116.5 -11.5q168 0 392 28l20 -174q-251 -40 -473 -40 q-108 0 -189 28t-132.5 76t-84 120.5t-45 154t-12.5 183.5zM334 590l220 10q148 7 282 25q3 21 3 51q0 130 -56 193.5t-188 63.5q-67 0 -115 -17.5t-76 -45.5t-44 -74.5t-21 -93t-5 -112.5zM493 1229l192 324h255l-267 -324h-180z" />
<glyph unicode="&#xea;" horiz-adv-x="1178" d="M108 547q0 152 25 256t82.5 173.5t150 101t229.5 31.5q116 0 201 -25t138 -68.5t84.5 -112.5t43 -146.5t11.5 -181.5q0 -39 -3 -81q-92 -16 -257 -33t-280 -22l-193 -8q4 -77 26 -129t61.5 -80t88 -39.5t116.5 -11.5q168 0 392 28l20 -174q-251 -40 -473 -40 q-108 0 -189 28t-132.5 76t-84 120.5t-45 154t-12.5 183.5zM308 1226l226 324h148l230 -324h-180l-121 187l-125 -187h-178zM334 590l220 10q148 7 282 25q3 21 3 51q0 130 -56 193.5t-188 63.5q-67 0 -115 -17.5t-76 -45.5t-44 -74.5t-21 -93t-5 -112.5z" />
<glyph unicode="&#xeb;" horiz-adv-x="1178" d="M108 547q0 152 25 256t82.5 173.5t150 101t229.5 31.5q116 0 201 -25t138 -68.5t84.5 -112.5t43 -146.5t11.5 -181.5q0 -39 -3 -81q-92 -16 -257 -33t-280 -22l-193 -8q4 -77 26 -129t61.5 -80t88 -39.5t116.5 -11.5q168 0 392 28l20 -174q-251 -40 -473 -40 q-108 0 -189 28t-132.5 76t-84 120.5t-45 154t-12.5 183.5zM294 1385q0 51 37 87t89 36q51 0 85 -35.5t34 -87.5t-34 -87t-85 -35q-52 0 -89 35.5t-37 86.5zM334 590l220 10q148 7 282 25q3 21 3 51q0 130 -56 193.5t-188 63.5q-67 0 -115 -17.5t-76 -45.5t-44 -74.5 t-21 -93t-5 -112.5zM701 1385q0 52 36 87.5t88 35.5t86.5 -35.5t34.5 -87.5t-34.5 -87t-86.5 -35t-88 35t-36 87z" />
<glyph unicode="&#xec;" horiz-adv-x="532" d="M-94 1572h255l192 -324h-181zM149 0v1094h234v-1094h-234z" />
<glyph unicode="&#xed;" horiz-adv-x="532" d="M149 0v1094h234v-1094h-234zM179 1248l192 324h255l-266 -324h-181z" />
<glyph unicode="&#xee;" horiz-adv-x="532" d="M-36 1254l226 324h148l230 -324h-180l-121 188l-125 -188h-178zM149 0v1094h234v-1094h-234z" />
<glyph unicode="&#xef;" horiz-adv-x="532" d="M-60 1394q0 51 37 87t89 36q51 0 85.5 -35.5t34.5 -87.5t-34 -87t-86 -35t-89 35.5t-37 86.5zM149 0v1094h234v-1094h-234zM347 1394q0 52 36 87.5t88 35.5t86.5 -35.5t34.5 -87.5t-34.5 -87t-86.5 -35t-88 35t-36 87z" />
<glyph unicode="&#xf0;" horiz-adv-x="1175" d="M88 547q0 291 110.5 414.5t377.5 123.5q87 0 164 -23q-31 75 -82 160l-177 -64l-66 114l168 61q-44 61 -110 132l203 67q61 -58 112 -124l177 64l67 -113l-168 -62q199 -326 199 -750q0 -304 -110 -433t-377 -129q-268 0 -378 127t-110 435zM324 547q0 -116 11 -186.5 t41 -114t76.5 -59.5t123.5 -16q148 0 200.5 79t52.5 297q0 201 -53 276.5t-200 75.5q-149 0 -200.5 -72t-51.5 -280z" />
<glyph unicode="&#xf1;" horiz-adv-x="1218" d="M148 0v812q0 102 9 201q195 96 494 96q81 0 144.5 -11t108 -29.5t76.5 -48.5t50 -62t29 -76.5t14 -85t3 -94.5v-702h-234v677q0 72 -8.5 114t-35 75t-77 46t-134.5 13q-129 0 -199 -37q-7 -62 -7 -147v-741h-233zM340 1280q9 117 58 180.5t113 63.5q34 0 62 -11t45.5 -27 t32 -32.5t29.5 -27.5t30 -11q47 0 63 105h128q-9 -117 -57.5 -181t-112.5 -64q-34 0 -62 11t-45.5 27.5t-32 32.5t-29.5 27t-30 11q-49 0 -63 -104h-129z" />
<glyph unicode="&#xf2;" horiz-adv-x="1195" d="M110 547q0 308 109.5 435t377.5 127q267 0 377.5 -129t110.5 -433t-110.5 -433t-377.5 -129q-268 0 -377.5 127t-109.5 435zM296 1558h255l191 -324h-180zM345 547q0 -116 11 -186.5t41 -114t76.5 -59.5t123.5 -16q148 0 200.5 79t52.5 297t-52.5 297.5t-200.5 79.5 q-102 0 -154.5 -32t-75 -111.5t-22.5 -233.5z" />
<glyph unicode="&#xf3;" horiz-adv-x="1195" d="M110 547q0 308 109.5 435t377.5 127q267 0 377.5 -129t110.5 -433t-110.5 -433t-377.5 -129q-268 0 -377.5 127t-109.5 435zM345 547q0 -116 11 -186.5t41 -114t76.5 -59.5t123.5 -16q148 0 200.5 79t52.5 297t-52.5 297.5t-200.5 79.5q-102 0 -154.5 -32t-75 -111.5 t-22.5 -233.5zM461 1242l192 324h255l-266 -324h-181z" />
<glyph unicode="&#xf4;" horiz-adv-x="1195" d="M110 547q0 308 109.5 435t377.5 127q267 0 377.5 -129t110.5 -433t-110.5 -433t-377.5 -129q-268 0 -377.5 127t-109.5 435zM295 1232l226 324h148l231 -324h-181l-121 187l-125 -187h-178zM345 547q0 -116 11 -186.5t41 -114t76.5 -59.5t123.5 -16q148 0 200.5 79 t52.5 297t-52.5 297.5t-200.5 79.5q-102 0 -154.5 -32t-75 -111.5t-22.5 -233.5z" />
<glyph unicode="&#xf5;" horiz-adv-x="1195" d="M110 547q0 308 109.5 435t377.5 127q267 0 377.5 -129t110.5 -433t-110.5 -433t-377.5 -129q-268 0 -377.5 127t-109.5 435zM316 1268q9 117 58 180.5t113 63.5q34 0 62 -11t45.5 -27t32 -32.5t29.5 -27.5t30 -11q48 0 63 104h128q-9 -117 -57.5 -180.5t-112.5 -63.5 q-34 0 -62 11t-45.5 27.5t-32 32.5t-29.5 27t-30 11q-49 0 -63 -104h-129zM345 547q0 -116 11 -186.5t41 -114t76.5 -59.5t123.5 -16q148 0 200.5 79t52.5 297t-52.5 297.5t-200.5 79.5q-102 0 -154.5 -32t-75 -111.5t-22.5 -233.5z" />
<glyph unicode="&#xf6;" horiz-adv-x="1195" d="M110 547q0 308 109.5 435t377.5 127q267 0 377.5 -129t110.5 -433t-110.5 -433t-377.5 -129q-268 0 -377.5 127t-109.5 435zM272 1385q0 52 36.5 87.5t88.5 35.5q51 0 85.5 -35.5t34.5 -87.5t-34 -87t-86 -35t-88.5 35.5t-36.5 86.5zM345 547q0 -116 11 -186.5t41 -114 t76.5 -59.5t123.5 -16q148 0 200.5 79t52.5 297t-52.5 297.5t-200.5 79.5q-102 0 -154.5 -32t-75 -111.5t-22.5 -233.5zM678 1385q0 52 36 87.5t88 35.5t86.5 -35.5t34.5 -87.5t-34.5 -87t-86.5 -35t-88 35t-36 87z" />
<glyph unicode="&#xf7;" horiz-adv-x="1182" d="M83 496v211h1017v-211h-1017zM445 186q0 61 43 103.5t103 42.5q61 0 104 -42.5t43 -103.5t-43 -103.5t-104 -42.5q-60 0 -103 42.5t-43 103.5zM445 1016q0 61 43 103.5t103 42.5q61 0 104 -42.5t43 -103.5t-43 -103.5t-104 -42.5q-60 0 -103 42.5t-43 103.5z" />
<glyph unicode="&#xf8;" horiz-adv-x="1195" d="M110 547q0 308 109.5 435t377.5 127q147 0 241 -36l80 135l105 -69l-77 -130q139 -123 139 -462q0 -304 -110.5 -433t-377.5 -129q-146 0 -241 35l-79 -134l-106 69l77 129q-73 64 -105.5 176.5t-32.5 286.5zM345 547q0 -170 29 -253l360 606q-51 24 -137 24 q-102 0 -154.5 -32t-75 -111.5t-22.5 -233.5zM460 193q48 -22 137 -22q148 0 200.5 79t52.5 297q0 173 -30 252z" />
<glyph unicode="&#xf9;" horiz-adv-x="1213" d="M141 393v701h234v-676q0 -72 8 -113.5t34.5 -75t77 -46.5t133.5 -13q130 0 198 36q7 62 7 147v741h232v-812q0 -102 -9 -201q-195 -96 -492 -96q-81 0 -144.5 11t-107.5 29.5t-75.5 49t-50 62t-29 76.5t-13.5 85.5t-3 94.5zM288 1572h255l191 -324h-180z" />
<glyph unicode="&#xfa;" horiz-adv-x="1213" d="M141 393v701h234v-676q0 -72 8 -113.5t34.5 -75t77 -46.5t133.5 -13q130 0 198 36q7 62 7 147v741h232v-812q0 -102 -9 -201q-195 -96 -492 -96q-81 0 -144.5 11t-107.5 29.5t-75.5 49t-50 62t-29 76.5t-13.5 85.5t-3 94.5zM481 1260l192 324h255l-266 -324h-181z" />
<glyph unicode="&#xfb;" horiz-adv-x="1213" d="M141 393v701h234v-676q0 -72 8 -113.5t34.5 -75t77 -46.5t133.5 -13q130 0 198 36q7 62 7 147v741h232v-812q0 -102 -9 -201q-195 -96 -492 -96q-81 0 -144.5 11t-107.5 29.5t-75.5 49t-50 62t-29 76.5t-13.5 85.5t-3 94.5zM301 1266l226 324h148l231 -324h-181l-121 188 l-125 -188h-178z" />
<glyph unicode="&#xfc;" horiz-adv-x="1213" d="M141 393v701h234v-676q0 -72 8 -113.5t34.5 -75t77 -46.5t133.5 -13q130 0 198 36q7 62 7 147v741h232v-812q0 -102 -9 -201q-195 -96 -492 -96q-81 0 -144.5 11t-107.5 29.5t-75.5 49t-50 62t-29 76.5t-13.5 85.5t-3 94.5zM278 1407q0 52 36.5 87.5t88.5 35.5 q51 0 85.5 -35.5t34.5 -87.5t-34 -87t-86 -35t-88.5 35.5t-36.5 86.5zM685 1407q0 52 35.5 87.5t87.5 35.5t86.5 -35.5t34.5 -87.5t-34.5 -87t-86.5 -35t-87.5 35t-35.5 87z" />
<glyph unicode="&#xfd;" horiz-adv-x="1101" d="M41 1094h247l300 -731l234 731h237l-510 -1497h-236l169 477zM449 1236l191 324h255l-266 -324h-180z" />
<glyph unicode="&#xfe;" horiz-adv-x="1184" d="M145 -403v1835h233v-353q123 30 239 30q171 0 273.5 -52.5t153.5 -176t51 -333.5t-51 -333.5t-153.5 -176t-273.5 -52.5q-116 0 -239 30v-418h-233zM378 197q93 -31 184 -31q85 0 143 20.5t88.5 48t45.5 85t18 101t3 126.5t-3 126.5t-18 101t-45.5 85t-88.5 48t-143 20.5 q-94 0 -184 -30v-701z" />
<glyph unicode="&#xff;" horiz-adv-x="1101" d="M41 1094h247l300 -731l234 731h237l-510 -1497h-236l169 477zM245 1389q0 52 36.5 87.5t88.5 35.5q51 0 85.5 -35.5t34.5 -87.5t-34.5 -87.5t-85.5 -35.5q-52 0 -88.5 35.5t-36.5 87.5zM651 1389q0 52 36 87.5t88 35.5t86.5 -35.5t34.5 -87.5t-34.5 -87.5t-86.5 -35.5 t-88 35.5t-36 87.5z" />
<glyph unicode="&#x152;" horiz-adv-x="1992" d="M123 716q0 201 26.5 334t91.5 224.5t174 131.5t275 40q266 0 391 -108q61 62 158.5 79.5t253.5 17.5q190 0 377 -9v-190h-384q-78 0 -121.5 -8.5t-69.5 -35t-34 -66.5t-8 -112v-188h590v-195h-590v-213q0 -72 8 -112t34 -66.5t69.5 -35t121.5 -8.5h384v-190 q-208 -10 -377 -10q-155 0 -253 18t-159 80q-126 -109 -391 -109q-133 0 -228.5 27t-161.5 80.5t-104.5 143t-55.5 204.5t-17 276zM377 716q0 -56 0.5 -91t2.5 -83.5t7 -78t12.5 -68t19.5 -61.5t29 -49.5t40 -42t52.5 -29t67 -19.5t82.5 -6t82.5 6t67 19.5t52.5 29t40 42 t29 49.5t19.5 61.5t12.5 68t7 78t2.5 83.5t0.5 91t-0.5 91t-2.5 83.5t-7 78t-12.5 68t-19.5 61.5t-29 49.5t-40 42t-52.5 29t-67 19.5t-82.5 6t-82.5 -6t-67 -19.5t-52.5 -29t-40 -42t-29 -49.5t-19.5 -61.5t-12.5 -68t-7 -78t-2.5 -83.5t-0.5 -91z" />
<glyph unicode="&#x153;" horiz-adv-x="1920" d="M110 547q0 308 109.5 435t377.5 127q259 0 370 -121q112 121 371 121q116 0 201 -25t138 -68.5t84.5 -112.5t43 -146.5t11.5 -181.5q0 -39 -3 -81q-92 -16 -257 -33t-281 -22l-193 -8q4 -77 26 -129t61.5 -80t88 -39.5t116.5 -11.5q169 0 393 28l19 -174 q-251 -40 -472 -40q-230 0 -343 126q-112 -126 -374 -126q-268 0 -377.5 127t-109.5 435zM345 547q0 -116 11 -186.5t41 -114t76.5 -59.5t123.5 -16q148 0 200.5 79t52.5 297t-52.5 297.5t-200.5 79.5q-102 0 -154.5 -32t-75 -111.5t-22.5 -233.5zM1076 590l220 10 q150 8 283 25q2 14 2 51q0 130 -55.5 193.5t-187.5 63.5q-67 0 -115.5 -17.5t-76.5 -45.5t-44 -74.5t-21 -93t-5 -112.5z" />
<glyph unicode="&#x178;" horiz-adv-x="1216" d="M22 1432h268l319 -638l327 638h258l-462 -879v-553h-250v553zM294 1670q0 51 37 87t89 36q51 0 85 -35.5t34 -87.5t-34 -87t-85 -35q-52 0 -89 35.5t-37 86.5zM701 1670q0 52 36 87.5t88 35.5t86.5 -35.5t34.5 -87.5t-34.5 -87t-86.5 -35t-88 35t-36 87z" />
<glyph unicode="&#x2c6;" horiz-adv-x="722" d="M59 1155l226 324h148l231 -324h-181l-121 188l-125 -188h-178z" />
<glyph unicode="&#x2dc;" horiz-adv-x="746" d="M93 1190q9 117 58 181t113 64q34 0 62 -11.5t45.5 -27.5t32 -32t29.5 -27.5t30 -11.5q46 0 62 105h129q-9 -117 -58 -181t-113 -64q-34 0 -62 11.5t-45.5 27.5t-32 32t-29.5 27.5t-30 11.5q-49 0 -63 -105h-128z" />
<glyph unicode="&#x2000;" horiz-adv-x="983" />
<glyph unicode="&#x2001;" horiz-adv-x="1967" />
<glyph unicode="&#x2002;" horiz-adv-x="983" />
<glyph unicode="&#x2003;" horiz-adv-x="1967" />
<glyph unicode="&#x2004;" horiz-adv-x="655" />
<glyph unicode="&#x2005;" horiz-adv-x="491" />
<glyph unicode="&#x2006;" horiz-adv-x="327" />
<glyph unicode="&#x2007;" horiz-adv-x="327" />
<glyph unicode="&#x2008;" horiz-adv-x="245" />
<glyph unicode="&#x2009;" horiz-adv-x="393" />
<glyph unicode="&#x200a;" horiz-adv-x="109" />
<glyph unicode="&#x2010;" horiz-adv-x="793" d="M131 446v196h531v-196h-531z" />
<glyph unicode="&#x2011;" horiz-adv-x="793" d="M131 446v196h531v-196h-531z" />
<glyph unicode="&#x2012;" horiz-adv-x="793" d="M131 446v196h531v-196h-531z" />
<glyph unicode="&#x2013;" horiz-adv-x="1250" d="M131 452v184h988v-184h-988z" />
<glyph unicode="&#x2014;" horiz-adv-x="2204" d="M131 452v184h1942v-184h-1942z" />
<glyph unicode="&#x2018;" horiz-adv-x="496" d="M80 1029l184 488h186l-118 -488h-252z" />
<glyph unicode="&#x2019;" horiz-adv-x="496" d="M80 1029l118 488h252l-183 -488h-187z" />
<glyph unicode="&#x201a;" horiz-adv-x="495" d="M52 -255l118 488h252l-184 -488h-186z" />
<glyph unicode="&#x201c;" horiz-adv-x="872" d="M80 1029l184 488h186l-118 -488h-252zM455 1029l184 488h187l-118 -488h-253z" />
<glyph unicode="&#x201d;" horiz-adv-x="872" d="M80 1029l118 488h252l-183 -488h-187zM456 1029l119 488h251l-183 -488h-187z" />
<glyph unicode="&#x201e;" horiz-adv-x="871" d="M52 -255l118 488h252l-184 -488h-186zM428 -255l118 488h252l-184 -488h-186z" />
<glyph unicode="&#x2022;" horiz-adv-x="772" d="M100 688q0 119 83.5 202.5t202.5 83.5q118 0 202 -84t84 -202q0 -119 -83.5 -203t-202.5 -84t-202.5 84t-83.5 203z" />
<glyph unicode="&#x2026;" horiz-adv-x="1829" d="M118 127q0 81 30 111.5t111 30.5t111.5 -30.5t30.5 -111.5t-30 -111.5t-112 -30.5t-111.5 30.5t-29.5 111.5zM774 127q0 81 30 111.5t111 30.5t111 -30.5t30 -111.5t-29.5 -111.5t-111.5 -30.5t-111.5 30.5t-29.5 111.5zM1429 127q0 81 30 111.5t111 30.5t111.5 -30.5 t30.5 -111.5t-30 -111.5t-112 -30.5t-111.5 30.5t-29.5 111.5z" />
<glyph unicode="&#x202f;" horiz-adv-x="393" />
<glyph unicode="&#x2039;" horiz-adv-x="661" d="M55 530l298 421h225l-270 -421l270 -421h-225z" />
<glyph unicode="&#x203a;" horiz-adv-x="661" d="M84 109l269 421l-269 421h225l298 -421l-298 -421h-225z" />
<glyph unicode="&#x205f;" horiz-adv-x="491" />
<glyph unicode="&#x20ac;" horiz-adv-x="1138" d="M74 511l30 138h122v45q0 42 1 62h-141l31 139h116q22 271 132 389.5t359 118.5q172 0 313 -42l-18 -184q-143 27 -248 27q-65 0 -114 -14.5t-80.5 -40t-52.5 -65.5t-31 -85t-14 -104h450l-31 -139h-424v-107h400l-30 -138h-366q5 -80 19.5 -135t46 -100.5t88 -68 t139.5 -22.5q105 0 248 27l18 -184q-144 -43 -313 -43q-130 0 -219.5 30.5t-147 97t-86.5 162.5t-39 236h-158z" />
<glyph unicode="&#x2122;" horiz-adv-x="1974" d="M82 1293v139h681v-139h-259v-720h-162v720h-260zM881 573v859h233l235 -599l231 599h231v-859h-161v638h-1l-249 -638h-107l-249 637h-1v-637h-162z" />
<glyph unicode="&#x25fc;" horiz-adv-x="1093" d="M0 0v1094h1094v-1094h-1094z" />
</font>
</defs>
</svg>
