<?xml version="1.0" standalone="no"?>
<!DOCTYPE svg PUBLIC "-//W3C//DTD SVG 1.1//EN" "http://www.w3.org/Graphics/SVG/1.1/DTD/svg11.dtd" >
<svg xmlns="http://www.w3.org/2000/svg">
<metadata></metadata>
<defs>
<font id="flexolight_italic" horiz-adv-x="1314" >
<font-face units-per-em="2048" ascent="1618" descent="-430" />
<missing-glyph horiz-adv-x="614" />
<glyph unicode="&#xfb01;" horiz-adv-x="1122" d="M154 999l15 95h195l19 123q25 155 113 235t236 80q38 0 71 -6l-23 -89h-40q-102 0 -164 -50.5t-80 -163.5l-20 -129h607l-174 -1094h-112l158 999h-494l-159 -999h-112l159 999h-195zM1009 1393q0 8 4 42q8 53 26.5 75t56.5 22q30 0 43 -13t13 -42q0 -10 -4 -42 q-8 -53 -25.5 -73.5t-57.5 -20.5q-31 0 -43.5 12t-12.5 40z" />
<glyph unicode="&#xfb02;" horiz-adv-x="1133" d="M154 999l15 95h194l20 123q25 155 113 235t236 80q183 0 413 -15l-194 -1223q-8 -48 -8 -99q0 -111 51 -191l-102 -53q-65 93 -65 221q0 43 10 111l182 1154h-280q-209 0 -243 -214l-20 -129h247l-15 -95h-247l-159 -999h-112l158 999h-194z" />
<glyph unicode="&#xfb03;" horiz-adv-x="1750" d="M154 999l15 95h195l19 123q25 155 113.5 235t236.5 80q37 0 70 -6l-23 -89h-40q-102 0 -164 -50.5t-80 -163.5l-20 -129h515l20 123q25 155 113 235t236 80q38 0 70 -6l-23 -89h-40q-102 0 -164 -50.5t-80 -163.5l-20 -129h607l-173 -1094h-113l159 999h-495l-158 -999 h-112l158 999h-515l-158 -999h-113l159 999h-195zM1636 1393q0 5 1 11.5t2 15.5t2 15q8 54 26 75.5t57 21.5q30 0 42.5 -12.5t12.5 -42.5q0 -18 -3 -42q-8 -53 -25.5 -73.5t-57.5 -20.5q-31 0 -44 12t-13 40z" />
<glyph unicode="&#xfb04;" horiz-adv-x="1761" d="M154 999l16 95h194l20 123q25 155 113 235t236 80q38 0 71 -6l-24 -89h-40q-210 0 -244 -214l-20 -129h515l20 123q25 155 113 235t236 80q183 0 413 -15l-194 -1223q-8 -47 -8 -98q0 -112 51 -192l-101 -53q-66 94 -66 221q0 43 10 111l182 1154h-280q-209 0 -243 -214 l-20 -129h247l-15 -95h-248l-158 -999h-112l158 999h-515l-158 -999h-112l159 999h-196z" />
<glyph horiz-adv-x="2048" />
<glyph horiz-adv-x="2048" />
<glyph unicode="&#xd;" horiz-adv-x="2048" />
<glyph unicode=" "  horiz-adv-x="614" />
<glyph unicode="&#x09;" horiz-adv-x="614" />
<glyph unicode="&#xa0;" horiz-adv-x="614" />
<glyph unicode="!" horiz-adv-x="447" d="M108 36q0 9 4 43q8 53 26.5 75t56.5 22q31 0 43.5 -13t12.5 -42q0 -10 -4 -42q-8 -53 -25 -73.5t-57 -20.5q-31 0 -44 11.5t-13 39.5zM183 417l141 1015h139l-180 -1015h-100z" />
<glyph unicode="&#x22;" horiz-adv-x="653" d="M206 966l72 551h126l-103 -551h-95zM463 966l72 551h124l-102 -551h-94z" />
<glyph unicode="#" horiz-adv-x="1123" d="M103 438l15 97h213l105 364h-208l15 97h222q93 321 126 436h100l-128 -436h289q4 15 55.5 191t71.5 245h100l-127 -436h182l-16 -97h-195l-105 -364h187l-15 -97h-201l-128 -438h-99l128 438h-289l-128 -438h-99l128 438h-199zM430 535h289l105 364h-289z" />
<glyph unicode="$" horiz-adv-x="993" d="M41 15l28 99q153 -26 313 -26q67 0 120.5 7t103.5 25.5t86 49t61.5 79t36.5 114.5q4 27 4 54q0 51 -17.5 88t-57 65.5t-85 48t-120.5 43.5q-69 22 -113 39t-89.5 43t-70.5 54.5t-41 70t-16 94.5q0 29 7 78q28 178 133.5 261.5t294.5 97.5l31 195h95l-30 -192 q165 -1 319 -28l-26 -96q-147 22 -260 22q-74 0 -131.5 -5.5t-112.5 -20.5t-93 -40.5t-65 -67.5t-36 -99q-7 -41 -7 -78q0 -32 6 -55.5t22 -44t35.5 -36t55.5 -31.5t73 -29t95 -31q75 -23 128.5 -48.5t101 -63t71.5 -91t24 -121.5q0 -31 -6 -69q-28 -181 -135.5 -271.5 t-295.5 -108.5l-31 -196h-95l30 191h-10q-192 0 -331 30z" />
<glyph unicode="%" horiz-adv-x="1625" d="M192 833q0 70 18 186q18 113 41 186t63 128.5t101 80.5t150 25q132 0 186.5 -57.5t54.5 -180.5q0 -69 -18 -182t-41.5 -186t-63.5 -129t-101.5 -81t-150.5 -25q-131 0 -185 56.5t-54 178.5zM275 838q0 -82 36.5 -123.5t129.5 -41.5q48 0 84.5 10.5t63 34.5t44 50.5 t31.5 71t21.5 82t17.5 97.5q20 136 20 179q0 83 -37 124.5t-130 41.5q-41 0 -74 -9t-57 -23t-43 -40t-31.5 -51t-23.5 -65t-17.5 -73t-14.5 -84q-20 -136 -20 -181zM282 -29l1060 1490h103l-1060 -1490h-103zM924 227q0 71 18 187q18 113 41 185.5t63 128t101 80.5t150 25 q132 0 186.5 -57t54.5 -179q0 -68 -18 -183q-18 -113 -41.5 -186.5t-63.5 -129t-101.5 -80.5t-150.5 -25q-131 0 -185 56.5t-54 177.5zM1007 232q0 -82 36.5 -123t128.5 -41q57 0 99 17.5t68 44t45 75.5t28.5 93t21.5 116q20 124 20 180q0 83 -36.5 124t-129.5 41 q-57 0 -99 -17.5t-68 -44t-45 -75.5t-28.5 -92.5t-20.5 -115.5q-20 -125 -20 -182z" />
<glyph unicode="&#x26;" horiz-adv-x="1321" d="M95 285q0 49 8 94q12 76 47.5 139t92.5 112t115.5 84t137.5 72q-26 39 -41 64.5t-35.5 66t-30.5 81.5t-10 83q0 17 4 51q13 85 49.5 147t90 98t116.5 52.5t138 16.5q127 0 207.5 -57t80.5 -177q0 -38 -4 -60q-10 -62 -38.5 -115t-63.5 -90.5t-90.5 -74t-101.5 -59.5 t-113 -53l305 -448q122 148 173 363l107 -6q-73 -280 -218 -447l153 -222h-145l-94 139q-182 -154 -451 -154q-197 0 -293 74.5t-96 225.5zM215 305q0 -63 26.5 -108t73 -68.5t98 -34t112.5 -10.5q196 0 352 141l-330 485q-55 -27 -93.5 -49t-82 -54.5t-71.5 -66.5 t-50.5 -80.5t-30.5 -100.5q-4 -25 -4 -54zM490 1088q0 -19 3.5 -38.5t7 -34t13.5 -36t14.5 -31.5t19 -32t17.5 -27.5t19.5 -29t17.5 -24.5q53 25 82 39t73.5 38.5t70 45t54 48t43.5 58.5t21 66q5 35 5 57q0 87 -51 124t-145 37q-101 0 -172.5 -54t-89.5 -170q-3 -18 -3 -36z " />
<glyph unicode="'" horiz-adv-x="398" d="M206 966l72 551h126l-103 -551h-95z" />
<glyph unicode="(" horiz-adv-x="586" d="M140 245q0 145 28 325q98 621 451 923l60 -59q-88 -77 -159 -185t-116.5 -228.5t-73.5 -228.5t-46 -222q-28 -175 -28 -329q0 -356 150 -535l-80 -59q-186 218 -186 598z" />
<glyph unicode=")" horiz-adv-x="588" d="M-2 -294q89 77 160 185.5t116.5 229t73.5 228t46 221.5q28 175 28 328q0 357 -150 536l79 59q187 -220 187 -600q0 -143 -28 -323q-98 -621 -451 -923z" />
<glyph unicode="*" horiz-adv-x="949" d="M164 1041l14 88h314l-112 276l86 46l110 -272l200 272l68 -46l-200 -276h314l-14 -88h-315l113 -278l-83 -44l-113 271l-197 -272l-71 46l203 277h-317z" />
<glyph unicode="+" horiz-adv-x="1173" d="M143 548l17 109h427l69 437h111l-68 -437h428l-17 -109h-429l-70 -440h-111l70 440h-427z" />
<glyph unicode="," horiz-adv-x="429" d="M15 -269l220 514h137l-258 -514h-99z" />
<glyph unicode="-" horiz-adv-x="810" d="M183 492l17 104h513l-17 -104h-513z" />
<glyph unicode="." horiz-adv-x="414" d="M142 37q0 8 4 42q8 54 25.5 75.5t56.5 21.5q30 0 43 -13t13 -43q0 -9 -4 -41q-8 -53 -25.5 -73.5t-57.5 -20.5q-30 0 -42.5 12t-12.5 40z" />
<glyph unicode="/" horiz-adv-x="815" d="M-18 -165l829 1647h112l-831 -1647h-110z" />
<glyph unicode="0" horiz-adv-x="1253" d="M170 379q0 119 31 315q24 152 52.5 258t73.5 196t107.5 143.5t151 82.5t207.5 29q218 0 309 -95.5t91 -300.5q0 -125 -30 -313q-24 -151 -53 -257.5t-74 -196.5t-107.5 -143.5t-152 -82.5t-208.5 -29q-218 0 -308 95t-90 299zM281 377q0 -144 66 -216.5t232 -72.5 q65 0 118.5 10.5t95 34.5t73.5 52t57.5 72.5t43.5 86.5t33.5 105t25.5 115.5t22 129.5q34 213 34 314q0 146 -66 219.5t-233 73.5q-74 0 -133.5 -16t-102.5 -41t-77 -70t-56.5 -89.5t-41.5 -114.5t-30.5 -128.5t-25.5 -147.5q-35 -221 -35 -317z" />
<glyph unicode="1" horiz-adv-x="685" d="M176 1175l10 102q206 32 395 112h92l-220 -1389h-114l199 1256q-191 -54 -362 -81z" />
<glyph unicode="2" horiz-adv-x="1055" d="M26 0q36 109 62 178t60 140.5t67.5 116.5t81.5 90t106.5 78t137.5 65q82 33 146.5 68.5t122.5 82t94.5 105t46.5 126.5q4 27 4 56q0 105 -84 148.5t-276 43.5q-157 0 -337 -30l4 97q217 38 403 38q410 0 410 -263q0 -34 -5 -62q-29 -184 -146.5 -299.5t-324.5 -196.5 q-99 -39 -167.5 -84.5t-115.5 -106t-76 -125t-58 -160.5h734l-16 -106h-874z" />
<glyph unicode="3" horiz-adv-x="1066" d="M12 20l30 100q219 -29 310 -29q225 0 336.5 65.5t138.5 233.5q4 25 4 54q0 96 -58.5 153t-159.5 68q-80 8 -211 8h-60l15 94q142 3 275 23q114 17 187.5 87t89.5 170q5 29 5 64q0 51 -17.5 86t-45 55t-76 30.5t-94 13.5t-116.5 3q-130 0 -328 -29l3 98q191 35 370 35 q74 0 132 -6t115.5 -22.5t95 -44.5t61 -74t23.5 -109q0 -37 -5 -66q-42 -265 -276 -349v-1q80 -21 138.5 -90.5t58.5 -178.5q0 -34 -5 -62q-18 -117 -65.5 -199t-123.5 -128.5t-169 -67t-215 -20.5q-198 0 -363 35z" />
<glyph unicode="4" horiz-adv-x="1188" d="M76 409q0 5 2 19q7 46 89 135l694 756q76 84 141 84q57 0 57 -63q0 -8 -2 -26l-138 -873h191l-15 -99h-192l-54 -342h-115l54 342h-615q-97 0 -97 67zM190 441h614l128 812z" />
<glyph unicode="5" horiz-adv-x="1080" d="M47 22l29 100q164 -29 317 -29q117 0 196 15.5t138.5 54t93 104.5t49.5 167q6 35 6 63q0 48 -14 85t-43.5 61.5t-66.5 40.5t-91 25t-108.5 12t-127.5 3q-140 0 -240 -6l151 671h764l-17 -106h-660l-105 -462q93 6 165 6q81 0 142 -4.5t122 -16t103.5 -33t76.5 -54.5 t50.5 -83t16.5 -115q0 -52 -8 -101q-36 -230 -175 -332.5t-384 -102.5q-195 0 -380 37z" />
<glyph unicode="6" horiz-adv-x="1209" d="M150 348q0 93 18 204q27 169 59 289t81 219.5t112.5 161t156.5 104t210 60t275 17.5q28 0 97 -1l-5 -100q-22 -1 -66 -2q-74 -2 -111.5 -3.5t-105.5 -7.5t-105.5 -15t-95 -26.5t-91.5 -41.5t-77.5 -60.5t-70.5 -83.5t-52.5 -110t-41.5 -140q242 31 379 31 q100 0 171.5 -14t127.5 -47t84 -93.5t28 -149.5q0 -49 -11 -117q-20 -128 -68.5 -215.5t-125 -135t-166 -67t-210.5 -19.5q-216 0 -306 91.5t-90 271.5zM264 368q0 -62 13.5 -110t45 -87.5t91 -61t143.5 -21.5q217 0 316.5 77t128.5 260q8 45 8 92q0 69 -22 114t-69.5 69 t-108 33t-151.5 9q-103 0 -347 -33q-15 -68 -34 -187q-14 -82 -14 -154z" />
<glyph unicode="7" horiz-adv-x="1004" d="M176 0l797 1285h-779l17 104h802q98 0 87 -67q-3 -26 -22 -57l-773 -1265h-129z" />
<glyph unicode="8" horiz-adv-x="1217" d="M122 285q0 48 6 84q23 144 100.5 227.5t197.5 125.5q-91 43 -131.5 105.5t-40.5 153.5q0 38 8 88q26 165 157.5 249.5t355.5 84.5q199 0 306.5 -70t107.5 -205q0 -24 -5 -59q-21 -129 -83 -211.5t-195 -135.5q196 -78 196 -277q0 -30 -7 -79q-15 -91 -51.5 -159t-86 -110 t-117.5 -67.5t-137 -35t-153 -9.5q-97 0 -172 15t-134 48.5t-90.5 93t-31.5 143.5zM238 311q0 -65 25 -110t72.5 -69t103 -34t128.5 -10q66 0 118.5 6.5t105 25.5t89.5 50.5t64.5 83t38.5 120.5q4 27 4 57q0 117 -88.5 170.5t-261.5 65.5q-83 -9 -144 -26.5t-115.5 -49.5 t-88.5 -86.5t-46 -130.5q-5 -29 -5 -63zM367 995q0 -204 329 -227q74 11 131 28t110.5 47.5t87 81t44.5 118.5q4 27 4 54q0 60 -24.5 102t-70.5 64t-98.5 31t-120.5 9q-60 0 -108.5 -6t-97.5 -23.5t-84.5 -46t-61.5 -75t-36 -109.5q-4 -34 -4 -48z" />
<glyph unicode="9" horiz-adv-x="1205" d="M151 -14l6 101q23 1 68 2q73 2 110.5 3.5t105.5 7.5t105.5 15t94.5 26.5t91 41.5t77.5 60.5t70.5 83t52.5 109.5t41.5 140q-234 -30 -379 -30q-100 0 -171.5 13.5t-128 47t-84 93.5t-27.5 149q0 57 10 118q16 103 52 180t85 125.5t118 78t144 41t171 11.5 q216 0 306.5 -91t90.5 -272q0 -86 -19 -203q-27 -169 -59 -289t-81 -219.5t-112.5 -161.5t-156.5 -104.5t-210 -60t-275 -17.5q-27 0 -97 1zM301 871q0 -69 21.5 -113.5t69 -68.5t108 -33t151.5 -9q103 0 347 33q16 70 34 186q14 81 14 154q0 62 -13.5 110t-45 88t-90.5 61 t-144 21q-217 0 -316 -77t-128 -260q-8 -45 -8 -92z" />
<glyph unicode=":" horiz-adv-x="448" d="M127 37q0 8 4 42q8 53 26.5 75t56.5 22q30 0 43 -13t13 -42q0 -10 -4 -42q-9 -53 -25.5 -73.5t-56.5 -20.5q-31 0 -44 12t-13 40zM253 824q0 9 4 43q8 53 26 74.5t56 21.5q31 0 43.5 -12.5t12.5 -42.5q0 -9 -4 -41q-8 -53 -25 -73.5t-57 -20.5q-31 0 -43.5 11.5 t-12.5 39.5z" />
<glyph unicode=";" horiz-adv-x="489" d="M10 -269l219 514h137l-258 -514h-98zM326 826q0 9 4 41q8 53 26 74.5t57 21.5q31 0 43.5 -12.5t12.5 -42.5q0 -9 -4 -41q-8 -53 -25 -73.5t-57 -20.5q-31 0 -44 12t-13 41z" />
<glyph unicode="&#x3c;" horiz-adv-x="1185" d="M135 546l17 110l1014 465l-19 -121l-879 -398l753 -400l-19 -120z" />
<glyph unicode="=" horiz-adv-x="1288" d="M167 341l17 108h967l-17 -108h-967zM233 754l17 108h967l-18 -108h-966z" />
<glyph unicode="&#x3e;" horiz-adv-x="1185" d="M114 82l19 120l878 400l-752 398l19 121l866 -465l-16 -110z" />
<glyph unicode="?" horiz-adv-x="993" d="M224 1411q177 35 360 35q86 0 147.5 -6t120 -24t94.5 -49t57.5 -83.5t21.5 -125.5q0 -42 -10 -110q-16 -104 -53.5 -175t-84.5 -104.5t-100.5 -52t-105.5 -28.5t-96.5 -23t-76.5 -45.5t-42 -87.5l-20 -115h-101l26 173q9 60 40 97.5t74 53.5t94 25.5t102.5 23.5t96 38 t78.5 77t47 133q10 62 10 100q0 118 -81 160.5t-294 42.5q-130 0 -299 -29zM261 37q0 8 4 42q8 54 26 75.5t56 21.5q31 0 44 -13t13 -43q0 -9 -4 -41q-8 -53 -25.5 -73.5t-57.5 -20.5q-31 0 -43.5 12t-12.5 40z" />
<glyph unicode="@" horiz-adv-x="1874" d="M152 368q0 75 16 179q31 197 108 338.5t199.5 227.5t280.5 125.5t363 39.5q316 0 316 -248q0 -32 -6 -71l-73 -462q-14 -85 -34 -182q-186 -83 -401 -83q-174 0 -255.5 58.5t-81.5 180.5q0 36 6 76q20 129 100.5 211.5t209.5 108.5q111 22 408 32q9 59 9 103 q0 97 -51 136t-173 39q-138 0 -248.5 -19.5t-207 -64.5t-166.5 -117t-119 -179.5t-71 -249.5q-14 -90 -14 -160q0 -103 27.5 -182.5t78 -133.5t127 -88.5t170.5 -49.5t212 -15q170 0 301 32.5t235.5 104.5t171 195t94.5 297q18 121 17 205l115 33q2 -112 -19 -238 q-60 -380 -293.5 -555t-637.5 -175q-355 0 -534.5 132.5t-179.5 418.5zM699 495q0 -91 60 -127.5t185 -36.5q132 0 279 54q26 143 32 182l38 237q-271 -5 -371 -29q-190 -45 -218 -224q-5 -33 -5 -56z" />
<glyph unicode="A" horiz-adv-x="1313" d="M4 0l727 1365q43 81 100 81q30 0 48 -19.5t27 -61.5l289 -1365h-126l-88 424h-633l-223 -424h-121zM401 525h559l-158 760z" />
<glyph unicode="B" horiz-adv-x="1286" d="M119 19l221 1397q195 30 426 30q81 0 145.5 -6t131.5 -23.5t111.5 -48t72.5 -82.5t28 -122q0 -32 -6 -69q-45 -287 -264 -363q87 -30 133.5 -92.5t46.5 -178.5q0 -54 -10 -114q-14 -89 -53 -154.5t-91.5 -104.5t-128 -63t-151 -32t-170.5 -8q-242 0 -442 34zM251 108 q172 -20 316 -20q86 0 146 5.5t120.5 23.5t99.5 50t68 86t41 130q6 37 6 69q0 57 -20 99t-53 67t-85.5 40t-107.5 20t-128 5h-312zM358 781h312q81 0 141 6.5t117 25t95.5 50t66 83t38.5 122.5q5 28 5 61q0 55 -20 94t-52 62t-84 36.5t-104 17.5t-124 4q-139 0 -306 -20z " />
<glyph unicode="C" horiz-adv-x="1039" d="M165 418q0 128 27 298q25 159 58 272t84.5 204t124 144.5t172.5 81.5t235 28q163 0 303 -28l-28 -99q-142 22 -229 22q-96 0 -172 -13.5t-133 -36.5t-100.5 -64.5t-73 -87.5t-53 -116.5t-38 -139.5t-30.5 -167q-29 -186 -29 -283q0 -90 20.5 -152t69.5 -106t133 -64.5 t208 -20.5q80 0 236 22l-4 -97q-161 -30 -311 -30q-256 0 -363 102.5t-107 330.5z" />
<glyph unicode="D" horiz-adv-x="1346" d="M120 17l222 1399q195 30 422 30q148 0 248.5 -26.5t159.5 -82.5t84.5 -134t25.5 -190q0 -123 -28 -297q-17 -111 -37 -194.5t-49.5 -163t-67.5 -135.5t-91 -103t-121.5 -75.5t-157 -44t-198.5 -15.5q-214 0 -412 32zM252 111q145 -21 255 -21q87 0 159 11t126.5 26 t99.5 47t75.5 58.5t56.5 77t40.5 85t30 100t22.5 105t19 116.5q31 190 31 286q0 65 -12 114.5t-43.5 93.5t-83 72t-132.5 44t-191 16q-87 0 -261 -20z" />
<glyph unicode="E" horiz-adv-x="1064" d="M152 229q0 27 7 74l130 824q10 62 31 110t47.5 80t66.5 55t75.5 35t89 18.5t93 8t99.5 1.5q144 0 334 -8l-15 -96h-341q-74 0 -124 -4.5t-91 -18t-65.5 -33t-43.5 -55t-30.5 -77.5t-21.5 -107l-42 -256h642l-16 -101h-642l-44 -285q-13 -81 -13 -127q0 -99 62 -132.5 t235 -33.5h341l-16 -99q-139 -6 -337 -6q-54 0 -90 1t-83 6t-78 14.5t-64 26.5t-52 41.5t-31.5 61t-12.5 82.5z" />
<glyph unicode="F" horiz-adv-x="1045" d="M114 0l178 1127q10 62 31.5 110t47.5 80t66.5 55t76.5 35t89.5 18.5t93 8t99.5 1.5q197 0 333 -8l-15 -96h-341q-74 0 -124 -4.5t-91 -18t-66 -33t-44.5 -55t-30.5 -77.5t-21 -107l-40 -256h641l-16 -101h-642l-107 -679h-118z" />
<glyph unicode="G" horiz-adv-x="1273" d="M168 420q0 128 27 296q21 133 47 233t64 184.5t88 141t119 96t156.5 57.5t199.5 18q223 0 397 -30l-27 -100q-170 24 -325 24q-96 0 -172 -13t-132.5 -36t-100 -64.5t-73 -87t-52.5 -116t-37.5 -139.5t-30.5 -168q-30 -196 -30 -286q0 -119 37.5 -191t133 -110.5 t260.5 -38.5q74 0 126.5 10t83 25t49 43t26 52.5t13.5 65.5l55 351h-261l16 100h378l-83 -526q-7 -45 -24.5 -79.5t-40.5 -58t-59 -40.5t-71 -26t-86.5 -14t-95 -6.5t-106.5 -1.5q-255 0 -362 103t-107 332z" />
<glyph unicode="H" horiz-adv-x="1383" d="M120 0l227 1432h118l-102 -647h792l102 647h118l-227 -1432h-118l109 681h-792l-109 -681h-118z" />
<glyph unicode="I" horiz-adv-x="469" d="M119 0l226 1432h119l-227 -1432h-118z" />
<glyph unicode="J" horiz-adv-x="768" d="M-19 15l26 96q68 -21 158 -21q50 0 90 8t79 29.5t67.5 57t51.5 92.5t35 134l161 1021h118l-155 -986q-20 -127 -51.5 -211.5t-85 -142t-130 -82.5t-186.5 -25q-99 0 -178 30z" />
<glyph unicode="K" horiz-adv-x="1164" d="M116 0l227 1432h118l-105 -664l754 664h150l-790 -692l582 -740h-157l-550 703l-111 -703h-118z" />
<glyph unicode="L" horiz-adv-x="962" d="M155 229q0 27 7 74l178 1129h118l-164 -1038q-13 -81 -13 -126q0 -100 62.5 -133.5t234.5 -33.5h314l-15 -100q-146 -5 -310 -5q-54 0 -90.5 1t-83.5 6t-78 14.5t-64 26.5t-52 41.5t-31.5 61t-12.5 82.5z" />
<glyph unicode="M" horiz-adv-x="1711" d="M87 0l304 1363q19 83 87 83q54 0 77 -78l300 -1004l623 1004q49 78 102 78q62 0 62 -65q0 -8 -1 -18l-132 -1363h-118l121 1240l-604 -978q-22 -36 -40 -52t-42 -16t-37 16t-24 52l-289 977l-275 -1239h-114z" />
<glyph unicode="N" horiz-adv-x="1409" d="M120 0l216 1362q6 43 30 63.5t57 20.5q53 0 91 -79l577 -1200l200 1265h111l-215 -1363q-6 -42 -30 -63t-57 -21q-30 0 -51 19.5t-41 60.5l-575 1201l-201 -1266h-112z" />
<glyph unicode="O" horiz-adv-x="1363" d="M172 415q0 122 28 301q32 201 78 334t122 224.5t186 131.5t268 40q243 0 346.5 -101t103.5 -329q0 -121 -28 -300q-32 -201 -78 -334t-122.5 -225t-186 -132t-267.5 -40q-243 0 -346.5 101t-103.5 329zM286 404q0 -76 16 -131t54 -97.5t107 -64t170 -21.5q59 0 110 7 t92.5 23t76 35.5t62 50t49.5 60t39.5 73t30.5 81t25 91.5t20 98.5t18 106.5q34 219 34 310q0 77 -16 132t-54.5 97.5t-107 64t-169.5 21.5q-66 0 -122 -10t-99.5 -26t-80 -45t-63 -58.5t-49 -75t-37.5 -85.5t-29 -99t-23 -107.5t-20 -118.5q-34 -219 -34 -312z" />
<glyph unicode="P" horiz-adv-x="1219" d="M116 0l224 1414q206 32 425 32q87 0 153 -7t130.5 -27.5t106 -55.5t67 -93t25.5 -138q0 -47 -9 -103q-17 -105 -55 -182.5t-89 -125.5t-124 -76.5t-150 -39.5t-175 -11q-122 0 -317 11l-95 -598h-117zM345 705q137 -15 300 -15q107 0 183.5 15t138.5 51t100 102t53 164 q7 42 7 83q0 126 -86.5 182t-284.5 56q-151 0 -313 -21z" />
<glyph unicode="Q" horiz-adv-x="1364" d="M184 416q0 123 28 300q32 201 78 334t122 224.5t186 131.5t268 40q243 0 346.5 -100.5t103.5 -328.5q0 -121 -28 -301q-56 -357 -172.5 -524.5t-352.5 -198.5q31 -75 91.5 -123.5t170.5 -104.5l-100 -65q-5 3 -35.5 19t-39.5 21t-36.5 21.5t-39 26.5t-34.5 28t-34.5 34 t-27.5 37.5t-26 46t-17 51.5q-243 0 -347 101t-104 330zM297 404q0 -76 16 -131t54.5 -97.5t107.5 -64t170 -21.5q117 0 202.5 32.5t137.5 80.5t89.5 137.5t55 168t38.5 207.5q34 219 34 310q0 77 -16 132t-54 97.5t-107 64t-169 21.5q-66 0 -122 -10t-100 -26t-80.5 -45 t-63 -58.5t-49 -75t-37.5 -85.5t-29 -99t-23 -107.5t-20 -118.5q-35 -226 -35 -312z" />
<glyph unicode="R" horiz-adv-x="1251" d="M116 0l224 1414q208 32 425 32q87 0 153 -6.5t131 -27t106.5 -54.5t67 -92t25.5 -137q0 -45 -9 -101q-32 -203 -141.5 -299.5t-291.5 -119.5l253 -609h-137l-242 600h-33q-122 0 -317 11l-97 -611h-117zM347 718q138 -14 300 -14q106 0 182.5 15t139 51t100 100t52.5 159 q7 41 7 81q0 125 -87 179.5t-285 54.5q-143 0 -313 -22z" />
<glyph unicode="S" horiz-adv-x="1032" d="M47 17l29 101q159 -26 323 -26q88 0 153.5 12t123 42t93.5 87t49 141q5 33 5 57q0 99 -67 151.5t-221 100.5q-72 23 -117 40.5t-92 44t-72.5 56t-42 72t-16.5 97.5q0 28 7 79q33 204 163 289t368 85q172 0 337 -29l-27 -100q-145 23 -268 23q-95 0 -166 -10t-134 -35 t-101 -73.5t-50 -121.5q-7 -42 -7 -80q0 -39 11 -67.5t30 -50t58 -41.5t82 -35.5t116 -38.5q77 -24 132 -50t104 -65t74 -93.5t25 -125.5q0 -33 -6 -71q-33 -211 -171 -304t-384 -93q-188 0 -341 32z" />
<glyph unicode="T" horiz-adv-x="1003" d="M201 1329l17 103h907l-16 -103h-394l-211 -1329h-118l211 1329h-396z" />
<glyph unicode="U" horiz-adv-x="1341" d="M171 329q0 54 11 128l154 975h117l-156 -991q-8 -44 -8 -92q0 -131 80.5 -194.5t254.5 -63.5q204 0 307.5 85.5t131.5 264.5l156 991h118l-154 -975q-22 -137 -71.5 -231t-126.5 -146t-167.5 -73.5t-210.5 -21.5q-104 0 -180.5 16.5t-136 54.5t-89.5 106t-30 167z" />
<glyph unicode="V" horiz-adv-x="1244" d="M231 1432h125l234 -1273l644 1273h120l-695 -1364q-22 -44 -44.5 -63.5t-52.5 -19.5q-59 0 -74 83z" />
<glyph unicode="W" horiz-adv-x="1834" d="M261 1432h120l94 -1265l504 1021q41 81 94 81q56 0 69 -82l168 -1019l489 1264h116l-534 -1363q-33 -84 -97 -84q-57 0 -70 84l-171 1025l-507 -1025q-41 -84 -98 -84q-63 0 -69 84z" />
<glyph unicode="X" horiz-adv-x="1190" d="M22 0l563 731l-320 701h137l268 -593l455 593h129l-535 -696l335 -736h-137l-284 627l-480 -627h-131z" />
<glyph unicode="Y" horiz-adv-x="1113" d="M218 1432h129l261 -747l502 747h125l-590 -874l-88 -558h-120l89 558z" />
<glyph unicode="Z" horiz-adv-x="1059" d="M20 51q5 29 37 71l927 1206h-714l16 104h786q38 0 56 -14q14 -11 15 -28q0 -4 -1 -9q-3 -27 -37 -71l-927 -1207h756l-17 -103h-828q-39 0 -56 13q-14 11 -14 29q0 4 1 9z" />
<glyph unicode="[" horiz-adv-x="580" d="M82 -334l287 1814h326l-15 -97h-217l-257 -1618h217l-16 -99h-325z" />
<glyph unicode="\" horiz-adv-x="815" d="M257 1482h112l308 -1647h-111z" />
<glyph unicode="]" horiz-adv-x="581" d="M-22 -334l15 99h216l256 1618h-217l16 97h326l-287 -1814h-325z" />
<glyph unicode="^" horiz-adv-x="982" d="M126 697l441 735h133l209 -735h-111l-182 623l-379 -623h-111z" />
<glyph unicode="_" horiz-adv-x="1021" d="M-6 -289l16 103h1017l-16 -103h-1017z" />
<glyph unicode="`" horiz-adv-x="438" d="M171 1458h146l128 -281h-95z" />
<glyph unicode="a" horiz-adv-x="1117" d="M90 228q0 37 6 79q47 297 316 337q147 22 496 34l10 67q8 53 8 88q0 96 -62.5 135.5t-222.5 39.5q-126 0 -357 -33l5 97q237 37 398 37q64 0 114.5 -6.5t97 -23t77 -44t48.5 -71.5t18 -103q0 -28 -7 -79l-84 -531q-17 -104 -33 -181q-194 -85 -449 -85 q-196 0 -287.5 55.5t-91.5 187.5zM204 249q0 -94 66.5 -129t222.5 -35q176 0 326 54q4 19 32 182l42 262q-315 -5 -460 -32q-102 -20 -153.5 -72.5t-69.5 -168.5q-6 -34 -6 -61z" />
<glyph unicode="b" horiz-adv-x="1157" d="M118 70q10 94 24 181l201 1266h112l-72 -453q174 45 329 45q196 0 284.5 -80.5t88.5 -270.5q0 -84 -19 -211q-26 -160 -69.5 -267t-113.5 -173t-162 -94t-221 -28q-232 0 -382 85zM240 141q113 -56 276 -56q201 0 298.5 105.5t137.5 356.5q19 120 19 196q0 145 -71 205 t-247 60q-143 0 -286 -47l-101 -638q-11 -67 -26 -182z" />
<glyph unicode="c" horiz-adv-x="884" d="M155 351q0 85 20 208q18 114 42 195.5t65.5 152t100 113t144 66t199.5 23.5q119 0 223 -28l-24 -91q-89 17 -174 17q-76 0 -134.5 -9t-103 -25t-77.5 -45t-55.5 -61.5t-40 -83t-29 -101t-22.5 -123.5q-22 -141 -22 -208q0 -65 15.5 -111.5t52.5 -82t103.5 -52.5 t164.5 -17q63 0 183 24l-4 -97q-154 -30 -264 -30q-102 0 -174 26t-112.5 76.5t-58.5 114.5t-18 149z" />
<glyph unicode="d" horiz-adv-x="1156" d="M121 347q0 86 18 200q49 310 170 436t361 126q154 0 315 -45l72 453h112l-201 -1266q-17 -104 -33 -181q-177 -85 -408 -85q-212 0 -309 82.5t-97 279.5zM237 374q0 -153 71.5 -221t234.5 -68q161 0 292 56q7 36 32 182l101 638q-128 47 -270 47q-114 0 -189 -23 t-126.5 -80t-80 -140.5t-49.5 -217.5q-16 -106 -16 -173z" />
<glyph unicode="e" horiz-adv-x="1168" d="M155 360q0 75 17 187q48 303 172.5 432.5t382.5 129.5q211 0 303 -86.5t92 -250.5q0 -64 -12 -138q-19 -103 -21 -114q-93 -16 -256 -31t-279 -20l-282 -11q-3 -50 -3 -92q0 -71 13 -118.5t47.5 -86t100 -56.5t165.5 -18q157 0 381 32l-4 -99q-236 -35 -449 -35 q-198 0 -283 97.5t-85 277.5zM284 552l313 15q212 10 392 33q7 30 16 87q7 51 7 82q0 241 -299 241q-105 0 -178.5 -26t-123 -85t-78.5 -141t-49 -206z" />
<glyph unicode="f" horiz-adv-x="659" d="M154 999l15 95h194l20 123q25 155 113 235t236 80q38 0 70 -6l-23 -89h-40q-209 0 -243 -214l-20 -129h247l-15 -95h-247l-159 -999h-112l158 999h-194z" />
<glyph unicode="g" horiz-adv-x="1161" d="M109 -380l26 97q209 -33 350 -33q130 0 203.5 27t107 81.5t49.5 154.5l17 108q-174 -45 -328 -45q-197 0 -286 79t-89 267q0 81 19 203q25 156 68.5 261t113 169.5t161.5 92t221 27.5q232 0 382 -85q-13 -108 -25 -181l-148 -934q-12 -79 -41.5 -137.5t-69.5 -94.5 t-96 -57.5t-113.5 -29.5t-130.5 -8q-159 0 -391 38zM274 371q0 -143 71.5 -201.5t248.5 -58.5q142 0 285 47l97 614q11 67 26 182q-111 55 -276 55q-200 0 -298 -103.5t-136 -346.5q-18 -109 -18 -188z" />
<glyph unicode="h" horiz-adv-x="1162" d="M104 0l240 1517h112l-72 -455q173 46 339 47h12q98 0 166 -16q72 -17 112 -51t56.5 -79t16.5 -107q0 -45 -13 -132l-114 -724h-112l110 692q11 72 11 122q0 104 -64.5 148.5t-233.5 44.5q-150 0 -303 -50l-151 -957h-112z" />
<glyph unicode="i" horiz-adv-x="417" d="M92 0l173 1094h113l-173 -1094h-113zM304 1393q0 8 4 42q8 54 26 75.5t57 21.5q30 0 43 -13t13 -42q0 -10 -4 -42q-9 -53 -25.5 -73.5t-56.5 -20.5q-31 0 -44 12t-13 40z" />
<glyph unicode="j" horiz-adv-x="423" d="M-195 -417l24 90q42 3 72.5 9.5t65.5 24.5t59.5 47t45.5 79.5t32 119.5l181 1141h113l-176 -1111q-34 -213 -128 -307t-262 -94q-18 0 -27 1zM324 1392l5 43q8 54 25.5 75.5t56.5 21.5q31 0 43.5 -13t12.5 -42q0 -10 -4 -42q-8 -53 -25.5 -73.5t-57.5 -20.5 q-31 0 -43.5 11.5t-12.5 39.5z" />
<glyph unicode="k" horiz-adv-x="988" d="M104 0l240 1517h113l-149 -934l574 511h142l-614 -544l475 -550h-156l-432 508l-81 -508h-112z" />
<glyph unicode="l" horiz-adv-x="427" d="M120 172q0 43 10 111l196 1234h112l-193 -1223q-9 -54 -9 -99q0 -110 52 -191l-102 -53q-66 94 -66 221z" />
<glyph unicode="m" horiz-adv-x="1833" d="M117 0l133 838q17 104 33 181q99 38 225.5 64t228.5 26q196 0 266 -96q197 96 429 96q90 0 153 -19t97 -56t48.5 -82t14.5 -105q0 -53 -12 -132l-113 -715h-113l109 688q11 71 11 121q0 106 -56.5 152t-196.5 46q-71 0 -161 -21t-171 -61q7 -29 7 -81t-12 -129l-113 -715 h-112l108 688q12 77 12 121q0 106 -57 152t-197 46q-56 0 -145.5 -17.5t-150.5 -41.5q-26 -143 -32 -182l-121 -766h-112z" />
<glyph unicode="n" horiz-adv-x="1211" d="M117 0l133 838q8 52 33 181q229 90 498 90q102 0 172 -18t107.5 -53.5t53 -79.5t15.5 -104q0 -59 -13 -139l-114 -715h-112l109 687q12 81 12 126q0 104 -62.5 149.5t-226.5 45.5q-75 0 -177.5 -18t-161.5 -42q-26 -143 -32 -182l-122 -766h-112z" />
<glyph unicode="o" horiz-adv-x="1204" d="M159 342q0 90 18 205q49 308 174.5 435t382.5 127q211 0 304.5 -84.5t93.5 -275.5q0 -82 -19 -202q-48 -304 -174.5 -433t-382.5 -129q-211 0 -304 82.5t-93 274.5zM272 350q0 -149 68 -206t227 -57q136 0 219.5 42.5t134.5 141.5t79 276q18 114 18 196 q0 146 -67.5 205.5t-226.5 59.5q-102 0 -170.5 -20.5t-122 -73t-86 -141t-54.5 -226.5q-19 -122 -19 -197z" />
<glyph unicode="p" horiz-adv-x="1157" d="M70 -403l197 1246q13 80 34 181q177 85 409 85q212 0 308.5 -82t96.5 -280q0 -86 -18 -200q-49 -310 -170 -436t-361 -126q-151 0 -315 46l-69 -434h-112zM268 133q128 -47 270 -47q114 0 189.5 23t126.5 80t80 140.5t50 217.5q16 106 16 174q0 153 -72 220.5t-235 67.5 t-292 -55q-7 -36 -32 -182z" />
<glyph unicode="q" horiz-adv-x="1157" d="M152 336q0 94 19 211q25 160 69 267.5t114 173t162 93.5t221 28q233 0 383 -85q-13 -108 -25 -181l-197 -1246h-113l69 434q-179 -46 -329 -46q-195 0 -284 80.5t-89 270.5zM266 351q0 -145 71.5 -205t247.5 -60q142 0 285 47l101 639q11 67 26 182q-111 55 -276 55 q-201 0 -299 -105.5t-137 -356.5q-19 -120 -19 -196z" />
<glyph unicode="r" horiz-adv-x="701" d="M116 0l133 843q13 80 34 181q177 85 408 85q61 0 100 -5l-27 -102q-40 3 -89 3q-165 0 -293 -54q-26 -143 -32 -182l-122 -769h-112z" />
<glyph unicode="s" horiz-adv-x="934" d="M65 18l26 94q139 -24 268 -24q45 0 74.5 1.5t75 6.5t76.5 17.5t63 32.5t51.5 53.5t26.5 78.5q3 24 3 44q0 32 -11.5 56.5t-27.5 41t-53 34t-67 28t-91 30.5q-130 41 -174 64q-113 61 -118 179v11q0 24 5 57q25 158 130.5 222t283.5 64q167 0 331 -34l-27 -92 q-137 25 -265 25q-52 0 -86 -1.5t-82.5 -11t-79.5 -26.5t-57 -50.5t-33 -80.5q-3 -26 -3 -45t3 -35.5t11.5 -30t15.5 -23.5t24.5 -20.5l27.5 -16.5t35.5 -15.5t38 -13.5t46 -14.5t48.5 -15.5q79 -26 128.5 -48t90 -52.5t58 -69.5t17.5 -92q0 -24 -5 -59q-13 -86 -53 -146.5 t-102 -93.5t-135 -47.5t-165 -14.5q-173 0 -323 33z" />
<glyph unicode="t" horiz-adv-x="686" d="M158 999l15 95h201l46 291l116 18l-49 -309h245l-14 -95h-246l-113 -711q-7 -43 -7 -80q0 -75 39.5 -99.5t133.5 -24.5q25 0 50 3l-5 -92q-52 -10 -99 -10q-122 0 -178.5 47t-56.5 150q0 41 7 84l116 733h-201z" />
<glyph unicode="u" horiz-adv-x="1206" d="M160 240q0 54 14 140l113 714h112l-109 -687q-13 -81 -13 -132q0 -102 62 -145t229 -43q74 0 175 17.5t160 41.5q17 87 32 182l122 766h112l-134 -838q-15 -90 -32 -181q-229 -90 -495 -90q-102 0 -172 18t-107.5 53.5t-53 79.5t-15.5 104z" />
<glyph unicode="v" horiz-adv-x="1116" d="M202 1094h121l213 -955l524 955h115l-563 -1020q-26 -46 -48.5 -67.5t-51.5 -21.5q-30 0 -48 22t-29 67z" />
<glyph unicode="w" horiz-adv-x="1729" d="M224 1094h116l105 -954l447 780q27 48 47.5 68t47.5 20q29 0 44.5 -21t26.5 -67l184 -779l413 953h112l-449 -1020q-39 -89 -100 -89q-30 0 -46 21t-27 68l-185 773l-444 -773q-27 -47 -49 -68t-52 -21q-63 0 -73 89z" />
<glyph unicode="x" horiz-adv-x="1057" d="M41 0l468 570l-264 524h133l214 -429l349 429h126l-428 -520l291 -574h-135l-238 477l-389 -477h-127z" />
<glyph unicode="y" horiz-adv-x="1018" d="M207 1094h122l228 -859l422 859h114l-737 -1497h-113l238 481z" />
<glyph unicode="z" horiz-adv-x="1033" d="M34 41q3 22 29 50l826 905h-655l15 98h767q26 0 38 -11q10 -9 11 -23q0 -3 -1 -7q-3 -23 -29 -50l-825 -903h669l-16 -100h-781q-27 0 -39 11q-10 9 -10 23q0 3 1 7z" />
<glyph unicode="{" horiz-adv-x="589" d="M122 528l14 91q98 25 149 134t88 346q14 91 44 157.5t74.5 108.5t95.5 66t117 38l-4 -91q-180 -37 -224 -311l-18 -111q-10 -62 -22.5 -110.5t-36 -107.5t-62.5 -101.5t-91 -63.5q104 -53 104 -233q0 -66 -13 -150l-17 -110q-9 -54 -9 -100q0 -183 134 -211l-25 -91 q-108 24 -165 85.5t-57 183.5q0 47 9 102q26 165 26 264q0 95 -26 146.5t-85 68.5z" />
<glyph unicode="|" horiz-adv-x="477" d="M184 -403v1920h110v-1920h-110z" />
<glyph unicode="}" horiz-adv-x="590" d="M-22 -322l4 91q181 35 224 311l17 110q48 312 211 383q-105 47 -105 228q0 54 15 155l18 111q9 53 9 100q0 182 -134 211l24 91q108 -24 165 -85.5t57 -182.5q0 -47 -9 -102q-26 -165 -26 -265q0 -95 26 -146.5t85 -68.5l-14 -91q-98 -26 -148.5 -134.5t-88.5 -344.5 q-28 -176 -110.5 -259.5t-219.5 -111.5z" />
<glyph unicode="~" horiz-adv-x="1216" d="M155 513q34 137 112.5 211t174.5 74q60 0 113 -19.5t91.5 -47t74 -54.5t75.5 -46.5t81 -19.5q62 0 104 43.5t74 135.5h109q-34 -137 -113 -211.5t-174 -74.5q-60 0 -113 19.5t-92 47t-74.5 54.5t-75.5 46.5t-80 19.5q-62 0 -104.5 -43t-73.5 -135h-109z" />
<glyph unicode="&#xa1;" horiz-adv-x="423" d="M57 -351l181 1015h99l-141 -1015h-139zM270 960q0 18 3 42q8 53 25.5 73.5t57.5 20.5q30 0 43 -12.5t13 -40.5q0 -7 -4 -41q-8 -54 -26 -75.5t-56 -21.5q-30 0 -43 12.5t-13 42.5z" />
<glyph unicode="&#xa2;" horiz-adv-x="861" d="M149 504q0 86 18 202q20 125 48 211t77 156.5t124.5 109.5t182.5 51l31 195h91l-30 -189h11q110 0 215 -28l-22 -88q-94 16 -168 16q-65 0 -117 -6t-93 -20t-72 -31.5t-55.5 -46.5t-41 -59.5t-30 -75.5t-22.5 -89t-19 -106q-20 -127 -20 -201q0 -64 15 -109t51 -79.5 t100 -51t159 -16.5q69 0 177 23l-4 -94q-145 -28 -236 -29l-31 -189h-91l31 193q-151 18 -215 108t-64 243z" />
<glyph unicode="&#xa3;" horiz-adv-x="1137" d="M151 653l14 97h199q2 161 22 290q17 105 64 178.5t120 112.5t154.5 55.5t183.5 16.5q103 0 173 -30.5t122 -90.5l-72 -73q-93 89 -232 89q-203 0 -290.5 -71.5t-113.5 -237.5q-12 -74 -12 -218v-21h324l-16 -97h-310q-4 -96 -16 -173q-18 -115 -51.5 -189t-103.5 -185 h393q150 0 305 21l-5 -97q-193 -30 -435 -30h-356q-30 0 -42.5 13.5t-9.5 35.5q2 15 28 56.5t57 89t62 121.5t42 146q12 84 14 191h-212z" />
<glyph unicode="&#xa4;" horiz-adv-x="1210" d="M133 294l142 139q-87 112 -87 252q0 145 88 255l-143 141l75 75l142 -143q112 87 256 87t255 -84l141 140l76 -75l-142 -138q91 -113 91 -258q0 -144 -91 -254l142 -137l-76 -76l-141 142q-115 -87 -255 -87q-146 0 -258 88l-140 -143zM297 686q0 -124 89 -214t218 -90 q125 0 218.5 88t93.5 216q0 126 -90.5 216.5t-221.5 90.5q-126 0 -216.5 -89t-90.5 -218z" />
<glyph unicode="&#xa5;" horiz-adv-x="1044" d="M216 305l14 91h239l23 142h-239l14 90h199l-223 761h123l208 -714l439 714h118l-469 -761h203l-13 -90h-244l-23 -142h244l-15 -91h-243l-49 -305h-115l48 305h-239z" />
<glyph unicode="&#xa6;" horiz-adv-x="439" d="M165 -289v661h110v-661h-110zM165 743v660h110v-660h-110z" />
<glyph unicode="&#xa7;" horiz-adv-x="1080" d="M47 -262l29 100q171 -30 282 -30q32 0 54 0.5t61.5 4.5t68.5 11t64 21.5t58.5 34.5t42.5 51.5t25 71.5q0 2 1.5 12.5t1.5 15.5q0 25 -8.5 47.5t-19 39t-34.5 35t-40.5 30t-51.5 28.5t-54 25t-60 26q-57 24 -92 41t-83 47.5t-75 61t-47 76t-20 98.5q0 29 4 53 q28 173 263 280q-95 84 -95 180q0 13 4 41q22 139 134.5 222.5t286.5 83.5q190 0 330 -33l-27 -97q-155 30 -283 30q-134 0 -220.5 -51.5t-101.5 -143.5q-2 -18 -2 -27q0 -35 17 -66t38 -52t65 -46t71.5 -38t83.5 -37q66 -28 109 -51t93.5 -60.5t76.5 -86t26 -106.5 q0 -12 -4 -42q-25 -157 -275 -286q114 -99 114 -213q0 -21 -2 -31q-11 -69 -46 -123.5t-81.5 -88t-107.5 -55.5t-120 -30.5t-123 -8.5q-170 0 -331 35zM262 607q0 -59 37.5 -106t131.5 -92q39 -19 110 -45.5t121 -51.5q105 49 168.5 98.5t73.5 113.5q3 18 3 34 q0 60 -44.5 107.5t-151.5 98.5q-26 12 -99 41t-119 55q-208 -91 -227 -209q-4 -30 -4 -44z" />
<glyph unicode="&#xa8;" horiz-adv-x="712" d="M233 1303q5 34 33 57.5t61 23.5t52 -23.5t14 -57.5t-32 -58t-61 -24q-33 0 -52.5 24t-14.5 58zM525 1303q5 34 32.5 57.5t61.5 23.5q33 0 52 -23.5t14 -57.5t-32 -58t-60 -24t-53 24t-15 58z" />
<glyph unicode="&#xa9;" horiz-adv-x="1704" d="M122 718q0 151 57 286t154 232t232.5 153.5t286.5 56.5q201 0 369 -96t265 -263.5t97 -368.5q0 -151 -57 -286.5t-154.5 -233.5t-233 -155.5t-286.5 -57.5q-201 0 -369 97.5t-264.5 266t-96.5 369.5zM218 718q0 -134 49.5 -253.5t134 -205t202 -135t248.5 -49.5 t248.5 49.5t202.5 135t134.5 205t49.5 253.5q0 133 -49.5 251.5t-134.5 203.5t-202.5 134.5t-248.5 49.5q-175 0 -320.5 -84t-229.5 -231t-84 -324zM486 718q0 86 25 166t71 144.5t119.5 103t163.5 38.5q82 0 155 -26t129 -84t68 -139h-100q-13 76 -83 118t-169 42 q-120 0 -197.5 -96.5t-77.5 -266.5q0 -172 74.5 -267.5t200.5 -95.5q94 0 165.5 49t86.5 132h100q-13 -124 -112.5 -199t-239.5 -75q-124 0 -211 62.5t-127.5 163.5t-40.5 230z" />
<glyph unicode="&#xaa;" horiz-adv-x="843" d="M163 827q0 28 4 53q32 198 214 225q89 14 318 22l6 40q5 35 5 56q0 61 -39.5 86.5t-139.5 25.5q-85 0 -242 -23l4 72q162 26 269 26q114 0 176.5 -36t62.5 -130q0 -28 -4 -53l-55 -348q-9 -61 -22 -121q-131 -58 -302 -58q-132 0 -193.5 37t-61.5 126zM252 842 q0 -59 42 -81t141 -22q112 0 207 34l46 283q-205 -5 -292 -21q-62 -12 -95 -46t-45 -107q-4 -30 -4 -40z" />
<glyph unicode="&#xab;" horiz-adv-x="918" d="M122 530l336 395h119l-312 -395l187 -395h-118zM456 530l337 395h118l-312 -395l188 -395h-119z" />
<glyph unicode="&#xac;" horiz-adv-x="1286" d="M212 677l17 108h967l-90 -567h-119l73 459h-848z" />
<glyph unicode="&#xad;" horiz-adv-x="810" d="M183 492l17 104h513l-17 -104h-513z" />
<glyph unicode="&#xae;" horiz-adv-x="1113" d="M113 1003q0 186 129 314.5t315 128.5t314.5 -128.5t128.5 -314.5t-128.5 -315t-314.5 -129t-315 129t-129 315zM185 1003q0 -159 108 -268t264 -109q157 0 265 109t108 268q0 158 -108 266.5t-265 108.5q-156 0 -264 -108.5t-108 -266.5zM385 752v520h182q200 0 200 -149 q0 -56 -29.5 -93t-83.5 -48l113 -230h-81l-107 219h-121v-219h-73zM458 1035h104q68 0 101 21t33 67q0 47 -34 66.5t-103 19.5h-101v-174z" />
<glyph unicode="&#xaf;" horiz-adv-x="823" d="M241 1254l15 89h531l-15 -89h-531z" />
<glyph unicode="&#xb0;" horiz-adv-x="768" d="M108 1171q0 114 81.5 194.5t195.5 80.5t195 -80.5t81 -194.5t-81 -195t-195 -81t-195.5 81t-81.5 195zM201 1171q0 -77 53.5 -130.5t130.5 -53.5q76 0 129.5 54t53.5 130t-53.5 129.5t-129.5 53.5q-77 0 -130.5 -53.5t-53.5 -129.5z" />
<glyph unicode="&#xb1;" horiz-adv-x="1215" d="M82 36l18 107h966l-17 -107h-967zM184 677l16 103h426l61 387h116l-61 -387h425l-16 -103h-425l-63 -394h-116l63 394h-426z" />
<glyph unicode="&#xb2;" horiz-adv-x="638" d="M83 839q62 191 119 270t190 133q211 85 232 216q2 11 2 31q0 58 -47.5 82t-153.5 24q-78 0 -204 -18l1 71q138 24 245 24q248 0 248 -159q0 -17 -3 -38q-18 -110 -88 -179t-194 -117q-104 -41 -152.5 -99t-80.5 -163h425l-12 -78h-527z" />
<glyph unicode="&#xb3;" horiz-adv-x="643" d="M75 855l21 72q137 -18 188 -18q127 0 190 36.5t77 129.5q2 10 2 29q0 53 -32.5 85.5t-87.5 38.5q-40 5 -100 5q-43 0 -66 -1l11 71q93 2 168 13q62 10 103 48.5t50 93.5q3 20 3 35q0 28 -10 47.5t-25 30.5t-42.5 17t-53 7.5t-65.5 1.5q-77 0 -199 -18l2 71q125 23 225 23 q56 0 98 -6.5t80 -22t58.5 -47.5t20.5 -79q0 -19 -3 -40q-23 -148 -147 -203q43 -18 72 -58.5t29 -98.5q0 -18 -3 -37q-22 -137 -107.5 -193t-235.5 -56q-114 0 -221 23z" />
<glyph unicode="&#xb4;" horiz-adv-x="438" d="M157 1177l218 281h145l-268 -281h-95z" />
<glyph unicode="&#xb5;" horiz-adv-x="1166" d="M106 -403l237 1497h109l-114 -715q-6 -34 -6 -67q0 -97 49.5 -156.5t145.5 -59.5q136 0 236 129.5t132 330.5l85 538h109l-116 -736q-18 -110 -18 -163q0 -100 64 -122l-14 -88q-45 0 -76 16.5t-47 47.5t-22.5 66.5t-6.5 81.5q0 16 2 38h-2q-56 -116 -150 -183t-193 -67 q-72 0 -122.5 28t-93.5 91l-80 -507h-108z" />
<glyph unicode="&#xb6;" horiz-adv-x="1223" d="M192 960q0 36 5 63q32 202 173 305.5t362 103.5h492l-277 -1747h-99l262 1655h-306l-262 -1655h-100l149 941q-187 1 -293 94.5t-106 239.5z" />
<glyph unicode="&#xb7;" horiz-adv-x="425" d="M187 544q0 10 4 42q8 54 26 75.5t56 21.5q30 0 43 -13t13 -43q0 -17 -3 -41q-8 -53 -25.5 -73.5t-57.5 -20.5q-31 0 -43.5 12t-12.5 40z" />
<glyph unicode="&#xb8;" horiz-adv-x="437" d="M-9 -367l35 65q52 -25 107 -25q40 0 73 18.5t40 59.5q7 49 -43 74.5t-106 25.5l111 149h84l-80 -103q59 -2 96.5 -32.5t37.5 -82.5q0 -7 -2 -23q-13 -80 -76 -118.5t-149 -38.5q-77 0 -128 31z" />
<glyph unicode="&#xb9;" horiz-adv-x="425" d="M171 1526l8 74q126 20 236 67h65l-131 -823h-84l116 727q-95 -27 -210 -45z" />
<glyph unicode="&#xba;" horiz-adv-x="886" d="M199 903q0 59 12 134q32 204 116.5 288.5t256.5 84.5q141 0 204.5 -56.5t63.5 -184.5q0 -57 -12 -132q-32 -201 -117 -287t-257 -86q-141 0 -204 55.5t-63 183.5zM288 909q0 -95 43.5 -132t143.5 -37q128 0 188.5 64.5t87.5 232.5q12 73 12 126q0 94 -43 132.5t-145 38.5 q-128 0 -188 -62t-87 -235q-12 -75 -12 -128z" />
<glyph unicode="&#xbb;" horiz-adv-x="918" d="M90 135l312 395l-186 395h118l212 -395l-337 -395h-119zM425 135l311 395l-187 395h119l212 -395l-337 -395h-118z" />
<glyph unicode="&#xbc;" horiz-adv-x="1434" d="M151 -29l1060 1490h103l-1060 -1490h-103zM233 1292l7 74q125 21 237 67h65l-131 -823h-84l115 727q-109 -31 -209 -45zM700 256q4 27 55 84l403 440q47 52 89 52q50 0 40 -60l-79 -500h112l-11 -73h-112l-32 -199h-85l32 199h-349q-40 0 -53 15t-10 42zM791 272h332 l70 439z" />
<glyph unicode="&#xbd;" horiz-adv-x="1579" d="M155 -29l1060 1490h104l-1061 -1490h-103zM236 1292l7 74q130 22 238 67h64l-130 -823h-84l115 727q-108 -30 -210 -45zM882 0q26 80 44.5 127.5t43.5 94.5t54 76.5t69.5 55.5t96.5 49q98 40 159 91.5t73 124.5q2 11 2 31q0 58 -47 81.5t-154 23.5q-91 0 -204 -18l2 71 q140 24 245 24q247 0 247 -155q0 -18 -3 -39q-17 -110 -87.5 -180t-194.5 -119q-105 -41 -153 -99t-80 -163h427l-12 -77h-528z" />
<glyph unicode="&#xbe;" horiz-adv-x="1588" d="M139 621l21 73q131 -19 188 -19q127 0 189 36t77 130q3 15 3 29q0 54 -33 86.5t-88 37.5q-43 5 -108 5q-37 0 -57 -1l11 71q100 2 168 12q61 10 102 49t50 94q3 20 3 36q0 34 -13.5 55.5t-42.5 31.5t-59.5 13t-80.5 3q-76 0 -198 -18l2 72q119 22 225 22q56 0 98 -6.5 t80 -22t58.5 -47.5t20.5 -79q0 -12 -4 -40q-23 -148 -146 -203q43 -18 72 -58t29 -99q0 -18 -3 -37q-21 -137 -107.5 -193t-236.5 -56q-113 0 -220 23zM303 -29l1059 1490h103l-1059 -1490h-103zM853 256q5 31 53 84l405 440q46 52 89 52q22 0 33.5 -15t6.5 -45l-80 -500 h112l-11 -73h-112l-32 -199h-84l31 199h-349q-40 0 -53 15t-9 42zM943 272h332l70 439z" />
<glyph unicode="&#xbf;" horiz-adv-x="994" d="M53 -77q0 42 10 110q13 82 39 143.5t59 97t72.5 59.5t81 36t82.5 20.5t78 18t67.5 24.5t52 44t28.5 73l20 115h100l-18 -121q0 -2 -7 -52q-9 -60 -40.5 -97.5t-75 -53.5t-94 -25.5t-102 -23.5t-96 -38t-78.5 -77t-47 -133q-9 -57 -9 -101q0 -117 81.5 -159.5t293.5 -42.5 q131 0 298 29l6 -100q-177 -35 -361 -35q-86 0 -147.5 6t-120 24t-94.5 49t-57.5 84t-21.5 126zM675 960q0 18 3 42q8 53 26 73.5t57 20.5q31 0 44 -12t13 -40q0 -8 -4 -42q-8 -54 -26 -75.5t-57 -21.5q-31 0 -43.5 12.5t-12.5 42.5z" />
<glyph unicode="&#xc0;" d="M4 0l727 1365q43 81 100 81q58 0 76 -81l289 -1365h-126l-89 424h-633l-223 -424h-121zM402 525h558l-158 760zM599 1820h157l148 -228h-102z" />
<glyph unicode="&#xc1;" d="M4 0l727 1365q43 81 100 81q58 0 76 -81l288 -1365h-126l-88 424h-633l-223 -424h-121zM401 525h559l-158 760zM805 1580l221 228h156l-276 -228h-101z" />
<glyph unicode="&#xc2;" d="M4 0l727 1365q43 81 100 81q58 0 76 -81l288 -1365h-126l-88 424h-633l-223 -424h-121zM401 525h559l-158 760zM602 1580l222 228h118l155 -228h-103l-119 169l-173 -169h-100z" />
<glyph unicode="&#xc3;" d="M4 0l727 1365q43 81 100 81q58 0 76 -81l288 -1365h-126l-88 424h-633l-223 -424h-121zM401 525h559l-158 760zM623 1607q22 86 67 131.5t94 45.5q36 0 62.5 -15t38.5 -32.5t29 -32.5t37 -15q52 0 83 91h78q-22 -85 -67.5 -131t-93.5 -46q-30 0 -52.5 10t-35.5 24t-24 28 t-24 24t-30 10q-53 0 -84 -92h-78z" />
<glyph unicode="&#xc4;" d="M4 0l727 1365q43 81 100 81q58 0 76 -81l288 -1365h-126l-88 424h-633l-223 -424h-121zM401 525h559l-158 760zM643 1690q5 34 32.5 58t60.5 24t52.5 -24t14.5 -58t-32 -57.5t-61 -23.5q-33 0 -52.5 23.5t-14.5 57.5zM935 1690q5 34 32.5 58t60.5 24t52.5 -24t14.5 -58 t-32.5 -57.5t-60.5 -23.5q-34 0 -53 23.5t-14 57.5z" />
<glyph unicode="&#xc5;" d="M4 0l727 1365q43 81 100 81q58 0 76 -81l288 -1365h-126l-88 424h-633l-223 -424h-121zM401 525h559l-158 760zM684 1724q0 21 2 32q13 81 78 137.5t144 56.5q72 0 118 -46.5t46 -116.5q0 -16 -3 -31q-13 -81 -78.5 -138.5t-144.5 -57.5q-71 0 -116.5 47t-45.5 117z M757 1736q0 -44 28.5 -73t72.5 -29q50 0 91 35.5t48 86.5q1 7 1 19q0 44 -28.5 73t-73.5 29q-50 0 -90.5 -35.5t-47.5 -85.5q-1 -7 -1 -20z" />
<glyph unicode="&#xc6;" horiz-adv-x="1830" d="M4 0l688 1293q44 81 119 117t164 36q140 0 185 -106q34 32 78.5 52.5t101.5 29t102.5 11t115.5 2.5q143 0 333 -8l-15 -96h-341q-89 0 -145.5 -8t-98 -25t-66 -53.5t-40 -83.5t-27.5 -125l-40 -256h641l-16 -101h-641l-46 -285q-13 -81 -13 -127q0 -100 62 -133t235 -33 h341l-15 -99q-139 -6 -336 -6q-54 0 -90 1t-83 6t-78 14.5t-64 26.5t-52 41.5t-31.5 61t-12.5 82.5q0 33 6 74l19 121h-597l-223 -424h-120zM401 525h559l97 618q7 51 7 76q0 66 -29 94t-93 28q-32 0 -59 -10t-44.5 -22.5t-37.5 -39t-29 -43t-28 -51.5q-5 -10 -8 -15z" />
<glyph unicode="&#xc7;" horiz-adv-x="1039" d="M165 418q0 128 27 298q25 159 58 272t84.5 204t124 144.5t172.5 81.5t235 28q163 0 303 -28l-28 -99q-142 22 -229 22q-75 0 -137.5 -8t-113 -22t-91.5 -39t-72.5 -53t-57 -70t-44 -84.5t-34.5 -101t-27 -115t-23 -132.5q-29 -186 -29 -283q0 -90 20.5 -152t69.5 -106 t133 -64.5t208 -20.5q78 0 236 22l-4 -97q-144 -26 -278 -29l-61 -79q59 -2 96 -32.5t37 -82.5q0 -15 -1 -23q-13 -80 -76 -118.5t-149 -38.5q-77 0 -128 31l35 65q50 -25 106 -25q41 0 74 18t40 59q6 34 -21 58t-61 33.5t-67 9.5l93 125q-228 9 -324 112t-96 320z" />
<glyph unicode="&#xc8;" horiz-adv-x="1064" d="M152 229q0 27 7 74l130 824q10 62 31.5 110t47.5 80t66 55t76 35t89.5 18.5t93 8t99.5 1.5q143 0 333 -8l-15 -96h-341q-74 0 -124 -4.5t-91 -18t-65.5 -33t-43.5 -55t-30.5 -77.5t-21.5 -107l-41 -256h642l-16 -101h-643l-44 -285q-13 -81 -13 -127q0 -99 62 -132.5 t235 -33.5h341l-16 -99q-139 -6 -336 -6q-54 0 -90.5 1t-83.5 6t-78 14.5t-64 26.5t-52 41.5t-31.5 61t-12.5 82.5zM608 1797h157l149 -228h-101z" />
<glyph unicode="&#xc9;" horiz-adv-x="1064" d="M152 229q0 27 7 74l130 824q10 62 31.5 110t47.5 80t66 55t76 35t89.5 18.5t93 8t99.5 1.5q144 0 334 -8l-16 -96h-341q-74 0 -124 -4.5t-91 -18t-65.5 -33t-43.5 -55t-30.5 -77.5t-21.5 -107l-41 -256h642l-16 -101h-643l-44 -285q-13 -81 -13 -127q0 -99 62 -132.5 t235 -33.5h341l-16 -99q-139 -6 -336 -6q-54 0 -90.5 1t-83.5 6t-78 14.5t-64 26.5t-52 41.5t-31.5 61t-12.5 82.5zM699 1569l221 228h157l-276 -228h-102z" />
<glyph unicode="&#xca;" horiz-adv-x="1064" d="M152 229q0 27 7 74l130 824q10 62 31 110t47.5 80t66.5 55t75.5 35t89 18.5t93 8t99.5 1.5q144 0 334 -8l-15 -96h-341q-89 0 -145.5 -8t-98 -25t-66 -53.5t-40 -83.5t-27.5 -125l-41 -256h642l-16 -101h-642l-44 -285q-13 -81 -13 -127q0 -100 61.5 -133t234.5 -33h341 l-15 -99q-139 -6 -337 -6q-54 0 -90 1t-83 6t-78 14.5t-64 26.5t-52 41.5t-31.5 61t-12.5 82.5zM536 1569l223 228h118l156 -228h-104l-119 169l-172 -169h-102z" />
<glyph unicode="&#xcb;" horiz-adv-x="1064" d="M152 229q0 27 7 74l130 824q10 62 31.5 110t47.5 80t66 55t76 35t89.5 18.5t93 8t99.5 1.5q142 0 334 -8l-16 -96h-341q-74 0 -124 -4.5t-91 -18t-66 -33t-44.5 -55t-30.5 -77.5t-21 -107l-40 -256h642l-16 -101h-643l-44 -285q-13 -81 -13 -127q0 -99 62 -132.5 t235 -33.5h341l-16 -99q-139 -6 -336 -6q-54 0 -90.5 1t-83.5 6t-78 14.5t-64 26.5t-52 41.5t-31.5 61t-12.5 82.5zM584 1681q5 34 32 57.5t61 23.5t53 -23.5t14 -57.5t-32 -58t-60 -24q-34 0 -53.5 24t-14.5 58zM876 1681q5 34 32.5 57.5t60.5 23.5q34 0 53.5 -23.5 t14.5 -57.5t-32 -58t-61 -24q-33 0 -53 24t-15 58z" />
<glyph unicode="&#xcc;" horiz-adv-x="468" d="M119 0l226 1432h118l-226 -1432h-118zM171 1802h157l149 -228h-102z" />
<glyph unicode="&#xcd;" horiz-adv-x="468" d="M119 0l226 1432h118l-226 -1432h-118zM376 1574l221 228h157l-277 -228h-101z" />
<glyph unicode="&#xce;" horiz-adv-x="468" d="M119 0l226 1432h118l-226 -1432h-118zM178 1564l223 228h118l155 -228h-104l-118 169l-173 -169h-101z" />
<glyph unicode="&#xcf;" horiz-adv-x="469" d="M119 0l226 1432h119l-227 -1432h-118zM218 1676q5 34 32.5 58t60.5 24t52.5 -24t14.5 -58t-32.5 -57.5t-60.5 -23.5t-52.5 23.5t-14.5 57.5zM510 1676q5 34 32.5 58t60.5 24t52.5 -24t14.5 -58t-32 -57.5t-60 -23.5q-34 0 -53.5 23.5t-14.5 57.5z" />
<glyph unicode="&#xd0;" horiz-adv-x="1407" d="M163 694l14 93h126l100 629q195 30 422 30q148 0 248.5 -26.5t160 -82.5t85 -134t25.5 -190q0 -123 -28 -297q-17 -111 -37 -194.5t-49.5 -163t-67.5 -135.5t-91 -103t-121.5 -75.5t-157 -44t-198.5 -15.5q-215 0 -413 32l107 677h-125zM313 111q145 -21 255 -21 q87 0 159 11t126.5 26t99.5 47t75.5 58.5t56.5 77t40.5 85t30 100t22.5 105t19 116.5q31 190 31 286q0 82 -20 140.5t-70 105.5t-142.5 70.5t-228.5 23.5q-88 0 -262 -20l-85 -535h233l-15 -93h-232z" />
<glyph unicode="&#xd1;" horiz-adv-x="1409" d="M120 0l216 1362q13 84 86 84q54 0 92 -79l576 -1200l200 1265h112l-216 -1363q-6 -42 -29.5 -63t-56.5 -21q-54 0 -92 80l-576 1201l-200 -1266h-112zM677 1606q22 85 67.5 131t93.5 46q36 0 62.5 -15t38.5 -33t29 -33t37 -15q51 0 83 92h78q-23 -85 -68 -131.5 t-93 -46.5q-30 0 -52.5 10t-35.5 24.5t-24 28.5t-24 24t-30 10q-53 0 -84 -92h-78z" />
<glyph unicode="&#xd2;" horiz-adv-x="1364" d="M172 416q0 123 28 300q32 201 78 334t122.5 224.5t186.5 131.5t268 40q243 0 346.5 -100.5t103.5 -328.5q0 -116 -29 -301q-25 -161 -59 -276t-85 -204.5t-121.5 -143t-165.5 -80.5t-222 -27q-243 0 -347 101t-104 330zM286 404q0 -76 16 -131t54.5 -97.5t107.5 -64 t170 -21.5q66 0 121.5 10t99 26.5t80 45.5t63 58.5t49 75t37.5 85.5t29 99t23 107.5t20 118.5q34 219 34 310q0 77 -16 132t-54 97.5t-106.5 64t-169.5 21.5q-66 0 -122 -10t-99.5 -26t-80 -45t-63 -58.5t-49.5 -74.5t-38 -85.5t-29 -99.5t-23 -107.5t-20 -118.5 q-34 -219 -34 -312zM671 1801h157l148 -228h-101z" />
<glyph unicode="&#xd3;" horiz-adv-x="1364" d="M172 416q0 123 28 300q32 201 78 334t122.5 224.5t186.5 131.5t268 40q243 0 346.5 -100.5t103.5 -328.5q0 -116 -29 -301q-25 -161 -59 -276t-85 -204.5t-121.5 -143t-165.5 -80.5t-222 -27q-243 0 -347 101t-104 330zM286 404q0 -76 16 -131t54.5 -97.5t107.5 -64 t170 -21.5q66 0 121.5 10t99 26.5t80 45.5t63 58.5t49 75t37.5 85.5t29 99t23 107.5t20 118.5q34 219 34 310q0 77 -16 132t-54 97.5t-106.5 64t-169.5 21.5q-66 0 -122 -10t-99.5 -26t-80 -45t-63 -58.5t-49.5 -74.5t-38 -85.5t-29 -99.5t-23 -107.5t-20 -118.5 q-34 -219 -34 -312zM783 1573l222 228h156l-276 -228h-102z" />
<glyph unicode="&#xd4;" horiz-adv-x="1363" d="M172 416q0 121 28 300q32 201 78 334t122.5 224.5t186.5 131.5t268 40q243 0 346 -100t103 -328q0 -122 -28 -302q-25 -161 -59.5 -276t-85 -204.5t-121.5 -143t-166 -80.5t-221 -27q-244 0 -347.5 101t-103.5 330zM286 404q0 -76 16 -131t54 -97.5t107 -64t170 -21.5 q59 0 110 7t92.5 23t76 35.5t62 50t49.5 60t39.5 73t30.5 81t25 91.5t20 98.5t18 106.5q34 219 34 310q0 77 -16 132t-54 97.5t-106.5 64t-169.5 21.5q-66 0 -122 -10t-99.5 -26t-80 -45t-63 -58.5t-49.5 -74.5t-38 -85.5t-29 -99.5t-23 -107.5t-20 -118.5 q-34 -219 -34 -312zM627 1573l223 228h118l155 -228h-104l-118 169l-173 -169h-101z" />
<glyph unicode="&#xd5;" horiz-adv-x="1363" d="M172 415q0 122 28 301q32 201 78 334t122 224.5t186 131.5t268 40q243 0 346.5 -101t103.5 -329q0 -121 -28 -300q-32 -201 -78 -334t-122.5 -225t-186 -132t-267.5 -40q-243 0 -346.5 101t-103.5 329zM286 405q0 -76 16 -131t54 -98t107 -64.5t170 -21.5 q117 0 202.5 32.5t137.5 80.5t89.5 137.5t55 168t38.5 207.5q34 219 34 309q0 158 -76 237t-271 79q-66 0 -122 -10t-99.5 -26t-80 -45t-63 -58.5t-49 -75t-37.5 -85.5t-29 -99t-23 -107.5t-20 -118.5q-34 -219 -34 -311zM645 1590q22 85 67.5 131.5t93.5 46.5 q36 0 62.5 -15t38.5 -33t29 -33t37 -15q53 0 83 92h78q-23 -85 -68 -131.5t-93 -46.5q-37 0 -63.5 15t-38 33t-28.5 33t-37 15q-52 0 -83 -92h-78z" />
<glyph unicode="&#xd6;" horiz-adv-x="1363" d="M172 415q0 121 28 301q32 201 77.5 334t122 224.5t186 131.5t267.5 40q243 0 347 -101t104 -329q0 -121 -28 -300q-25 -161 -59.5 -276t-85 -204.5t-121.5 -143t-166 -80.5t-222 -27q-242 0 -346 101t-104 329zM286 405q0 -76 16 -131t54 -98t107 -64.5t170 -21.5 q117 0 202.5 32.5t137.5 80.5t89.5 137.5t55 168t38.5 207.5q34 219 34 310q0 77 -16 132t-54.5 97.5t-107 64t-169.5 21.5q-66 0 -122 -10t-99.5 -26t-80 -45t-63 -58.5t-49 -75t-37.5 -85.5t-29 -99t-23 -107.5t-20 -118.5q-34 -219 -34 -311zM664 1672q5 34 32 58t60 24 t52.5 -24t14.5 -58t-32 -58t-60 -24t-52.5 24t-14.5 58zM955 1672q5 34 32.5 58t61.5 24q33 0 52 -24t14 -58t-32 -58t-60 -24q-34 0 -53.5 24t-14.5 58z" />
<glyph unicode="&#xd7;" horiz-adv-x="1100" d="M109 240l411 361l-296 361l90 80l297 -362l411 361l63 -78l-410 -360l298 -362l-91 -80l-298 362l-411 -362z" />
<glyph unicode="&#xd8;" horiz-adv-x="1363" d="M132 -10l106 140q-66 98 -66 284q0 122 28 302q32 201 78 334t122 224.5t186 131.5t268 40q215 0 320 -79l97 127l73 -52l-107 -141q66 -99 66 -287q0 -127 -27 -298q-32 -201 -78 -334t-122.5 -225t-186 -132t-267.5 -40q-215 0 -322 80l-95 -126zM286 404 q0 -107 30 -171l786 1039q-81 69 -259 69q-66 0 -122 -10t-99.5 -26t-80 -45t-63 -58.5t-49 -75t-37.5 -85.5t-29 -99t-23 -107.5t-20 -118.5q-34 -219 -34 -312zM373 160q82 -70 260 -70q117 0 202.5 32.5t137.5 80.5t89.5 137.5t55 168t38.5 207.5q34 219 34 309 q0 110 -31 173z" />
<glyph unicode="&#xd9;" horiz-adv-x="1341" d="M171 329q0 54 11 128l154 975h117l-156 -991q-8 -44 -8 -92q0 -131 80.5 -194.5t254.5 -63.5q203 0 306.5 85t131.5 265l157 991h117l-153 -975q-22 -137 -71.5 -231t-126 -146t-167 -73.5t-210.5 -21.5q-104 0 -180.5 16.5t-136 54.5t-90 106t-30.5 167zM649 1791h157 l148 -228h-101z" />
<glyph unicode="&#xda;" horiz-adv-x="1341" d="M171 329q0 54 11 128l153 975h118l-156 -991q-8 -44 -8 -92q0 -131 80.5 -194.5t254.5 -63.5q203 0 306.5 85t131.5 265l157 991h117l-153 -975q-22 -137 -71.5 -231t-126 -146t-167 -73.5t-210.5 -21.5q-104 0 -180.5 16.5t-136 54.5t-90 106t-30.5 167zM771 1563 l221 228h156l-275 -228h-102z" />
<glyph unicode="&#xdb;" horiz-adv-x="1341" d="M171 329q0 54 11 128l154 975h117l-156 -991q-8 -44 -8 -92q0 -131 80.5 -194.5t254.5 -63.5q203 0 306.5 85t131.5 265l157 991h117l-153 -975q-22 -137 -71.5 -231t-126 -146t-167 -73.5t-210.5 -21.5q-104 0 -180.5 16.5t-136 54.5t-90 106t-30.5 167zM620 1563 l223 228h119l154 -228h-103l-118 169l-174 -169h-101z" />
<glyph unicode="&#xdc;" horiz-adv-x="1341" d="M170 328q0 55 11 129l155 975h117l-156 -991q-8 -53 -8 -91q0 -131 80.5 -195t254.5 -64q203 0 306.5 85t131.5 265l158 991h117l-155 -975q-17 -110 -53.5 -192.5t-86.5 -135.5t-119 -85.5t-144.5 -45.5t-170.5 -13q-104 0 -180.5 16.5t-136.5 54.5t-90.5 106t-30.5 166 zM649 1677q5 34 32.5 58t60.5 24q34 0 53 -24t14 -58t-32 -58t-60 -24q-34 0 -53.5 24t-14.5 58zM941 1677q5 34 32.5 58t61.5 24q33 0 52.5 -24t14.5 -58t-32.5 -58t-60.5 -24t-53 24t-15 58z" />
<glyph unicode="&#xdd;" horiz-adv-x="1113" d="M218 1432h129l261 -747l502 747h125l-590 -874l-88 -558h-120l89 558zM672 1557l221 228h157l-276 -228h-102z" />
<glyph unicode="&#xde;" horiz-adv-x="1206" d="M106 0l226 1432h118l-44 -280q153 17 305 17q86 0 152.5 -7t131 -27.5t106.5 -54.5t67.5 -91.5t25.5 -135.5q0 -50 -8 -97q-13 -85 -41 -151.5t-69 -112.5t-90.5 -77.5t-113.5 -48.5t-130 -24.5t-147 -7.5q-122 0 -317 11l-55 -345h-117zM294 452q138 -15 301 -15 q107 0 182.5 14t138 49t99.5 98t52 158q7 49 7 78q0 123 -87.5 177.5t-284.5 54.5q-152 0 -314 -21z" />
<glyph unicode="&#xdf;" horiz-adv-x="1233" d="M99 0l156 985q46 294 170.5 420.5t364.5 126.5q195 0 288 -71.5t93 -191.5q0 -30 -4 -55q-9 -59 -35 -104t-60.5 -73.5t-75 -51.5t-80 -42.5t-73 -41.5t-57.5 -54.5t-31 -75.5q-2 -18 -2 -26q0 -37 20.5 -66t53 -48t71.5 -36.5t78 -38.5t71.5 -48t53 -70.5t20.5 -99.5 q0 -32 -5 -60q-12 -80 -45.5 -138t-83 -91t-107.5 -48.5t-127 -15.5q-129 0 -267 38l25 96q135 -32 203 -32q27 0 44 0.5t48 4t52 10t47.5 20t43.5 32.5t32 48.5t21 67.5q3 20 3 37q0 45 -20 79t-52.5 56t-71.5 41t-78.5 39t-72 44.5t-52.5 64t-20 90.5q0 26 4 50 q9 58 35 102t60 70t74 47t79.5 41t73.5 44t59 62.5t33 90.5q3 15 3 30q0 78 -70 125t-215 47q-185 0 -276 -97t-131 -348l-156 -985h-112z" />
<glyph unicode="&#xe0;" horiz-adv-x="1117" d="M90 228q0 37 6 79q47 297 316 337q147 22 496 34l11 67q8 44 8 89q0 95 -63 134.5t-222 39.5q-125 0 -358 -33l5 97q237 37 399 37q64 0 114.5 -6.5t97 -23t77 -44t48.5 -71.5t18 -103q0 -28 -7 -79l-85 -531q-21 -127 -32 -181q-194 -85 -450 -85q-196 0 -287.5 55.5 t-91.5 187.5zM204 249q0 -94 67 -129t222 -35q176 0 327 54q20 107 31 182l41 262q-313 -5 -458 -32q-102 -20 -154 -72.5t-70 -168.5q-6 -34 -6 -61zM490 1537h147l128 -282h-95z" />
<glyph unicode="&#xe1;" horiz-adv-x="1118" d="M90 228q0 37 6 79q47 297 316 337q147 22 496 34l11 67q8 44 8 89q0 95 -63 134.5t-222 39.5q-125 0 -358 -33l5 97q237 37 399 37q64 0 114.5 -6.5t97 -23t77 -44t48.5 -71.5t18 -103q0 -28 -7 -79l-84 -531q-17 -104 -33 -181q-194 -85 -450 -85q-196 0 -287.5 55.5 t-91.5 187.5zM205 248q0 -94 66 -128.5t222 -34.5q177 0 327 54q20 107 31 182l41 262q-313 -5 -458 -32q-102 -20 -154 -72.5t-70 -168.5q-5 -29 -5 -62zM640 1254l217 281h146l-269 -281h-94z" />
<glyph unicode="&#xe2;" horiz-adv-x="1117" d="M90 227q0 37 6 80q47 297 316 337q147 22 496 34l10 67q8 53 8 88q0 96 -62 135.5t-222 39.5q-125 0 -358 -33l5 97q237 37 398 37q64 0 114.5 -6.5t97 -23t77 -44t48.5 -71.5t18 -103q0 -28 -7 -79l-84 -531q-21 -127 -32 -181q-194 -85 -450 -85q-196 0 -287.5 55 t-91.5 187zM204 249q0 -94 66.5 -129t222.5 -35q176 0 326 54q17 87 32 182l41 262q-313 -5 -458 -32q-102 -20 -154 -72.5t-70 -168.5q-6 -34 -6 -61zM473 1247l219 282h110l134 -282h-97l-102 209l-170 -209h-94z" />
<glyph unicode="&#xe3;" horiz-adv-x="1118" d="M90 228q0 37 6 79q47 297 316 337q146 22 496 34l11 67q8 44 8 89q0 95 -63 134.5t-222 39.5q-127 0 -358 -33l5 97q237 37 399 37q64 0 114.5 -6.5t97 -23t77 -44t48.5 -71.5t18 -103q0 -28 -7 -79l-84 -531q-17 -104 -33 -181q-194 -85 -450 -85q-196 0 -287.5 55.5 t-91.5 187.5zM205 249q0 -94 66.5 -129t221.5 -35q177 0 327 54q26 143 32 182l41 262q-314 -5 -459 -32q-102 -20 -154 -72.5t-70 -168.5q-5 -29 -5 -61zM488 1303q23 89 68.5 137t93.5 48q30 0 52.5 -10.5t35.5 -25t24 -29t24 -25t30 -10.5q53 0 85 96h77 q-24 -89 -69 -137.5t-93 -48.5q-30 0 -52.5 10.5t-35.5 25t-24 29.5t-24 25.5t-30 10.5q-51 0 -83 -96h-79z" />
<glyph unicode="&#xe4;" horiz-adv-x="1117" d="M90 228q0 37 6 79q47 297 316 337q147 22 496 34l11 67q8 44 8 89q0 95 -63 134.5t-222 39.5q-125 0 -358 -33l5 97q237 37 398 37q64 0 114.5 -6.5t97 -23t77 -44t48.5 -71.5t18 -103q0 -28 -7 -79l-84 -531q-21 -127 -32 -181q-194 -85 -450 -85q-196 0 -287.5 55.5 t-91.5 187.5zM204 249q0 -94 67 -129t222 -35q176 0 327 54q6 32 17 99.5t14 82.5l42 262q-314 -5 -459 -32q-102 -20 -154 -72.5t-70 -168.5q-6 -34 -6 -61zM509 1385q5 34 32 58t61 24q33 0 52.5 -24t14.5 -58q-6 -34 -33 -58t-60 -24q-34 0 -53 24t-14 58zM801 1385 q5 34 32.5 58t60.5 24q34 0 53 -24t14 -58t-32.5 -58t-60.5 -24t-52.5 24t-14.5 58z" />
<glyph unicode="&#xe5;" horiz-adv-x="1117" d="M90 228q0 37 6 79q47 297 316 337q147 22 496 34l11 67q8 44 8 89q0 95 -63 134.5t-222 39.5q-125 0 -358 -33l5 97q237 37 399 37q82 0 141.5 -10.5t110 -37t76.5 -76.5t26 -123q0 -29 -7 -80l-84 -531q-21 -127 -32 -181q-194 -85 -450 -85q-196 0 -287.5 55.5 t-91.5 187.5zM204 249q0 -94 67 -129t222 -35q176 0 327 54q20 107 31 182l41 262q-313 -5 -458 -32q-102 -20 -154 -72.5t-70 -168.5q-6 -34 -6 -61zM539 1387q0 21 2 32q13 81 78 138t144 57q72 0 118 -46.5t46 -116.5q0 -17 -3 -32q-13 -81 -78 -138t-145 -57 q-71 0 -116.5 46.5t-45.5 116.5zM611 1400q0 -44 28.5 -73t73.5 -29q50 0 91 35t48 86q1 7 1 19q0 44 -28.5 73t-73.5 29q-50 0 -90.5 -35.5t-47.5 -85.5q-2 -14 -2 -19z" />
<glyph unicode="&#xe6;" horiz-adv-x="1883" d="M90 228q0 37 6 79q47 297 316 337q147 22 496 34l10 67q9 50 9 88q0 95 -62.5 135t-222.5 40q-127 0 -358 -33l5 97q237 37 399 37q69 0 121.5 -7.5t99 -26t76.5 -53t42 -84.5q65 88 166 129.5t249 41.5q211 0 303 -86t92 -251q0 -57 -13 -138q-7 -45 -21 -114 q-93 -16 -256 -31t-278 -20l-282 -11q-3 -47 -3 -89q0 -71 13.5 -119.5t48.5 -87t100.5 -57t164.5 -18.5q155 0 381 32l-5 -99q-236 -35 -449 -35q-235 0 -316 152l-13 -71q-193 -81 -440 -81q-196 0 -287.5 55.5t-91.5 187.5zM204 249q0 -94 66.5 -129t222.5 -35 q176 0 326 54q10 57 32 182l42 262q-315 -5 -460 -32q-102 -20 -153.5 -72.5t-69.5 -168.5q-6 -34 -6 -61zM1000 552l312 15q212 10 392 33q7 30 16 87q7 49 7 80q0 243 -301 243q-107 0 -180.5 -26t-122 -85t-76 -140.5t-47.5 -206.5z" />
<glyph unicode="&#xe7;" horiz-adv-x="884" d="M155 352q0 85 20 207q18 114 42 195.5t65.5 152t100 113t144 66t200.5 23.5q118 0 222 -28l-24 -91q-89 17 -173 17q-88 0 -153.5 -11t-113 -37t-79 -58.5t-54.5 -88t-36.5 -112t-26.5 -141.5q-22 -141 -22 -208q0 -65 15.5 -111.5t52.5 -82t103.5 -52.5t164.5 -17 q64 0 184 24l-5 -97q-149 -28 -242 -30l-61 -78q59 -2 96.5 -32.5t37.5 -82.5q0 -7 -2 -23q-13 -80 -76 -118.5t-149 -38.5q-76 0 -127 31l34 65q52 -25 107 -25q41 0 73.5 18t39.5 59q6 34 -21 58t-61 33.5t-67 9.5l94 127q-85 7 -145 36.5t-94 78.5t-49 110t-15 139z" />
<glyph unicode="&#xe8;" horiz-adv-x="1168" d="M155 359q0 74 17 188q48 303 172 432.5t382 129.5q212 0 304 -86.5t92 -250.5q0 -64 -12 -138q-19 -103 -21 -114q-93 -16 -256 -31t-279 -20l-282 -11q-4 -64 -4 -91q0 -71 13 -119t47.5 -86.5t100.5 -56.5t166 -18q157 0 381 32l-4 -99q-236 -35 -449 -35 q-102 0 -174 26.5t-114 77t-61 117t-19 153.5zM284 552l313 15q212 10 392 33q7 30 16 87q8 46 8 82q0 241 -300 241q-106 0 -179.5 -26t-123 -85t-78 -141t-48.5 -206zM578 1537h147l128 -282h-95z" />
<glyph unicode="&#xe9;" horiz-adv-x="1168" d="M155 360q0 75 17 187q48 303 172.5 432.5t382.5 129.5q211 0 303 -86t92 -251q0 -64 -12 -138q-19 -103 -21 -114q-93 -16 -256 -31t-279 -20l-282 -11q-4 -64 -4 -91q0 -71 13 -119t47.5 -86.5t100.5 -56.5t166 -18q157 0 381 32l-4 -99q-236 -35 -449 -35 q-198 0 -283 97.5t-85 277.5zM284 552l313 15q212 10 392 33q7 30 16 87q7 51 7 82q0 241 -299 241q-106 0 -179.5 -26t-123 -85t-78 -141t-48.5 -206zM702 1250l217 282h146l-269 -282h-94z" />
<glyph unicode="&#xea;" horiz-adv-x="1168" d="M155 360q0 75 17 187q48 303 172 432.5t382 129.5q212 0 304 -86.5t92 -250.5q0 -64 -12 -138q-19 -103 -21 -114q-93 -16 -256 -31t-279 -20l-282 -11q-4 -64 -4 -91q0 -71 13 -119t47.5 -86.5t100.5 -56.5t166 -18q157 0 381 32l-4 -99q-236 -35 -449 -35 q-198 0 -283 97.5t-85 277.5zM284 552l313 15q212 10 392 33q7 30 16 87q7 51 7 82q0 241 -299 241q-106 0 -179.5 -26t-123 -85t-78 -141t-48.5 -206zM532 1247l219 282h111l135 -282h-97l-103 209l-170 -209h-95z" />
<glyph unicode="&#xeb;" horiz-adv-x="1168" d="M155 359q0 74 17 188q48 303 172 432.5t382 129.5q212 0 304 -86.5t92 -250.5q0 -64 -12 -138q-19 -103 -21 -114q-93 -16 -256 -31t-279 -20l-282 -11q-4 -64 -4 -91q0 -71 13 -119t47.5 -86.5t100.5 -56.5t166 -18q157 0 381 32l-4 -99q-236 -35 -449 -35 q-102 0 -174 26.5t-114 77t-61 117t-19 153.5zM284 552l313 15q212 10 392 33q7 30 16 87q7 51 7 82q0 241 -299 241q-106 0 -179.5 -26t-123 -85t-78 -141t-48.5 -206zM570 1385q5 34 32 58t61 24q33 0 52.5 -24t14.5 -58t-32 -58t-61 -24q-33 0 -52.5 24t-14.5 58z M861 1385q5 34 33 58t61 24t52.5 -24t14.5 -58q-6 -34 -33 -58t-60 -24q-34 0 -53.5 24t-14.5 58z" />
<glyph unicode="&#xec;" horiz-adv-x="417" d="M92 0l173 1094h112l-173 -1094h-112zM118 1551h146l129 -282h-95z" />
<glyph unicode="&#xed;" horiz-adv-x="417" d="M92 0l173 1094h113l-173 -1094h-113zM307 1269l216 282h146l-268 -282h-94z" />
<glyph unicode="&#xee;" horiz-adv-x="418" d="M92 0l173 1094h114l-174 -1094h-113zM119 1276l219 281h111l134 -281h-97l-103 209l-169 -209h-95z" />
<glyph unicode="&#xef;" horiz-adv-x="418" d="M92 0l173 1094h114l-174 -1094h-113zM144 1394q5 34 32.5 58t60.5 24t52.5 -24t14.5 -58t-32 -58t-61 -24q-33 0 -52.5 24t-14.5 58zM436 1394q5 34 32.5 58t60.5 24t52 -24t14 -58t-32 -58t-60 -24q-34 0 -53 24t-14 58z" />
<glyph unicode="&#xf0;" horiz-adv-x="1182" d="M115 339q0 87 18 199q47 299 172.5 423t382.5 124q184 0 274 -72q-22 140 -69 258l-184 -64l-28 72l182 64q-40 83 -91 156l104 33q58 -74 95 -151l179 62l30 -71l-177 -62q88 -221 88 -500q0 -131 -22 -272q-47 -298 -173 -425.5t-382 -127.5q-211 0 -305 82.5 t-94 271.5zM229 346q0 -147 68 -203t227 -56q136 0 219 41.5t133.5 138.5t78.5 271q18 106 18 184q0 144 -67.5 202.5t-227.5 58.5q-102 0 -170.5 -20t-121.5 -71t-85.5 -136t-53.5 -218q-18 -112 -18 -192z" />
<glyph unicode="&#xf1;" horiz-adv-x="1211" d="M117 0l133 838q17 104 33 181q229 90 498 90q102 0 172 -18t107.5 -53.5t53 -79.5t15.5 -104q0 -53 -14 -139l-113 -715h-112l108 687q13 89 13 127q0 104 -62.5 149t-226.5 45q-75 0 -178 -18t-162 -42q-26 -143 -32 -182l-121 -766h-112zM545 1309q24 89 69 137t93 48 q36 0 62.5 -15.5t38.5 -34.5t29 -34.5t37 -15.5q51 0 83 96h78q-24 -89 -69 -137t-93 -48q-37 0 -63 15.5t-37.5 34.5t-28.5 34.5t-37 15.5q-51 0 -83 -96h-79z" />
<glyph unicode="&#xf2;" horiz-adv-x="1204" d="M159 342q0 90 18 205q49 308 174.5 435t382.5 127q211 0 304.5 -84.5t93.5 -275.5q0 -82 -19 -202q-48 -304 -174.5 -433t-382.5 -129q-211 0 -304 82.5t-93 274.5zM273 350q0 -149 67.5 -206t226.5 -57q136 0 219.5 42.5t134.5 141.5t79 276q18 114 18 196 q0 146 -67.5 205.5t-226.5 59.5q-102 0 -170.5 -20.5t-122 -73t-86 -141t-54.5 -226.5q-18 -115 -18 -197zM575 1537h146l128 -282h-94z" />
<glyph unicode="&#xf3;" horiz-adv-x="1204" d="M159 342q0 90 18 205q49 307 174.5 434.5t382.5 127.5q210 0 304 -84.5t94 -276.5q0 -81 -19 -201q-48 -304 -174.5 -433t-382.5 -129q-211 0 -304 82.5t-93 274.5zM272 350q0 -149 67.5 -206t226.5 -57q136 0 219.5 42.5t135 141.5t79.5 276q18 114 18 196 q0 146 -67.5 205.5t-226.5 59.5q-102 0 -170.5 -20.5t-122 -73t-86 -141t-54.5 -226.5q-19 -122 -19 -197zM675 1264l218 281h146l-268 -281h-96z" />
<glyph unicode="&#xf4;" horiz-adv-x="1204" d="M159 342q0 90 18 205q49 308 174.5 435t382.5 127q211 0 304.5 -84.5t93.5 -275.5q0 -82 -19 -202q-48 -304 -174.5 -433t-382.5 -129q-211 0 -304 82.5t-93 274.5zM272 350q0 -149 67.5 -206t226.5 -57q202 0 297.5 99.5t136.5 360.5q18 114 18 196q0 146 -67.5 205.5 t-226.5 59.5q-102 0 -170.5 -20.5t-122 -73t-86 -141t-54.5 -226.5q-19 -122 -19 -197zM524 1254l219 281h111l135 -281h-98l-102 208l-170 -208h-95z" />
<glyph unicode="&#xf5;" horiz-adv-x="1204" d="M159 342q0 90 18 205q49 308 174.5 435t382.5 127q210 0 304 -84.5t94 -276.5q0 -81 -19 -201q-48 -304 -174.5 -433t-382.5 -129q-211 0 -304 82.5t-93 274.5zM272 349q0 -149 67.5 -205.5t226.5 -56.5q136 0 219.5 42.5t135 141.5t79.5 276q18 114 18 196 q0 146 -67.5 205.5t-226.5 59.5q-102 0 -170.5 -20.5t-122 -73t-86 -141t-54.5 -226.5q-19 -123 -19 -198zM533 1297q23 89 68 137t93 48q30 0 53 -10.5t36 -25t24 -29t24 -25t30 -10.5q52 0 84 96h77q-23 -89 -68 -137.5t-93 -48.5q-37 0 -63 15.5t-37.5 34.5t-28.5 34.5 t-37 15.5q-52 0 -84 -95h-78z" />
<glyph unicode="&#xf6;" horiz-adv-x="1204" d="M159 342q0 90 18 205q49 308 174.5 435t382.5 127q210 0 304 -84.5t94 -276.5q0 -81 -19 -201q-48 -304 -174.5 -433t-382.5 -129q-211 0 -304 82.5t-93 274.5zM272 349q0 -148 67.5 -205t225.5 -57q202 0 297.5 99.5t137.5 360.5q18 114 18 196q0 146 -67.5 205.5 t-226.5 59.5q-102 0 -170.5 -20.5t-122 -73t-86 -141t-54.5 -226.5q-19 -123 -19 -198zM552 1385q5 34 32 58t61 24q33 0 52.5 -24t14.5 -58t-32.5 -58t-61.5 -24q-33 0 -52 24t-14 58zM843 1385q5 34 32.5 58t60.5 24t52.5 -24t14.5 -58q-6 -34 -32.5 -58t-59.5 -24 q-34 0 -53.5 24t-14.5 58z" />
<glyph unicode="&#xf7;" horiz-adv-x="1173" d="M143 547l17 109h966l-17 -109h-966zM470 171q7 41 39.5 70t72.5 29t63.5 -29t16.5 -70t-39 -69.5t-72 -28.5t-64 29t-17 69zM606 1032q7 41 40 69.5t72 28.5q40 0 64 -28.5t17 -69.5t-39.5 -70t-72.5 -29t-63.5 29t-17.5 70z" />
<glyph unicode="&#xf8;" horiz-adv-x="1203" d="M133 -20l93 115q-68 82 -68 247q0 83 19 205q49 308 174.5 435t382.5 127q179 0 271 -60l92 113l60 -48l-95 -116q69 -85 69 -250q0 -87 -18 -201q-48 -303 -174.5 -432.5t-382.5 -129.5q-180 0 -272 59l-91 -112zM272 349q0 -103 32 -160l630 773q-66 46 -210 46 q-102 0 -170.5 -20.5t-122 -73t-86 -141t-54.5 -226.5q-19 -123 -19 -198zM355 131q64 -44 211 -44q202 0 297.5 99.5t136.5 360.5q18 114 18 195q0 104 -32 162z" />
<glyph unicode="&#xf9;" horiz-adv-x="1206" d="M160 240q0 54 14 140l113 714h112l-109 -687q-13 -81 -13 -132q0 -102 62 -145t228 -43q74 0 175.5 17.5t160.5 41.5q4 19 32 182l122 766h111l-133 -838q-15 -90 -32 -181q-229 -90 -495 -90q-102 0 -172 18t-107.5 53.5t-53 79.5t-15.5 104zM557 1551h146l128 -282h-95 z" />
<glyph unicode="&#xfa;" horiz-adv-x="1206" d="M160 240q0 54 14 140l113 714h112l-109 -687q-13 -81 -13 -132q0 -102 62 -145t228 -43q74 0 175.5 17.5t160.5 41.5q26 143 32 182l121 766h112l-133 -838q-21 -127 -32 -181q-229 -90 -495 -90q-102 0 -172 18t-107.5 53.5t-53 79.5t-15.5 104zM688 1282l218 281h145 l-268 -281h-95z" />
<glyph unicode="&#xfb;" horiz-adv-x="1207" d="M160 240q0 54 14 140l113 714h112l-109 -687q-13 -81 -13 -132q0 -102 62 -145t229 -43q74 0 175 17.5t160 41.5q17 87 32 182l122 766h112l-133 -838q-8 -52 -33 -181q-229 -90 -495 -90q-102 0 -172 18t-107.5 53.5t-53 79.5t-15.5 104zM527 1288l219 281h111l134 -281 h-98l-102 209l-170 -209h-94z" />
<glyph unicode="&#xfc;" horiz-adv-x="1207" d="M160 240q0 54 14 140l114 714h111l-108 -687q-14 -87 -14 -132q0 -101 62.5 -144.5t228.5 -43.5q74 0 175 17.5t160 41.5q22 108 33 182l121 766h112l-133 -838q-8 -52 -33 -181q-229 -90 -495 -90q-102 0 -172 18t-107.5 53.5t-53 79.5t-15.5 104zM552 1407q5 34 32 58 t60 24q34 0 53.5 -24t14.5 -58t-32.5 -58t-60.5 -24t-52.5 24t-14.5 58zM844 1407q5 34 32 58t60 24t52.5 -24t14.5 -58t-32 -58t-60 -24q-34 0 -53 24t-14 58z" />
<glyph unicode="&#xfd;" horiz-adv-x="1018" d="M207 1094h122l228 -859l423 859h113l-736 -1497h-114l238 481zM627 1257l218 282h146l-269 -282h-95z" />
<glyph unicode="&#xfe;" horiz-adv-x="1172" d="M53 -403l290 1835h113l-58 -368q174 45 328 45q196 0 284.5 -80.5t88.5 -270.5q0 -94 -19 -211q-49 -310 -170 -436t-362 -126q-151 0 -314 46l-69 -434h-112zM250 133q128 -47 270 -47q114 0 189.5 23t127 80t80.5 140.5t50 217.5q19 120 19 197q0 144 -71.5 204 t-247.5 60q-142 0 -285 -47z" />
<glyph unicode="&#xff;" horiz-adv-x="1018" d="M207 1094h122l228 -859l422 859h114l-737 -1497h-114l239 481zM492 1389q5 34 32.5 57.5t60.5 23.5t52 -23.5t14 -57.5t-32 -58t-60 -24q-34 0 -53 24t-14 58zM783 1389q5 34 32.5 57.5t61.5 23.5q33 0 52.5 -23.5t14.5 -57.5t-32 -58t-61 -24t-53.5 24t-14.5 58z" />
<glyph unicode="&#x152;" horiz-adv-x="1997" d="M172 415q0 121 28 301q32 201 77.5 334t122 224.5t186 131.5t267.5 40q169 0 267.5 -48.5t141.5 -153.5q19 44 47 77t65.5 53.5t74 33t88 18.5t90 7.5t97.5 1.5q144 0 334 -8l-15 -96h-341q-89 0 -145.5 -8t-98 -25t-66 -53.5t-40 -83.5t-27.5 -125l-41 -256h642 l-16 -101h-642l-45 -285q-13 -81 -13 -127q0 -99 62 -132.5t235 -33.5h341l-16 -99q-139 -6 -336 -6q-59 0 -97.5 1.5t-88 7.5t-81.5 18.5t-63.5 33t-49 53.5t-22.5 77q-75 -105 -188.5 -153.5t-283.5 -48.5q-242 0 -346 101t-104 329zM286 406q0 -77 16 -132t54 -98 t107 -64.5t170 -21.5q117 0 202.5 32.5t137.5 80.5t89.5 137.5t55 168t38.5 207.5q34 219 34 309q0 158 -76 237t-271 79q-66 0 -122 -10t-99.5 -26t-80 -45t-63 -58.5t-49 -75t-37.5 -85.5t-29 -99t-23 -107.5t-20 -118.5q-34 -219 -34 -310z" />
<glyph unicode="&#x153;" horiz-adv-x="1996" d="M159 342q0 90 18 205q49 308 174.5 435t382.5 127q165 0 255.5 -52t120.5 -167q65 114 172 166.5t273 52.5q211 0 303 -86t92 -251q0 -64 -12 -138q-19 -103 -21 -114q-93 -16 -256 -31t-279 -20l-282 -11q-3 -45 -3 -87q0 -72 13 -120.5t48 -87.5t100.5 -57.5 t165.5 -18.5q156 0 380 32l-4 -99q-236 -35 -449 -35q-286 0 -345 226q-66 -118 -174 -172t-276 -54q-211 0 -304 82.5t-93 274.5zM272 350q0 -149 68 -206t227 -57q201 0 296 99.5t137 360.5q18 114 18 196q0 146 -67.5 205.5t-226.5 59.5q-102 0 -170.5 -20.5t-122 -73 t-86 -141t-54.5 -226.5q-19 -122 -19 -197zM1112 552l314 15q210 10 391 33q7 30 16 87q7 49 7 80q0 243 -301 243q-107 0 -180.5 -26t-122 -85t-76.5 -140.5t-48 -206.5z" />
<glyph unicode="&#x178;" horiz-adv-x="1112" d="M218 1432h129l261 -747l502 747h124l-589 -874l-88 -558h-120l88 558zM549 1670q5 34 32.5 58t61.5 24t53 -24t14 -58t-32.5 -58t-60.5 -24q-34 0 -53.5 24t-14.5 58zM842 1670q5 34 32 58t61 24t53 -24t14 -58t-32 -58t-61 -24t-53 24t-14 58z" />
<glyph unicode="&#x2c6;" horiz-adv-x="643" d="M171 1177l219 281h111l134 -281h-97l-102 209l-171 -209h-94z" />
<glyph unicode="&#x2dc;" horiz-adv-x="697" d="M207 1220q24 89 69 137t93 48q30 0 52.5 -10.5t35.5 -25t24 -29t24 -25t30 -10.5q53 0 84 95h78q-24 -89 -69 -137t-93 -48q-30 0 -52.5 10.5t-35.5 25t-24 29t-24 25t-30 10.5q-52 0 -84 -95h-78z" />
<glyph unicode="&#x2000;" horiz-adv-x="975" />
<glyph unicode="&#x2001;" horiz-adv-x="1950" />
<glyph unicode="&#x2002;" horiz-adv-x="975" />
<glyph unicode="&#x2003;" horiz-adv-x="1950" />
<glyph unicode="&#x2004;" horiz-adv-x="650" />
<glyph unicode="&#x2005;" horiz-adv-x="487" />
<glyph unicode="&#x2006;" horiz-adv-x="325" />
<glyph unicode="&#x2007;" horiz-adv-x="325" />
<glyph unicode="&#x2008;" horiz-adv-x="243" />
<glyph unicode="&#x2009;" horiz-adv-x="390" />
<glyph unicode="&#x200a;" horiz-adv-x="108" />
<glyph unicode="&#x2010;" horiz-adv-x="810" d="M183 492l17 104h513l-17 -104h-513z" />
<glyph unicode="&#x2011;" horiz-adv-x="810" d="M183 492l17 104h513l-17 -104h-513z" />
<glyph unicode="&#x2012;" horiz-adv-x="810" d="M183 492l17 104h513l-17 -104h-513z" />
<glyph unicode="&#x2013;" horiz-adv-x="1263" d="M183 496l15 96h968l-15 -96h-968z" />
<glyph unicode="&#x2014;" horiz-adv-x="2198" d="M183 496l15 96h1903l-16 -96h-1902z" />
<glyph unicode="&#x2018;" horiz-adv-x="413" d="M152 1029l245 488h94l-208 -488h-131z" />
<glyph unicode="&#x2019;" horiz-adv-x="413" d="M152 1029l209 488h130l-245 -488h-94z" />
<glyph unicode="&#x201a;" horiz-adv-x="408" d="M14 -255l209 488h130l-245 -488h-94z" />
<glyph unicode="&#x201c;" horiz-adv-x="672" d="M152 1029l244 488h94l-208 -488h-130zM410 1029l245 488h94l-208 -488h-131z" />
<glyph unicode="&#x201d;" horiz-adv-x="671" d="M152 1029l209 488h129l-244 -488h-94zM410 1029l209 488h129l-243 -488h-95z" />
<glyph unicode="&#x201e;" horiz-adv-x="666" d="M14 -255l210 488h129l-245 -488h-94zM273 -255l209 488h129l-244 -488h-94z" />
<glyph unicode="&#x2022;" horiz-adv-x="811" d="M128 688q0 115 81 196t197 81q115 0 196 -81t81 -196t-81 -196.5t-196 -81.5t-196.5 81.5t-81.5 196.5z" />
<glyph unicode="&#x2026;" horiz-adv-x="1698" d="M142 37q0 8 4 42q8 54 26 75.5t56 21.5q30 0 43 -13t13 -43q0 -17 -3 -41q-8 -53 -25.5 -73.5t-57.5 -20.5q-31 0 -43.5 12t-12.5 40zM785 37q0 17 3 42q8 54 26 75.5t57 21.5q30 0 42.5 -13t12.5 -42q0 -10 -4 -42q-8 -53 -25 -73.5t-56 -20.5q-31 0 -43.5 12t-12.5 40z M1426 37q0 8 4 42q8 54 26 75.5t57 21.5q30 0 43 -13t13 -43q0 -9 -4 -41q-8 -53 -25.5 -73.5t-56.5 -20.5q-31 0 -44 11.5t-13 40.5z" />
<glyph unicode="&#x202f;" horiz-adv-x="390" />
<glyph unicode="&#x2039;" horiz-adv-x="584" d="M122 530l336 395h119l-312 -395l187 -395h-118z" />
<glyph unicode="&#x203a;" horiz-adv-x="583" d="M90 135l313 395l-187 395h118l212 -395l-337 -395h-119z" />
<glyph unicode="&#x205f;" horiz-adv-x="487" />
<glyph unicode="&#x20ac;" horiz-adv-x="1037" d="M124 536l33 88h130l10 70q6 45 15 87h-137l33 88h122q31 143 73 240t105.5 164.5t151 98.5t208.5 31q137 0 250 -27l-25 -97q-118 22 -208 22q-105 0 -179.5 -26.5t-125 -84.5t-81 -133.5t-54.5 -187.5h477l-34 -88h-460q-9 -53 -14 -87l-11 -70h426l-33 -88h-405 q-9 -78 -9 -144q0 -158 69 -231.5t241 -73.5q91 0 216 22l-6 -94q-134 -30 -259 -30q-204 0 -290 92.5t-86 297.5q0 74 9 161h-152z" />
<glyph unicode="&#x2122;" horiz-adv-x="2000" d="M95 1347v85h664v-85h-285v-773h-94v773h-285zM890 574v858h156l310 -708l305 708h154v-858h-96v754l-2 1l-332 -755h-66l-331 756l-1 -1v-755h-97z" />
<glyph unicode="&#x25fc;" horiz-adv-x="1093" d="M0 0v1094h1094v-1094h-1094z" />
</font>
</defs>
</svg>
