<?xml version="1.0" standalone="no"?>
<!DOCTYPE svg PUBLIC "-//W3C//DTD SVG 1.1//EN" "http://www.w3.org/Graphics/SVG/1.1/DTD/svg11.dtd" >
<svg xmlns="http://www.w3.org/2000/svg">
<metadata></metadata>
<defs>
<font id="flexoheavy" horiz-adv-x="1383" >
<font-face units-per-em="2048" ascent="1618" descent="-430" />
<missing-glyph horiz-adv-x="506" />
<glyph unicode="&#xfb01;" horiz-adv-x="1400" d="M54 850v244h176v86q0 169 91.5 260.5t273.5 91.5q90 0 193 -14l-24 -220h-89q-69 0 -100 -29.5t-31 -93.5v-81h719v-1094h-317v850h-402v-850h-314v850h-176zM922 1364q0 92 40 130t142 38q101 0 141 -38t40 -130t-40 -130t-141 -38q-102 0 -142 38t-40 130z" />
<glyph unicode="&#xfb02;" horiz-adv-x="1393" d="M54 850v244h176v86q0 169 91.5 260.5t273.5 91.5q325 0 654 -15v-1213q0 -71 16.5 -123.5t56.5 -109.5l-282 -131q-54 64 -80 142.5t-26 190.5v1025h-259q-69 0 -100 -29.5t-31 -93.5v-81h217v-244h-217v-850h-314v850h-176z" />
<glyph unicode="&#xfb03;" horiz-adv-x="2133" d="M54 850v244h176v86q0 169 91.5 260.5t273.5 91.5q90 0 193 -14l-24 -220h-89q-69 0 -100 -29.5t-31 -93.5v-81h418v86q0 169 91.5 260.5t273.5 91.5q90 0 193 -14l-24 -220h-89q-69 0 -100 -29.5t-31 -93.5v-81h719v-1094h-317v850h-402v-850h-314v850h-418v-850h-314 v850h-176zM1655 1364q0 92 40 130t141 38t141 -38t40 -130t-40 -130t-141 -38q-102 0 -141.5 38t-39.5 130z" />
<glyph unicode="&#xfb04;" horiz-adv-x="2126" d="M54 850v244h176v86q0 169 91.5 260.5t273.5 91.5q90 0 193 -14l-24 -220h-89q-69 0 -100 -29.5t-31 -93.5v-81h418v86q0 169 91.5 260.5t273.5 91.5q327 0 655 -15v-1213q0 -71 16 -123.5t56 -109.5l-281 -131q-54 64 -80.5 142.5t-26.5 190.5v1025h-259 q-69 0 -100 -29.5t-31 -93.5v-81h218v-244h-218v-850h-314v850h-418v-850h-314v850h-176z" />
<glyph horiz-adv-x="2048" />
<glyph horiz-adv-x="2048" />
<glyph unicode="&#xd;" horiz-adv-x="2048" />
<glyph unicode=" "  horiz-adv-x="506" />
<glyph unicode="&#x09;" horiz-adv-x="506" />
<glyph unicode="&#xa0;" horiz-adv-x="506" />
<glyph unicode="!" horiz-adv-x="635" d="M135 1432h366l-46 -1011h-274zM136 153q0 92 40.5 130t141.5 38t141 -38t40 -130t-40 -130t-141 -38q-102 0 -142 38t-40 130z" />
<glyph unicode="&#x22;" horiz-adv-x="888" d="M104 1517h271l-20 -613h-230zM513 1517h271l-20 -613h-230z" />
<glyph unicode="#" horiz-adv-x="1225" d="M74 400v210h226l32 213h-205v211h235l60 398h213l-59 -398h184l60 398h214l-60 -398h177v-211h-208l-31 -213h181v-210h-213l-60 -400h-215l60 400h-184l-59 -400h-214l60 400h-194zM514 610h184l31 213h-184z" />
<glyph unicode="$" horiz-adv-x="1086" d="M71 32l31 255q220 -33 370 -33q105 0 155 32t50 112q0 30 -10 53.5t-24.5 39.5t-44 31t-55 24.5t-70.5 23.5q-68 21 -117 40t-97 45.5t-79.5 57.5t-57 71.5t-37 93.5t-11.5 118q0 189 90.5 282.5t272.5 116.5v193h221v-187q164 -8 334 -45l-30 -249q-202 33 -316 33 q-33 0 -56 -1t-55 -4.5t-53.5 -11.5t-42 -21t-31 -34.5t-10.5 -49.5q0 -40 13 -67t44.5 -45t67 -29.5t97.5 -28.5q6 -1 9 -2q211 -57 296 -153t85 -281q0 -189 -91.5 -289.5t-270.5 -126.5v-195h-222v185q-177 5 -355 46z" />
<glyph unicode="%" horiz-adv-x="1787" d="M63 1012q0 114 13 188.5t48 131t99 82t164 25.5t164 -25.5t98.5 -82t47.5 -131t13 -188.5t-13 -188.5t-47.5 -131t-98.5 -82t-164 -25.5t-164 25.5t-99 82t-48 131t-13 188.5zM281 1012q0 -42 0.5 -64t2.5 -54t6 -48.5t11.5 -37t18.5 -30t28 -16.5t39 -7t38.5 6.5 t28 16.5t19 30t11.5 37t6 49t2.5 54.5t0.5 63.5q0 47 -0.5 73.5t-4 61t-10 53t-18 36.5t-30 25.5t-43.5 7.5q-26 0 -44 -7.5t-29.5 -26t-18.5 -36.5t-10 -53t-3.5 -60.5t-0.5 -73.5zM361 -29l840 1490h211l-841 -1490h-210zM1062 420q0 114 13 188.5t48 131t99 82t164 25.5 t164 -25.5t99 -82t48 -131t13 -188.5t-13 -188.5t-48 -131t-99 -82t-164 -25.5t-164 25.5t-99 82t-48 131t-13 188.5zM1280 420q0 -41 0.5 -63.5t2.5 -54.5t6 -49t11.5 -37t19 -30t28 -16.5t38.5 -6.5t38.5 6.5t28 16.5t19 30t11.5 37t6 49t2.5 54.5t0.5 63.5t-0.5 63.5 t-2.5 54.5t-6 49t-11.5 37t-19 30t-28 16.5t-38.5 6.5t-38.5 -6.5t-28 -16.5t-19 -30t-11.5 -37t-6 -49t-2.5 -54.5t-0.5 -63.5z" />
<glyph unicode="&#x26;" horiz-adv-x="1423" d="M69 415q0 138 65.5 226.5t191.5 145.5q-32 43 -45 62.5t-34.5 59.5t-30 82t-8.5 95q0 97 31 168t88 112t129.5 60.5t162.5 19.5q80 0 149 -19t125.5 -58t88.5 -106.5t32 -157.5q0 -259 -264 -382l176 -190q21 57 27 148l279 -12q-22 -225 -104 -370l269 -299h-387l-74 87 q-67 -54 -155.5 -78t-220.5 -24q-248 0 -369.5 107t-121.5 323zM380 402q0 -81 60.5 -126.5t145.5 -45.5q102 0 174 61l-269 302q-59 -40 -85 -83t-26 -108zM502 1081q0 -51 20.5 -90t61.5 -82q139 71 139 175q0 120 -110 120q-50 0 -80.5 -30t-30.5 -93z" />
<glyph unicode="'" horiz-adv-x="479" d="M104 1517h271l-20 -613h-229z" />
<glyph unicode="(" horiz-adv-x="693" d="M91 570q0 638 362 923l182 -150q-67 -64 -114 -159.5t-69.5 -205.5t-32 -207.5t-9.5 -200.5q0 -568 225 -771l-182 -152q-362 287 -362 923z" />
<glyph unicode=")" horiz-adv-x="693" d="M58 1343l183 150q362 -285 362 -923q0 -636 -362 -923l-182 152q225 203 225 771q0 103 -9.5 201t-32.5 207t-70 205t-114 160z" />
<glyph unicode="*" horiz-adv-x="924" d="M66 990v185h231l-116 203l165 93l115 -201l116 201l165 -93l-120 -203h236v-185h-235l117 -204l-163 -91l-116 198l-115 -197l-165 92l117 202h-232z" />
<glyph unicode="+" horiz-adv-x="1172" d="M78 475v255h378v380h259v-380h380v-255h-380v-382h-259v382h-378z" />
<glyph unicode="," horiz-adv-x="599" d="M45 -264l133 581h342l-224 -581h-251z" />
<glyph unicode="-" horiz-adv-x="801" d="M125 423v243h551v-243h-551z" />
<glyph unicode="." horiz-adv-x="567" d="M101 160q0 99 39 136t143 37t143.5 -37t39.5 -136q0 -100 -39 -137.5t-144 -37.5t-143.5 37.5t-38.5 137.5z" />
<glyph unicode="/" horiz-adv-x="942" d="M44 -165l580 1647h263l-581 -1647h-262z" />
<glyph unicode="0" horiz-adv-x="1274" d="M111 694q0 107 6.5 189.5t21.5 158.5t41.5 131t66.5 100.5t95 73t128.5 42t166.5 14.5q130 0 222.5 -29t151.5 -82.5t92.5 -143.5t46.5 -196.5t13 -257.5t-13 -257.5t-46.5 -196.5t-92.5 -143.5t-151.5 -82.5t-222.5 -29q-93 0 -166.5 14.5t-128.5 42t-95 73t-66.5 100.5 t-41.5 131t-21.5 158.5t-6.5 189.5zM438 694q0 -55 0.5 -86.5t2 -77t5.5 -71t10.5 -60t16.5 -53t25 -40t34.5 -32t46 -17.5t58.5 -7t58.5 7t46 17.5t34.5 32t25 40t16.5 53t10.5 60t5.5 71t2 77t0.5 86.5t-0.5 86.5t-2.5 77t-5.5 71.5t-10.5 60t-17 53t-25 40.5t-34.5 32 t-45.5 17.5t-58 7t-58 -7t-45.5 -17.5t-34.5 -32t-25 -40.5t-17 -53t-10.5 -60t-5.5 -71.5t-2.5 -77t-0.5 -86.5z" />
<glyph unicode="1" horiz-adv-x="815" d="M37 1279q216 33 379 110h251v-1389h-324v1064q-116 -29 -292 -46z" />
<glyph unicode="2" horiz-adv-x="1178" d="M71 0q17 98 25.5 143t24.5 118.5t27.5 107t30.5 87t39.5 79.5t49.5 63.5t64.5 61t79.5 49t100 49.5q124 53 176 100.5t52 123.5q0 90 -62 119t-241 29q-130 0 -312 -31l-30 254q250 50 470 50q113 0 199 -16.5t157.5 -56t109.5 -113t38 -179.5q0 -194 -98.5 -319.5 t-308.5 -206.5q-123 -48 -167 -97t-56 -134h629v-281h-997z" />
<glyph unicode="3" horiz-adv-x="1154" d="M73 36l35 256q250 -32 358 -32q142 0 201 33.5t59 132.5q0 138 -131 153q-127 16 -291 16h-22v240q149 3 313 28q61 9 89 43.5t28 98.5q0 41 -15 68t-45.5 39.5t-64 17t-84.5 4.5q-131 0 -383 -33l-33 252q246 50 437 50q89 0 159.5 -8.5t140 -32.5t116 -64t75 -107.5 t28.5 -158.5q0 -99 -46 -177t-139 -124q110 -43 157.5 -112t47.5 -182q0 -103 -24.5 -180.5t-69.5 -129t-113.5 -83.5t-150.5 -45.5t-187 -13.5q-174 0 -445 51z" />
<glyph unicode="4" horiz-adv-x="1238" d="M58 468q0 29 4 51t29 71t72 110l439 565q64 83 115.5 110.5t122.5 27.5q72 0 117.5 -47.5t45.5 -137.5v-659h164v-256h-164v-303h-315v303h-426q-112 0 -158 42.5t-46 122.5zM379 559h310v420z" />
<glyph unicode="5" horiz-adv-x="1176" d="M84 37l34 256q227 -33 359 -33q78 0 123.5 7.5t78.5 30t45.5 63t12.5 108.5q0 52 -22 86t-67 51t-96 23t-126 6q-166 0 -309 -8l53 762h874v-279h-594l-14 -219q52 2 78 2q73 0 132 -4.5t118.5 -17t104.5 -33.5t85 -55t66 -80.5t40.5 -111t14.5 -144.5 q0 -242 -133.5 -352t-398.5 -110q-235 0 -459 52z" />
<glyph unicode="6" horiz-adv-x="1243" d="M103 570q0 165 13 282.5t46.5 214.5t87.5 158t140.5 102.5t201.5 58.5t274 17q60 0 190 -3l25 -251q-26 -1 -83 -1h-57q-61 0 -101.5 -1t-97.5 -6.5t-94.5 -15.5t-79 -29t-66 -46t-41 -67.5t-16.5 -92.5q108 13 200 13q101 0 177 -12t142 -42.5t108 -80.5t65.5 -128.5 t23.5 -185.5q0 -111 -26 -193.5t-71 -134.5t-114.5 -84t-148.5 -44.5t-182 -12.5q-104 0 -184 18t-136.5 54.5t-95 85t-60.5 116.5t-31 142.5t-9 168.5zM426 536q0 -50 3.5 -87t15 -76.5t31 -64.5t54.5 -41t83 -16q130 0 177.5 44.5t47.5 162.5q0 112 -56.5 154t-170.5 42 q-93 0 -181 -14q-4 -44 -4 -104z" />
<glyph unicode="7" horiz-adv-x="1086" d="M58 1107v282h810q90 0 138.5 -39.5t48.5 -108.5q0 -46 -23 -97l-514 -1144h-363l542 1107h-639z" />
<glyph unicode="8" horiz-adv-x="1238" d="M91 395q0 80 28 141t70.5 100t114.5 83q-94 51 -144 126t-50 201q0 357 511 357q510 0 510 -357q0 -120 -41.5 -190t-153.5 -132q105 -61 158.5 -135t53.5 -193q0 -99 -27.5 -172.5t-73.5 -118.5t-116 -72.5t-143.5 -37.5t-166.5 -10q-123 0 -216 20.5t-165.5 66 t-110.5 127t-38 196.5zM409 401q0 -89 54.5 -123t157.5 -34q97 0 153 35t56 122q0 67 -19.5 102.5t-77 58t-173.5 35.5q-151 -36 -151 -196zM418 1010q0 -39 9 -64.5t35.5 -49t80.5 -37t138 -17.5q76 22 110.5 58.5t34.5 109.5q0 81 -52 111t-153 30q-47 0 -81 -5.5 t-63 -20.5t-44 -43.5t-15 -71.5z" />
<glyph unicode="9" horiz-adv-x="1244" d="M80 935q0 138 38 231.5t113 144.5t169 71.5t224 20.5q124 0 214.5 -27t148 -74.5t92 -122.5t47.5 -160.5t13 -199.5q0 -165 -13 -282.5t-46 -215t-87.5 -158t-141 -102.5t-201.5 -59t-274 -17q-17 0 -190 4l-25 251q26 1 83 1q9 0 28.5 -0.5t29.5 -0.5q61 0 101.5 1 t97 6.5t94 15.5t79 29.5t66 46.5t41 67.5t16.5 92.5q-116 -14 -200 -14q-101 0 -177.5 12t-142.5 42.5t-108 81t-65.5 129t-23.5 185.5zM404 930q0 -112 56.5 -154t170.5 -42q93 0 182 14q4 44 4 104q0 41 -2.5 73t-9.5 66.5t-20.5 59t-33.5 45.5t-51 31.5t-71 10.5 q-130 0 -177.5 -45t-47.5 -163z" />
<glyph unicode=":" horiz-adv-x="635" d="M136 160q0 99 38.5 136t143.5 37q104 0 143 -37t39 -136q0 -100 -38.5 -137.5t-143.5 -37.5q-106 0 -144 37.5t-38 137.5zM136 852q0 99 38.5 136.5t143.5 37.5q104 0 143 -37.5t39 -136.5q0 -100 -38.5 -137t-143.5 -37q-106 0 -144 37t-38 137z" />
<glyph unicode=";" horiz-adv-x="641" d="M63 -264l132 581h343l-224 -581h-251zM191 852q0 99 39 136.5t143 37.5t143 -37.5t39 -136.5q0 -100 -38.5 -137t-143.5 -37t-143.5 37t-38.5 137z" />
<glyph unicode="&#x3c;" horiz-adv-x="1269" d="M74 491v221l1054 427v-266l-681 -271l681 -272v-266z" />
<glyph unicode="=" horiz-adv-x="1279" d="M131 253v255h1017v-255h-1017zM131 695v255h1017v-255h-1017z" />
<glyph unicode="&#x3e;" horiz-adv-x="1269" d="M141 64v266l682 272l-682 271v266l1055 -427v-221z" />
<glyph unicode="?" horiz-adv-x="1109" d="M54 1394q213 52 440 52q75 0 132.5 -4t116.5 -16t101.5 -32.5t80.5 -53.5t61.5 -79.5t37 -111t13.5 -145.5q0 -100 -23.5 -172t-61 -109.5t-83 -61.5t-91.5 -35t-84 -21.5t-62.5 -30.5t-25.5 -54l-4 -99h-279l-5 137q-2 24 -2 49q0 74 21 121t54 66.5t73.5 28.5t81 16 t73.5 20.5t54 50t21 96.5q0 89 -50 124.5t-182 35.5q-195 0 -352 -34zM281 153q0 92 40.5 130t141.5 38t141 -38t40 -130t-40 -130t-141 -38q-102 0 -142 38t-40 130z" />
<glyph unicode="@" horiz-adv-x="1808" d="M88 547q0 197 55 338.5t164.5 227.5t261.5 125.5t358 39.5q87 0 157.5 -17.5t128.5 -57t90 -110t32 -167.5v-421q0 -99 -11 -206q-67 -45 -183.5 -72.5t-250.5 -27.5q-222 0 -321 86t-99 262q0 151 70.5 236.5t231.5 114.5q67 13 305 27q0 81 -34.5 111.5t-125.5 30.5 q-139 0 -239.5 -25t-175.5 -83.5t-112.5 -161t-37.5 -250.5q0 -146 36.5 -247.5t110 -160t172.5 -84.5t236 -26q138 0 237.5 25.5t173 84t110 160t36.5 248.5q0 127 -27 219l248 72q40 -129 40 -291q0 -380 -206 -555t-612 -175q-407 0 -613 175t-206 555zM730 555 q0 -90 46.5 -123.5t150.5 -33.5q29 0 74.5 10t68.5 23q7 57 7 135v184q-148 -5 -210 -23q-79 -22 -108 -55.5t-29 -116.5z" />
<glyph unicode="A" d="M23 0l416 1216q42 122 103.5 176t153.5 54q177 0 255 -230l410 -1216h-355l-97 327h-447l-94 -327h-345zM537 586h295l-149 505z" />
<glyph unicode="B" horiz-adv-x="1313" d="M149 25v1378q209 43 475 43q64 0 118 -4t115 -15t109.5 -29t94 -48.5t76 -71.5t49 -100t18.5 -132q0 -102 -55 -189t-157 -125q107 -36 170 -119t63 -220q0 -84 -21 -149.5t-62 -109.5t-92 -74t-119 -46t-135 -22.5t-149 -6.5q-272 0 -498 40zM480 264q67 -10 161 -10 q61 0 102.5 6.5t77.5 24t53.5 52.5t17.5 89q0 57 -19 94.5t-56.5 56t-79.5 25t-103 6.5h-154v-344zM481 855h153q46 0 80 3.5t66.5 14t53 28.5t33 48t12.5 72t-12.5 71.5t-32.5 46.5t-54.5 26.5t-69 12t-86.5 2.5q-77 0 -143 -9v-316z" />
<glyph unicode="C" horiz-adv-x="1159" d="M108 716q0 159 16.5 272t56.5 204t108.5 144.5t171 81.5t246.5 28q227 0 389 -47l-29 -262q-167 27 -309 27q-49 0 -89.5 -7.5t-71 -19t-53.5 -32.5t-39 -42t-27 -54t-17 -61t-9 -71.5t-4 -76.5t-1 -84q0 -97 3 -149t19 -119t48 -99.5t92 -56.5t149 -24q156 0 308 27 l30 -263q-156 -47 -389 -47q-144 0 -246.5 28t-171 82t-108.5 145t-56.5 204t-16.5 272z" />
<glyph unicode="D" horiz-adv-x="1370" d="M149 27v1376q215 43 477 43q115 0 205 -15.5t156.5 -43.5t114.5 -75.5t79 -103.5t48.5 -135t24.5 -163t7 -194t-7 -194t-24.5 -163.5t-48.5 -135.5t-79 -103t-114.5 -75.5t-156.5 -44t-205 -15.5q-262 0 -477 42zM484 269q49 -7 103 -7q70 0 124 13t89.5 31t60 55t37 67 t19 87t7.5 94t1 107t-1 107t-7.5 94t-19 87t-37 67t-60 55t-89.5 31t-124 13q-47 0 -103 -8v-893z" />
<glyph unicode="E" horiz-adv-x="1191" d="M143 359v716q0 57 9 104t23.5 81.5t40 62t50.5 45.5t63 31t70 20t79.5 10.5t82.5 4.5t87 1q197 0 402 -11v-263h-408q-104 0 -135 -31.5t-31 -132.5v-135h548v-269h-548v-156q0 -102 31 -133.5t135 -31.5h408v-263q-250 -13 -402 -13q-52 0 -87.5 1t-82 5t-79 11 t-70.5 20t-63 31.5t-50 46t-40 62.5t-24 82t-9 104z" />
<glyph unicode="F" horiz-adv-x="1126" d="M147 0v1075q0 57 9 104t23.5 81.5t40.5 62t51 45.5t63 31t70 20t79.5 10.5t82.5 4.5t87 1q145 0 401 -11v-263h-408q-104 0 -134 -31t-30 -133v-135h547v-269h-547v-593h-335z" />
<glyph unicode="G" horiz-adv-x="1324" d="M108 716q0 160 16.5 274t56.5 204.5t108.5 143.5t171 80.5t246.5 27.5q258 0 470 -46l-29 -259q-175 26 -390 26q-44 0 -81.5 -5t-66 -17t-51.5 -25.5t-40 -36.5t-29 -43.5t-20 -52.5t-12.5 -58t-7 -66t-3 -70.5t-0.5 -76.5q0 -47 0.5 -77.5t3 -70.5t7 -66.5t12 -58.5 t19.5 -52.5t29 -43t39.5 -36t51.5 -25.5t66 -17t81 -5q90 0 117.5 26.5t27.5 95.5v174h-222v260h527v-537q0 -60 -13.5 -106t-34.5 -77t-59 -53t-74 -34t-94 -18.5t-105 -8t-119 -1.5q-144 0 -246.5 28t-171 82t-108.5 145t-56.5 204t-16.5 272z" />
<glyph unicode="H" horiz-adv-x="1413" d="M151 0v1432h334v-563h442v563h336v-1432h-336v592h-442v-592h-334z" />
<glyph unicode="I" horiz-adv-x="630" d="M147 0v1432h336v-1432h-336z" />
<glyph unicode="J" horiz-adv-x="895" d="M31 37l28 251q108 -39 203 -39q155 0 155 198v985h337v-945q0 -139 -21.5 -231t-74 -154.5t-138.5 -89.5t-218 -27q-69 0 -145 13.5t-126 38.5z" />
<glyph unicode="K" horiz-adv-x="1317" d="M149 0v1432h335v-664l424 664h390l-461 -684l466 -748h-405l-414 703v-703h-335z" />
<glyph unicode="L" horiz-adv-x="1065" d="M147 359v1073h335v-995q0 -102 31 -133.5t135 -31.5h384v-265q-267 -11 -379 -11q-52 0 -87.5 1t-82.5 5t-79 11t-70 20t-63.5 31.5t-50.5 46t-40 62.5t-24 82t-9 104z" />
<glyph unicode="M" horiz-adv-x="1706" d="M118 0l55 1198q6 131 53 189.5t151 58.5q148 0 231 -211l242 -622l245 618q42 105 103 160t132 55q109 0 153.5 -54.5t51.5 -195.5l54 -1196h-323l-23 951h-1l-209 -600q-57 -164 -181 -164q-64 0 -107 40t-74 124l-219 598h-2l-21 -949h-311z" />
<glyph unicode="N" horiz-adv-x="1463" d="M151 0v1191q0 255 199 255q85 0 149.5 -49.5t123.5 -167.5l388 -772v975h303v-1190q0 -257 -201 -257q-91 0 -150.5 47t-122.5 172l-388 774v-978h-301z" />
<glyph unicode="O" horiz-adv-x="1373" d="M108 716q0 201 27 334t93.5 224.5t178 131.5t280.5 40t280 -40t177.5 -131.5t93.5 -224.5t27 -334q0 -160 -17 -275.5t-57 -205t-107 -143t-164.5 -80.5t-232.5 -27q-136 0 -233.5 27t-164.5 80.5t-107 143t-57 204.5t-17 276zM447 716q0 -49 0.5 -78.5t2 -71.5t5 -67 t9.5 -58t15 -52.5t22 -42.5t30.5 -36t40 -24.5t51.5 -16.5t64 -5t64 5t51.5 17t40 24.5t30 35.5t22 42t15 52.5t9 58t5 67t2 71.5t0.5 79q0 101 -2 153t-14.5 120t-37 100.5t-70.5 56t-115 23.5q-39 0 -70.5 -7.5t-55 -18.5t-41.5 -32.5t-30 -41t-20.5 -54.5t-12.5 -61.5 t-6.5 -72.5t-3 -78t-0.5 -87z" />
<glyph unicode="P" horiz-adv-x="1273" d="M149 0v1405q213 41 475 41q107 0 186 -9.5t157.5 -38.5t128 -79t80 -134.5t30.5 -201.5q0 -113 -27.5 -197t-75.5 -136t-121.5 -83.5t-155 -43t-188.5 -11.5q-42 0 -155 5v-517h-334zM483 785q48 -6 144 -6q127 0 187 44t60 160q0 109 -52.5 153.5t-189.5 44.5 q-80 0 -149 -10v-386z" />
<glyph unicode="Q" horiz-adv-x="1373" d="M108 716q0 201 27 334t93.5 224.5t178 131.5t280.5 40t280 -40t177.5 -131.5t93.5 -224.5t27 -334q0 -283 -58.5 -443.5t-200.5 -228.5q30 -43 70.5 -77.5t73.5 -54t100 -55.5l-220 -157q-9 5 -35.5 17.5t-38.5 18.5t-37.5 19t-39.5 22t-37 24t-37.5 28t-33.5 31.5 t-32.5 36.5t-27 41t-24.5 47q-136 0 -233.5 27t-164.5 80.5t-107 143t-57 204.5t-17 276zM447 716q0 -49 0.5 -78.5t2 -71.5t5 -67t9.5 -58t15 -52.5t22 -42.5t30.5 -36t40 -24.5t51.5 -16.5t64 -5t64 5t51.5 17t40 24.5t30 35.5t22 42t15 52.5t9 58t5 67t2 71.5t0.5 79 q0 101 -2 153t-14.5 120t-37 100.5t-70.5 56t-115 23.5q-39 0 -70.5 -7.5t-55 -18.5t-41.5 -32.5t-30 -41t-20.5 -54.5t-12.5 -61.5t-6.5 -72.5t-3 -78t-0.5 -87z" />
<glyph unicode="R" horiz-adv-x="1332" d="M149 0v1405q213 41 475 41q106 0 185.5 -9.5t157.5 -38.5t128 -78.5t80.5 -133t30.5 -198.5q0 -176 -65 -277t-187 -146l320 -565h-381l-282 522q-29 1 -128 6v-528h-334zM483 797q48 -6 144 -6q126 0 186.5 43t60.5 155q0 105 -53 149t-189 44q-69 0 -149 -10v-375z" />
<glyph unicode="S" horiz-adv-x="1144" d="M89 33l33 263q231 -34 381 -34q108 0 159 33t51 116q0 39 -13 66t-44.5 47.5t-63 33t-89.5 30.5q-85 26 -142.5 50t-112 60t-86.5 79.5t-51 106t-19 142.5q0 118 33.5 199.5t102 130t162 69.5t223.5 21q208 0 425 -49l-30 -256q-202 34 -327 34q-42 0 -69.5 -1t-66.5 -8 t-62 -19.5t-40 -37t-17 -59.5q0 -34 12 -59t22.5 -39.5t51 -30.5t58.5 -21.5t84 -23.5l3 -1.5t3 -1t4 -0.5q217 -58 305 -157.5t88 -290.5q0 -234 -135.5 -337t-403.5 -103q-209 0 -429 48z" />
<glyph unicode="T" horiz-adv-x="1080" d="M34 1158v274h1012v-274h-339v-1158h-336v1158h-337z" />
<glyph unicode="U" horiz-adv-x="1372" d="M140 490v942h331v-958q0 -114 47 -159.5t167 -45.5q119 0 166 45.5t47 159.5v958h331v-942q0 -147 -37.5 -247.5t-112 -156t-169 -78.5t-225.5 -23q-86 0 -155.5 9.5t-132.5 32t-109 61t-80 93.5t-51 132.5t-17 176.5z" />
<glyph unicode="V" horiz-adv-x="1333" d="M22 1432h357l292 -1038l297 1038h344l-400 -1230q-37 -114 -96 -165.5t-147 -51.5q-91 0 -147 48.5t-96 168.5z" />
<glyph unicode="W" horiz-adv-x="1804" d="M44 1432h337l165 -1023h1l136 617q29 134 85.5 191.5t137.5 57.5t136 -58t85 -193l133 -613h1l170 1021h330l-261 -1214q-27 -124 -80.5 -178.5t-142.5 -54.5q-93 0 -150 53t-85 178l-143 631h-1l-135 -631q-48 -231 -236 -231q-89 0 -142.5 54t-80.5 177z" />
<glyph unicode="X" horiz-adv-x="1357" d="M23 0l467 728l-450 704h383l259 -425l264 425h362l-447 -696l474 -736h-386l-280 452l-273 -452h-373z" />
<glyph unicode="Y" horiz-adv-x="1273" d="M7 1432h362l269 -547l279 547h349l-462 -881v-551h-335v551z" />
<glyph unicode="Z" horiz-adv-x="1167" d="M69 129q0 49 39 117l540 907h-538v279h783q94 0 140.5 -33.5t46.5 -95.5q0 -53 -38 -118l-536 -905h569v-280h-817q-93 0 -141 33t-48 96z" />
<glyph unicode="[" horiz-adv-x="698" d="M148 -334v1814h490v-246h-194v-1320h193v-248h-489z" />
<glyph unicode="\" horiz-adv-x="941" d="M55 1482h263l580 -1647h-262z" />
<glyph unicode="]" horiz-adv-x="699" d="M60 1234v246h491v-1814h-490v248h194v1320h-195z" />
<glyph unicode="^" horiz-adv-x="1069" d="M66 600l358 832h222l357 -832h-269l-199 471l-200 -471h-269z" />
<glyph unicode="_" horiz-adv-x="1026" d="M-6 -186h1038v-103h-1038v103z" />
<glyph unicode="`" horiz-adv-x="563" d="M10 1484h312l189 -334h-238z" />
<glyph unicode="a" horiz-adv-x="1133" d="M79 342q0 152 73.5 239.5t238.5 114.5q110 18 312 26q0 73 -39.5 104.5t-128.5 31.5q-158 0 -392 -30l-26 237q246 44 437 44q79 0 143 -9.5t124 -34t100.5 -64.5t64.5 -104t24 -148v-441q0 -109 -10 -215q-179 -108 -488 -108q-228 0 -330.5 87.5t-102.5 269.5zM388 346 q0 -66 38 -92.5t115 -26.5q94 0 155 22q7 62 7 147v120q-147 -9 -205 -23q-62 -15 -86 -44.5t-24 -102.5z" />
<glyph unicode="b" horiz-adv-x="1210" d="M128 308v1209h316v-424q90 16 177 16q175 0 281 -51.5t160 -175.5t54 -335q0 -162 -29.5 -269.5t-95.5 -173t-162.5 -92.5t-239.5 -27q-123 0 -242.5 27t-208.5 81q-10 123 -10 215zM444 403q0 -94 6 -147q51 -21 139 -21q43 0 76 9.5t55 24.5t37.5 40.5t23.5 49 t12.5 59.5t5.5 62t1 67q0 45 -1 73t-6 65t-14 58.5t-26.5 46t-42.5 37.5t-62 21.5t-85 8.5q-63 0 -119 -16v-438z" />
<glyph unicode="c" horiz-adv-x="975" d="M96 557q0 114 12 195.5t43.5 152.5t86.5 113.5t141.5 66.5t206.5 24q169 0 309 -46l-26 -230q-141 29 -207 29q-68 0 -111.5 -10t-72 -29.5t-42.5 -58.5t-19 -85t-5 -122q0 -55 1.5 -88t6.5 -71t15.5 -59t28.5 -43t45.5 -32.5t65.5 -17t90 -6.5q70 0 204 28l27 -237 q-173 -46 -376 -46q-77 0 -139.5 17t-106 45.5t-76 72t-52 90.5t-31 107.5t-15.5 116.5t-4 123z" />
<glyph unicode="d" horiz-adv-x="1212" d="M95 547q0 211 54 335t160 175.5t281 51.5q89 0 177 -16v424h315v-1209q0 -120 -9 -215q-89 -54 -209 -81t-243 -27q-191 0 -303 50.5t-167.5 173.5t-55.5 338zM410 547q0 -41 1 -67t5.5 -62t12.5 -59.5t23.5 -49t37.5 -40.5t55 -24.5t76 -9.5q88 0 139 21q7 62 7 147v438 q-56 16 -120 16q-48 0 -85 -8.5t-62 -21.5t-42.5 -37.5t-26.5 -46t-14 -58.5t-6 -65t-1 -73z" />
<glyph unicode="e" horiz-adv-x="1163" d="M90 547q0 302 111.5 432t384.5 130q119 0 205.5 -25.5t140 -70t84.5 -116t42.5 -150.5t11.5 -187q0 -48 -3 -94q-215 -40 -497 -55l-168 -9q5 -93 57.5 -127.5t166.5 -34.5q164 0 396 29l27 -240q-259 -44 -486 -44q-110 0 -193 28t-135.5 76t-85.5 120.5t-46 154 t-13 183.5zM394 618l153 8q114 6 207 18q2 20 2 36q0 93 -39 139t-131 46q-62 0 -101.5 -17.5t-58.5 -53.5t-25.5 -76t-6.5 -100z" />
<glyph unicode="f" horiz-adv-x="806" d="M54 850v244h176v86q0 169 91.5 260.5t273.5 91.5q90 0 193 -14l-24 -220h-89q-69 0 -100 -29.5t-31 -93.5v-81h217v-244h-217v-850h-314v850h-176z" />
<glyph unicode="g" horiz-adv-x="1204" d="M87 559q0 157 31 263t98 169.5t162.5 90.5t235.5 27q123 0 243 -26.5t208 -80.5q9 -95 9 -215v-840q0 -85 -24.5 -150t-65 -105t-101 -65.5t-125.5 -35t-144 -9.5q-201 0 -465 50l25 235q238 -33 399 -33q186 0 186 175v17q-90 -16 -176 -16q-131 0 -221 27t-153 91 t-92.5 169.5t-29.5 261.5zM402 559q0 -42 1 -69.5t6.5 -61.5t15 -56t26.5 -45t42 -35.5t62 -21t84 -8.5q62 0 120 16v413q0 94 -6 147q-51 21 -139 21q-47 0 -83 -11.5t-58.5 -34.5t-37 -49.5t-21.5 -63.5t-9.5 -68.5t-2.5 -72.5z" />
<glyph unicode="h" horiz-adv-x="1231" d="M131 0v1517h316v-436q104 28 214 28q84 0 150.5 -12t112.5 -31.5t79 -51.5t51.5 -65.5t29.5 -80.5t14 -88t3 -97v-683h-315v657q0 55 -6.5 88t-27 58.5t-59.5 36t-103 10.5q-74 0 -143 -25v-825h-316z" />
<glyph unicode="i" horiz-adv-x="593" d="M115 1364q0 92 40 130t141 38t141 -38t40 -130t-40 -130t-141 -38t-141 38t-40 130zM138 0v1094h318v-1094h-318z" />
<glyph unicode="j" horiz-adv-x="599" d="M-101 -414l25 234q45 5 70.5 9.5t57.5 16.5t48.5 29t28.5 47.5t12 73.5v1098h317v-1063q0 -244 -108.5 -346.5t-357.5 -102.5q-52 0 -93 4zM118 1364q0 92 40 130t141 38t141.5 -38t40.5 -130t-40.5 -130t-141.5 -38t-141 38t-40 130z" />
<glyph unicode="k" horiz-adv-x="1180" d="M131 0v1517h314v-895l332 472h364l-369 -497l387 -597h-380l-334 551v-551h-314z" />
<glyph unicode="l" horiz-adv-x="575" d="M116 273v1244h316v-1213q0 -71 16 -123.5t56 -109.5l-281 -131q-54 64 -80.5 142.5t-26.5 190.5z" />
<glyph unicode="m" horiz-adv-x="1722" d="M129 0v787q0 104 9 215q185 107 472 107q164 0 257 -56q156 56 314 56q104 0 180 -22.5t120 -58.5t70 -93t34 -113t8 -131v-691h-314v667q0 97 -32.5 142t-123.5 45q-65 0 -117 -24q11 -54 11 -139v-691h-313v667q0 94 -30.5 140.5t-114.5 46.5q-63 0 -110 -21 q-7 -62 -7 -147v-686h-313z" />
<glyph unicode="n" horiz-adv-x="1197" d="M128 0v787q0 120 9 215q184 107 485 107q85 0 152 -10.5t114 -29t80.5 -48.5t53.5 -62t31.5 -78t15 -89t3.5 -101v-691h-313v667q0 106 -34 146.5t-142 41.5q-83 0 -136 -22q-7 -62 -7 -147v-686h-312z" />
<glyph unicode="o" horiz-adv-x="1170" d="M91 547q0 306 111.5 434t382.5 128t382.5 -128.5t111.5 -433.5q0 -306 -111.5 -434t-382.5 -128t-382.5 127.5t-111.5 434.5zM406 547q0 -185 35 -245.5t144 -60.5q108 0 143.5 62t35.5 244q0 181 -35.5 243.5t-143.5 62.5t-143.5 -61.5t-35.5 -244.5z" />
<glyph unicode="p" horiz-adv-x="1211" d="M130 -403v1190q0 120 9 215q88 54 208 80.5t243 26.5q143 0 239.5 -27t162.5 -92.5t95.5 -173t29.5 -269.5q0 -211 -54 -335t-160 -175.5t-281 -51.5q-82 0 -177 17v-405h-315zM445 254q61 -17 120 -17q48 0 85 8.5t62 21.5t42.5 37.5t26.5 46t14 58.5t6 65t1 73 q0 40 -1 66.5t-5.5 62.5t-12.5 59.5t-24 49t-38 40.5t-55 24.5t-76 9.5q-87 0 -138 -21q-7 -62 -7 -147v-437z" />
<glyph unicode="q" horiz-adv-x="1210" d="M94 547q0 215 55.5 338t167.5 173.5t303 50.5q124 0 244 -26.5t208 -80.5q9 -95 9 -215v-1190h-315v405q-94 -17 -177 -17q-175 0 -281 51.5t-160 175.5t-54 335zM409 547q0 -45 1 -73t6 -65t14 -58.5t26.5 -46t42.5 -37.5t62 -21.5t85 -8.5q60 0 120 17v437q0 85 -7 147 q-51 21 -139 21q-43 0 -76 -9.5t-55 -24.5t-37.5 -40.5t-23.5 -49t-12.5 -59.5t-5.5 -62t-1 -67z" />
<glyph unicode="r" horiz-adv-x="752" d="M127 0v787q0 120 9 215q88 54 208 80.5t243 26.5q69 0 121 -7l-25 -253q-44 4 -75 4q-103 0 -163 -31q-6 -66 -6 -147v-675h-312z" />
<glyph unicode="s" horiz-adv-x="1005" d="M85 36l30 234q183 -37 305 -37q30 0 42.5 0.5t40.5 2t41.5 7t31 14t25 24t7.5 35.5t-7 35t-16.5 24.5t-28.5 18.5t-32 13t-39.5 11.5t-38.5 11.5q-43 13 -71.5 23t-68.5 27t-66 34.5t-54.5 44.5t-45.5 57.5t-28 73t-11 91.5q0 328 397 328q209 0 415 -49l-29 -228 q-168 34 -283 34q-28 0 -44 -0.5t-41.5 -2.5t-41 -7t-31 -12.5t-23 -21t-7.5 -31.5t8 -33t18.5 -24.5t31.5 -19t35.5 -14.5t43.5 -13.5t43 -13.5q135 -45 177 -67q108 -56 139 -161q15 -51 15 -119q0 -97 -33 -165t-94.5 -105.5t-137 -54t-171.5 -16.5q-219 0 -403 51z" />
<glyph unicode="t" horiz-adv-x="833" d="M52 852v242h172v258l312 51v-309h212v-242h-212v-512q0 -57 26.5 -85t86.5 -28q54 0 101 4l25 -224q-121 -22 -211 -22q-177 0 -258.5 78.5t-81.5 240.5v548h-172z" />
<glyph unicode="u" horiz-adv-x="1193" d="M123 403v691h313v-667q0 -106 33.5 -146.5t140.5 -40.5q84 0 133 21q7 62 7 147v686h313v-786q0 -120 -9 -215q-188 -108 -483 -108q-85 0 -151.5 10.5t-113.5 29t-80.5 48.5t-53 62t-31 78t-15 89t-3.5 101z" />
<glyph unicode="v" horiz-adv-x="1177" d="M36 1094h330l229 -763l227 763h320l-329 -924q-65 -185 -225 -185q-158 0 -223 185z" />
<glyph unicode="w" horiz-adv-x="1636" d="M42 1094h320l143 -752h1l116 457q53 213 201 213q146 0 200 -213l119 -457l143 752h310l-230 -899q-54 -210 -210 -210q-157 0 -219 210l-119 405l-113 -405q-59 -210 -220 -210q-81 0 -131.5 50t-79.5 162z" />
<glyph unicode="x" horiz-adv-x="1219" d="M34 0l399 564l-372 530h362l197 -295l196 295h340l-371 -525l400 -569h-368l-220 328l-215 -328h-348z" />
<glyph unicode="y" horiz-adv-x="1157" d="M22 1094h335l246 -615l193 615h321l-509 -1497h-322l175 483z" />
<glyph unicode="z" horiz-adv-x="1095" d="M77 107q0 48 41 106l450 633h-450v248h759q61 0 96 -28.5t35 -77.5q0 -51 -39 -105l-447 -624h456v-259h-769q-62 0 -97 29t-35 78z" />
<glyph unicode="{" horiz-adv-x="708" d="M62 464v219q88 8 115.5 83t27.5 285q0 82 10.5 143.5t35 106t57 74t83 49t106 29.5t133.5 16l29 -223q-47 -6 -79.5 -21t-49 -32.5t-25.5 -49.5t-10.5 -55.5t-1.5 -65.5v-122q0 -50 -1 -79.5t-7.5 -75.5t-18.5 -75t-36 -57t-59 -42q34 -16 57.5 -46t36 -62t19 -78 t8 -78.5t1.5 -80.5v-101q0 -42 1.5 -65.5t10.5 -55.5t25.5 -49.5t49 -33t79.5 -20.5l-29 -223q-78 6 -133.5 16t-106 29.5t-83 49t-57 74t-35 106.5t-10.5 144q0 210 -27 284t-116 83z" />
<glyph unicode="|" horiz-adv-x="547" d="M147 -403v1920h253v-1920h-253z" />
<glyph unicode="}" horiz-adv-x="708" d="M50 -99q34 4 60 13t43.5 19.5t29.5 28.5t18 33t9.5 40.5t4 42.5t0.5 47v101q0 60 3.5 102t14.5 95t37.5 90.5t67.5 57.5q-35 14 -59 42t-36.5 57t-19 74.5t-7.5 76t-1 79.5v122q0 30 -0.5 47.5t-4 42.5t-9.5 40t-18 33t-29.5 28.5t-43.5 19.5t-60 13l28 223 q78 -6 133.5 -16t106 -29.5t83 -49t57 -74t35 -106t10.5 -143.5q0 -210 27.5 -285t115.5 -83v-219q-89 -9 -116 -83t-27 -284q0 -82 -10.5 -144t-35 -106.5t-57 -74t-83 -49t-106 -29.5t-133.5 -16z" />
<glyph unicode="~" horiz-adv-x="1249" d="M90 441q18 209 103.5 319t206.5 110q68 0 122.5 -17.5t88.5 -43t63 -50.5t61.5 -42.5t68.5 -17.5q80 0 110 164h245q-18 -209 -103.5 -319.5t-206.5 -110.5q-68 0 -122.5 17.5t-88.5 43t-63 51t-61.5 43t-68.5 17.5q-81 0 -109 -164h-246z" />
<glyph unicode="&#xa1;" horiz-adv-x="617" d="M125 -351l47 1011h274l46 -1011h-367zM127 928q0 92 40 130t142 38q101 0 141 -38t40 -130t-40 -130t-141 -38t-141.5 38t-40.5 130z" />
<glyph unicode="&#xa2;" horiz-adv-x="927" d="M84 704q0 120 14.5 204.5t51 154t103 110.5t167.5 57v193h207v-185q123 -8 232 -43l-24 -223q-142 28 -201 28q-82 0 -129 -13.5t-73 -51t-33.5 -88.5t-7.5 -143q0 -46 1 -75t4.5 -63t10.5 -54t19 -42t30 -33.5t43 -22t59 -14.5t78 -4q64 0 199 27l26 -229 q-119 -31 -234 -40v-188h-207v188q-84 11 -146 47.5t-98 86.5t-57 122t-28 140t-7 154z" />
<glyph unicode="&#xa3;" horiz-adv-x="1228" d="M77 586v235h161q-9 78 -9 177q0 95 27 166.5t72 116.5t111.5 72.5t138.5 38.5t161 11q77 0 135.5 -12t109 -42t82 -56.5t87.5 -80.5l-162 -193q-65 59 -118 86.5t-126 27.5q-112 0 -154 -41.5t-42 -137.5q0 -39 8 -133h294v-235h-272q2 -52 2 -80q0 -104 -48 -233h204 q193 0 360 27l27 -253q-179 -47 -486 -47h-311q-80 0 -119.5 35.5t-39.5 91.5q0 37 26.5 88.5t53.5 121.5t27 153q0 48 -6 96h-194z" />
<glyph unicode="&#xa4;" horiz-adv-x="1315" d="M79 289l152 148q-69 114 -69 248q0 136 70 252l-153 151l174 175l154 -155q115 67 250 67q137 0 250 -65l152 152l177 -174l-153 -148q73 -119 73 -255q0 -131 -73 -249l153 -147l-177 -177l-153 155q-119 -68 -249 -68q-135 0 -251 67l-153 -154zM420 685 q0 -99 68.5 -171t168.5 -72q96 0 168 71t72 172q0 102 -69.5 174.5t-170.5 72.5q-97 0 -167 -72t-70 -175z" />
<glyph unicode="&#xa5;" horiz-adv-x="1204" d="M54 1389h326l224 -525l233 525h314l-277 -606h145v-188h-231l-27 -59v-74h258v-185h-258v-277h-319v277h-256v185h256v74l-27 59h-229v188h144z" />
<glyph unicode="&#xa6;" horiz-adv-x="508" d="M128 -289v661h252v-661h-252zM128 743v660h252v-660h-252z" />
<glyph unicode="&#xa7;" horiz-adv-x="1158" d="M78 634q0 166 143 269q-61 78 -61 178q0 162 117.5 263.5t322.5 101.5q212 0 421 -50l-29 -229q-187 37 -359 37q-161 0 -161 -102q0 -22 13 -43t31 -36.5t50.5 -33t58 -28.5t66.5 -28q48 -20 78.5 -33t76 -37t74.5 -45t62.5 -52.5t52.5 -65t32 -78t13 -94.5 q0 -155 -147 -260q74 -84 74 -200q0 -101 -43.5 -175t-117.5 -114t-156 -58t-174 -18q-216 0 -421 48l30 235q185 -36 358 -36h39t39 2t40.5 5.5t33.5 11t30 18t18 27t8 38.5q0 19 -7 35.5t-24.5 31.5t-32.5 25.5t-46 25t-48.5 22t-56.5 23.5q-53 21 -81.5 33.5t-77.5 37 t-76.5 45t-63 54t-54 67.5t-32 81t-13.5 101zM354 659q0 -46 36 -84.5t118 -77.5q36 -17 116.5 -45.5t115.5 -45.5q54 36 54 97q0 48 -41.5 88.5t-130.5 82.5q-29 13 -103 40.5t-111 46.5q-54 -34 -54 -102z" />
<glyph unicode="&#xa8;" horiz-adv-x="908" d="M90 1303q0 63 43.5 105t106.5 42t104.5 -42t41.5 -105t-41.5 -105.5t-104.5 -42.5t-106.5 42.5t-43.5 105.5zM522 1303q0 63 43 105t106 42t105 -42t42 -105t-42 -105.5t-105 -42.5t-106 42.5t-43 105.5z" />
<glyph unicode="&#xa9;" horiz-adv-x="1618" d="M79 718q0 149 57.5 284t155.5 232t233 154.5t284 57.5q199 0 367 -97t266 -264.5t98 -366.5q0 -149 -58 -284.5t-155.5 -234t-233 -156.5t-284.5 -58q-199 0 -367 98.5t-265.5 267t-97.5 367.5zM255 718q0 -118 43 -223t116.5 -179.5t176.5 -118t218 -43.5t218 43.5 t176.5 118t116.5 179.5t43 223q0 155 -73 283.5t-200 202.5t-281 74t-281 -74t-200 -202.5t-73 -283.5zM445 718q0 111 41 205t127 155.5t203 61.5q78 0 150 -30t127.5 -98.5t68.5 -164.5h-181q-10 66 -54.5 102.5t-110.5 36.5q-81 0 -130 -72t-49 -196t47.5 -194.5 t131.5 -70.5q62 0 107.5 42t57.5 113h181q-12 -143 -111 -230t-235 -87q-121 0 -206 57.5t-125 152t-40 217.5z" />
<glyph unicode="&#xaa;" horiz-adv-x="848" d="M92 881q0 206 218 243q78 13 215 17q0 54 -27.5 77t-88.5 23q-113 0 -273 -21l-17 160q167 30 303 30q69 0 122.5 -11t99.5 -37.5t70.5 -76.5t24.5 -122v-306q0 -59 -7 -147q-124 -75 -339 -75q-158 0 -229.5 60.5t-71.5 185.5zM308 884q0 -47 26 -66.5t79 -19.5 q64 0 107 16q5 53 5 103v87q-112 -8 -142 -16q-41 -10 -58 -31.5t-17 -72.5z" />
<glyph unicode="&#xab;" horiz-adv-x="1203" d="M50 530l302 427h285l-275 -427l275 -428h-285zM543 530l303 427h285l-275 -427l275 -428h-285z" />
<glyph unicode="&#xac;" horiz-adv-x="1280" d="M107 573v256h1017v-655h-267v399h-750z" />
<glyph unicode="&#xad;" horiz-adv-x="801" d="M125 423v243h551v-243h-551z" />
<glyph unicode="&#xae;" horiz-adv-x="1024" d="M68 1003q0 184 129.5 313.5t314.5 129.5q184 0 314 -129.5t130 -313.5t-130 -314.5t-314 -130.5t-314 130t-130 315zM188 1003q0 -140 93.5 -234.5t230.5 -94.5t230.5 94.5t93.5 234.5q0 139 -93.5 233t-230.5 94t-230.5 -94t-93.5 -233zM350 780v469h172q188 0 188 -144 q0 -96 -82 -127l97 -198h-130l-86 179h-43v-179h-116zM466 1057h44q85 0 85 48q0 25 -20.5 35.5t-66.5 10.5h-42v-94z" />
<glyph unicode="&#xaf;" horiz-adv-x="881" d="M117 1204v190h646v-190h-646z" />
<glyph unicode="&#xb0;" horiz-adv-x="806" d="M68 1112q0 138 98 236t236 98t237 -98t99 -236t-99 -236.5t-237 -98.5t-236 98.5t-98 236.5zM241 1112q0 -68 46.5 -115t114.5 -47t115.5 47t47.5 115q0 67 -47.5 114.5t-115.5 47.5q-67 0 -114 -47t-47 -115z" />
<glyph unicode="&#xb1;" horiz-adv-x="1203" d="M93 -5v255h1017v-255h-1017zM93 648v255h376v304h266v-304h375v-255h-375v-305h-266v305h-376z" />
<glyph unicode="&#xb2;" horiz-adv-x="728" d="M44 833q41 232 84.5 317t185.5 145q70 30 99 56.5t29 69.5q0 50 -34.5 66t-133.5 16q-80 0 -195 -21l-21 164q162 32 292 32q70 0 123 -10t97 -34t67.5 -69t23.5 -110q0 -115 -61 -191.5t-188 -126.5q-65 -25 -91 -52.5t-33 -71.5h373v-180h-617z" />
<glyph unicode="&#xb3;" horiz-adv-x="713" d="M45 858l23 164q150 -20 222 -20q78 0 110.5 18.5t32.5 73.5q0 75 -67 84q-75 9 -171 9h-25v155q94 1 195 17q60 9 60 78q0 43 -28 56.5t-84 13.5q-64 0 -238 -21l-22 161q158 32 272 32q55 0 98.5 -5t86.5 -19.5t71.5 -39t46 -65.5t17.5 -97q0 -120 -104 -178 q62 -26 89 -68t27 -107q0 -150 -84.5 -212t-251.5 -62q-97 0 -276 32z" />
<glyph unicode="&#xb4;" horiz-adv-x="563" d="M52 1150l190 334h311l-262 -334h-239z" />
<glyph unicode="&#xb5;" horiz-adv-x="1315" d="M158 -403v1497h291v-654q0 -93 43.5 -150.5t119.5 -57.5q61 0 103 27.5t64.5 82t32 121.5t9.5 158v473h292v-664q0 -49 0.5 -71t5 -57.5t14 -53t28 -35.5t46.5 -27v-201q-132 0 -211 43.5t-112 112.5q-56 -84 -121 -120t-153 -36q-101 0 -163 57v-445h-289z" />
<glyph unicode="&#xb6;" horiz-adv-x="1343" d="M57 988q0 219 146 331.5t408 112.5h578v-1747h-226v1549h-200v-1549h-226v873q-210 10 -345 133t-135 297z" />
<glyph unicode="&#xb7;" horiz-adv-x="608" d="M122 587q0 99 39 136.5t143 37.5t143 -37.5t39 -136.5q0 -100 -38.5 -137t-143.5 -37t-143.5 37t-38.5 137z" />
<glyph unicode="&#xb8;" horiz-adv-x="448" d="M-15 -396l43 113q74 -37 136 -37q63 0 63 51q0 21 -18.5 36.5t-48 22.5t-56.5 10t-54 3l117 197h167l-75 -116q64 -10 109.5 -49t45.5 -99q0 -92 -70.5 -136.5t-176.5 -44.5q-99 0 -182 49z" />
<glyph unicode="&#xb9;" horiz-adv-x="514" d="M23 1604q131 20 234 67h164v-836h-216v627q-69 -15 -172 -25z" />
<glyph unicode="&#xba;" horiz-adv-x="862" d="M88 1023q0 211 77.5 299t265.5 88t265.5 -88.5t77.5 -298.5q0 -211 -77 -299.5t-266 -88.5q-188 0 -265.5 88t-77.5 300zM307 1023q0 -129 24.5 -171.5t99.5 -42.5t99.5 43t24.5 171q0 127 -25 170.5t-99 43.5q-75 0 -99.5 -43t-24.5 -171z" />
<glyph unicode="&#xbb;" horiz-adv-x="1204" d="M73 102l275 428l-275 427h285l303 -427l-303 -428h-285zM567 102l275 428l-275 427h285l303 -427l-303 -428h-285z" />
<glyph unicode="&#xbc;" horiz-adv-x="1580" d="M46 1364q135 20 234 66h164v-836h-215v626q-75 -15 -173 -24zM239 -29l840 1490h211l-840 -1490h-211zM835 286q0 56 65 140l260 335q39 51 71.5 67.5t78.5 16.5q48 0 78.5 -30t30.5 -86v-384h97v-165h-97v-180h-211v180h-240q-73 0 -103 27t-30 79zM1054 345h155v209z " />
<glyph unicode="&#xbd;" horiz-adv-x="1754" d="M48 1364q133 20 233 66h164v-836h-215v626q-75 -15 -173 -24zM240 -29l840 1490h212l-841 -1490h-211zM1051 0q10 57 15.5 86.5t15 73t17 65t19 53t24.5 48.5t30.5 39t39.5 36.5t49 30t61 30.5q69 29 98.5 56.5t29.5 70.5q0 49 -34.5 65t-134.5 16q-71 0 -195 -21 l-21 165q157 31 292 31q70 0 123 -10t97 -34t67.5 -69t23.5 -110q0 -115 -61 -192t-188 -126q-65 -26 -90.5 -53.5t-32.5 -71.5h372v-179h-617z" />
<glyph unicode="&#xbe;" horiz-adv-x="1719" d="M73 617l22 165q160 -21 223 -21q78 0 110 18.5t32 73.5q0 75 -67 84q-78 9 -174 9h-22v156q102 1 196 16q59 9 59 78q0 42 -28 56t-84 14q-80 0 -238 -21l-22 162q169 32 273 32q69 0 121.5 -9t99.5 -32.5t72.5 -70t25.5 -115.5q0 -119 -104 -177q63 -27 90 -68.5 t27 -106.5q0 -151 -85 -213t-251 -62q-97 0 -276 32zM380 -29l841 1490h211l-841 -1490h-211zM977 286q0 56 65 140l259 335q39 51 71.5 67.5t79.5 16.5q48 0 78.5 -30t30.5 -86v-384h97v-165h-97v-180h-211v180h-241q-73 0 -102.5 27t-29.5 79zM1196 345h155v209z" />
<glyph unicode="&#xbf;" horiz-adv-x="1109" d="M72 77q0 100 23.5 172t61 109.5t83 61t91 34.5t83.5 21.5t63 30.5t26 54l4 100h279l5 -137q2 -24 2 -49q0 -74 -21 -121t-54 -66.5t-73.5 -29t-81 -16.5t-73.5 -20.5t-54 -50t-21 -96.5q0 -89 49.5 -124t181.5 -35q194 0 353 34l55 -262q-217 -53 -439 -53 q-75 0 -132.5 4t-116.5 16t-101.5 32.5t-80.5 54t-61.5 79.5t-37 111t-13.5 146zM465 928q0 92 40 130t141 38q102 0 142 -38t40 -130t-40.5 -130t-141.5 -38t-141 38t-40 130z" />
<glyph unicode="&#xc0;" d="M23 0l416 1216q42 122 103.5 176t153.5 54q177 0 255 -230l410 -1216h-355l-97 327h-447l-94 -327h-345zM290 1841h334l202 -270h-255zM537 586h296l-150 505z" />
<glyph unicode="&#xc1;" d="M23 0l416 1216q42 122 103.5 176t153.5 54q177 0 255 -230l410 -1216h-355l-97 327h-447l-94 -327h-345zM537 586h296l-150 505zM568 1558l203 271h333l-281 -271h-255z" />
<glyph unicode="&#xc2;" d="M22 0l417 1216q42 122 103.5 176t153.5 54q177 0 255 -230l409 -1216h-354l-97 327h-448l-94 -327h-345zM334 1558l268 272h177l273 -272h-239l-120 131l-123 -131h-236zM536 586h296l-149 505z" />
<glyph unicode="&#xc3;" d="M22 0l417 1216q42 122 103.5 176t153.5 54q177 0 255 -230l409 -1216h-354l-97 327h-448l-94 -327h-345zM383 1562q10 128 66 198.5t127 70.5q43 0 78 -17.5t53 -38t37.5 -38t35.5 -17.5q45 0 61 106h158q-10 -129 -65.5 -199t-126.5 -70q-42 0 -77 17.5t-53.5 38t-38 38 t-35.5 17.5q-46 0 -62 -106h-158zM536 586h296l-149 505z" />
<glyph unicode="&#xc4;" d="M23 0l416 1216q42 122 104 176t154 54q176 0 254 -230l410 -1216h-355l-97 327h-447l-94 -327h-345zM329 1690q0 63 43.5 105.5t106.5 42.5t104 -42.5t41 -105.5t-41 -105t-104 -42t-106.5 42t-43.5 105zM537 586h296l-150 505zM761 1690q0 63 43 105.5t106 42.5 t104.5 -42.5t41.5 -105.5t-41.5 -105t-104.5 -42t-106 42t-43 105z" />
<glyph unicode="&#xc5;" d="M22 0l417 1216q42 122 103.5 176t153.5 54q177 0 255 -230l409 -1216h-354l-97 327h-448l-94 -327h-345zM475 1756q0 89 64 152.5t153 63.5q90 0 153.5 -63.5t63.5 -152.5q0 -90 -63.5 -154t-153.5 -64q-89 0 -153 64t-64 154zM536 586h296l-149 505zM592 1756 q0 -42 29.5 -71.5t70.5 -29.5q42 0 71 29.5t29 71.5q0 41 -29 70.5t-71 29.5q-41 0 -70.5 -29.5t-29.5 -70.5z" />
<glyph unicode="&#xc6;" horiz-adv-x="1877" d="M23 0l419 1222q24 69 59.5 114.5t84.5 68.5t100 32t120 9q134 0 212 -47q59 23 133 29.5t184 6.5q199 0 401 -11v-263h-408q-104 0 -134.5 -31.5t-30.5 -132.5v-135h548v-269h-548v-156q0 -102 30.5 -133.5t134.5 -31.5h408v-263q-250 -13 -401 -13q-57 0 -95.5 1.5 t-89 6t-84.5 14t-73 25.5t-64.5 40.5t-48.5 58t-35 80.5t-15 105h-364l-97 -327h-346zM543 586h286v496q0 85 -59 85q-31 0 -49 -19.5t-30 -60.5z" />
<glyph unicode="&#xc7;" horiz-adv-x="1159" d="M108 716q0 159 16.5 272t56.5 204t108.5 144.5t171 81.5t246.5 28q225 0 389 -47l-29 -262q-167 27 -309 27q-45 0 -82 -5t-66 -17t-52 -25.5t-39.5 -36t-29 -43t-20 -52.5t-12 -57.5t-7 -65.5t-3 -70t-0.5 -76q0 -97 3 -149t19 -119t48 -99.5t92 -56.5t149 -24 q155 0 307 27l31 -263q-133 -39 -317 -46l-59 -91q64 -10 109 -49.5t45 -99.5q0 -92 -70.5 -136t-176.5 -44q-102 0 -181 48l42 113q73 -37 136 -37q64 0 64 51q0 21 -18.5 36t-48 22.5t-57 10.5t-53.5 3l103 175q-121 8 -207.5 41.5t-144.5 89.5t-92 144.5t-48 196.5 t-14 256z" />
<glyph unicode="&#xc8;" horiz-adv-x="1191" d="M143 359v716q0 57 9 104t23.5 81.5t40 62t50.5 45.5t63 31t70 20t79.5 10.5t82.5 4.5t87 1q197 0 402 -11v-263h-408q-104 0 -134.5 -31.5t-30.5 -132.5v-135h547v-269h-547v-156q0 -102 30.5 -133.5t134.5 -31.5h408v-263q-250 -13 -402 -13q-52 0 -87.5 1t-82 5t-79 11 t-70.5 20t-63 31.5t-50 46t-40 62.5t-24 82t-9 104zM310 1818h333l202 -271h-255z" />
<glyph unicode="&#xc9;" horiz-adv-x="1191" d="M143 359v716q0 57 9 104t23.5 81.5t40 62t50.5 45.5t63 31t70 20t79.5 10.5t82.5 4.5t87 1q197 0 402 -11v-263h-408q-104 0 -134.5 -31.5t-30.5 -132.5v-135h547v-269h-547v-156q0 -102 30.5 -133.5t134.5 -31.5h408v-263q-250 -13 -402 -13q-52 0 -87.5 1t-82 5t-79 11 t-70.5 20t-63 31.5t-50 46t-40 62.5t-24 82t-9 104zM457 1547l202 271h333l-280 -271h-255z" />
<glyph unicode="&#xca;" horiz-adv-x="1191" d="M143 359v716q0 57 9 104t23.5 81.5t40 62t50.5 45.5t63 31t70 20t79.5 10.5t82.5 4.5t87 1q199 0 401 -11v-263h-407q-104 0 -135 -31.5t-31 -132.5v-135h548v-269h-548v-156q0 -102 31 -133.5t135 -31.5h407v-263q-250 -13 -401 -13q-52 0 -87.5 1t-82 5t-79 11 t-70.5 20t-63 31.5t-50 46t-40 62.5t-24 82t-9 104zM268 1547l268 272h177l273 -272h-239l-120 130l-123 -130h-236z" />
<glyph unicode="&#xcb;" horiz-adv-x="1192" d="M143 359v716q0 57 9 104t23.5 81.5t40 62t50.5 45.5t63 31t70 20t79.5 10.5t82.5 4.5t87 1q200 0 402 -11v-263h-408q-104 0 -134.5 -31.5t-30.5 -132.5v-135h547v-269h-547v-156q0 -102 30.5 -133.5t134.5 -31.5h408v-263q-250 -13 -402 -13q-52 0 -87.5 1t-82 5t-79 11 t-70.5 20t-63 31.5t-50 46t-40 62.5t-24 82t-9 104zM266 1681q0 63 43 105t106 42t104.5 -42t41.5 -105t-41.5 -105.5t-104.5 -42.5t-106 42.5t-43 105.5zM698 1681q0 63 43 105t106 42t104.5 -42t41.5 -105t-41.5 -105.5t-104.5 -42.5t-106 42.5t-43 105.5z" />
<glyph unicode="&#xcc;" horiz-adv-x="630" d="M-76 1822h332l203 -270h-255zM147 0v1432h336v-1432h-336z" />
<glyph unicode="&#xcd;" horiz-adv-x="630" d="M147 0v1432h336v-1432h-336zM171 1552l203 270h333l-281 -270h-255z" />
<glyph unicode="&#xce;" horiz-adv-x="630" d="M-44 1542l268 272h178l273 -272h-240l-120 131l-123 -131h-236zM147 0v1432h336v-1432h-336z" />
<glyph unicode="&#xcf;" horiz-adv-x="630" d="M-48 1676q0 63 43 105.5t106 42.5t104.5 -42.5t41.5 -105.5t-41.5 -105t-104.5 -42t-106 42t-43 105zM147 0v1432h336v-1432h-336zM384 1676q0 63 43 105.5t106 42.5t104.5 -42.5t41.5 -105.5t-41.5 -105t-104.5 -42t-106 42t-43 105z" />
<glyph unicode="&#xd0;" horiz-adv-x="1411" d="M83 632v210h107v561q215 43 477 43q115 0 205 -15.5t156.5 -43.5t114.5 -75.5t79 -103.5t48.5 -135t24.5 -163t7 -194t-7 -194t-24.5 -163.5t-48.5 -135.5t-79 -103t-114.5 -75.5t-156.5 -44t-205 -15.5q-262 0 -477 42v605h-107zM525 269q49 -7 103 -7q70 0 124 13 t90 31t60 55t37 67t19.5 86.5t7.5 94t1 107.5t-1 107.5t-7.5 94t-19.5 86.5t-37 67t-60 55t-90 31t-124 13q-47 0 -103 -8v-320h201v-210h-201v-363z" />
<glyph unicode="&#xd1;" horiz-adv-x="1463" d="M151 0v1191q0 255 199 255q85 0 150 -49.5t124 -167.5l388 -772v975h302v-1190q0 -257 -200 -257q-91 0 -151 47t-123 172l-387 774v-978h-302zM430 1561q10 129 65.5 199t126.5 70q43 0 78 -17.5t53.5 -38t37.5 -38t35 -17.5q46 0 62 106h157q-10 -129 -65.5 -199 t-126.5 -70q-35 0 -64.5 11.5t-48 27.5t-34 32t-30 27.5t-27.5 11.5q-45 0 -62 -105h-157z" />
<glyph unicode="&#xd2;" horiz-adv-x="1373" d="M108 716q0 201 27 334t93.5 224.5t178 131.5t280.5 40t280 -40t177.5 -131.5t93.5 -224.5t27 -334q0 -160 -17 -275.5t-57 -205t-107 -143t-164.5 -80.5t-232.5 -27q-136 0 -233.5 27t-164.5 80.5t-107 143t-57 204.5t-17 276zM336 1822h334l202 -270h-255zM447 716 q0 -49 0.5 -78.5t2 -71.5t5 -67t9.5 -58t15 -52.5t22 -42.5t30.5 -36t40 -24.5t51.5 -16.5t64 -5t64 5t51.5 17t40 24.5t30 35.5t22 42t15 52.5t9 58t5 67t2 71.5t0.5 79q0 101 -2 153t-14.5 120t-37 100.5t-70.5 56t-115 23.5q-39 0 -70.5 -7.5t-55 -18.5t-41.5 -32.5 t-30 -41t-20.5 -54.5t-12.5 -61.5t-6.5 -72.5t-3 -78t-0.5 -87z" />
<glyph unicode="&#xd3;" horiz-adv-x="1373" d="M108 716q0 201 27 334t93.5 224.5t177.5 131.5t280 40t280.5 -40t178 -131.5t93.5 -224.5t27 -334q0 -161 -17 -276t-57 -204.5t-107 -143t-164.5 -80.5t-233.5 -27q-135 0 -232.5 27t-164.5 80.5t-107 143t-57 205t-17 275.5zM447 716q0 -50 0.5 -79t2 -71.5t5 -67 t9 -58t15 -52.5t22 -42t30 -35.5t40 -24.5t51.5 -17t64 -5t64 5t51.5 17t40 24.5t30 35.5t22 42t15 52.5t9 58t5 67t2 71.5t0.5 79q0 101 -2 153t-14.5 120t-37 100.5t-70.5 56t-115 23.5t-115 -23.5t-70.5 -56t-37 -100.5t-14.5 -120t-2 -153zM511 1552l202 270h334 l-281 -270h-255z" />
<glyph unicode="&#xd4;" horiz-adv-x="1372" d="M108 716q0 201 27 334t93.5 224.5t177.5 131.5t280 40t280.5 -40t178 -131.5t93.5 -224.5t27 -334q0 -161 -17 -276t-57 -204.5t-107 -143t-164.5 -80.5t-233.5 -27q-135 0 -232.5 27t-164.5 80.5t-107 143t-57 205t-17 275.5zM328 1551l267 272h178l273 -272h-239 l-120 131l-123 -131h-236zM447 716q0 -50 0.5 -79t2 -71.5t5 -67t9 -58t15 -52.5t22 -42t30 -35.5t40 -24.5t51.5 -17t64 -5t64 5t51.5 17t40 24.5t30 35.5t22 42t15 52.5t9 58t5 67t2 71.5t0.5 79q0 101 -2 153t-14.5 120t-37 100.5t-70.5 56t-115 23.5t-115 -23.5 t-70.5 -56t-37 -100.5t-14.5 -120t-2 -153z" />
<glyph unicode="&#xd5;" horiz-adv-x="1373" d="M108 716q0 201 27 334t93.5 224.5t178 131.5t280.5 40t280 -40t177.5 -131.5t93.5 -224.5t27 -334q0 -160 -17 -275.5t-57 -205t-107 -143t-164.5 -80.5t-232.5 -27q-136 0 -233.5 27t-164.5 80.5t-107 143t-57 204.5t-17 276zM379 1545q10 129 65.5 199.5t126.5 70.5 q43 0 78 -17.5t53.5 -38t38 -38t35.5 -17.5q45 0 61 106h157q-10 -129 -65.5 -199.5t-126.5 -70.5q-43 0 -78 17.5t-53 38t-37.5 38t-35.5 17.5q-45 0 -62 -106h-157zM447 716q0 -49 0.5 -78.5t2 -71.5t5 -67t9.5 -58t15 -52.5t22 -42.5t30.5 -36t40 -24.5t51.5 -16.5t64 -5 t64 5t51.5 17t40 24.5t30 35.5t22 42t15 52.5t9 58t5 67t2 71.5t0.5 79q0 101 -2 153t-14.5 120t-37 100.5t-70.5 56t-115 23.5q-39 0 -70.5 -7.5t-55 -18.5t-41.5 -32.5t-30 -41t-20.5 -54.5t-12.5 -61.5t-6.5 -72.5t-3 -78t-0.5 -87z" />
<glyph unicode="&#xd6;" horiz-adv-x="1373" d="M108 716q0 201 27 334t93.5 224.5t177.5 131.5t280 40t280.5 -40t178 -131.5t93.5 -224.5t27 -334q0 -161 -17 -276t-57 -204.5t-107 -143t-164.5 -80.5t-233.5 -27q-135 0 -232.5 27t-164.5 80.5t-107 143t-57 205t-17 275.5zM324 1672q0 63 43 105t106 42t104.5 -42 t41.5 -105t-41.5 -105.5t-104.5 -42.5t-106 42.5t-43 105.5zM447 716q0 -50 0.5 -79t2 -71.5t5 -67t9 -58t15 -52.5t22 -42t30 -35.5t40 -24.5t51.5 -17t64 -5t64 5t51.5 16.5t40 24.5t30.5 36t22 42.5t15 52.5t9.5 58t5 67t2 71.5t0.5 78.5q0 55 -0.5 87t-3 78t-6.5 72.5 t-12.5 61.5t-20.5 54.5t-30 41t-41.5 32.5t-55 18.5t-70.5 7.5q-69 0 -115 -23.5t-70.5 -56t-37 -100.5t-14.5 -120t-2 -153zM756 1672q0 63 42.5 105t105.5 42t105 -42t42 -105t-42 -105.5t-105 -42.5q-62 0 -105 42.5t-43 105.5z" />
<glyph unicode="&#xd7;" horiz-adv-x="1077" d="M81 887l175 171l283 -284l286 285l169 -172l-284 -284l285 -285l-170 -174l-287 286l-285 -286l-171 172l285 285z" />
<glyph unicode="&#xd8;" horiz-adv-x="1373" d="M108 716q0 201 27 334t93.5 224.5t177.5 131.5t280 40q151 0 254 -32l93 173l183 -117l-92 -170q76 -85 108.5 -226.5t32.5 -357.5q0 -161 -17 -276t-57 -204.5t-107 -143t-164.5 -80.5t-233.5 -27q-151 0 -253 32l-93 -172l-183 116l91 170q-75 85 -107.5 227.5 t-32.5 357.5zM447 716q0 -145 6 -203h1l343 636q-45 20 -111 20q-69 0 -115 -23.5t-70.5 -56t-37 -100.5t-14.5 -120t-2 -153zM576 283q46 -19 110 -19q35 0 64 5t51.5 17t40 24.5t30 35.5t22 42t15 52.5t9 58t5 67t2 71.5t0.5 79q0 145 -6 203h-1z" />
<glyph unicode="&#xd9;" horiz-adv-x="1372" d="M140 490v942h330v-958q0 -114 47.5 -159.5t167.5 -45.5q119 0 166 45.5t47 159.5v958h331v-942q0 -118 -25.5 -206.5t-70.5 -145t-115 -91t-150 -48.5t-183 -14q-86 0 -155.5 9.5t-132.5 32t-109 61t-80 93.5t-51 132.5t-17 176.5zM330 1812h334l202 -270h-255z" />
<glyph unicode="&#xda;" horiz-adv-x="1372" d="M140 490v942h330v-958q0 -114 47.5 -159.5t167.5 -45.5q119 0 166 45.5t47 159.5v958h331v-942q0 -118 -25.5 -206.5t-70.5 -145t-115 -91t-150 -48.5t-183 -14q-86 0 -155.5 9.5t-132.5 32t-109 61t-80 93.5t-51 132.5t-17 176.5zM514 1542l203 270h333l-281 -270h-255z " />
<glyph unicode="&#xdb;" horiz-adv-x="1372" d="M140 490v942h331v-958q0 -114 47 -159.5t167 -45.5q119 0 166 45.5t47 159.5v958h331v-942q0 -147 -37.5 -247.5t-112 -156t-169 -78.5t-225.5 -23q-86 0 -155.5 9.5t-132.5 32t-109 61t-80 93.5t-51 132.5t-17 176.5zM335 1541l268 272h178l273 -272h-239l-120 131 l-123 -131h-237z" />
<glyph unicode="&#xdc;" horiz-adv-x="1372" d="M140 490v942h330v-958q0 -114 47.5 -159.5t167.5 -45.5q118 0 165.5 46t47.5 159v958h331v-942q0 -118 -25.5 -206.5t-70.5 -145t-115 -91t-150 -48.5t-183 -14q-86 0 -155.5 9.5t-132.5 32t-109 61t-80 93.5t-51 132.5t-17 176.5zM320 1677q0 63 43.5 105t106.5 42 q62 0 104 -42t42 -105t-42 -105.5t-104 -42.5q-63 0 -106.5 42.5t-43.5 105.5zM753 1677q0 63 42.5 105t105.5 42t105 -42t42 -105t-42 -105.5t-105 -42.5t-105.5 42.5t-42.5 105.5z" />
<glyph unicode="&#xdd;" horiz-adv-x="1273" d="M7 1432h362l269 -547l279 547h349l-462 -881v-551h-335v551zM476 1536l202 270h334l-281 -270h-255z" />
<glyph unicode="&#xde;" horiz-adv-x="1239" d="M129 0v1432h334v-228q90 4 142 4q74 0 133.5 -4.5t121.5 -17t109 -33.5t89 -55.5t69 -81t43 -112.5t16 -148q0 -111 -28 -192.5t-75.5 -132t-122 -81t-155.5 -41.5t-187 -11q-65 0 -155 6v-304h-334zM463 571q48 -6 144 -6q126 0 187 41t61 150q0 102 -53.5 144.5 t-189.5 42.5q-69 0 -149 -10v-362z" />
<glyph unicode="&#xdf;" horiz-adv-x="1339" d="M128 0v958q0 309 126 441.5t416 132.5q265 0 394.5 -101t129.5 -267q0 -66 -23 -118t-57 -82.5t-74 -57.5t-74 -45.5t-57 -43t-23 -53.5q0 -32 22 -54t56.5 -36t77 -27.5t84.5 -35.5t76.5 -54t56.5 -89.5t22 -135.5q0 -94 -29.5 -162.5t-84 -108t-123.5 -58t-155 -18.5 q-76 0 -177 14.5t-179 38.5l28 233q172 -37 280 -37q19 0 37 3.5t38.5 12.5t33 29t12.5 49q0 38 -21.5 63t-56 39.5t-76.5 28.5t-83.5 35t-76 52t-56 87.5t-21.5 134.5q0 55 17 98.5t44 71t59.5 50.5t65.5 41t60 37t44 44.5t17 57.5q0 48 -51 77t-149 29q-128 0 -181 -69 t-53 -247v-958h-316z" />
<glyph unicode="&#xe0;" horiz-adv-x="1132" d="M79 342q0 152 73.5 239.5t238.5 114.5q110 18 311 26q0 74 -39 105t-128 31q-158 0 -392 -30l-26 237q246 44 437 44q79 0 143 -9.5t123.5 -34.5t100 -64.5t64.5 -103.5t24 -148v-441q0 -120 -9 -215q-179 -108 -489 -108q-228 0 -330 87.5t-102 269.5zM202 1563h311 l189 -334h-238zM388 346q0 -66 38 -92.5t114 -26.5q95 0 156 22q6 53 6 147v120q-146 -9 -204 -23q-62 -15 -86 -44.5t-24 -102.5z" />
<glyph unicode="&#xe1;" horiz-adv-x="1133" d="M79 342q0 152 73.5 239.5t238.5 114.5q109 18 311 26q0 74 -39 105t-128 31q-158 0 -392 -30l-26 237q246 44 437 44q79 0 143 -9.5t124 -34t100.5 -64.5t64.5 -104t24 -148v-441q0 -92 -10 -215q-179 -108 -489 -108q-227 0 -329.5 87.5t-102.5 269.5zM388 346 q0 -66 38 -92.5t114 -26.5q96 0 156 22q6 53 6 147v120q-146 -9 -204 -23q-61 -15 -85.5 -44.5t-24.5 -102.5zM414 1227l189 334h311l-261 -334h-239z" />
<glyph unicode="&#xe2;" horiz-adv-x="1133" d="M79 342q0 152 73.5 239.5t238.5 114.5q109 18 311 26q0 74 -39 105t-128 31q-158 0 -392 -30l-26 237q246 44 437 44q79 0 143 -9.5t124 -34t100.5 -64.5t64.5 -104t24 -148v-441q0 -92 -10 -215q-179 -108 -489 -108q-227 0 -329.5 87.5t-102.5 269.5zM236 1220l250 336 h166l256 -336h-224l-112 161l-115 -161h-221zM388 346q0 -66 38 -92.5t114 -26.5q96 0 156 22q6 53 6 147v120q-147 -9 -204 -23q-61 -15 -85.5 -44.5t-24.5 -102.5z" />
<glyph unicode="&#xe3;" horiz-adv-x="1133" d="M79 342q0 152 73.5 239.5t238.5 114.5q109 18 311 26q0 74 -39 105t-128 31q-158 0 -392 -30l-26 237q246 44 437 44q79 0 143 -9.5t124 -34t100.5 -64.5t64.5 -104t24 -148v-441q0 -92 -10 -215q-179 -108 -489 -108q-227 0 -329.5 87.5t-102.5 269.5zM261 1256 q10 134 65.5 207.5t126.5 73.5q43 0 78 -18t53.5 -40t38 -40t35.5 -18q45 0 61 110h157q-10 -134 -65 -207.5t-126 -73.5q-43 0 -78 18t-53.5 40t-38 40t-35.5 18q-45 0 -62 -110h-157zM388 346q0 -66 38 -92.5t114 -26.5q96 0 156 22q6 53 6 147v120q-147 -9 -204 -23 q-61 -15 -85.5 -44.5t-24.5 -102.5z" />
<glyph unicode="&#xe4;" horiz-adv-x="1132" d="M79 342q0 152 73.5 239.5t238.5 114.5q110 18 311 26q0 74 -39 105t-128 31q-161 0 -392 -30l-26 237q246 44 437 44q79 0 143 -9.5t123.5 -34t100 -64.5t64.5 -104t24 -148v-441q0 -120 -9 -215q-179 -108 -489 -108q-228 0 -330 87.5t-102 269.5zM207 1385 q0 63 43.5 105t106.5 42q62 0 104 -42t42 -105t-42 -105t-104 -42q-63 0 -106.5 42t-43.5 105zM388 346q0 -66 38 -92.5t114 -26.5q95 0 156 22q6 53 6 147v120q-146 -9 -204 -23q-62 -15 -86 -44.5t-24 -102.5zM639 1385q0 63 43 105t106 42t105 -42t42 -105t-42 -105 t-105 -42t-106 42t-43 105z" />
<glyph unicode="&#xe5;" horiz-adv-x="1132" d="M79 342q0 152 73.5 239.5t238.5 114.5q109 18 311 26q0 74 -39 105t-128 31q-158 0 -392 -30l-26 237q246 44 437 44q79 0 143 -9.5t123.5 -34t100 -64.5t64.5 -104t24 -148v-441q0 -120 -9 -215q-179 -108 -489 -108q-228 0 -330 87.5t-102 269.5zM346 1419 q0 89 63.5 153t153.5 64t153.5 -64t63.5 -153q0 -90 -63.5 -153.5t-153.5 -63.5t-153.5 63.5t-63.5 153.5zM388 346q0 -66 38 -92.5t114 -26.5q96 0 156 22q6 53 6 147v120q-146 -9 -204 -23q-61 -15 -85.5 -44.5t-24.5 -102.5zM463 1419q0 -42 29.5 -71t70.5 -29t70.5 29 t29.5 71q0 41 -29.5 71t-70.5 30t-70.5 -30t-29.5 -71z" />
<glyph unicode="&#xe6;" horiz-adv-x="1775" d="M79 342q0 152 73.5 239.5t238.5 114.5q110 18 311 26q0 74 -39 105t-128 31q-158 0 -392 -30l-26 237q246 44 437 44q214 0 323 -76q111 76 321 76q119 0 205.5 -25.5t140 -70t84.5 -116t42.5 -150.5t11.5 -187q0 -32 -4 -94q-215 -40 -496 -55l-168 -9 q5 -93 57.5 -127.5t166.5 -34.5q164 0 396 29l27 -240q-259 -44 -486 -44q-166 0 -269 62q-154 -62 -395 -62q-228 0 -330 87.5t-102 269.5zM388 346q0 -66 38 -92.5t114 -26.5q95 0 156 22q6 53 6 147v120q-146 -9 -204 -23q-62 -15 -86 -44.5t-24 -102.5zM1006 618l152 8 q112 5 208 18q2 20 2 36q0 93 -39 139t-131 46q-62 0 -101.5 -17.5t-58.5 -53.5t-25.5 -76t-6.5 -100z" />
<glyph unicode="&#xe7;" horiz-adv-x="976" d="M96 557q0 114 12 196t44 152.5t86.5 113t141 66.5t206.5 24q169 0 309 -46l-25 -230q-141 29 -208 29q-56 0 -95.5 -6t-67.5 -22t-44.5 -37t-26 -58t-12.5 -78t-3 -104q0 -42 0.5 -69t3.5 -59.5t8 -52t13.5 -42t22 -35.5t32 -26t43.5 -19t57 -10t72 -4q69 0 205 28 l26 -237q-121 -32 -242 -41l-61 -96q64 -10 109.5 -49t45.5 -99q0 -92 -70.5 -136.5t-176.5 -44.5q-98 0 -181 49l42 113q73 -37 136 -37t63 51q0 21 -18.5 36.5t-48 22.5t-56.5 10t-54 3l103 173q-71 3 -128.5 22t-97.5 48.5t-70 73t-48 90t-28.5 105t-14.5 113t-4 119.5z " />
<glyph unicode="&#xe8;" horiz-adv-x="1163" d="M90 547q0 302 111.5 432t384.5 130q119 0 205.5 -25.5t140 -70t84.5 -116t42.5 -150.5t11.5 -187q0 -48 -3 -94q-215 -40 -497 -55l-168 -9q5 -93 57.5 -127.5t166.5 -34.5q164 0 396 29l27 -240q-259 -44 -486 -44q-110 0 -193 28t-135.5 76t-85.5 120.5t-46 154 t-13 183.5zM272 1563h311l189 -334h-238zM394 618l153 8q114 6 207 18q2 20 2 36q0 93 -39 139t-131 46q-62 0 -101.5 -17.5t-58.5 -53.5t-25.5 -76t-6.5 -100z" />
<glyph unicode="&#xe9;" horiz-adv-x="1163" d="M90 547q0 302 111.5 432t384.5 130q119 0 205.5 -25.5t140 -70t85 -115.5t43 -150.5t11.5 -187.5q0 -32 -4 -94q-215 -40 -497 -55l-167 -9q5 -93 57 -127.5t166 -34.5q165 0 397 29l27 -240q-259 -44 -486 -44q-110 0 -193 28t-136 76t-86 120.5t-46 154t-13 183.5z M394 618l153 8q115 5 208 18q1 10 1 36q0 93 -39 139t-131 46q-62 0 -101.5 -17.5t-58.5 -53.5t-25.5 -76t-6.5 -100zM457 1224l189 334h311l-261 -334h-239z" />
<glyph unicode="&#xea;" horiz-adv-x="1163" d="M90 547q0 302 111.5 432t384.5 130q119 0 205.5 -25.5t140 -70t84.5 -116t42.5 -150.5t11.5 -187q0 -48 -3 -94q-201 -37 -497 -55l-167 -9q5 -93 57 -127.5t166 -34.5q164 0 396 29l27 -240q-259 -44 -485 -44q-110 0 -193 28t-136 76t-86 120.5t-46 154t-13 183.5z M264 1220l250 336h166l256 -336h-224l-112 161l-115 -161h-221zM394 618l153 8q114 6 207 18q2 10 2 36q0 93 -39 139t-131 46q-62 0 -101.5 -17.5t-58.5 -53.5t-25.5 -76t-6.5 -100z" />
<glyph unicode="&#xeb;" horiz-adv-x="1163" d="M90 547q0 302 111.5 432t384.5 130q119 0 205.5 -25.5t140 -70t84.5 -116t42.5 -150.5t11.5 -187q0 -48 -3 -94q-215 -40 -497 -55l-168 -9q5 -93 57.5 -127.5t166.5 -34.5q164 0 396 29l27 -240q-259 -44 -486 -44q-110 0 -193 28t-135.5 76t-85.5 120.5t-46 154 t-13 183.5zM246 1385q0 63 43.5 105t106.5 42t104.5 -42t41.5 -105t-41.5 -105t-104.5 -42t-106.5 42t-43.5 105zM394 618l153 8q114 6 207 18q2 20 2 36q0 93 -39 139t-131 46q-62 0 -101.5 -17.5t-58.5 -53.5t-25.5 -76t-6.5 -100zM678 1385q0 63 43 105t106 42t104.5 -42 t41.5 -105t-41.5 -105t-104.5 -42t-106 42t-43 105z" />
<glyph unicode="&#xec;" horiz-adv-x="592" d="M-77 1577h310l190 -335h-239zM138 0v1094h317v-1094h-317z" />
<glyph unicode="&#xed;" horiz-adv-x="593" d="M138 0v1094h318v-1094h-318zM171 1243l189 334h312l-263 -334h-238z" />
<glyph unicode="&#xee;" horiz-adv-x="593" d="M-39 1249l251 335h166l255 -335h-224l-112 161l-115 -161h-221zM138 0v1094h318v-1094h-318z" />
<glyph unicode="&#xef;" horiz-adv-x="592" d="M-66 1394q0 63 43 105.5t106 42.5t104.5 -42.5t41.5 -105.5t-41.5 -105t-104.5 -42t-106 42t-43 105zM138 0v1094h317v-1094h-317zM366 1394q0 63 43 105.5t105 42.5q63 0 105 -42.5t42 -105.5t-42 -105t-105 -42t-105.5 42t-42.5 105z" />
<glyph unicode="&#xf0;" horiz-adv-x="1163" d="M80 547q0 291 111.5 414t380.5 124q52 0 94 -11q-27 58 -73 126l-170 -62l-88 141l153 56q-40 46 -97 105l281 92q44 -41 92 -96l172 63l88 -140l-160 -59q204 -324 204 -753q0 -306 -111 -434t-383 -128q-271 0 -382.5 127.5t-111.5 434.5zM395 547q0 -76 5 -126t16 -87 t32.5 -56.5t51 -28t74.5 -8.5q109 0 144.5 62t35.5 244q0 165 -36 223.5t-144 58.5q-107 0 -143 -58t-36 -224z" />
<glyph unicode="&#xf1;" horiz-adv-x="1197" d="M128 0v787q0 120 9 215q186 107 485 107q85 0 152 -10.5t114 -29t80.5 -48.5t53.5 -62t31.5 -78t15 -89t3.5 -101v-691h-313v667q0 106 -34 146.5t-142 41.5q-84 0 -136 -22q-6 -53 -6 -147v-686h-313zM301 1262q10 134 65.5 207.5t126.5 73.5q43 0 78 -18t53.5 -40 t38 -40t35.5 -18q45 0 61 110h158q-10 -134 -66 -207t-127 -73q-42 0 -77 18t-53.5 39.5t-38 39.5t-35.5 18q-45 0 -61 -110h-158z" />
<glyph unicode="&#xf2;" horiz-adv-x="1169" d="M91 547q0 306 111.5 434t382.5 128t382 -128.5t111 -433.5q0 -306 -111 -434t-382 -128t-382.5 127.5t-111.5 434.5zM256 1563h311l189 -334h-238zM406 547q0 -185 35 -245.5t144 -60.5q108 0 143.5 62t35.5 244q0 181 -35.5 243.5t-143.5 62.5t-143.5 -61.5 t-35.5 -244.5z" />
<glyph unicode="&#xf3;" horiz-adv-x="1170" d="M91 547q0 306 111.5 434t382.5 128t382.5 -128.5t111.5 -433.5q0 -306 -111.5 -434t-382.5 -128t-382.5 127.5t-111.5 434.5zM406 547q0 -185 35 -245.5t144 -60.5q108 0 143.5 62t35.5 244q0 181 -35.5 243.5t-143.5 62.5t-143.5 -61.5t-35.5 -244.5zM422 1238l189 333 h312l-262 -333h-239z" />
<glyph unicode="&#xf4;" horiz-adv-x="1169" d="M91 547q0 307 111 434.5t382 127.5t382.5 -128.5t111.5 -433.5q0 -306 -111 -434t-383 -128q-271 0 -382 127.5t-111 434.5zM249 1226l251 336h166l255 -336h-224l-111 161l-116 -161h-221zM406 547q0 -185 35 -245.5t143 -60.5q109 0 144.5 62t35.5 244q0 181 -36 243.5 t-144 62.5t-143 -61t-35 -245z" />
<glyph unicode="&#xf5;" horiz-adv-x="1169" d="M91 547q0 307 111 434.5t382 127.5t382.5 -128.5t111.5 -433.5q0 -306 -111.5 -434t-382.5 -128t-382 127.5t-111 434.5zM277 1250q10 134 65.5 207.5t126.5 73.5q43 0 78 -18t53 -40t37.5 -40t35.5 -18q45 0 61 110h158q-10 -134 -65.5 -207.5t-126.5 -73.5 q-42 0 -77 18t-53.5 40t-38 40t-35.5 18q-46 0 -62 -110h-157zM406 547q0 -185 34.5 -245.5t143.5 -60.5t144.5 62t35.5 244q0 181 -36 243.5t-144 62.5t-143 -61t-35 -245z" />
<glyph unicode="&#xf6;" horiz-adv-x="1169" d="M91 547q0 307 111 434.5t382 127.5t382.5 -128.5t111.5 -433.5q0 -306 -111.5 -434t-382.5 -128t-382 127.5t-111 434.5zM222 1385q0 63 43 105t106 42t104.5 -42t41.5 -105t-41.5 -105t-104.5 -42t-106 42t-43 105zM406 547q0 -185 35 -245.5t143 -60.5q109 0 144.5 62 t35.5 244q0 181 -36 243.5t-144 62.5t-143 -61t-35 -245zM654 1385q0 63 42.5 105t105.5 42t105 -42t42 -105t-42 -105t-105 -42t-105.5 42t-42.5 105z" />
<glyph unicode="&#xf7;" horiz-adv-x="1172" d="M78 473v256h1017v-256h-1017zM420 191q0 70 48.5 118.5t117.5 48.5t118 -48.5t49 -118.5q0 -69 -49 -117.5t-118 -48.5t-117.5 48.5t-48.5 117.5zM420 1011q0 69 48.5 117.5t117.5 48.5t118 -48.5t49 -117.5t-49 -117.5t-118 -48.5t-117.5 48t-48.5 118z" />
<glyph unicode="&#xf8;" horiz-adv-x="1169" d="M91 547q0 307 111 434.5t382 127.5q131 0 222 -28l83 146l121 -75l-78 -138q77 -64 111.5 -177.5t34.5 -289.5q0 -306 -111.5 -434t-382.5 -128q-126 0 -221 28l-83 -146l-121 75l78 137q-76 64 -111 177.5t-35 290.5zM406 547q0 -102 8 -157l256 451q-31 12 -86 12 q-108 0 -143 -61t-35 -245zM500 253q34 -12 84 -12q109 0 144.5 62t35.5 244q0 95 -9 156z" />
<glyph unicode="&#xf9;" horiz-adv-x="1193" d="M123 403v691h313v-667q0 -53 6.5 -85.5t25 -57t53 -34.5t89.5 -10q84 0 133 21q7 62 7 147v686h313v-786q0 -120 -9 -215q-188 -108 -483 -108q-85 0 -151.5 10.5t-113.5 29t-80.5 48.5t-53 62t-31 78t-15 89t-3.5 101zM249 1577h311l190 -334h-239z" />
<glyph unicode="&#xfa;" horiz-adv-x="1193" d="M123 403v691h313v-667q0 -106 33.5 -146.5t140.5 -40.5q82 0 133 21q7 62 7 147v686h313v-786q0 -104 -9 -215q-188 -108 -483 -108q-85 0 -151.5 10.5t-113.5 29t-80.5 48.5t-53 62t-31 78t-15 89t-3.5 101zM445 1255l190 334h311l-262 -334h-239z" />
<glyph unicode="&#xfb;" horiz-adv-x="1193" d="M123 403v691h313v-667q0 -106 33.5 -146.5t140.5 -40.5q82 0 133 21q7 62 7 147v686h313v-786q0 -104 -9 -215q-188 -108 -484 -108q-85 0 -151.5 10.5t-113 29t-80 48.5t-53 62t-31 78t-15 89t-3.5 101zM257 1261l251 335h166l256 -335h-224l-112 161l-115 -161h-222z " />
<glyph unicode="&#xfc;" horiz-adv-x="1193" d="M123 403v691h313v-667q0 -106 33.5 -146.5t140.5 -40.5q84 0 133 21q7 62 7 147v686h313v-786q0 -120 -9 -215q-188 -108 -483 -108q-85 0 -151.5 10.5t-113.5 29t-80.5 48.5t-53 62t-31 78t-15 89t-3.5 101zM230 1407q0 63 43 105.5t106 42.5t104.5 -42.5t41.5 -105.5 t-41.5 -105t-104.5 -42t-106 42t-43 105zM662 1407q0 63 42.5 105.5t105.5 42.5t105 -42.5t42 -105.5t-42 -105t-105 -42t-105.5 42t-42.5 105z" />
<glyph unicode="&#xfd;" horiz-adv-x="1157" d="M22 1094h334l247 -615l192 615h321l-509 -1497h-322l175 483zM441 1231l189 333h311l-262 -333h-238z" />
<glyph unicode="&#xfe;" horiz-adv-x="1202" d="M121 -403v1835h315v-339q90 16 177 16q175 0 281 -51.5t160 -175.5t54 -335t-54 -335t-160 -175.5t-281 -51.5q-82 0 -177 17v-405h-315zM436 254q61 -17 120 -17q48 0 85 8.5t62 21.5t42.5 37.5t26.5 46t14 58.5t6 65t1 73t-1 73t-6 65t-14 58.5t-26.5 46t-42.5 37.5 t-62 21.5t-85 8.5q-62 0 -120 -16v-587z" />
<glyph unicode="&#xff;" horiz-adv-x="1157" d="M22 1094h335l246 -615l192 615h322l-509 -1497h-323l175 483zM226 1389q0 63 43 105t106 42t104.5 -42t41.5 -105t-41.5 -105.5t-104.5 -42.5t-106 42.5t-43 105.5zM657 1389q0 63 43.5 105t106.5 42t104.5 -42t41.5 -105t-41.5 -105.5t-104.5 -42.5t-106.5 42.5 t-43.5 105.5z" />
<glyph unicode="&#x152;" horiz-adv-x="1974" d="M108 716q0 201 27 334t93.5 224.5t178 131.5t280.5 40q236 0 361 -83q63 46 153.5 59t230.5 13q196 0 401 -11v-263h-407q-104 0 -135 -31.5t-31 -132.5v-135h547v-269h-547v-156q0 -102 31 -133.5t135 -31.5h407v-263q-250 -13 -401 -13q-139 0 -229.5 13.5t-154.5 59.5 q-128 -84 -361 -84q-136 0 -233.5 27t-164.5 80.5t-107 143t-57 204.5t-17 276zM447 716q0 -49 0.5 -78.5t2 -71.5t5 -67t9.5 -58t15 -52.5t22 -42.5t30.5 -36t40 -24.5t51.5 -16.5t64 -5t64 5t51.5 17t40 24.5t30 35.5t22 42t15 52.5t9 58t5 67t2 71.5t0.5 79q0 101 -2 153 t-14.5 120t-37 100.5t-70.5 56t-115 23.5q-39 0 -70.5 -7.5t-55 -18.5t-41.5 -32.5t-30 -41t-20.5 -54.5t-12.5 -61.5t-6.5 -72.5t-3 -78t-0.5 -87z" />
<glyph unicode="&#x153;" horiz-adv-x="1837" d="M91 547q0 307 111 434.5t382 127.5q226 0 338 -90q114 90 338 90q119 0 205.5 -25.5t140 -70t84.5 -116t42.5 -150.5t11.5 -187q0 -48 -3 -94q-215 -40 -497 -55l-167 -9q5 -93 57 -127.5t166 -34.5q165 0 397 29l26 -240q-259 -44 -485 -44q-202 0 -312 93 q-110 -93 -342 -93q-271 0 -382 127.5t-111 434.5zM406 547q0 -185 35 -245.5t143 -60.5q109 0 144.5 62t35.5 244q0 181 -36 243.5t-144 62.5t-143 -61t-35 -245zM1068 618l153 8q114 6 207 18q2 20 2 36q0 93 -39 139t-131 46q-62 0 -101.5 -17.5t-58.5 -53.5t-25.5 -76 t-6.5 -100z" />
<glyph unicode="&#x178;" horiz-adv-x="1273" d="M7 1432h362l269 -547l279 547h349l-462 -881v-551h-335v551zM286 1670q0 63 43 105.5t106 42.5t104.5 -42.5t41.5 -105.5t-41.5 -105t-104.5 -42t-106 42t-43 105zM718 1670q0 63 43 105.5t105 42.5q63 0 105 -42.5t42 -105.5t-42 -105t-105 -42t-105.5 42t-42.5 105z " />
<glyph unicode="&#x2c6;" horiz-adv-x="768" d="M49 1150l250 335h166l255 -335h-224l-111 161l-116 -161h-220z" />
<glyph unicode="&#x2dc;" horiz-adv-x="770" d="M77 1172q10 134 66 207.5t127 73.5q43 0 78 -18t53 -39.5t37.5 -39.5t35.5 -18q45 0 61 110h158q-10 -134 -65.5 -207.5t-126.5 -73.5q-43 0 -78 18t-53 39.5t-37.5 39.5t-35.5 18q-46 0 -62 -110h-158z" />
<glyph unicode="&#x2000;" horiz-adv-x="986" />
<glyph unicode="&#x2001;" horiz-adv-x="1972" />
<glyph unicode="&#x2002;" horiz-adv-x="986" />
<glyph unicode="&#x2003;" horiz-adv-x="1972" />
<glyph unicode="&#x2004;" horiz-adv-x="657" />
<glyph unicode="&#x2005;" horiz-adv-x="493" />
<glyph unicode="&#x2006;" horiz-adv-x="328" />
<glyph unicode="&#x2007;" horiz-adv-x="328" />
<glyph unicode="&#x2008;" horiz-adv-x="246" />
<glyph unicode="&#x2009;" horiz-adv-x="394" />
<glyph unicode="&#x200a;" horiz-adv-x="109" />
<glyph unicode="&#x2010;" horiz-adv-x="801" d="M125 423v243h551v-243h-551z" />
<glyph unicode="&#x2011;" horiz-adv-x="801" d="M125 423v243h551v-243h-551z" />
<glyph unicode="&#x2012;" horiz-adv-x="801" d="M125 423v243h551v-243h-551z" />
<glyph unicode="&#x2013;" horiz-adv-x="1238" d="M125 428v232h988v-232h-988z" />
<glyph unicode="&#x2014;" horiz-adv-x="2192" d="M125 428v232h1942v-232h-1942z" />
<glyph unicode="&#x2018;" horiz-adv-x="546" d="M68 966l213 551h238l-126 -551h-325z" />
<glyph unicode="&#x2019;" horiz-adv-x="546" d="M68 966l126 551h325l-212 -551h-239z" />
<glyph unicode="&#x201a;" horiz-adv-x="569" d="M44 -250l126 551h325l-213 -551h-238z" />
<glyph unicode="&#x201c;" horiz-adv-x="991" d="M68 966l213 551h238l-126 -551h-325zM512 966l213 551h238l-125 -551h-326z" />
<glyph unicode="&#x201d;" horiz-adv-x="990" d="M68 966l126 551h325l-213 -551h-238zM512 966l126 551h325l-212 -551h-239z" />
<glyph unicode="&#x201e;" horiz-adv-x="1013" d="M44 -250l126 551h325l-213 -551h-238zM488 -250l126 551h324l-212 -551h-238z" />
<glyph unicode="&#x2022;" horiz-adv-x="745" d="M86 688q0 119 83.5 202.5t202.5 83.5t203 -84t84 -202q0 -119 -84 -203t-203 -84t-202.5 84t-83.5 203z" />
<glyph unicode="&#x2026;" horiz-adv-x="1877" d="M101 160q0 99 39 136t143 37t143 -37t39 -136q0 -100 -38.5 -137.5t-143.5 -37.5t-143.5 37.5t-38.5 137.5zM757 160q0 99 39 136t143 37t143 -37t39 -136q0 -100 -38.5 -137.5t-143.5 -37.5t-143.5 37.5t-38.5 137.5zM1412 160q0 99 39 136t143 37t143 -37t39 -136 q0 -100 -38.5 -137.5t-143.5 -37.5t-143.5 37.5t-38.5 137.5z" />
<glyph unicode="&#x202f;" horiz-adv-x="394" />
<glyph unicode="&#x2039;" horiz-adv-x="710" d="M50 530l303 427h284l-274 -427l274 -428h-284z" />
<glyph unicode="&#x203a;" horiz-adv-x="710" d="M73 102l275 428l-275 427h285l303 -427l-303 -428h-285z" />
<glyph unicode="&#x205f;" horiz-adv-x="493" />
<glyph unicode="&#x20ac;" horiz-adv-x="1122" d="M69 486l35 165h101v43q0 33 1 49h-124l36 166h96q12 131 43 222t90 153t148 90.5t216 28.5q189 0 324 -48l-24 -253q-132 27 -250 27q-111 0 -162.5 -55.5t-66.5 -164.5h406l-36 -166h-379v-92h359l-35 -165h-317q14 -112 65 -169t166 -57q125 0 249 28l25 -256 q-138 -47 -324 -47q-128 0 -217.5 29t-148.5 92t-89.5 155t-42.5 225h-144z" />
<glyph unicode="&#x2122;" horiz-adv-x="1946" d="M63 1266v166h688v-166h-250v-693h-189v693h-249zM869 573v859h252l215 -547l212 547h250v-859h-189v542h-1l-212 -542h-125l-212 542h-1v-542h-189z" />
<glyph unicode="&#x25fc;" horiz-adv-x="1093" d="M0 0v1094h1094v-1094h-1094z" />
</font>
</defs>
</svg>
