<?xml version="1.0" encoding="utf-8"?>
<!-- Generator: Adobe Illustrator 16.0.0, SVG Export Plug-In . SVG Version: 6.00 Build 0)  -->
<!DOCTYPE svg PUBLIC "-//W3C//DTD SVG 1.1//EN" "http://www.w3.org/Graphics/SVG/1.1/DTD/svg11.dtd">
<svg version="1.1" id="Layer_1" xmlns="http://www.w3.org/2000/svg" xmlns:xlink="http://www.w3.org/1999/xlink" x="0px" y="0px"
	 width="69px" height="69px" viewBox="0 0 69 69" enable-background="new 0 0 69 69" xml:space="preserve">
<path fill="none" stroke="#582D82" stroke-width="1.8" stroke-linecap="round" stroke-miterlimit="10" d="M23.991,30.354
	c0.218-13.58,4.491-24.414,9.73-24.414c5.24,0,9.513,10.838,9.729,24.421"/>
<path fill="none" stroke="#582D82" stroke-width="1.8" stroke-linecap="round" stroke-miterlimit="10" d="M30.036,36.658
	c-0.052-1.684-0.079-3.428-0.079-5.214c0-14.085,1.685-25.503,3.764-25.503s3.764,11.418,3.764,25.503c0,1.76-0.026,3.48-0.077,5.14
	"/>
<line fill="none" stroke="#582D82" stroke-width="1.8" stroke-linecap="round" stroke-miterlimit="10" x1="26.522" y1="14.268" x2="40.737" y2="14.268"/>
<line fill="none" stroke="#582D82" stroke-width="1.8" stroke-linecap="round" stroke-miterlimit="10" x1="24.943" y1="20.383" x2="42.498" y2="20.383"/>
<line fill="none" stroke="#582D82" stroke-width="1.8" stroke-linecap="round" stroke-miterlimit="10" x1="24.165" y1="26.5" x2="43.276" y2="26.5"/>
<line fill="none" stroke="#582D82" stroke-width="1.8" stroke-linecap="round" stroke-miterlimit="10" x1="26.8" y1="32.615" x2="40.298" y2="32.615"/>
<line fill="none" stroke="#582D82" stroke-width="1.8" stroke-linecap="round" stroke-miterlimit="10" x1="31.208" y1="38.73" x2="36.233" y2="38.73"/>
<path fill="none" stroke="#582D82" stroke-width="1.8" stroke-linecap="round" stroke-linejoin="round" stroke-miterlimit="10" d="
	M33.721,45.506c4.687-17.971,17.521-17.783,17.521-17.783s-6.117,9.033-6.117,14.584c0,5.553-1.92,14.114-11.403,14.114
	c-9.485,0-11.404-8.562-11.404-14.114c0-5.551-6.116-14.584-6.116-14.584S29.035,27.535,33.721,45.506z"/>
<path fill="none" stroke="#582D82" stroke-width="1.8" stroke-linecap="round" stroke-linejoin="round" stroke-miterlimit="10" d="
	M39.536,54.977v4.417c0,1.57-1.272,2.842-2.843,2.842h-5.946c-1.57,0-2.842-1.271-2.842-2.842v-4.417"/>
<path fill="none" stroke="#582D82" stroke-width="1.8" stroke-linecap="round" stroke-miterlimit="10" d="M16.201,27.723
	c0,0,13.756,7.673,13.756,28.161"/>
<path fill="none" stroke="#582D82" stroke-width="1.8" stroke-linecap="round" stroke-miterlimit="10" d="M51.24,27.723
	c0,0-13.756,7.673-13.756,28.161"/>
</svg>
