<svg xmlns="http://www.w3.org/2000/svg" xmlns:xlink="http://www.w3.org/1999/xlink" version="1.1" x="0px" y="0px" viewBox="0 0 100 100" enable-background="new 0 0 100 100" xml:space="preserve">
    <g display="none">
        <path display="inline" d="M66.729,91.031c2.283,0,4.568,0,6.852,0c0.313,0,0.625,0,0.938,0c0.58,0,1.16,0,1.74,0   c-0.018-0.115-0.035-0.233-0.055-0.355c-0.125-0.812-0.258-1.757-0.402-2.852c1.385,0,2.768,0,4.15,0c0-0.287,0-0.573,0-0.859   c-1.42,0-2.84,0-4.262,0c-0.324-2.543-0.703-5.814-1.176-9.997c-0.125-1.102-0.229-2.112-0.311-3.03c0.854,0,1.709,0,2.564,0   c0-0.286,0-0.572,0-0.858c-0.879,0-1.76,0-2.639,0c-0.039-0.484-0.072-0.94-0.1-1.366c1.637,0,3.275,0,4.912,0   c0-0.286,0-0.572,0-0.858c-1.652,0-3.305,0-4.959,0c-0.037-0.851-0.045-1.558-0.02-2.122c0.715-3.07,2.553-4.24,6.264-4.24   s5.549,1.17,6.264,4.24c0.059,1.3-0.053,3.359-0.332,6.179c-1.539,0-3.078,0-4.619,0c0,0.287,0,0.572,0,0.858   c1.512,0,3.021,0,4.533,0c-0.025,0.23-0.051,0.463-0.076,0.701c-0.572,0-1.146,0-1.719,0c0,0.286,0,0.573,0,0.859   c0.541,0,1.082,0,1.623,0c-0.725,6.396-1.229,10.618-1.648,13.346c-0.02,0.122-0.039,0.24-0.057,0.355c3.852,0,7.705,0,11.557,0   c0,0.572,0,1.145,0,1.718c-30.502,0-61.003,0-91.504,0c0-0.573,0-1.146,0-1.718c1.341,0,2.682,0,4.023,0c0-2.951,0-5.902,0-8.854   c1.878-8.047,3.757-16.096,5.635-24.145c7.579-3.688,15.156-7.378,22.735-11.065c3.64,1.771,7.277,3.542,10.916,5.313   c-0.192,0.195-0.361,0.417-0.499,0.653c-0.255,0.438-0.403,0.933-0.483,1.436c-0.056,0.354-0.077,0.714-0.081,1.072   c-0.009,0.658,0.034,1.314,0.103,1.97c-0.177-0.114-0.364-0.212-0.56-0.289c-0.412-0.163-0.861-0.237-1.302-0.203   c-0.821,0.063-1.61,0.504-2.058,1.19c-0.271,0.418-0.416,0.93-0.412,1.43c0.004,0.539,0.183,1.065,0.451,1.534   c0.272,0.084,0.543,0.168,0.815,0.252c0.339,0.03,0.679,0.062,1.019,0.093c0.002,0.001,0.176,0.2,0.488,0.649   c0.21,0.304,0.486,0.719,0.851,1.272c-0.996,0.354-1.892,0.919-2.58,1.698c-0.807,0.91-1.308,2.051-1.605,3.333   c-0.013,0.051-0.024,0.103-0.036,0.153c-0.003,0.054-0.006,0.106-0.007,0.159c-0.029,0.642-0.021,1.392,0.02,2.283   c0.018,0.291,0.032,0.582,0.048,0.873c0,0.008,0,0.015,0.001,0.021c-1.695,0-3.392,0-5.088,0c-3.719,0-7.437,0-11.154,0   c0,6.391,0,12.779,0,19.169c6.146,0,12.295,0,18.441,0c0.701,0,1.403,0,2.104,0c-0.019-0.115-0.037-0.233-0.056-0.355   c-0.126-0.812-0.259-1.757-0.401-2.852c1.383,0,2.767,0,4.149,0c0-0.287,0-0.573,0-0.859c-1.42,0-2.841,0-4.262,0   c-0.324-2.543-0.703-5.814-1.176-9.997c-0.125-1.102-0.229-2.112-0.312-3.03c0.854,0,1.71,0,2.565,0c0-0.286,0-0.572,0-0.858   c-0.88,0-1.759,0-2.638,0c-0.04-0.484-0.073-0.94-0.101-1.366c1.637,0,3.275,0,4.912,0c0-0.286,0-0.572,0-0.858   c-1.652,0-3.305,0-4.959,0c-0.038-0.851-0.045-1.558-0.019-2.122c0.715-3.07,2.553-4.24,6.263-4.24c3.711,0,5.549,1.17,6.264,4.24   c0.059,1.3-0.053,3.359-0.332,6.179c-1.539,0-3.08,0-4.619,0c0,0.287,0,0.572,0,0.858c1.512,0,3.021,0,4.531,0   c-0.023,0.23-0.049,0.463-0.074,0.701c-0.572,0-1.146,0-1.719,0c0,0.286,0,0.573,0,0.859c0.541,0,1.082,0,1.621,0   c-0.723,6.396-1.227,10.618-1.648,13.346c-0.018,0.122-0.037,0.24-0.055,0.355c0.461,0,0.922,0,1.383,0   c0.004-0.022,0.008-0.044,0.012-0.064c0.43-2.79,0.932-7.014,1.656-13.417c0.033-0.287,0.064-0.574,0.098-0.861   c0.025-0.241,0.051-0.479,0.076-0.713c0.029-0.288,0.059-0.577,0.088-0.865c0.283-2.858,0.404-4.948,0.34-6.426   c-0.002-0.053-0.006-0.105-0.008-0.159c-0.012-0.051-0.023-0.103-0.035-0.153c-0.283-1.208-0.742-2.289-1.471-3.175   c-0.639-0.773-1.475-1.359-2.41-1.741c0.383-0.582,0.67-1.015,0.887-1.326c0.309-0.447,0.482-0.645,0.484-0.646   c0.34-0.03,0.68-0.062,1.02-0.093c0.271-0.083,0.543-0.167,0.814-0.251c0.234-0.409,0.402-0.864,0.441-1.333   c0.037-0.441-0.039-0.896-0.223-1.301c-0.117-0.253-0.275-0.486-0.467-0.688c-0.246-0.259-0.549-0.468-0.877-0.609   c-0.486-0.211-1.031-0.277-1.555-0.196c-0.406,0.063-0.801,0.215-1.15,0.431c-0.234,0.146-0.449,0.319-0.648,0.513   c-0.025-0.028-0.053-0.056-0.078-0.082c0.369-0.441,0.74-0.881,1.111-1.322c0.242-0.287,0.412-0.632,0.508-0.994   c0.012-0.048,0.023-0.095,0.033-0.143c1.793,0.873,3.586,1.746,5.379,2.619c1.879,8.048,3.756,16.097,5.635,24.144   c0,2.951,0,5.902,0,8.854C65.584,91.031,66.156,91.031,66.729,91.031 M19.044,75.728v-3.864h-3.865v3.864H19.044z M19.044,80.452   v-3.865h-3.865v3.865H19.044z M23.768,75.728v-3.864h-3.864v3.864H23.768z M23.768,80.452v-3.865h-3.864v3.865H23.768z"/>
        <path display="inline" d="M60.863,56.847c-2.367-1.152-4.734-2.305-7.104-3.457c-0.033-0.082-0.07-0.162-0.111-0.241   c-0.201-0.398-0.475-0.763-0.809-1.061c-0.361-0.322-0.791-0.565-1.25-0.712c-0.414-0.132-0.848-0.188-1.284-0.181   c-0.288,0.005-0.577,0.035-0.857,0.096c-4.271-2.078-8.539-4.156-12.809-6.234c-8.075,3.93-16.148,7.86-24.223,11.789   c-1.955,8.379-3.91,16.756-5.865,25.134c-0.573-0.065-1.145-0.132-1.717-0.196c2.031-8.707,4.063-17.415,6.095-26.123   c8.571-4.172,17.141-8.343,25.71-12.514c8.57,4.171,17.141,8.343,25.709,12.514c2.031,8.708,4.064,17.416,6.098,26.123   c-0.574,0.064-1.148,0.131-1.721,0.196C64.771,73.602,62.818,65.225,60.863,56.847"/>
        <path display="inline" d="M43.298,86.413c-5.425,0-10.851,0-16.275,0c0-0.286,0-0.573,0-0.859c5.39,0,10.779,0,16.171,0   C43.228,85.849,43.264,86.135,43.298,86.413"/>
        <path display="inline" d="M43.656,89.151c-5.545,0-11.09,0-16.634,0c0-0.286,0-0.572,0-0.858c5.506,0,11.012,0,16.518,0   C43.579,88.59,43.617,88.876,43.656,89.151"/>
        <path display="inline" d="M42.966,83.675c-5.313,0-10.629,0-15.943,0c0-0.286,0-0.573,0-0.859c5.28,0,10.562,0,15.842,0   C42.9,83.108,42.933,83.395,42.966,83.675"/>
        <path display="inline" d="M42.333,78.198c-5.104,0-10.207,0-15.312,0c0-0.287,0-0.573,0-0.859c5.071,0,10.144,0,15.214,0   C42.269,77.63,42.302,77.916,42.333,78.198"/>
        <path display="inline" d="M42.034,75.46c-5.004,0-10.007,0-15.012,0c0-0.287,0-0.573,0-0.859c4.976,0,9.951,0,14.927,0   C41.975,74.879,42.003,75.166,42.034,75.46"/>
        <path display="inline" d="M42.647,80.937c-5.208,0-10.417,0-15.624,0c0-0.287,0-0.572,0-0.858c5.176,0,10.351,0,15.525,0   C42.583,80.37,42.616,80.656,42.647,80.937"/>
        <path display="inline" d="M47.931,63.33c-1.854-2.852-2.095-3.151-2.483-3.329c-0.379-0.174-0.903-0.231-1.22,0.257   c-0.321-0.563-0.25-0.919-0.088-1.168s0.412-0.39,0.742-0.415c0.33-0.024,0.74,0.069,1.188,0.53   c0.486,0.503,1.019,1.444,2.508,4.046C48.364,63.277,48.146,63.304,47.931,63.33"/>
        <path display="inline" d="M51.063,63.223c1.506-2.631,2.039-3.578,2.529-4.084c0.449-0.462,0.857-0.555,1.188-0.53   s0.582,0.166,0.742,0.414c0.162,0.249,0.234,0.605-0.088,1.169c-0.316-0.487-0.84-0.432-1.219-0.258   c-0.391,0.179-0.631,0.48-2.496,3.35C51.5,63.263,51.281,63.243,51.063,63.223"/>
        <path display="inline" d="M82.295,63.33c-0.215-0.026-0.43-0.053-0.646-0.079c1.488-2.602,2.021-3.543,2.51-4.046   c0.447-0.461,0.855-0.555,1.186-0.53c0.33,0.025,0.582,0.166,0.744,0.415c0.16,0.249,0.234,0.604-0.09,1.168   c-0.316-0.488-0.838-0.431-1.219-0.257C84.391,60.179,84.15,60.479,82.295,63.33"/>
        <path display="inline" d="M79.166,63.223c-0.219,0.021-0.439,0.04-0.658,0.061c-1.865-2.869-2.105-3.171-2.494-3.35   c-0.381-0.174-0.904-0.229-1.221,0.258c-0.322-0.563-0.25-0.92-0.088-1.169c0.162-0.248,0.412-0.39,0.742-0.414   s0.74,0.068,1.188,0.53C77.125,59.645,77.66,60.592,79.166,63.223"/>
        <path display="inline" d="M80.004,63.172c-0.92-3.929-1.178-6.007-1.205-7.357c-0.025-1.33,0.172-1.954,0.559-2.346   s0.961-0.552,1.459-0.581c0.496-0.03,0.918,0.072,1.26,0.292c0.34,0.221,0.598,0.562,0.742,0.988c0.143,0.427,0.17,0.941-0.09,1.25   c-0.395-0.337-0.781-0.39-1.1-0.295c-0.32,0.094-0.572,0.335-0.656,1.535c0,2.17,0,4.339,0,6.509   C80.648,63.169,80.326,63.17,80.004,63.172"/>
        <path display="inline" d="M49.416,63.2c-0.918-3.93-1.177-6.008-1.203-7.357c-0.026-1.33,0.172-1.954,0.558-2.346   c0.387-0.393,0.959-0.553,1.458-0.581c0.498-0.029,0.918,0.071,1.26,0.292c0.34,0.221,0.6,0.56,0.742,0.987   c0.145,0.428,0.17,0.942-0.088,1.249c-0.395-0.336-0.783-0.388-1.102-0.294c-0.319,0.095-0.571,0.335-0.656,1.535   c0,2.169,0,4.339,0,6.509C50.062,63.197,49.74,63.199,49.416,63.2"/>
    </g>
    <g>
        <path d="M40.934,53.815c-0.667,0-0.942-0.276-0.942-0.943c0-0.666,0.275-0.941,0.942-0.941s0.943,0.275,0.943,0.941   C41.877,53.539,41.601,53.815,40.934,53.815"/>
        <path d="M43.667,53.815c-0.667,0-0.943-0.276-0.943-0.943c0-0.666,0.276-0.941,0.943-0.941c0.666,0,0.942,0.275,0.942,0.941   C44.609,53.539,44.333,53.815,43.667,53.815"/>
        <path d="M46.399,53.815c-0.667,0-0.943-0.276-0.943-0.943c0-0.666,0.276-0.941,0.943-0.941c0.666,0,0.942,0.275,0.942,0.941   C47.342,53.539,47.065,53.815,46.399,53.815"/>
        <path d="M49.132,53.815c-0.666,0-0.943-0.276-0.943-0.943c0-0.666,0.277-0.941,0.943-0.941s0.943,0.275,0.943,0.941   C50.075,53.539,49.798,53.815,49.132,53.815"/>
        <rect x="27.754" y="40.633" width="0.858" height="7.171"/>
        <rect x="84.438" y="67.135" width="0.856" height="1.719"/>
        <rect x="68.755" y="67.135" width="0.857" height="1.719"/>
        <rect x="53.069" y="67.135" width="0.859" height="1.719"/>
        <rect x="12.069" y="67.135" width="0.859" height="1.719"/>
        <path d="M55.85,35.48v-3.44l-22.91-7.49l-22.92,7.49v3.44h2.05v1.72h-0.76v1.71h0.76v14.91h0.86V38.91h40.16v14.91h0.82V38.91h0.71   V37.2h-0.71v-1.72H55.85z M53.09,37.2H12.93v-1.72h40.16V37.2z"/>
        <polygon points="69.59,35.48 69.59,37.2 70.31,37.2 70.31,38.92 69.59,38.92 69.59,53.82 68.78,53.82 68.78,38.92 56.34,38.91    56.34,37.2 68.78,37.2 68.78,35.48 57.57,35.48 57.57,30.8 43.54,26.21 48.62,24.55 71.54,32.04 71.54,35.48  "/>
        <polygon points="85.27,35.48 85.27,37.2 85.99,37.2 85.99,38.92 85.27,38.92 85.27,53.82 84.46,53.82 84.46,38.92 72.02,38.92    72.02,37.2 84.46,37.2 84.46,35.48 73.25,35.48 73.25,30.8 59.22,26.21 64.3,24.55 87.22,32.04 87.22,35.48  "/>
        <path d="M15.552,53.815c-0.666,0-0.942-0.276-0.942-0.943c0-0.666,0.276-0.941,0.942-0.941c0.667,0,0.943,0.275,0.943,0.941   C16.496,53.539,16.219,53.815,15.552,53.815"/>
        <rect x="10.017" y="54.674" width="45.837" height="11.603"/>
        <path d="M18.285,53.815c-0.666,0-0.943-0.276-0.943-0.943c0-0.666,0.277-0.941,0.943-0.941c0.667,0,0.943,0.275,0.943,0.941   C19.229,53.539,18.952,53.815,18.285,53.815"/>
        <path d="M21.018,53.815c-0.666,0-0.942-0.276-0.942-0.943c0-0.666,0.276-0.941,0.942-0.941c0.667,0,0.943,0.275,0.943,0.941   C21.961,53.539,21.685,53.815,21.018,53.815"/>
        <path d="M23.751,53.815c-0.666,0-0.943-0.276-0.943-0.943c0-0.666,0.277-0.941,0.943-0.941c0.667,0,0.942,0.275,0.942,0.941   C24.693,53.539,24.418,53.815,23.751,53.815"/>
        <path d="M22.427,51.734c-0.667,0-0.943-0.276-0.943-0.943c0-0.666,0.276-0.942,0.943-0.942c0.666,0,0.943,0.276,0.943,0.942   C23.37,51.458,23.093,51.734,22.427,51.734"/>
        <path d="M19.651,51.734c-0.666,0-0.942-0.276-0.942-0.943c0-0.666,0.276-0.942,0.942-0.942c0.667,0,0.943,0.276,0.943,0.942   C20.595,51.458,20.318,51.734,19.651,51.734"/>
        <path d="M16.877,51.734c-0.667,0-0.943-0.276-0.943-0.943c0-0.666,0.276-0.942,0.943-0.942c0.666,0,0.942,0.276,0.942,0.942   C17.82,51.458,17.543,51.734,16.877,51.734"/>
        <path d="M18.202,49.653c-0.667,0-0.942-0.276-0.942-0.943c0-0.666,0.275-0.941,0.942-0.941c0.667,0,0.943,0.275,0.943,0.941   C19.145,49.377,18.868,49.653,18.202,49.653"/>
        <path d="M21.102,49.653c-0.667,0-0.942-0.276-0.942-0.943c0-0.666,0.275-0.941,0.942-0.941s0.943,0.275,0.943,0.941   C22.045,49.377,21.769,49.653,21.102,49.653"/>
        <rect x="26.375" y="52.098" width="0.858" height="1.718"/>
        <rect x="28.093" y="52.098" width="0.858" height="1.718"/>
        <rect x="29.811" y="52.098" width="0.859" height="1.718"/>
        <rect x="31.528" y="52.098" width="0.859" height="1.718"/>
        <rect x="33.246" y="52.098" width="0.858" height="1.718"/>
        <rect x="34.964" y="52.098" width="0.858" height="1.718"/>
        <rect x="27.233" y="49.521" width="0.859" height="1.718"/>
        <rect x="28.951" y="49.521" width="0.859" height="1.718"/>
        <rect x="30.67" y="49.521" width="0.858" height="1.718"/>
        <rect x="32.388" y="49.521" width="0.858" height="1.718"/>
        <rect x="34.104" y="49.521" width="0.859" height="1.718"/>
        <path d="M58.248,53.815c-0.666,0-0.942-0.276-0.942-0.943c0-0.666,0.276-0.941,0.942-0.941s0.944,0.275,0.944,0.941   C59.192,53.539,58.914,53.815,58.248,53.815"/>
        <path d="M60.981,53.815c-0.668,0-0.944-0.276-0.944-0.943c0-0.666,0.276-0.941,0.944-0.941c0.666,0,0.943,0.275,0.943,0.941   C61.925,53.539,61.647,53.815,60.981,53.815"/>
        <path d="M63.714,53.815c-0.666,0-0.943-0.276-0.943-0.943c0-0.666,0.277-0.941,0.943-0.941c0.665,0,0.943,0.275,0.943,0.941   C64.657,53.539,64.379,53.815,63.714,53.815"/>
        <path d="M66.446,53.815c-0.666,0-0.942-0.276-0.942-0.943c0-0.666,0.276-0.941,0.942-0.941s0.943,0.275,0.943,0.941   C67.39,53.539,67.112,53.815,66.446,53.815"/>
        <path d="M65.121,51.734c-0.666,0-0.942-0.276-0.942-0.943c0-0.666,0.276-0.942,0.942-0.942s0.944,0.276,0.944,0.942   C66.065,51.458,65.787,51.734,65.121,51.734"/>
        <path d="M62.347,51.734c-0.666,0-0.941-0.276-0.941-0.943c0-0.666,0.275-0.942,0.941-0.942c0.668,0,0.942,0.276,0.942,0.942   C63.289,51.458,63.015,51.734,62.347,51.734"/>
        <path d="M59.573,51.734c-0.666,0-0.943-0.276-0.943-0.943c0-0.666,0.277-0.942,0.943-0.942s0.943,0.276,0.943,0.942   C60.517,51.458,60.239,51.734,59.573,51.734"/>
        <path d="M60.897,49.653c-0.666,0-0.944-0.276-0.944-0.943c0-0.666,0.278-0.941,0.944-0.941s0.943,0.275,0.943,0.941   C61.841,49.377,61.563,49.653,60.897,49.653"/>
        <path d="M63.798,49.653c-0.669,0-0.943-0.276-0.943-0.943c0-0.666,0.274-0.941,0.943-0.941c0.666,0,0.943,0.275,0.943,0.941   C64.741,49.377,64.464,49.653,63.798,49.653"/>
        <rect x="57.571" y="54.674" width="13.966" height="11.603"/>
        <path d="M73.933,53.815c-0.666,0-0.943-0.276-0.943-0.943c0-0.666,0.277-0.941,0.943-0.941s0.942,0.275,0.942,0.941   C74.875,53.539,74.599,53.815,73.933,53.815"/>
        <path d="M76.664,53.815c-0.666,0-0.942-0.276-0.942-0.943c0-0.666,0.276-0.941,0.942-0.941c0.668,0,0.944,0.275,0.944,0.941   C77.608,53.539,77.332,53.815,76.664,53.815"/>
        <path d="M79.397,53.815c-0.666,0-0.944-0.276-0.944-0.943c0-0.666,0.278-0.941,0.944-0.941s0.943,0.275,0.943,0.941   C80.341,53.539,80.063,53.815,79.397,53.815"/>
        <path d="M82.13,53.815c-0.666,0-0.941-0.276-0.941-0.943c0-0.666,0.275-0.941,0.941-0.941c0.668,0,0.943,0.275,0.943,0.941   C83.073,53.539,82.798,53.815,82.13,53.815"/>
        <path d="M80.806,51.734c-0.666,0-0.943-0.276-0.943-0.943c0-0.666,0.277-0.942,0.943-0.942s0.942,0.276,0.942,0.942   C81.748,51.458,81.472,51.734,80.806,51.734"/>
        <path d="M78.032,51.734c-0.668,0-0.943-0.276-0.943-0.943c0-0.666,0.275-0.942,0.943-0.942c0.666,0,0.941,0.276,0.941,0.942   C78.974,51.458,78.698,51.734,78.032,51.734"/>
        <path d="M75.257,51.734c-0.666,0-0.943-0.276-0.943-0.943c0-0.666,0.277-0.942,0.943-0.942c0.668,0,0.943,0.276,0.943,0.942   C76.2,51.458,75.925,51.734,75.257,51.734"/>
        <path d="M76.58,49.653c-0.666,0-0.942-0.276-0.942-0.943c0-0.666,0.276-0.941,0.942-0.941c0.668,0,0.944,0.275,0.944,0.941   C77.524,49.377,77.248,49.653,76.58,49.653"/>
        <path d="M79.481,49.653c-0.666,0-0.944-0.276-0.944-0.943c0-0.666,0.278-0.941,0.944-0.941s0.943,0.275,0.943,0.941   C80.425,49.377,80.147,49.653,79.481,49.653"/>
        <rect x="73.255" y="54.674" width="13.967" height="11.603"/>
        <rect x="4.249" y="68.854" width="91.503" height="1.718"/>
    </g>
</svg>
