<?xml version="1.0"?>
<svg xmlns="http://www.w3.org/2000/svg" xmlns:xlink="http://www.w3.org/1999/xlink" version="1.1" x="0px" y="0px" viewBox="0 0 100 100" enable-background="new 0 0 100 100" xml:space="preserve">
    <path fill="none" stroke-width="2" stroke-linecap="round" stroke-linejoin="round" stroke-miterlimit="10" d="  M30.826,25.394H14.201c0,0,1.75,7.583,6.833,7.583c0,0,0,7.083,0,9.75s1.417,8.167,9.792,8.167s9.792-5.5,9.792-8.167s0-9.75,0-9.75  c5.083,0,6.833-7.583,6.833-7.583H30.826z"/>
    <g>
        <path d="M25.598,24.459c-0.056-0.019-0.108-0.045-0.169-0.054c-3.528-0.519-4.728-4.966-4.739-5.009   c-0.118-0.46-0.544-0.772-1.018-0.75c-0.475,0.023-0.868,0.378-0.939,0.848c-0.363,2.379-0.248,3.949-0.014,4.965H25.598z"/>
        <path d="M42.891,24.459c0.234-1.016,0.35-2.586-0.014-4.965c-0.072-0.47-0.464-0.824-0.939-0.848c-0.457-0.021-0.9,0.29-1.018,0.75   c-0.011,0.045-1.188,4.486-4.739,5.009c-0.061,0.009-0.113,0.034-0.169,0.054H42.891z"/>
    </g>
    <circle cx="27.346" cy="38.582" r="1.312"/>
    <circle cx="34.534" cy="38.582" r="1.312"/>
    <path fill="none" stroke-width="2" stroke-linecap="round" stroke-linejoin="round" stroke-miterlimit="10" d="  M45.117,31.228c0,0,17.5,0,20.417,0c2.917,0,5.917,0.667,7.5,2.083c1.583,1.417,2,3.958,2,6.583s0,26.5,0,26.5  c0,2.75-2.895,3.833-4,3.833l-5.167-12.667H39.284c0,0,0,2.917,0,7c0,4.083-1.917,5.167-4.75,6.25l-5-19.417"/>
    <path fill="none" stroke-width="2" stroke-linecap="round" stroke-linejoin="round" stroke-miterlimit="10" d="  M63.532,31.228c0,0,4.667,0,6.833,0c2.167,0,9.917,2.917,9.917,9.667s0,5,0,5"/>
    <g>
        <path d="M71.692,35.837c0-1.719-0.445-3.417-1.288-4.909c-0.177-0.314-0.51-0.508-0.871-0.508l-8.039,0l-8.038-0.001   c-0.361,0-0.693,0.194-0.871,0.508c-0.843,1.493-1.289,3.19-1.289,4.909c0,5.56,4.575,10.083,10.197,10.083   S71.692,41.397,71.692,35.837z"/>
        <path d="M49.132,46.812c-5.973,0-10.833,4.822-10.833,10.75c0,0.552,0.448,1,1,1h19.667c0.007,0,0.014,0,0.02,0   c0.552,0,1-0.448,1-1c0-0.072-0.008-0.142-0.022-0.21C59.85,51.521,55.035,46.812,49.132,46.812z"/>
        <path d="M68.419,48.159c-1.884,0-3.417,1.533-3.417,3.417s1.533,3.417,3.417,3.417s3.417-1.533,3.417-3.417   S70.303,48.159,68.419,48.159z"/>
        <path d="M41.065,26.566c0-0.267-0.106-0.522-0.295-0.709s-0.435-0.291-0.711-0.291c0,0-3.013,0.021-6.49,0.021   c-3.476,0-6.099-0.021-6.101-0.021c-0.249,0.035-0.523,0.103-0.712,0.29c-0.189,0.188-0.296,0.443-0.296,0.71   c0,3.929,3.276,7.125,7.303,7.125C37.789,33.691,41.065,30.495,41.065,26.566z"/>
    </g>
    <text x="0" y="115" fill="#000000" font-size="5px" font-weight="bold" font-family="'Helvetica Neue', Helvetica, Arial-Unicode, Arial, Sans-serif">Created by Nook Fulloption</text>
    <text x="0" y="120" fill="#000000" font-size="5px" font-weight="bold" font-family="'Helvetica Neue', Helvetica, Arial-Unicode, Arial, Sans-serif">from the Noun Project</text>
</svg>
