<?xml version="1.0" encoding="utf-8"?>
<!-- Generator: Adobe Illustrator 16.0.0, SVG Export Plug-In . SVG Version: 6.00 Build 0)  -->
<!DOCTYPE svg PUBLIC "-//W3C//DTD SVG 1.1//EN" "http://www.w3.org/Graphics/SVG/1.1/DTD/svg11.dtd">
<svg version="1.1" id="Layer_1" xmlns="http://www.w3.org/2000/svg" xmlns:xlink="http://www.w3.org/1999/xlink" x="0px" y="0px"
	 width="90px" height="90px" viewBox="0 0 90 90" enable-background="new 0 0 90 90" xml:space="preserve">
<path fill="#582D82" d="M38.006,37.734c0,1.565-1.269,2.834-2.834,2.834s-2.834-1.269-2.834-2.834s1.269-2.834,2.834-2.834
	S38.006,36.169,38.006,37.734"/>
<path fill="#822C90" d="M38.281,54.268c0,0.524-0.426,0.951-0.951,0.951c-0.526,0-0.951-0.427-0.951-0.951
	c0-0.525,0.425-0.951,0.951-0.951C37.855,53.316,38.281,53.742,38.281,54.268"/>
<path fill="#822C90" d="M40.359,57.522c0,0.524-0.426,0.951-0.951,0.951c-0.525,0-0.951-0.427-0.951-0.951s0.426-0.951,0.951-0.951
	C39.934,56.571,40.359,56.998,40.359,57.522"/>
<path fill="#822C90" d="M34.299,57.522c0,0.524,0.426,0.951,0.951,0.951c0.526,0,0.951-0.427,0.951-0.951s-0.425-0.951-0.951-0.951
	C34.725,56.571,34.299,56.998,34.299,57.522"/>
<path fill="none" stroke="#582D82" stroke-width="1.8" stroke-linecap="round" stroke-miterlimit="10" d="M44.753,68.054
	c-3.398,0-6.276-2.228-7.253-5.302"/>
<path fill="none" stroke="#582D82" stroke-width="1.8" stroke-linecap="round" stroke-miterlimit="10" d="M56.834,28.987
	l5.407,12.617c0.472,1.101,0.778,2.266,0.905,3.457l0.905,8.345c0.278,2.572,3.731,3.205,4.905,0.901L74.82,42.79
	c1.84-3.61,0.772-8.021-2.51-10.392l-12.217-8.823c-1.201-0.867-2.646-1.335-4.128-1.335H33.54c-1.482,0-2.927,0.468-4.129,1.335
	l-12.215,8.823c-3.284,2.371-4.35,6.782-2.512,10.392l5.865,11.518c1.174,2.304,4.626,1.671,4.905-0.901l0.904-8.345
	c0.129-1.191,0.434-2.356,0.906-3.457l5.408-12.617"/>
<path fill="#582D82" d="M51.5,37.734c0,1.565,1.269,2.834,2.834,2.834c1.564,0,2.832-1.269,2.832-2.834S55.898,34.9,54.334,34.9
	C52.769,34.9,51.5,36.169,51.5,37.734"/>
<path fill="#822C90" d="M51.225,54.268c0,0.524,0.426,0.951,0.951,0.951s0.951-0.427,0.951-0.951c0-0.525-0.426-0.951-0.951-0.951
	S51.225,53.742,51.225,54.268"/>
<path fill="#822C90" d="M49.146,57.522c0,0.524,0.426,0.951,0.951,0.951s0.95-0.427,0.95-0.951s-0.425-0.951-0.95-0.951
	S49.146,56.998,49.146,57.522"/>
<path fill="#822C90" d="M55.206,57.522c0,0.524-0.426,0.951-0.951,0.951c-0.526,0-0.95-0.427-0.95-0.951s0.424-0.951,0.95-0.951
	C54.78,56.571,55.206,56.998,55.206,57.522"/>
<path fill="none" stroke="#582D82" stroke-width="1.8" stroke-linecap="round" stroke-miterlimit="10" d="M44.753,68.054
	c3.397,0,6.276-2.228,7.253-5.302"/>
<path fill="#582D82" d="M47.588,48.834h-2.834h-2.835c-1.691,0-2.712,1.871-1.799,3.293l4.634,7.22l4.633-7.22
	C50.299,50.705,49.277,48.834,47.588,48.834"/>
<line fill="none" stroke="#582D82" stroke-width="1.8" stroke-linecap="round" stroke-miterlimit="10" x1="25.914" y1="49.16" x2="30.44" y2="53.679"/>
<line fill="none" stroke="#582D82" stroke-width="1.8" stroke-linecap="round" stroke-miterlimit="10" x1="63.592" y1="49.16" x2="59.065" y2="53.679"/>
<path fill="none" stroke="#582D82" stroke-width="1.8" stroke-linecap="round" stroke-miterlimit="10" d="M44.753,58.405
	c-1.334,4.55-12.395,6.981-13.964,0c-1.569-6.981,2.354-8.865,7.923-14.199l-0.002-0.003c1.523-1.589,3.668-2.577,6.043-2.577
	c2.374,0,4.517,0.987,6.04,2.573l0.001,0.007c5.569,5.334,9.492,7.218,7.923,14.199C57.148,65.387,46.086,62.955,44.753,58.405"/>
</svg>
