<svg xmlns="http://www.w3.org/2000/svg" xmlns:xlink="http://www.w3.org/1999/xlink" version="1.1" x="0px" y="0px" viewBox="0 0 100 100" enable-background="new 0 0 100 100" xml:space="preserve">
    <path d="M58.382,57.734c0.193-0.509-0.06-1.07-0.565-1.273c-0.508-0.206-1.085,0.046-1.297,0.546  c-0.037,0.087-0.393,0.851-1.468,0.851H44.347c-0.553,0-1,0.447-1,1s0.447,1,1,1h10.705C57.043,59.857,58.082,58.523,58.382,57.734z   M52.736,64.418c0.348,0,0.686-0.181,0.869-0.505c0.274-0.479,0.107-1.09-0.373-1.363c-2.002-1.143-4.49-1.143-6.492,0  c-0.48,0.273-0.647,0.884-0.373,1.363c0.271,0.48,0.884,0.649,1.363,0.373c1.393-0.793,3.119-0.793,4.512,0  C52.398,64.376,52.568,64.418,52.736,64.418z M76.077,76.059v-3.851c0-0.552-0.448-1-1-1H64.059  c-0.917-1.114-2.052-2.182-3.454-3.077c5.327-3.774,9.813-9.569,9.813-14.868V51.86h0.588c3.521,0,5.162-3.058,5.162-9.623  c0-2.137-1.738-3.875-3.875-3.875h-1.875v-7.179c0-6.698-2.064-12.107-5.972-15.645c-4.077-3.691-10.106-5.254-17.432-4.528  c-11.192,1.114-23.175,9.486-23.175,20.173c0,1.766,0.847,4.094,3.234,4.848c0.718,0.226,1.487,0.332,2.297,0.332  c0.068,0,0.141-0.01,0.21-0.012v2.011h-1.873c-2.137,0-3.875,1.738-3.875,3.875c0,6.565,1.64,9.623,5.16,9.623h0.588v1.404  c0,5.298,4.484,11.092,9.812,14.865c-1.402,0.896-2.539,1.964-3.456,3.078H24.923c-0.553,0-1,0.448-1,1v3.85  c-3.995,3.46-6.53,8.558-6.53,14.246c0,0.553,0.447,1,1,1h63.214c0.266,0,0.52-0.105,0.707-0.293s0.293-0.442,0.293-0.707  C82.605,84.615,80.07,79.518,76.077,76.059z M70.417,43.438h0.391c0.274,0,0.369,0.02,0.369,0.41c0,0.229-0.03,0.594-0.03,0.594  c-0.043,0.55,0.369,1.031,0.92,1.074c0.026,0.002,0.052,0.003,0.078,0.003c0.518,0,0.955-0.398,0.996-0.923  c0,0,0.036-0.433,0.036-0.748c0-1.441-0.952-2.41-2.369-2.41h-0.391v-1.076h1.875c1.034,0,1.875,0.841,1.875,1.875  c0,7.623-2.297,7.623-3.162,7.623h-0.588V43.438z M29.58,41.438h-0.391c-1.417,0-2.369,0.969-2.369,2.41  c0,0.315,0.036,0.748,0.036,0.748c0.041,0.524,0.479,0.923,0.996,0.923c0.026,0,0.052-0.001,0.078-0.003  c0.551-0.043,0.963-0.524,0.92-1.074c0,0-0.03-0.365-0.03-0.594c0-0.391,0.095-0.41,0.369-0.41h0.391v6.422h-0.588  c-0.864,0-3.16,0-3.16-7.623c0-1.034,0.841-1.875,1.875-1.875h1.873V41.438z M71.261,73.906c0.376-0.376,1.041-0.376,1.417-0.004  c0.184,0.188,0.292,0.447,0.292,0.71c0,0.268-0.104,0.519-0.292,0.706c-0.192,0.188-0.443,0.293-0.707,0.293  c-0.267,0-0.518-0.104-0.71-0.293c-0.188-0.188-0.293-0.438-0.293-0.706C70.968,74.35,71.077,74.09,71.261,73.906z M68.386,30.365  c-1.104,0.747-6.524,1.688-14.934,1.895c0.228-0.405,0.388-0.85,0.461-1.326c5.879-0.168,11.587-0.722,14.429-1.72  C68.367,29.59,68.375,29.979,68.386,30.365z M51.975,30.328c0,1.088-0.885,1.974-1.973,1.975h-0.004  c-1.088-0.001-1.974-0.887-1.974-1.975c0-1.089,0.887-1.976,1.976-1.976S51.975,29.239,51.975,30.328z M46.545,32.257  c-2.205-0.058-4.316-0.169-6.245-0.328c0.525-0.382,1.045-0.778,1.554-1.192c1.362,0.088,2.778,0.149,4.231,0.19  C46.158,31.405,46.317,31.85,46.545,32.257z M31.58,53.263V39.969l3.229-2.022c0.291-0.183,0.469-0.503,0.469-0.848v-2.212  c0.778-0.351,1.56-0.755,2.338-1.207c3.487,0.399,7.865,0.622,12.383,0.623c0.001,0,0.001,0,0.002,0s0.001,0,0.002,0h0.029  c3.626,0,10.081-0.131,14.759-0.929v3.725c0,0.345,0.178,0.665,0.469,0.848l3.158,1.979v13.34c0,7.703-11.313,16.969-18.419,16.969  S31.58,60.967,31.58,53.263z M42.732,78.771c-0.073-0.484-0.137-0.991-0.194-1.511h14.896c-0.063,0.52-0.132,1.026-0.212,1.511  H42.732z M56.827,80.771c-0.122,0.528-0.25,1.032-0.387,1.511H43.454c-0.126-0.479-0.244-0.982-0.356-1.511H56.827z M42.365,75.261  c-0.057-0.907-0.098-1.843-0.098-2.844v-2.494c2.667,1.442,5.381,2.311,7.73,2.311s5.063-0.868,7.729-2.311v2.494  c0,1.001-0.044,1.937-0.106,2.844H42.365z M27.321,73.902c0.372-0.368,1.041-0.372,1.413,0c0.188,0.188,0.292,0.447,0.292,0.71  c0,0.268-0.101,0.519-0.292,0.706c-0.188,0.188-0.439,0.293-0.707,0.293c-0.267,0-0.518-0.104-0.706-0.293  c-0.188-0.188-0.292-0.438-0.292-0.706C27.029,74.35,27.134,74.09,27.321,73.902z M29.622,89.304  c0.166-1.857,0.789-3.638,1.837-5.198c0.308-0.459,0.186-1.08-0.272-1.388c-0.458-0.31-1.08-0.186-1.388,0.272  c-1.271,1.892-2.018,4.057-2.188,6.313h-8.188c0.262-4.454,2.264-8.44,5.328-11.307c0.057,0.01,0.113,0.018,0.173,0.018h7.571  c-0.154,0.581-0.222,0.96-0.232,1.027c-0.064,0.396,0.114,0.791,0.453,1.006l3.284,2.074l-1.141,1.686  c-0.251,0.372-0.225,0.865,0.065,1.207c0.096,0.112,1.879,2.207,4.042,4.289H29.622z M41.935,89.304  c-2.032-1.746-4.074-3.979-4.988-5.013l1.287-1.903c0.151-0.225,0.206-0.501,0.15-0.766s-0.216-0.496-0.444-0.641l-3.564-2.251  c0.413-1.639,1.868-6.079,5.893-8.779v2.466c0,1.361,0.063,2.622,0.161,3.821c-0.001,0.008-0.005,0.015-0.005,0.022  c0,0.017,0.009,0.03,0.01,0.046c0.552,6.689,2.426,10.888,3.672,12.997H41.935z M53.14,89.304h-6.646  c-0.214-0.296-0.543-0.798-0.93-1.511h8.587C53.728,88.511,53.366,89.015,53.14,89.304z M44.62,85.793  c-0.192-0.463-0.384-0.959-0.571-1.511h11.747c-0.204,0.553-0.413,1.048-0.621,1.511H44.62z M58.061,89.304h-2.474  c1.598-2.509,4.141-7.906,4.141-16.887v-2.465c4.007,2.694,5.474,7.139,5.891,8.779l-3.563,2.25  c-0.229,0.145-0.389,0.376-0.444,0.641s-0.001,0.541,0.15,0.766l1.287,1.903C62.135,85.324,60.093,87.558,58.061,89.304z   M72.389,89.304c-0.172-2.258-0.919-4.423-2.19-6.313c-0.309-0.458-0.929-0.582-1.388-0.272c-0.459,0.309-0.58,0.93-0.272,1.388  c1.049,1.56,1.673,3.34,1.839,5.198h-9.348c2.163-2.082,3.946-4.177,4.042-4.289c0.29-0.342,0.316-0.835,0.065-1.207l-1.141-1.686  l3.284-2.074c0.339-0.215,0.518-0.61,0.453-1.006c-0.011-0.067-0.077-0.444-0.231-1.027h7.575c0.059,0,0.115-0.008,0.172-0.018  c3.063,2.867,5.065,6.853,5.328,11.307H72.389z M54.344,53.338c0.195,0.196,0.451,0.294,0.708,0.294  c0.256,0,0.511-0.098,0.706-0.292c0.562-0.561,0.871-1.306,0.871-2.099c0-0.791-0.309-1.537-0.869-2.099  c-0.39-0.391-1.022-0.391-1.414-0.002c-0.392,0.39-0.392,1.023-0.002,1.414c0.184,0.185,0.285,0.429,0.285,0.687  s-0.101,0.5-0.283,0.683C53.954,52.313,53.954,52.947,54.344,53.338z M43.387,40.362c0.553,0,1-0.447,1-1s-0.447-1-1-1h-7.313  c-0.553,0-1,0.447-1,1s0.447,1,1,1h1.776c-0.245,0.362-0.388,0.798-0.388,1.268c0,1.254,1.016,2.269,2.268,2.269  s2.268-1.015,2.268-2.269c0-0.47-0.143-0.905-0.388-1.268H43.387z M51.745,48.972c0.553,0,1-0.447,1-1v-8.875c0-0.553-0.447-1-1-1  s-1,0.447-1,1v8.875C50.745,48.524,51.192,48.972,51.745,48.972z M56.608,40.362h1.776c-0.245,0.362-0.388,0.798-0.388,1.268  c0,1.254,1.016,2.269,2.268,2.269c1.254,0,2.27-1.015,2.27-2.269c0-0.47-0.143-0.905-0.388-1.268h1.774c0.553,0,1-0.447,1-1  s-0.447-1-1-1h-7.313c-0.553,0-1,0.447-1,1S56.056,40.362,56.608,40.362z M43.368,51.241c0,0.793,0.31,1.538,0.871,2.099  c0.195,0.194,0.45,0.292,0.706,0.292s0.513-0.098,0.708-0.294c0.39-0.391,0.39-1.024-0.002-1.414  c-0.183-0.183-0.283-0.425-0.283-0.683s0.102-0.502,0.285-0.687c0.39-0.391,0.39-1.024-0.002-1.414  c-0.391-0.389-1.023-0.391-1.414,0.002C43.677,49.704,43.368,50.45,43.368,51.241z M49.999,53.628c1.254,0,2.509-0.477,3.465-1.431  c0.391-0.391,0.391-1.023,0.001-1.415c-0.391-0.391-1.024-0.39-1.415-0.001c-1.131,1.131-2.972,1.13-4.101,0.001  c-0.391-0.391-1.023-0.391-1.414,0s-0.391,1.023,0,1.414C47.489,53.151,48.744,53.628,49.999,53.628z"/>
    <text x="0" y="115" fill="#000000" font-size="5px" font-weight="bold" font-family="'Helvetica Neue', Helvetica, Arial-Unicode, Arial, Sans-serif">Created by Sergey Demushkin</text>
    <text x="0" y="120" fill="#000000" font-size="5px" font-weight="bold" font-family="'Helvetica Neue', Helvetica, Arial-Unicode, Arial, Sans-serif">from the Noun Project</text>
</svg>
