<?xml version="1.0" encoding="utf-8"?>
<!-- Generator: Adobe Illustrator 16.0.0, SVG Export Plug-In . SVG Version: 6.00 Build 0)  -->
<!DOCTYPE svg PUBLIC "-//W3C//DTD SVG 1.1//EN" "http://www.w3.org/Graphics/SVG/1.1/DTD/svg11.dtd">
<svg version="1.1" id="Layer_1" xmlns="http://www.w3.org/2000/svg" xmlns:xlink="http://www.w3.org/1999/xlink" x="0px" y="0px"
	 width="90px" height="90px" viewBox="0 0 90 90" enable-background="new 0 0 90 90" xml:space="preserve">
<path fill="none" stroke="#582D82" stroke-width="1.8" stroke-linecap="round" stroke-linejoin="round" stroke-miterlimit="10" d="
	M44.401,31.487c-5.047,0-9.79,1.3-13.913,3.583h-3.284v-2.69c0-9.497,7.699-17.196,17.197-17.196"/>
<polygon fill="#822C90" points="44.401,22.466 44.999,24.304 46.932,24.304 45.367,25.441 45.965,27.278 44.401,26.144
	42.837,27.278 43.436,25.441 41.872,24.304 43.804,24.304 "/>
<polygon fill="none" stroke="#822C90" stroke-width="1.8" stroke-linecap="round" stroke-linejoin="round" stroke-miterlimit="10" points="
	44.401,22.466 44.999,24.304 46.932,24.304 45.367,25.441 45.965,27.278 44.401,26.144 42.837,27.278 43.436,25.441 41.872,24.304
	43.804,24.304 "/>
<line fill="none" stroke="#582D82" stroke-width="1.8" stroke-linecap="round" stroke-linejoin="round" stroke-miterlimit="10" x1="44.401" y1="49.557" x2="42.589" y2="49.557"/>
<polyline fill="none" stroke="#582D82" stroke-width="1.8" stroke-linecap="round" stroke-linejoin="round" stroke-miterlimit="10" points="
	41.685,38.717 39.874,38.717 38.062,38.717 "/>
<polyline fill="none" stroke="#582D82" stroke-width="1.8" stroke-linecap="round" stroke-linejoin="round" stroke-miterlimit="10" points="
	44.401,67.95 44.401,62.233 38.063,56.898 34.699,58.611 40.78,64.027 "/>
<path fill="none" stroke="#582D82" stroke-width="1.8" stroke-linecap="round" stroke-linejoin="round" stroke-miterlimit="10" d="
	M44.401,31.487c5.046,0,9.79,1.3,13.913,3.583h3.284v-2.69c0-9.497-7.699-17.196-17.197-17.196"/>
<line fill="none" stroke="#582D82" stroke-width="1.8" stroke-linecap="round" stroke-linejoin="round" stroke-miterlimit="10" x1="44.401" y1="49.557" x2="46.213" y2="49.557"/>
<polyline fill="none" stroke="#582D82" stroke-width="1.8" stroke-linecap="round" stroke-linejoin="round" stroke-miterlimit="10" points="
	47.117,38.717 48.93,38.717 50.74,38.717 "/>
<polyline fill="none" stroke="#582D82" stroke-width="1.8" stroke-linecap="round" stroke-linejoin="round" stroke-miterlimit="10" points="
	44.401,73.582 44.401,62.233 50.74,56.897 54.104,58.611 48.023,64.026 "/>
<line fill="none" stroke="#582D82" stroke-width="1.8" stroke-linecap="round" stroke-linejoin="round" stroke-miterlimit="10" x1="25.387" y1="59.371" x2="25.387" y2="47.746"/>
<polyline fill="none" stroke="#582D82" stroke-width="1.8" stroke-linecap="round" stroke-linejoin="round" stroke-miterlimit="10" points="
	23.481,38.717 23.481,44.243 21.712,47.746 21.712,61.316 "/>
<path fill="#582D82" d="M50.49,39.314c0,0.862-0.699,1.561-1.562,1.561s-1.562-0.699-1.562-1.561"/>
<path fill="#582D82" d="M41.435,39.314c0,0.862-0.699,1.561-1.561,1.561c-0.862,0-1.561-0.699-1.561-1.561"/>
<path fill="none" stroke="#582D82" stroke-width="1.8" stroke-linecap="round" stroke-linejoin="round" stroke-miterlimit="10" d="
	M53.887,58.5h2.924c0,0,12.214-0.994,13.871,9.174v5.908H18.121v-5.908c1.519-9.32,11.908-9.262,13.629-9.188
	c0.184,0.01,0.367,0.014,0.552,0.014h2.616"/>
<polyline fill="none" stroke="#822C90" stroke-width="1.8" stroke-linecap="round" stroke-linejoin="round" stroke-miterlimit="10" points="
	26.708,68.824 26.708,65.617 33.121,65.617 33.121,68.824 "/>
<line fill="none" stroke="#822C90" stroke-width="1.8" stroke-linecap="round" stroke-linejoin="round" stroke-miterlimit="10" x1="29.914" y1="65.617" x2="29.914" y2="68.824"/>
<path fill="none" stroke="#582D82" stroke-width="1.8" stroke-linecap="round" stroke-linejoin="round" stroke-miterlimit="10" d="
	M40.569,54.299c0,0,0.041,2.934-0.695,3.669"/>
<path fill="none" stroke="#582D82" stroke-width="1.8" stroke-linecap="round" stroke-linejoin="round" stroke-miterlimit="10" d="
	M48.232,54.299c0,0-0.041,2.934,0.695,3.669"/>
<path fill="none" stroke="#582D82" stroke-width="1.8" stroke-linecap="round" stroke-linejoin="round" stroke-miterlimit="10" d="
	M30.776,35.07v3.647c0,0,0.836,1.713,1.855,1.99c0,0,0.659,14.257,11.77,14.257"/>
<path fill="none" stroke="#582D82" stroke-width="1.8" stroke-linecap="round" stroke-linejoin="round" stroke-miterlimit="10" d="
	M58.027,34.914v3.803c0,0-0.836,1.713-1.855,1.989c0,0-0.659,14.259-11.77,14.259"/>
</svg>
