<?xml version="1.0" encoding="utf-8"?>
<!-- Generator: Adobe Illustrator 16.0.0, SVG Export Plug-In . SVG Version: 6.00 Build 0)  -->
<!DOCTYPE svg PUBLIC "-//W3C//DTD SVG 1.1//EN" "http://www.w3.org/Graphics/SVG/1.1/DTD/svg11.dtd">
<svg version="1.1" id="Layer_1" xmlns="http://www.w3.org/2000/svg" xmlns:xlink="http://www.w3.org/1999/xlink" x="0px" y="0px"
	 width="90px" height="90px" viewBox="0 0 90 90" enable-background="new 0 0 90 90" xml:space="preserve">
<path fill="none" stroke="#582D82" stroke-width="1.8" stroke-linecap="round" stroke-linejoin="round" stroke-miterlimit="10" d="
	M18.349,70.4l13.664-8.628l6.235-31.845c0.198-1.006,0.987-1.79,1.994-1.98c1.034-0.196,1.974,0.639,1.9,1.689l-1.048,15.066"/>
<path fill="none" stroke="#582D82" stroke-width="1.8" stroke-linecap="round" stroke-linejoin="round" stroke-miterlimit="10" d="
	M35.097,70.4l2.476-1.495c2.665-1.608,4.318-4.472,4.382-7.584l0.298-14.721c0.021-0.986-0.698-1.832-1.676-1.972h-0.001
	c-0.95-0.136-1.826,0.536-1.941,1.489l-1.463,12.11"/>
<path fill="none" stroke="#582D82" stroke-width="1.8" stroke-linecap="round" stroke-linejoin="round" stroke-miterlimit="10" d="
	M70.914,70.4L57.25,61.772l-6.237-31.845c-0.196-1.006-0.986-1.79-1.993-1.98c-1.034-0.196-1.974,0.639-1.9,1.689l1.048,15.066"/>
<path fill="none" stroke="#582D82" stroke-width="1.8" stroke-linecap="round" stroke-linejoin="round" stroke-miterlimit="10" d="
	M54.165,70.4l-2.476-1.495c-2.664-1.608-4.318-4.472-4.381-7.584L47.01,46.601c-0.02-0.986,0.699-1.832,1.676-1.972
	c0.951-0.136,1.828,0.536,1.942,1.489l1.464,12.11"/>
<line fill="none" stroke="#822C90" stroke-width="1.8" stroke-linecap="round" stroke-linejoin="round" stroke-miterlimit="10" x1="44.578" y1="18.607" x2="44.578" y2="22.857"/>
<line fill="none" stroke="#822C90" stroke-width="1.8" stroke-linecap="round" stroke-linejoin="round" stroke-miterlimit="10" x1="28.026" y1="23.45" x2="33.216" y2="28.907"/>
<line fill="none" stroke="#822C90" stroke-width="1.8" stroke-linecap="round" stroke-linejoin="round" stroke-miterlimit="10" x1="18.349" y1="33.663" x2="29.868" y2="38.754"/>
<line fill="none" stroke="#822C90" stroke-width="1.8" stroke-linecap="round" stroke-linejoin="round" stroke-miterlimit="10" x1="20.821" y1="49.16" x2="29.01" y2="49.16"/>
<line fill="none" stroke="#822C90" stroke-width="1.8" stroke-linecap="round" stroke-linejoin="round" stroke-miterlimit="10" x1="61.13" y1="23.45" x2="55.94" y2="28.907"/>
<line fill="none" stroke="#822C90" stroke-width="1.8" stroke-linecap="round" stroke-linejoin="round" stroke-miterlimit="10" x1="70.808" y1="33.663" x2="59.287" y2="38.754"/>
<line fill="none" stroke="#822C90" stroke-width="1.8" stroke-linecap="round" stroke-linejoin="round" stroke-miterlimit="10" x1="68.335" y1="49.16" x2="60.146" y2="49.16"/>
</svg>
