<svg xmlns:dc="http://purl.org/dc/elements/1.1/" xmlns:cc="http://creativecommons.org/ns#" xmlns:rdf="http://www.w3.org/1999/02/22-rdf-syntax-ns#" xmlns:svg="http://www.w3.org/2000/svg" xmlns="http://www.w3.org/2000/svg" xmlns:sodipodi="http://sodipodi.sourceforge.net/DTD/sodipodi-0.dtd" xmlns:inkscape="http://www.inkscape.org/namespaces/inkscape" viewBox="0 0 80 80" version="1.1" x="0px" y="0px">
    <path style="" d="M 90.59375 7.125 L 90.375 7.21875 L 70.9375 16.25 L 70.75 16.3125 L 70.8125 16.53125 L 77.1875 30.25 L 77.25 30.4375 L 77.46875 30.34375 L 86.28125 26.28125 L 93.96875 42.8125 L 90.75 46.28125 L 87.5 42 C 87.333195 41.461453 86.844788 41.0625 86.25 41.0625 L 77.34375 41.0625 C 76.611709 41.0625 76 41.674205 76 42.40625 L 76 57.9375 L 73.6875 71.125 L 76.71875 71.125 C 76.721663 71.720596 76.709016 72.315946 76.71875 72.90625 C 76.720036 72.96887 76.712307 73.032577 76.71875 73.09375 C 76.703593 73.195079 76.688222 73.300728 76.6875 73.40625 L 76.6875 85.96875 C 76.6875 86.517814 77.138435 86.96875 77.6875 86.96875 L 80 86.96875 C 80.549065 86.96875 80.96875 86.517814 80.96875 85.96875 L 80.96875 73.40625 C 80.968245 73.332316 80.976416 73.25945 80.96875 73.1875 C 80.983355 73.085538 81 72.981147 81 72.875 C 80.993928 72.30009 81.002896 71.70498 81 71.125 L 82.625 71.125 C 82.627913 71.720627 82.615266 72.315915 82.625 72.90625 C 82.626086 72.959119 82.651476 73.01065 82.65625 73.0625 C 82.637791 73.174221 82.6258 73.289313 82.625 73.40625 L 82.625 85.96875 C 82.625 86.517814 83.075935 86.96875 83.625 86.96875 L 85.9375 86.96875 C 86.486565 86.96875 86.90625 86.517814 86.90625 85.96875 L 86.90625 73.40625 C 86.905745 73.332316 86.913916 73.25945 86.90625 73.1875 C 86.920855 73.085538 86.9375 72.981147 86.9375 72.875 C 86.931428 72.30009 86.940396 71.70498 86.9375 71.125 L 89.875 71.125 L 87.5625 57.9375 L 87.5625 47.53125 L 89.375 49.90625 L 89.40625 49.9375 C 89.969553 50.622564 90.976494 50.761093 91.6875 50.21875 C 91.896165 50.059592 92.047094 49.844228 92.15625 49.625 L 95.5 46.0625 L 95.75 46.59375 L 95.8125 46.8125 L 96 46.6875 L 97.46875 46.0625 L 97.65625 45.9375 L 97.5625 45.75 L 96.96875 44.46875 L 97.3125 44.125 C 97.687223 43.723724 97.651269 43.093474 97.25 42.71875 L 96.28125 41.8125 C 96.09688 41.64033 95.857274 41.537774 95.625 41.53125 L 88.125 25.375 L 96.90625 21.28125 L 97.125 21.21875 L 97.03125 21 L 90.65625 7.3125 L 90.59375 7.125 z M 10.25 7.15625 L 10.1875 7.34375 L 5.0625 21.5625 L 5 21.75 L 5.1875 21.84375 L 14.375 25.125 L 8.875 40.59375 L 7.71875 41.1875 C 7.2329299 41.443268 7.056731 42.04543 7.3125 42.53125 L 7.8125 43.5 L 6.84375 46.25 L 6.75 46.4375 L 6.9375 46.53125 L 8.4375 47.03125 L 8.625 47.125 L 8.71875 46.90625 L 9.09375 45.875 L 11.28125 50.0625 C 11.290812 50.080663 11.302385 50.0761 11.3125 50.09375 C 11.587238 50.572334 12.077981 50.887396 12.59375 50.9375 C 13.149167 51.041978 13.728404 50.858674 14.125 50.40625 C 14.134625 50.39525 14.146825 50.386338 14.15625 50.375 L 16.90625 47.0625 L 16.90625 62.8125 C 16.90625 63.310291 17.189168 63.74337 17.59375 63.96875 C 17.582495 64.02791 17.5625 64.09379 17.5625 64.15625 L 17.5625 72.6875 L 17.5625 72.71875 C 17.562919 72.794584 17.587238 72.863307 17.59375 72.9375 C 17.585772 73.022251 17.5625 73.100597 17.5625 73.1875 L 17.5625 85.9375 C 17.5625 86.486534 18.013466 86.9375 18.5625 86.9375 L 21.875 86.9375 C 22.424035 86.9375 22.875 86.486534 22.875 85.9375 L 22.875 73.1875 C 22.875 73.100597 22.851826 73.022251 22.84375 72.9375 C 22.850339 72.863307 22.874579 72.794584 22.875 72.71875 C 22.875029 72.713625 22.875 72.692612 22.875 72.6875 L 22.875 64.15625 L 24.125 64.15625 L 24.125 72.59375 C 24.125302 72.648275 24.152781 72.696305 24.15625 72.75 C 24.143817 72.855352 24.125 72.953702 24.125 73.0625 L 24.125 85.84375 C 24.125 86.392784 24.575966 86.8125 25.125 86.8125 L 28.40625 86.8125 C 28.955285 86.8125 29.40625 86.392784 29.40625 85.84375 L 29.40625 73.0625 C 29.40625 72.975597 29.383076 72.897251 29.375 72.8125 C 29.381589 72.738307 29.405829 72.669584 29.40625 72.59375 L 29.40625 64.03125 C 29.40625 64.008992 29.407676 63.990629 29.40625 63.96875 C 29.826484 63.748042 30.125 63.321892 30.125 62.8125 L 30.125 42.34375 C 30.125 41.611704 29.544545 41.03125 28.8125 41.03125 L 18.25 41.03125 C 17.700969 41.03125 17.231314 41.337917 17.03125 41.8125 L 13.125 46.5 L 10.59375 41.65625 L 16.25 25.78125 L 25.4375 29.0625 L 25.625 29.125 L 25.6875 28.9375 L 30.78125 14.71875 L 30.875 14.53125 L 30.65625 14.4375 L 10.46875 7.1875 L 10.25 7.15625 z M 10.5 7.6875 L 30.3125 14.75 L 25.34375 28.5625 L 16.21875 25.3125 L 16 25.25 L 15.9375 25.4375 L 10.3125 41.1875 L 10.21875 40.96875 C 10.037508 40.624489 9.7060807 40.460969 9.34375 40.46875 L 14.84375 25.03125 L 14.9375 24.84375 L 14.71875 24.75 L 5.5625 21.53125 L 10.5 7.6875 z M 90.375 7.75 L 96.53125 20.96875 L 87.75 25.125 L 87.53125 25.1875 L 87.625 25.375 L 95.1875 41.65625 C 95.084219 41.707796 94.958762 41.754053 94.875 41.84375 L 94.28125 42.5 L 86.5625 25.875 L 86.5 25.65625 L 86.28125 25.75 L 77.46875 29.84375 L 71.28125 16.5625 L 90.375 7.75 z M 37.96875 9.40625 L 37.9375 9.625 L 34.375 24.3125 L 34.3125 24.53125 L 34.53125 24.5625 L 44 26.875 L 40.09375 42.90625 C 40.013919 42.953025 39.941728 42.992477 39.875 43.0625 L 38.96875 44 C 38.58999 44.397466 38.602535 45.027491 39 45.40625 L 39.40625 45.78125 L 38.6875 48.6875 L 38.625 48.875 L 38.8125 48.90625 L 40.375 49.3125 L 40.59375 49.34375 L 40.625 49.125 L 41.0625 47.375 L 44.34375 50.5 C 44.47907 50.763036 44.664358 50.991439 44.9375 51.15625 C 45.702731 51.618005 46.701575 51.397431 47.1875 50.65625 C 47.198875 50.638713 47.20785 50.643088 47.21875 50.625 L 48.3125 48.8125 L 48.3125 58.1875 L 46 71.40625 L 49 71.40625 C 49.00293 71.997563 48.990336 72.601412 49 73.1875 C 49.001072 73.239684 48.995334 73.292559 49 73.34375 C 48.984843 73.445079 48.969472 73.550728 48.96875 73.65625 C 48.968715 73.661375 48.96875 73.682388 48.96875 73.6875 L 48.96875 86.25 C 48.96875 86.799064 49.419685 87.21875 49.96875 87.21875 L 52.28125 87.21875 C 52.830315 87.21875 53.28125 86.799064 53.28125 86.25 L 53.28125 73.6875 C 53.28125 73.682375 53.281285 73.661362 53.28125 73.65625 C 53.280884 73.602746 53.254141 73.55249 53.25 73.5 C 53.267867 73.387578 53.28125 73.273879 53.28125 73.15625 C 53.275178 72.581333 53.284146 71.986237 53.28125 71.40625 L 54.9375 71.40625 C 54.94043 71.997563 54.927836 72.601412 54.9375 73.1875 C 54.938572 73.239684 54.932834 73.292559 54.9375 73.34375 C 54.922343 73.445079 54.906972 73.550728 54.90625 73.65625 C 54.906215 73.661375 54.90625 73.682388 54.90625 73.6875 L 54.90625 86.25 C 54.90625 86.799064 55.357185 87.21875 55.90625 87.21875 L 58.21875 87.21875 C 58.767815 87.21875 59.1875 86.799064 59.1875 86.25 L 59.1875 73.6875 C 59.1875 73.682375 59.187535 73.661362 59.1875 73.65625 C 59.187356 73.635126 59.188239 73.614722 59.1875 73.59375 C 59.216055 73.452962 59.21875 73.305753 59.21875 73.15625 C 59.212678 72.58134 59.221646 71.98623 59.21875 71.40625 L 62.1875 71.40625 L 59.875 58.1875 L 59.875 42.65625 C 59.875 41.924205 59.263296 41.34375 58.53125 41.34375 L 49.625 41.34375 C 48.984464 41.34375 48.435311 41.803034 48.3125 42.40625 L 45.5 47.03125 L 41.96875 43.65625 L 45.9375 27.34375 L 55.34375 29.625 L 55.59375 29.6875 L 55.625 29.4375 L 59.21875 14.8125 L 59.25 14.625 L 59.0625 14.53125 L 38.1875 9.4375 L 37.96875 9.40625 z M 38.3125 9.9375 L 58.75 14.9375 L 55.25 29.1875 L 45.8125 26.875 L 45.59375 26.84375 L 45.5625 27.03125 L 41.625 43.3125 L 41.28125 43 C 41.074722 42.803194 40.796248 42.73295 40.53125 42.75 L 44.4375 26.75 L 44.5 26.53125 L 44.25 26.5 L 34.8125 24.1875 L 38.3125 9.9375 z M 23.53125 30.4375 C 20.794579 30.4375 18.5625 32.66958 18.5625 35.40625 C 18.5625 38.142921 20.794579 40.34375 23.53125 40.34375 C 26.267921 40.34375 28.46875 38.142921 28.46875 35.40625 C 28.46875 32.66958 26.267921 30.4375 23.53125 30.4375 z M 81.78125 30.5 C 79.044579 30.5 76.8125 32.73208 76.8125 35.46875 C 76.766837 37.03102 76.671805 38.104765 76.53125 39.125 C 76.398497 39.558218 75.660691 39.080327 75 38.75 C 75.306587 40.275773 75.848701 40.746326 76.625 40.75 C 77.271681 40.726675 78.031382 40.126492 77.96875 38.75 C 77.96899 38.706812 77.96809 38.670089 77.96875 38.625 C 78.877602 39.726275 80.241874 40.40625 81.78125 40.40625 C 83.310124 40.40625 84.653537 39.713336 85.5625 38.625 C 85.5631 38.663438 85.562296 38.712975 85.5625 38.75 C 85.499875 40.126492 86.259569 40.726677 86.90625 40.75 C 87.682547 40.746375 88.255911 40.275773 88.5625 38.75 C 87.901811 39.080331 87.132754 39.558217 87 39.125 C 86.863451 38.133871 86.766514 37.083697 86.71875 35.59375 C 86.71995 35.5486 86.71875 35.514201 86.71875 35.46875 C 86.71875 32.732079 84.51792 30.5 81.78125 30.5 z M 54.09375 30.78125 C 51.357079 30.78125 49.125 33.01333 49.125 35.75 C 49.125 37.118336 48.96875 40.6875 48.96875 40.6875 L 49.125 40.6875 C 49.230264 40.6875 49.438435 40.34375 49.625 40.34375 C 49.811567 40.34375 49.974852 40.6875 50.21875 40.6875 C 50.462648 40.6875 50.660236 40.34375 50.9375 40.34375 C 51.21476 40.34375 51.58834 40.687495 51.875 40.6875 C 52.161655 40.6875 52.321664 40.34375 52.59375 40.34375 C 52.865838 40.34375 53.235202 40.6875 53.46875 40.6875 C 53.702297 40.6875 53.735205 40.34375 53.90625 40.34375 C 54.077291 40.34375 54.453952 40.6875 54.6875 40.6875 C 54.921047 40.6875 55.634163 40.34375 55.90625 40.34375 C 56.178336 40.34375 56.025844 40.6875 56.3125 40.6875 C 56.599159 40.687495 56.941485 40.34375 57.21875 40.34375 C 57.49601 40.34375 57.693602 40.6875 57.9375 40.6875 C 58.181399 40.6875 58.344685 40.34375 58.53125 40.34375 C 58.717819 40.34375 58.925988 40.6875 59.03125 40.6875 L 59.1875 40.6875 C 59.1875 40.6875 59.03125 37.118336 59.03125 35.75 C 59.03125 33.01333 56.83042 30.78125 54.09375 30.78125 z M 31.375 41.34375 C 30.825966 41.34375 30.375 41.794716 30.375 42.34375 L 30.375 51.0625 L 30.375 51.125 C 30.377359 51.214894 30.421298 51.28926 30.4375 51.375 C 30.423787 51.452899 30.377347 51.543802 30.375 51.625 C 30.374424 51.64535 30.374844 51.635725 30.375 51.65625 L 30.4375 60.1875 C 30.44175 60.736531 30.88847 61.160444 31.4375 61.15625 L 32.78125 61.15625 C 33.330281 61.152125 33.754195 60.705281 33.75 60.15625 L 33.6875 51.65625 C 33.687341 51.635712 33.688374 51.614088 33.6875 51.59375 C 33.68399 51.514361 33.670596 51.419824 33.65625 51.34375 C 33.668501 51.269692 33.685478 51.202052 33.6875 51.125 C 33.687885 51.110363 33.6875 51.077238 33.6875 51.0625 L 33.6875 42.34375 C 33.6875 41.794716 33.236534 41.34375 32.6875 41.34375 L 31.375 41.34375 z M 73.40625 41.40625 C 72.857225 41.403 72.378212 41.825975 72.375 42.375 L 72.34375 50.28125 L 72.34375 50.3125 C 72.347492 50.434394 72.346466 50.573752 72.375 50.6875 C 72.372022 50.72796 72.374986 50.771256 72.375 50.8125 L 72.375 58.59375 C 72.37519 59.142785 72.825965 59.562687 73.375 59.5625 L 74.6875 59.5625 C 75.236534 59.562313 75.687687 59.142784 75.6875 58.59375 L 75.6875 50.8125 C 75.687446 50.653029 75.666735 50.489297 75.625 50.34375 C 75.62584 50.322837 75.656137 50.302362 75.65625 50.28125 L 75.6875 42.40625 C 75.69075 41.857226 75.267775 41.409461 74.71875 41.40625 L 73.40625 41.40625 z M 61.28125 41.6875 C 60.732225 41.68425 60.253214 42.107225 60.25 42.65625 L 60.21875 50.53125 L 60.21875 50.59375 C 60.222152 50.704562 60.226008 50.833317 60.25 50.9375 C 60.245257 50.988372 60.218732 51.041603 60.21875 51.09375 L 60.25 58.84375 C 60.25019 59.392785 60.700966 59.843938 61.25 59.84375 L 62.5625 59.84375 C 63.111534 59.843563 63.562687 59.392784 63.5625 58.84375 L 63.53125 51.09375 C 63.531211 50.979392 63.5219 50.857624 63.5 50.75 C 63.505206 50.707142 63.498103 50.668834 63.5 50.625 C 63.500839 50.604087 63.531125 50.583612 63.53125 50.5625 L 63.5625 42.6875 C 63.56575 42.138476 63.142774 41.690711 62.59375 41.6875 L 61.28125 41.6875 z M 8.09375 44 L 8.8125 45.40625 L 8.40625 46.5625 L 7.3125 46.1875 L 8.09375 44 z M 96.65625 44.8125 L 97.0625 45.6875 L 96 46.21875 L 95.78125 45.75 L 96.65625 44.8125 z M 39.71875 46.09375 L 40.71875 47.03125 L 40.28125 48.8125 L 39.125 48.5625 L 39.71875 46.09375 z " transform="scale(0.8,0.8)" fill="#000000" fill-opacity="1" stroke="none">
    </path>
</svg>
