<?xml version="1.0" encoding="utf-8"?>
<!-- Generator: Adobe Illustrator 16.0.0, SVG Export Plug-In . SVG Version: 6.00 Build 0)  -->
<!DOCTYPE svg PUBLIC "-//W3C//DTD SVG 1.1//EN" "http://www.w3.org/Graphics/SVG/1.1/DTD/svg11.dtd">
<svg version="1.1" id="Layer_1" xmlns="http://www.w3.org/2000/svg" xmlns:xlink="http://www.w3.org/1999/xlink" x="0px" y="0px"
	 width="90px" height="90px" viewBox="0 0 90 90" enable-background="new 0 0 90 90" xml:space="preserve">
<path fill="none" stroke="#582D82" stroke-width="1.8" stroke-linecap="round" stroke-miterlimit="10" d="M59.213,69.474H29.655
	c-0.933,0-1.688-0.756-1.688-1.688v-0.554c0-0.932,0.756-1.688,1.688-1.688h29.558c0.933,0,1.689,0.757,1.689,1.688v0.554
	C60.902,68.718,60.146,69.474,59.213,69.474z"/>
<path fill="none" stroke="#582D82" stroke-width="1.8" stroke-linecap="round" stroke-miterlimit="10" d="M59.213,69.474H29.655
	c-0.933,0-1.688-0.756-1.688-1.688v-0.554c0-0.932,0.756-1.688,1.688-1.688h29.558c0.933,0,1.689,0.757,1.689,1.688v0.554
	C60.902,68.718,60.146,69.474,59.213,69.474z"/>
<path fill="none" stroke="#582D82" stroke-width="1.8" stroke-linecap="round" stroke-miterlimit="10" d="M52.995,65.393H35.873
	c-0.933,0-1.689-0.756-1.689-1.688v-0.553c0-0.933,0.757-1.689,1.689-1.689h17.122c0.933,0,1.688,0.757,1.688,1.689v0.553
	C54.684,64.637,53.928,65.393,52.995,65.393z"/>
<polyline fill="none" stroke="#582D82" stroke-width="1.8" stroke-linecap="round" stroke-miterlimit="10" points="46.399,27.234
	46.399,61.463 42.469,61.463 42.469,27.234 "/>
<circle fill="none" stroke="#582D82" stroke-width="1.8" stroke-linecap="round" stroke-miterlimit="10" cx="44.434" cy="23.94" r="3.83"/>
<circle fill="none" stroke="#582D82" stroke-width="1.8" stroke-linecap="round" stroke-miterlimit="10" cx="63.544" cy="23.94" r="2.854"/>
<path fill="none" stroke="#582D82" stroke-width="1.8" stroke-linecap="round" stroke-linejoin="round" stroke-miterlimit="10" d="
	M73.419,39.411c0,5.454-4.421,9.875-9.875,9.875c-5.453,0-9.875-4.42-9.875-9.875H73.419z"/>
<line fill="none" stroke="#582D82" stroke-width="1.8" stroke-linecap="round" stroke-miterlimit="10" x1="48.264" y1="23.94" x2="60.69" y2="23.94"/>
<line fill="none" stroke="#582D82" stroke-width="1.8" stroke-linecap="round" stroke-linejoin="round" stroke-miterlimit="10" x1="62.221" y1="26.466" x2="55.44" y2="39.411"/>
<line fill="none" stroke="#582D82" stroke-width="1.8" stroke-linecap="round" stroke-linejoin="round" stroke-miterlimit="10" x1="64.867" y1="26.466" x2="71.648" y2="39.411"/>
<circle fill="none" stroke="#582D82" stroke-width="1.8" stroke-linecap="round" stroke-miterlimit="10" cx="25.324" cy="23.94" r="2.854"/>
<path fill="none" stroke="#582D82" stroke-width="1.8" stroke-linecap="round" stroke-linejoin="round" stroke-miterlimit="10" d="
	M15.449,39.411c0,5.454,4.421,9.875,9.875,9.875s9.875-4.42,9.875-9.875H15.449z"/>
<line fill="none" stroke="#582D82" stroke-width="1.8" stroke-linecap="round" stroke-miterlimit="10" x1="40.604" y1="23.94" x2="28.179" y2="23.94"/>
<line fill="none" stroke="#582D82" stroke-width="1.8" stroke-linecap="round" stroke-linejoin="round" stroke-miterlimit="10" x1="26.647" y1="26.466" x2="33.429" y2="39.411"/>
<line fill="none" stroke="#582D82" stroke-width="1.8" stroke-linecap="round" stroke-linejoin="round" stroke-miterlimit="10" x1="24.001" y1="26.466" x2="17.22" y2="39.411"/>
</svg>
