<?xml version="1.0" encoding="utf-8"?>
<!-- Generator: Adobe Illustrator 16.0.0, SVG Export Plug-In . SVG Version: 6.00 Build 0)  -->
<!DOCTYPE svg PUBLIC "-//W3C//DTD SVG 1.1//EN" "http://www.w3.org/Graphics/SVG/1.1/DTD/svg11.dtd">
<svg version="1.1" id="Layer_1" xmlns="http://www.w3.org/2000/svg" xmlns:xlink="http://www.w3.org/1999/xlink" x="0px" y="0px"
	 width="90px" height="90px" viewBox="0 0 90 90" enable-background="new 0 0 90 90" xml:space="preserve">
<ellipse fill="none" stroke="#582D82" stroke-width="1.8" stroke-miterlimit="10" cx="43.921" cy="26.8" rx="19.299" ry="6.037"/>
<ellipse fill="none" stroke="#582D82" stroke-width="1.8" stroke-miterlimit="10" cx="43.921" cy="26.8" rx="19.299" ry="6.037"/>
<path fill="none" stroke="#822C90" stroke-width="2" stroke-linecap="round" stroke-miterlimit="10" d="M55.83,27.315
	c-3.099,0.922-7.176,1.526-11.694,1.642"/>
<ellipse fill="none" stroke="#582D82" stroke-width="1.8" stroke-miterlimit="10" cx="43.921" cy="26.8" rx="19.299" ry="6.037"/>
<path fill="none" stroke="#582D82" stroke-width="1.8" stroke-miterlimit="10" d="M24.622,26.8v6.431
	c0,3.334,8.641,6.037,19.299,6.037s19.299-2.703,19.299-6.037V26.8"/>
<line fill="none" stroke="#582D82" stroke-width="1.8" stroke-linecap="round" stroke-miterlimit="10" x1="50.769" y1="32.445" x2="50.769" y2="38.875"/>
<line fill="none" stroke="#582D82" stroke-width="1.8" stroke-linecap="round" stroke-miterlimit="10" x1="55.173" y1="31.99" x2="55.173" y2="38.057"/>
<line fill="none" stroke="#582D82" stroke-width="1.8" stroke-linecap="round" stroke-miterlimit="10" x1="58.822" y1="30.784" x2="58.822" y2="37.215"/>
<path fill="none" stroke="#582D82" stroke-width="1.8" stroke-miterlimit="10" d="M59.123,54.158c0.281,0.41,0.43,0.835,0.43,1.271
	c0,3.334-8.641,6.037-19.299,6.037c-10.659,0-19.299-2.703-19.299-6.037c0-1.322,1.359-2.545,3.667-3.541"/>
<path fill="none" stroke="#582D82" stroke-width="1.8" stroke-miterlimit="10" d="M20.955,55.43v6.432
	c0,3.334,8.64,6.037,19.299,6.037c10.658,0,19.299-2.703,19.299-6.037V55.43"/>
<line fill="none" stroke="#582D82" stroke-width="1.8" stroke-linecap="round" stroke-miterlimit="10" x1="51.506" y1="60.807" x2="51.506" y2="66.687"/>
<line fill="none" stroke="#582D82" stroke-width="1.8" stroke-linecap="round" stroke-miterlimit="10" x1="55.154" y1="59.414" x2="55.154" y2="65.193"/>
<path fill="none" stroke="#582D82" stroke-width="1.8" stroke-miterlimit="10" d="M63.22,44.021c0,3.334-8.641,6.037-19.299,6.037
	s-19.299-2.703-19.299-6.037c0-1.66,2.143-3.164,5.609-4.255"/>
<path fill="none" stroke="#582D82" stroke-width="1.8" stroke-miterlimit="10" d="M24.622,44.021v6.431
	c0,3.334,8.641,6.037,19.299,6.037s19.299-2.703,19.299-6.037v-6.431"/>
<line fill="none" stroke="#582D82" stroke-width="1.8" stroke-linecap="round" stroke-miterlimit="10" x1="58.822" y1="48.004" x2="58.822" y2="53.977"/>
<path fill="none" stroke="#582D82" stroke-width="1.8" stroke-miterlimit="10" d="M63.182,29.083
	c3.492,1.093,5.652,2.602,5.652,4.269c0,3.334-8.641,6.037-19.299,6.037l-5.614-0.121"/>
<path fill="none" stroke="#582D82" stroke-width="1.8" stroke-miterlimit="10" d="M30.236,37.486v2.297
	c0,3.334,8.641,6.037,19.299,6.037s19.299-2.703,19.299-6.037v-6.431"/>
<line fill="none" stroke="#582D82" stroke-width="1.8" stroke-linecap="round" stroke-miterlimit="10" x1="56.383" y1="38.997" x2="56.383" y2="45.428"/>
<line fill="none" stroke="#582D82" stroke-width="1.8" stroke-linecap="round" stroke-miterlimit="10" x1="60.787" y1="38.178" x2="60.787" y2="44.609"/>
</svg>
