<svg xmlns:dc="http://purl.org/dc/elements/1.1/" xmlns:cc="http://creativecommons.org/ns#" xmlns:rdf="http://www.w3.org/1999/02/22-rdf-syntax-ns#" xmlns:svg="http://www.w3.org/2000/svg" xmlns="http://www.w3.org/2000/svg" xmlns:sodipodi="http://sodipodi.sourceforge.net/DTD/sodipodi-0.dtd" xmlns:inkscape="http://www.inkscape.org/namespaces/inkscape" viewBox="0 0 32 32" version="1.1" x="0px" y="0px">
    <g transform="translate(0,-1020.3622)">
        <path style="color:#000000;font-style:normal;font-variant:normal;font-weight:normal;font-stretch:normal;font-size:medium;line-height:normal;font-family:sans-serif;text-indent:0;text-align:start;text-decoration:none;text-decoration-line:none;text-decoration-style:solid;text-decoration-color:#000000;letter-spacing:normal;word-spacing:normal;text-transform:none;direction:ltr;block-progression:tb;writing-mode:lr-tb;baseline-shift:baseline;text-anchor:start;white-space:normal;clip-rule:nonzero;display:inline;overflow:visible;visibility:visible;opacity:1;isolation:auto;mix-blend-mode:normal;color-interpolation:sRGB;color-interpolation-filters:linearRGB;solid-color:#000000;solid-opacity:1;fill:#000000;fill-opacity:1;fill-rule:evenodd;stroke:none;stroke-width:1px;stroke-linecap:round;stroke-linejoin:round;stroke-miterlimit:4;stroke-dasharray:none;stroke-dashoffset:0;stroke-opacity:1;color-rendering:auto;image-rendering:auto;shape-rendering:auto;text-rendering:auto;enable-background:accumulate" d="m 15.994141,1031.6758 a 0.50005,0.50005 0 0 0 -0.458985,0.3144 l -0.925781,2.3223 -2.640625,0.1563 a 0.50005,0.50005 0 0 0 -0.308594,0.8652 l 2.039063,1.8887 -0.619141,2.3261 a 0.50005,0.50005 0 0 0 0.732422,0.5606 l 2.185547,-1.252 2.1875,1.252 a 0.50005,0.50005 0 0 0 0.732422,-0.5606 l -0.619141,-2.3261 2.039063,-1.8887 a 0.50005,0.50005 0 0 0 -0.308594,-0.8652 l -2.640625,-0.1563 -0.925781,-2.3223 a 0.50005,0.50005 0 0 0 -0.46875,-0.3144 z m 0.0059,1.8496 0.578125,1.4531 a 0.50005,0.50005 0 0 0 0.435547,0.3125 l 1.785156,0.1055 -1.40039,1.2969 a 0.50005,0.50005 0 0 0 -0.142579,0.4961 l 0.386719,1.457 -1.394531,-0.7988 a 0.50005,0.50005 0 0 0 -0.498047,0 l -1.394531,0.7988 0.386719,-1.457 a 0.50005,0.50005 0 0 0 -0.142579,-0.4961 l -1.40039,-1.2969 1.785156,-0.1055 a 0.50005,0.50005 0 0 0 0.435547,-0.3125 L 16,1033.5254 Z"/>
        <path style="color:#000000;font-style:normal;font-variant:normal;font-weight:normal;font-stretch:normal;font-size:medium;line-height:normal;font-family:sans-serif;text-indent:0;text-align:start;text-decoration:none;text-decoration-line:none;text-decoration-style:solid;text-decoration-color:#000000;letter-spacing:normal;word-spacing:normal;text-transform:none;direction:ltr;block-progression:tb;writing-mode:lr-tb;baseline-shift:baseline;text-anchor:start;white-space:normal;clip-rule:nonzero;display:inline;overflow:visible;visibility:visible;opacity:1;isolation:auto;mix-blend-mode:normal;color-interpolation:sRGB;color-interpolation-filters:linearRGB;solid-color:#000000;solid-opacity:1;fill:#000000;fill-opacity:1;fill-rule:nonzero;stroke:none;stroke-width:0.99999994;stroke-linecap:round;stroke-linejoin:round;stroke-miterlimit:4;stroke-dasharray:none;stroke-dashoffset:0;stroke-opacity:1;color-rendering:auto;image-rendering:auto;shape-rendering:auto;text-rendering:auto;enable-background:accumulate" d="m 15.998047,1022.3613 a 0.50004997,0.50004997 0 0 0 -0.355469,0.1485 c -2.767223,2.7924 -6.4015146,4.3285 -10.3222655,4.3515 a 0.50004997,0.50004997 0 0 0 -0.4941406,0.4336 c -1.2884157,9.6169 1.4306106,15.4289 4.5117187,18.7813 3.0811084,3.3524 6.5312504,4.2695 6.5312504,4.2695 a 0.50004997,0.50004997 0 0 0 0.255859,0 c 0,0 3.451723,-0.9172 6.533203,-4.2695 1.540737,-1.6762 2.998447,-3.9663 3.902344,-7.041 a 0.50090021,0.50090021 0 1 0 -0.960938,-0.2832 c -0.859937,2.9252 -2.231078,5.0726 -3.677734,6.6464 -2.797536,3.0435 -5.725245,3.8729 -5.923828,3.9278 -0.196305,-0.054 -3.125509,-0.8831 -5.923828,-3.9278 -2.8489103,-3.0997 -5.3960693,-8.4633 -4.2734378,-17.5859 3.8404687,-0.1383 7.4074728,-1.6453 10.1953128,-4.3008 2.732888,2.6498 6.36358,4.1802 10.199218,4.3008 0.267124,2.1751 0.36091,4.1768 0.251954,5.9414 a 0.50091725,0.50091725 0 1 0 1,0.061 c 0.120356,-1.9493 0.04633,-4.1153 -0.275391,-6.5196 a 0.50004997,0.50004997 0 0 0 -0.496094,-0.4336 c -3.902273,0 -7.632566,-1.5746 -10.320312,-4.3476 a 0.50004997,0.50004997 0 0 0 -0.357422,-0.1524 z"/>
        <path style="color:#000000;font-style:normal;font-variant:normal;font-weight:normal;font-stretch:normal;font-size:medium;line-height:normal;font-family:sans-serif;text-indent:0;text-align:start;text-decoration:none;text-decoration-line:none;text-decoration-style:solid;text-decoration-color:#000000;letter-spacing:normal;word-spacing:normal;text-transform:none;direction:ltr;block-progression:tb;writing-mode:lr-tb;baseline-shift:baseline;text-anchor:start;white-space:normal;clip-rule:nonzero;display:inline;overflow:visible;visibility:visible;opacity:1;isolation:auto;mix-blend-mode:normal;color-interpolation:sRGB;color-interpolation-filters:linearRGB;solid-color:#000000;solid-opacity:1;fill:#000000;fill-opacity:1;fill-rule:evenodd;stroke:none;stroke-width:1px;stroke-linecap:round;stroke-linejoin:round;stroke-miterlimit:4;stroke-dasharray:none;stroke-dashoffset:0;stroke-opacity:1;color-rendering:auto;image-rendering:auto;shape-rendering:auto;text-rendering:auto;enable-background:accumulate" d="m 11.998047,1027.8613 a 0.50005,0.50005 0 1 0 0,1 l 7.986328,0 a 0.50005,0.50005 0 1 0 0,-1 l -7.986328,0 z"/>
        <path style="color:#000000;font-style:normal;font-variant:normal;font-weight:normal;font-stretch:normal;font-size:medium;line-height:normal;font-family:sans-serif;text-indent:0;text-align:start;text-decoration:none;text-decoration-line:none;text-decoration-style:solid;text-decoration-color:#000000;letter-spacing:normal;word-spacing:normal;text-transform:none;direction:ltr;block-progression:tb;writing-mode:lr-tb;baseline-shift:baseline;text-anchor:start;white-space:normal;clip-rule:nonzero;display:inline;overflow:visible;visibility:visible;opacity:1;isolation:auto;mix-blend-mode:normal;color-interpolation:sRGB;color-interpolation-filters:linearRGB;solid-color:#000000;solid-opacity:1;fill:#000000;fill-opacity:1;fill-rule:nonzero;stroke:none;stroke-width:1;stroke-linecap:round;stroke-linejoin:round;stroke-miterlimit:4;stroke-dasharray:none;stroke-dashoffset:0;stroke-opacity:1;color-rendering:auto;image-rendering:auto;shape-rendering:auto;text-rendering:auto;enable-background:accumulate" d="m 12.498047,1042.8613 a 0.50005,0.50005 0 0 0 -0.310547,0.8926 c 2.210899,1.8077 5.404969,1.8111 7.621094,0.01 a 0.50005,0.50005 0 1 0 -0.63086,-0.7754 c -1.851099,1.5046 -4.510708,1.5001 -6.357422,-0.01 a 0.50005,0.50005 0 0 0 -0.322265,-0.1172 z"/>
        <path style="color:#000000;font-style:normal;font-variant:normal;font-weight:normal;font-stretch:normal;font-size:medium;line-height:normal;font-family:sans-serif;text-indent:0;text-align:start;text-decoration:none;text-decoration-line:none;text-decoration-style:solid;text-decoration-color:#000000;letter-spacing:normal;word-spacing:normal;text-transform:none;direction:ltr;block-progression:tb;writing-mode:lr-tb;baseline-shift:baseline;text-anchor:start;white-space:normal;clip-rule:nonzero;display:inline;overflow:visible;visibility:visible;opacity:1;isolation:auto;mix-blend-mode:normal;color-interpolation:sRGB;color-interpolation-filters:linearRGB;solid-color:#000000;solid-opacity:1;fill:#000000;fill-opacity:1;fill-rule:nonzero;stroke:none;stroke-width:1;stroke-linecap:round;stroke-linejoin:round;stroke-miterlimit:4;stroke-dasharray:none;stroke-dashoffset:0;stroke-opacity:1;color-rendering:auto;image-rendering:auto;shape-rendering:auto;text-rendering:auto;enable-background:accumulate" d="m 16.916016,1030.4336 c -0.690164,-0.1074 -1.407781,-0.097 -2.125,0.051 -2.868872,0.5896 -4.8960634,3.1747 -4.78711,6.1015 a 0.50005,0.50005 0 1 0 0.998047,-0.037 c -0.09103,-2.4453 1.593353,-4.5913 3.990235,-5.084 2.396884,-0.4926 4.791141,0.8147 5.671874,3.0977 0.880728,2.283 -0.01434,4.8588 -2.121093,6.1035 -2.106733,1.2448 -4.796293,0.787 -6.371094,-1.0859 a 0.50005,0.50005 0 1 0 -0.765625,0.6426 c 1.884909,2.2417 5.122944,2.7945 7.644531,1.3046 2.521617,-1.4898 3.601034,-4.5916 2.546875,-7.3242 -0.790624,-2.0494 -2.611148,-3.4473 -4.68164,-3.7695 z"/>
        <path d="m 10.34577,1038.3024 a 0.5,0.5 0 0 0 0.5,0.5 0.5,0.5 0 0 0 0.5,-0.5 0.5,0.5 0 0 0 -0.5,-0.5 0.5,0.5 0 0 0 -0.5,0.5 z" style="opacity:1;fill:#000000;fill-opacity:1;stroke:none;stroke-width:1;stroke-linecap:round;stroke-linejoin:round;stroke-miterlimit:4;stroke-dasharray:none;stroke-opacity:1"/>
        <path style="opacity:1;fill:#000000;fill-opacity:1;stroke:none;stroke-width:1;stroke-linecap:round;stroke-linejoin:round;stroke-miterlimit:4;stroke-dasharray:none;stroke-opacity:1" d="m 27.170212,1036.3024 a 0.5,0.5 0 0 1 -0.5,0.5 0.5,0.5 0 0 1 -0.5,-0.5 0.5,0.5 0 0 1 0.5,-0.5 0.5,0.5 0 0 1 0.5,0.5 z"/>
    </g>
    <text x="0" y="47.000001" fill="#000000" font-size="5px" font-weight="bold" font-family="'Helvetica Neue', Helvetica, Arial-Unicode, Arial, Sans-serif">Created by anbileru adaleru</text>
    <text x="0" y="52.000001" fill="#000000" font-size="5px" font-weight="bold" font-family="'Helvetica Neue', Helvetica, Arial-Unicode, Arial, Sans-serif">from the Noun Project</text>
</svg>
