<?xml version="1.0" encoding="utf-8"?>
<!-- Generator: Adobe Illustrator 16.0.0, SVG Export Plug-In . SVG Version: 6.00 Build 0)  -->
<!DOCTYPE svg PUBLIC "-//W3C//DTD SVG 1.1//EN" "http://www.w3.org/Graphics/SVG/1.1/DTD/svg11.dtd">
<svg version="1.1" id="Layer_1" xmlns="http://www.w3.org/2000/svg" xmlns:xlink="http://www.w3.org/1999/xlink" x="0px" y="0px"
	 width="90px" height="90px" viewBox="0 0 90 90" enable-background="new 0 0 90 90" xml:space="preserve">
<path fill="none" stroke="#582D82" stroke-width="1.8" stroke-linecap="round" stroke-linejoin="round" stroke-miterlimit="10" d="
	M73.529,44.765c-7.018,7.987-17.308,13.028-28.775,13.028c-11.467,0-21.757-5.041-28.774-13.026l-0.004-0.003
	c7.017-7.989,17.309-13.032,28.778-13.032c11.467,0,21.756,5.041,28.773,13.027L73.529,44.765z"/>
<circle fill="none" stroke="#582D82" stroke-width="1.8" stroke-linecap="round" stroke-miterlimit="10" cx="44.752" cy="44.763" r="13.031"/>
<path fill="#822C90" d="M49.629,44.763c0,2.692-2.184,4.876-4.875,4.876c-2.694,0-4.877-2.184-4.877-4.876
	c0-2.693,2.183-4.876,4.877-4.876C47.445,39.887,49.629,42.07,49.629,44.763"/>
<line fill="none" stroke="#822C90" stroke-width="1.8" stroke-linecap="round" stroke-linejoin="round" stroke-miterlimit="10" x1="44.753" y1="19.532" x2="44.753" y2="25.66"/>
<line fill="none" stroke="#822C90" stroke-width="1.8" stroke-linecap="round" stroke-linejoin="round" stroke-miterlimit="10" x1="30.356" y1="22.092" x2="31.953" y2="26.768"/>
<line fill="none" stroke="#822C90" stroke-width="1.8" stroke-linecap="round" stroke-linejoin="round" stroke-miterlimit="10" x1="59.15" y1="22.092" x2="57.553" y2="26.768"/>
<line fill="none" stroke="#822C90" stroke-width="1.8" stroke-linecap="round" stroke-linejoin="round" stroke-miterlimit="10" x1="44.753" y1="69.994" x2="44.753" y2="63.866"/>
<line fill="none" stroke="#822C90" stroke-width="1.8" stroke-linecap="round" stroke-linejoin="round" stroke-miterlimit="10" x1="30.356" y1="67.434" x2="31.953" y2="62.759"/>
<line fill="none" stroke="#822C90" stroke-width="1.8" stroke-linecap="round" stroke-linejoin="round" stroke-miterlimit="10" x1="59.15" y1="67.434" x2="57.553" y2="62.759"/>
</svg>
