<svg xmlns="http://www.w3.org/2000/svg" xmlns:xlink="http://www.w3.org/1999/xlink" version="1.1" x="0px" y="0px" viewBox="0 0 100 100" enable-background="new 0 0 100 100" xml:space="preserve">
    <path d="M33.311,59.796c-0.025,0.059-0.05,0.119-0.05,0.182v2.191c0,0.363,0.442,0.686,1.129,0.908l0.613,1.406  c0.073,0.168,0.209,0.32,0.375,0.459c0.145,0.363,0.52,0.674,1.032,0.896c0.402,0.637,1.582,1.102,2.99,1.102h20.761  c1.407,0,2.584-0.463,2.989-1.1c0.499-0.215,0.874-0.506,1.025-0.854l0.783-1.795c0.92-0.217,1.535-0.592,1.535-1.023v-2.191  c0-0.063-0.025-0.123-0.05-0.182h1.797c0.061,0.096,0.099,0.197,0.099,0.301v2.434c0,0.479-0.683,0.898-1.706,1.137l-0.87,1.996  c-0.168,0.385-0.585,0.707-1.139,0.947c-0.449,0.707-1.757,1.223-3.321,1.223H38.236c-1.565,0-2.875-0.518-3.322-1.227  c-0.569-0.246-0.987-0.592-1.147-0.994c-0.184-0.154-0.335-0.324-0.417-0.51l-0.681-1.563c-0.763-0.248-1.255-0.605-1.255-1.01  v-2.434c0-0.104,0.039-0.205,0.1-0.301H33.311z"/>
    <path d="M77.114,33.942v19.15c0,4.145-2.586,7.504-5.775,7.504H37.156c-3.189,0-5.775-3.359-5.775-7.504v-19.15h-1.875V53.79  c0,4.605,2.799,8.338,6.25,8.338h36.999c3.452,0,6.25-3.732,6.25-8.338V33.942H77.114z"/>
    <path d="M52.889,27.784c-7.778,0-14.083,6.305-14.083,14.084c0,7.775,6.305,14.082,14.083,14.082s14.083-6.307,14.083-14.082  C66.972,34.089,60.667,27.784,52.889,27.784z M52.885,53.784c-6.627,0-12-5.373-12-12s5.373-12,12-12s12,5.373,12,12  S59.513,53.784,52.885,53.784z"/>
    <g>
        <path d="M36.296,42.034c0-6.033,3.231-11.299,8.046-14.203h-9.251v28.07h8.696C39.278,52.935,36.296,47.837,36.296,42.034z"/>
        <path d="M61.436,27.831c4.815,2.904,8.046,8.17,8.046,14.203c0,5.803-2.982,10.9-7.492,13.867h8.696v-28.07H61.436z"/>
    </g>
    <path d="M77.114,32.942v19.15c0,4.145-2.586,7.504-5.775,7.504H37.156c-3.189,0-5.775-3.359-5.775-7.504v-19.15h-1.875V52.79  c0,4.605,2.799,8.338,6.25,8.338h36.999c3.452,0,6.25-3.732,6.25-8.338V32.942H77.114z"/>
    <path d="M30.994,28.229c-0.981,0.639-1.613,1.561-1.613,2.6v6.256c0,0.18,0.036,0.352,0.072,0.523h-2.567  c-0.086-0.277-0.142-0.564-0.142-0.861v-6.951c0-1.154,0.702-2.18,1.793-2.887l0.632-2.902l-7.542,3.727v28.943l10.232,4.381V24.263  L30.994,28.229z"/>
    <rect x="36.458" y="65.839" width="27.718" height="1.994"/>
    <path d="M52.889,30.751c-6.139,0-11.116,4.977-11.116,11.117c0,6.139,4.977,11.115,11.116,11.115c6.14,0,11.117-4.977,11.117-11.115  C64.006,35.728,59.029,30.751,52.889,30.751z M55.832,34.171c3.252,0.92,5.604,3.566,5.604,6.695c0,1.688-0.686,3.236-1.826,4.449  c0.575-1.119,0.907-2.371,0.907-3.699C60.517,38.397,58.621,35.599,55.832,34.171z"/>
    <rect x="32.235" y="17.476" width="41.309" height="5.713"/>
    <polygon points="30.117,24.978 35.223,21.706 32.512,17.476 28.495,23.585 "/>
    <polygon points="31.898,20.524 26.377,25.306 25.827,52.546 31.898,54.087 "/>
    <polygon points="36.458,67.833 29.172,67.833 29.172,58.358 33.26,59.978 "/>
    <polygon points="62.802,67.833 70.088,67.833 70.357,60.597 66,59.978 "/>
    <path d="M56.489,84.94V61.952c0-1.191-1.48-2.156-3.306-2.156s-3.306,0.965-3.306,2.156V84.94H56.489z"/>
    <path d="M77.056,26.96l-1.852-5.094c-0.24-1.1-1.039-2.261-1.019-3.313c-0.642-2.02-2.511-3.494-4.744-3.494H36.489  c-2.236,0-4.108,1.479-4.747,3.504c-0.813,0.703-1.409,1.689-1.638,2.84c-0.262,0.445-0.479,0.926-0.595,1.457l-0.337,1.547h2.769  c0.111-0.389,0.267-0.754,0.464-1.09c0.206-1.035,0.743-1.924,1.475-2.557c0.575-1.822,2.259-3.152,4.272-3.152H67.81  c2.01,0,3.692,1.326,4.27,3.145c0.712,0.615,1.249,1.445,1.465,2.436l1.118,5.131c1.315,0.617,2.193,1.693,2.193,2.926v1.697h0.259  v5.084h2.237c0.086-0.279,0.142-0.564,0.142-0.863v-6.951C79.493,28.843,78.518,27.646,77.056,26.96z"/>
    <path d="M79.493,36.667c0,7.548-4.22,2.691-1.353,2.691l0,0c-0.747,0-1.353-1.207-1.353-2.691v-4.992  c0-1.486,0.606-2.691,1.353-2.691l0,0c0.748,0,1.353,1.205,1.353,2.691V36.667z"/>
    <rect x="20.507" y="28.72" width="7.616" height="27.625"/>
    <polygon points="73.565,24.128 74.166,21.866 73.374,19.605 71.888,22.801 "/>
    <polygon points="79.214,28.983 77.878,28.763 74.166,26.111 73.027,16.6 "/>
    <polygon points="74.371,21.866 78.93,31.127 77.114,39.358 72.677,22.801 "/>
    <polygon points="79.214,29.189 74.166,25.257 73.785,17.755 75.804,20.662 "/>
    <polygon points="78.458,56.482 76.121,56.837 76.121,33.942 78.458,36.78 "/>
    <text x="0" y="115" fill="#000000" font-size="5px" font-weight="bold" font-family="'Helvetica Neue', Helvetica, Arial-Unicode, Arial, Sans-serif">Created by Nathaniel Ruiz</text>
    <text x="0" y="120" fill="#000000" font-size="5px" font-weight="bold" font-family="'Helvetica Neue', Helvetica, Arial-Unicode, Arial, Sans-serif">from the Noun Project</text>
</svg>
