<svg xmlns="http://www.w3.org/2000/svg" xmlns:xlink="http://www.w3.org/1999/xlink" version="1.1" x="0px" y="0px" viewBox="0 0 60 60" style="enable-background:new 0 0 60 60;" xml:space="preserve">
    <g>
        <path d="M58.999,57h-59V4c0-0.553,0.448-1,1-1s1,0.447,1,1v51h57c0.552,0,1,0.447,1,1S59.551,57,58.999,57z"/>
        <path d="M6.998,54c-0.166,0-0.334-0.041-0.489-0.129c-0.48-0.271-0.651-0.88-0.381-1.361l9-16c0.235-0.419,0.733-0.611,1.188-0.458   l8.147,2.716L35.09,15.583c0.134-0.29,0.397-0.5,0.711-0.563c0.315-0.06,0.64,0.027,0.874,0.243l11.063,10.141L58.124,6.519   c0.267-0.482,0.875-0.659,1.358-0.395c0.483,0.266,0.661,0.874,0.394,1.356l-11,20c-0.146,0.271-0.411,0.455-0.714,0.506   c-0.302,0.057-0.612-0.042-0.838-0.249L36.336,17.665L25.908,40.417c-0.212,0.463-0.739,0.694-1.226,0.531l-8.218-2.738L7.87,53.49   C7.688,53.816,7.349,54,6.998,54z"/>
    </g>
    <text x="0" y="75" fill="#000000" font-size="5px" font-weight="bold" font-family="'Helvetica Neue', Helvetica, Arial-Unicode, Arial, Sans-serif">Created by Norbert Kucsera</text>
    <text x="0" y="80" fill="#000000" font-size="5px" font-weight="bold" font-family="'Helvetica Neue', Helvetica, Arial-Unicode, Arial, Sans-serif">from the Noun Project</text>
</svg>
