<?xml version="1.0" encoding="utf-8"?>
<!-- Generator: Adobe Illustrator 16.0.0, SVG Export Plug-In . SVG Version: 6.00 Build 0)  -->
<!DOCTYPE svg PUBLIC "-//W3C//DTD SVG 1.1//EN" "http://www.w3.org/Graphics/SVG/1.1/DTD/svg11.dtd">
<svg version="1.1" id="Layer_1" xmlns="http://www.w3.org/2000/svg" xmlns:xlink="http://www.w3.org/1999/xlink" x="0px" y="0px"
	 width="90px" height="90px" viewBox="0 0 90 90" enable-background="new 0 0 90 90" xml:space="preserve">
<path fill="none" stroke="#582D82" stroke-width="1.8" stroke-linecap="round" stroke-miterlimit="10" d="M31.223,45.385v20.356
	c0,0.396-0.321,0.718-0.717,0.718h-2.497c-0.396,0-0.717-0.322-0.717-0.718V45.385"/>
<path fill="none" stroke="#582D82" stroke-width="1.8" stroke-linecap="round" stroke-miterlimit="10" d="M41.242,51.756v13.985
	c0,0.396-0.321,0.717-0.717,0.717h-2.497c-0.396,0-0.717-0.321-0.717-0.717V51.506"/>
<path fill="none" stroke="#582D82" stroke-width="1.8" stroke-linecap="round" stroke-miterlimit="10" d="M51.543,42.879v22.862
	c0,0.396-0.321,0.718-0.717,0.718h-2.498c-0.396,0-0.717-0.321-0.717-0.718V42.879"/>
<path fill="none" stroke="#582D82" stroke-width="1.8" stroke-linecap="round" stroke-miterlimit="10" d="M61.701,37.87v27.873
	c0,0.396-0.32,0.715-0.717,0.715h-2.496c-0.396,0-0.718-0.319-0.718-0.715V37.87"/>
<circle fill="none" stroke="#822C90" stroke-width="1.8" stroke-linecap="round" stroke-linejoin="round" stroke-miterlimit="10" cx="29.258" cy="43.155" r="2.973"/>
<circle fill="none" stroke="#822C90" stroke-width="1.8" stroke-linecap="round" stroke-linejoin="round" stroke-miterlimit="10" cx="39.417" cy="49.408" r="2.973"/>
<circle fill="none" stroke="#822C90" stroke-width="1.8" stroke-linecap="round" stroke-linejoin="round" stroke-miterlimit="10" cx="49.577" cy="40.654" r="2.973"/>
<circle fill="none" stroke="#822C90" stroke-width="1.8" stroke-linecap="round" stroke-linejoin="round" stroke-miterlimit="10" cx="59.736" cy="35.652" r="2.973"/>
<line fill="none" stroke="#822C90" stroke-width="1.8" stroke-linecap="round" stroke-linejoin="round" stroke-miterlimit="10" x1="52.238" y1="39.344" x2="57.078" y2="36.961"/>
<line fill="none" stroke="#822C90" stroke-width="1.8" stroke-linecap="round" stroke-linejoin="round" stroke-miterlimit="10" x1="41.66" y1="47.477" x2="47.332" y2="42.589"/>
<line fill="none" stroke="#822C90" stroke-width="1.8" stroke-linecap="round" stroke-linejoin="round" stroke-miterlimit="10" x1="31.783" y1="44.709" x2="36.893" y2="47.854"/>
<path fill="none" stroke="#582D82" stroke-width="1.8" stroke-linecap="round" stroke-miterlimit="10" d="M63.548,66.458H25.444
	c-3.009,0-5.448-2.438-5.448-5.448V28.515c0-3.008,2.439-5.448,5.448-5.448h38.104c3.009,0,5.448,2.44,5.448,5.448V61.01
	C68.996,64.02,66.557,66.458,63.548,66.458z"/>
</svg>
