<svg xmlns:dc="http://purl.org/dc/elements/1.1/" xmlns:cc="http://creativecommons.org/ns#" xmlns:rdf="http://www.w3.org/1999/02/22-rdf-syntax-ns#" xmlns:svg="http://www.w3.org/2000/svg" xmlns="http://www.w3.org/2000/svg" xmlns:sodipodi="http://sodipodi.sourceforge.net/DTD/sodipodi-0.dtd" xmlns:inkscape="http://www.inkscape.org/namespaces/inkscape" version="1.1" x="0px" y="0px" viewBox="0 0 100 100">
    <g transform="translate(0,-952.36218)">
        <path style="text-indent:0;text-transform:none;direction:ltr;block-progression:tb;baseline-shift:baseline;enable-background:accumulate;" d="M 49.6562,976.42312 4.6562003,993.42316 c -0.7594004,0.2821 -0.7594004,1.5929 0,1.875 L 11,997.70446 l 0,11.93734 c -0.5969,0.3461 -1.0000001,0.9792 -1.0000001,1.7188 0,1.1046 0.8955001,2 2.0000001,2 1.1045,0 2,-0.8954 2,-2 0,-0.7396 -0.4031,-1.3727 -1,-1.7188 l 0,-11.18734 8,3.03114 0,15.875 c 0,1.5437 1.0325,2.8663 2.5625,4.0938 1.53,1.2274 3.6513,2.3912 6.25,3.4062 5.1973,2.03 12.3066,3.5 20.1875,3.5 7.8809,0 14.9902,-1.47 20.1875,-3.5 2.5987,-1.015 4.72,-2.1788 6.25,-3.4062 1.53,-1.2275 2.5625,-2.5501 2.5625,-4.0938 l 0,-15.875 16.3438,-6.18744 c 0.7594,-0.2821 0.7594,-1.5929 0,-1.875 l -45,-17.00004 c -0.2957,-0.1274 -0.657,-0.012 -0.6876,0 z m 0.3438,2 42.1875,15.93754 L 50,1010.2981 7.8125003,994.36066 z m -27,23.81248 26.6562,10.0625 c 0.2197,0.08 0.4679,0.08 0.6876,0 L 77,1002.2356 l 0,15.125 c 0,0.5494 -0.5163,1.4913 -1.8125,2.5312 -1.2962,1.04 -3.2565,2.1321 -5.7187,3.0938 -4.9248,1.9235 -11.8377,3.375 -19.4688,3.375 -7.6311,0 -14.544,-1.4515 -19.4688,-3.375 -2.4623,-0.9617 -4.4225,-2.0538 -5.7187,-3.0938 C 23.5163,1018.8519 23,1017.91 23,1017.3606 z" fill="#000000" fill-opacity="1" stroke="none" marker="none" visibility="visible" display="inline" overflow="visible"/>
    </g>
    <text x="0" y="115" fill="#000000" font-size="5px" font-weight="bold" font-family="'Helvetica Neue', Helvetica, Arial-Unicode, Arial, Sans-serif">Created by Rockicon</text>
    <text x="0" y="120" fill="#000000" font-size="5px" font-weight="bold" font-family="'Helvetica Neue', Helvetica, Arial-Unicode, Arial, Sans-serif">from the Noun Project</text>
</svg>
