<?xml version="1.0" encoding="utf-8"?>
<!-- Generator: Adobe Illustrator 16.0.0, SVG Export Plug-In . SVG Version: 6.00 Build 0)  -->
<!DOCTYPE svg PUBLIC "-//W3C//DTD SVG 1.1//EN" "http://www.w3.org/Graphics/SVG/1.1/DTD/svg11.dtd">
<svg version="1.1" id="Layer_1" xmlns="http://www.w3.org/2000/svg" xmlns:xlink="http://www.w3.org/1999/xlink" x="0px" y="0px"
	 width="90px" height="90px" viewBox="0 0 90 90" enable-background="new 0 0 90 90" xml:space="preserve">
<polyline fill="none" stroke="#582D82" stroke-width="1.8" stroke-linecap="round" stroke-linejoin="round" stroke-miterlimit="10" points="
	8.83,73.232 16.963,52.486 20.468,52.486 "/>
<path fill="none" stroke="#582D82" stroke-width="1.8" stroke-linecap="round" stroke-linejoin="round" stroke-miterlimit="10" d="
	M44.758,72.449c-14.873-10.657-26.832-5.684-26.832-5.684l8.133-20.746c0,0,13.499-1.564,18.699,5.906"/>
<path fill="none" stroke="#582D82" stroke-width="1.8" stroke-linecap="round" stroke-linejoin="round" stroke-miterlimit="10" d="
	M24.662,49.552h-3.044l-8.764,22.354c0,0,9.745-6.104,26.233,0H10.156c-0.732,0-1.326,0.594-1.326,1.326v1.185
	c0,0.731,0.594,1.325,1.326,1.325h31.013c0,1.408,1.606,2.549,3.589,2.549"/>
<polyline fill="none" stroke="#582D82" stroke-width="1.8" stroke-linecap="round" stroke-linejoin="round" stroke-miterlimit="10" points="
	80.685,73.232 72.552,52.486 69.048,52.486 "/>
<path fill="none" stroke="#582D82" stroke-width="1.8" stroke-linecap="round" stroke-linejoin="round" stroke-miterlimit="10" d="
	M44.758,72.449c14.872-10.657,26.831-5.684,26.831-5.684L63.456,46.02c0,0-13.498-1.564-18.698,5.906V72.449z"/>
<path fill="none" stroke="#582D82" stroke-width="1.8" stroke-linecap="round" stroke-linejoin="round" stroke-miterlimit="10" d="
	M64.853,49.552h3.045l8.764,22.354c0,0-9.747-6.104-26.234,0h28.932c0.732,0,1.326,0.594,1.326,1.326v1.185
	c0,0.731-0.594,1.325-1.326,1.325H48.346c0,1.408-1.606,2.549-3.588,2.549"/>
<path fill="none" stroke="#822C90" stroke-width="1.8" stroke-linecap="round" stroke-linejoin="round" stroke-miterlimit="10" d="
	M28.76,50.826c0,0,6.506-0.232,11.699,2.973"/>
<path fill="none" stroke="#822C90" stroke-width="1.8" stroke-linecap="round" stroke-linejoin="round" stroke-miterlimit="10" d="
	M26.616,55.229c0,0,9.268-0.406,13.843,3.533"/>
<path fill="none" stroke="#822C90" stroke-width="1.8" stroke-linecap="round" stroke-linejoin="round" stroke-miterlimit="10" d="
	M24.956,60.094c0,0,7.375-1.109,15.503,3.828"/>
<path fill="none" stroke="#822C90" stroke-width="1.8" stroke-linecap="round" stroke-linejoin="round" stroke-miterlimit="10" d="
	M60.756,50.826c0,0-6.507-0.232-11.7,2.973"/>
<path fill="none" stroke="#822C90" stroke-width="1.8" stroke-linecap="round" stroke-linejoin="round" stroke-miterlimit="10" d="
	M62.898,55.229c0,0-9.268-0.406-13.843,3.533"/>
<path fill="none" stroke="#822C90" stroke-width="1.8" stroke-linecap="round" stroke-linejoin="round" stroke-miterlimit="10" d="
	M64.559,60.094c0,0-7.375-1.109-15.503,3.828"/>
<path fill="none" stroke="#822C90" stroke-width="1.8" stroke-linecap="round" stroke-linejoin="round" stroke-miterlimit="10" d="
	M56.553,20.021c1.654,0,3-1.355,3-3.022c0-0.084-0.005-0.162-0.011-0.24l-0.007-0.076c-0.09-1.192-0.637-1.934-1.119-2.589
	c-0.432-0.586-0.804-1.091-0.804-1.824c0-0.094-0.053-0.18-0.137-0.223c-0.083-0.043-0.184-0.035-0.26,0.019
	c-0.814,0.588-1.313,1.633-1.494,2.35c-0.134,0.534-0.161,1.126-0.167,1.554c-0.529-0.224-0.694-1.124-0.696-1.134
	c-0.014-0.078-0.063-0.144-0.133-0.18c-0.07-0.035-0.152-0.037-0.224-0.002c-0.036,0.018-0.896,0.458-0.945,2.172
	c-0.004,0.057-0.004,0.115-0.004,0.173C53.553,18.667,54.898,20.021,56.553,20.021z"/>
<line fill="none" stroke="#822C90" stroke-width="1.8" stroke-linecap="round" stroke-linejoin="round" stroke-miterlimit="10" x1="56.553" y1="23.083" x2="56.553" y2="20.021"/>
<path fill="none" stroke="#582D82" stroke-width="1.8" stroke-linecap="round" stroke-miterlimit="10" d="M51.391,47.248V26.333
	c0-1.795,1.455-3.251,3.251-3.251h3.822c1.796,0,3.251,1.456,3.251,3.251v19.572"/>
<path fill="none" stroke="#582D82" stroke-width="1.8" stroke-linecap="round" stroke-miterlimit="10" d="M51.391,30.207h2.235
	c0.843,0,1.525-0.683,1.525-1.525v-0.348c0-0.842,0.683-1.525,1.525-1.525c0.842,0,1.524,0.683,1.524,1.525v2.819
	c0,0.842,0.684,1.525,1.525,1.525h1.988"/>
<path fill="none" stroke="#822C90" stroke-width="1.8" stroke-linecap="round" stroke-linejoin="round" stroke-miterlimit="10" d="
	M69.722,31.084c1.654,0,3-1.356,3-3.022c0-0.084-0.006-0.163-0.012-0.24l-0.005-0.076c-0.092-1.192-0.638-1.934-1.12-2.589
	c-0.432-0.586-0.805-1.092-0.805-1.825c0-0.094-0.053-0.18-0.136-0.223c-0.083-0.042-0.185-0.034-0.26,0.02
	c-0.814,0.588-1.313,1.633-1.494,2.35c-0.134,0.534-0.161,1.126-0.167,1.554c-0.529-0.224-0.695-1.124-0.697-1.135
	c-0.014-0.077-0.063-0.144-0.133-0.179c-0.069-0.035-0.152-0.037-0.223-0.002c-0.037,0.017-0.896,0.458-0.945,2.172
	c-0.004,0.057-0.004,0.115-0.004,0.173C66.722,29.729,68.067,31.084,69.722,31.084z"/>
<line fill="none" stroke="#822C90" stroke-width="1.8" stroke-linecap="round" stroke-linejoin="round" stroke-miterlimit="10" x1="69.722" y1="34.146" x2="69.722" y2="31.084"/>
<path fill="none" stroke="#582D82" stroke-width="1.8" stroke-linecap="round" stroke-miterlimit="10" d="M64.559,48.834V37.396
	c0-1.795,1.456-3.251,3.252-3.251h3.822c1.796,0,3.251,1.456,3.251,3.251v20.994"/>
<path fill="none" stroke="#582D82" stroke-width="1.8" stroke-linecap="round" stroke-miterlimit="10" d="M74.884,40.787h-2.235
	c-0.843,0-1.525-0.683-1.525-1.525v-0.348c0-0.842-0.683-1.525-1.525-1.525c-0.842,0-1.525,0.683-1.525,1.525v2.819
	c0,0.843-0.683,1.525-1.524,1.525h-1.989"/>
</svg>
