<?xml version="1.0" encoding="utf-8"?>
<!-- Generator: Adobe Illustrator 16.0.0, SVG Export Plug-In . SVG Version: 6.00 Build 0)  -->
<!DOCTYPE svg PUBLIC "-//W3C//DTD SVG 1.1//EN" "http://www.w3.org/Graphics/SVG/1.1/DTD/svg11.dtd">
<svg version="1.1" id="Layer_1" xmlns="http://www.w3.org/2000/svg" xmlns:xlink="http://www.w3.org/1999/xlink" x="0px" y="0px"
	 width="90px" height="90px" viewBox="0 0 90 90" enable-background="new 0 0 90 90" xml:space="preserve">
<path fill="none" stroke="#582D82" stroke-width="1.8" stroke-linecap="round" stroke-miterlimit="10" d="M44.1,69.104H32.203
	c-2.141,0-3.875-1.734-3.875-3.875V38.516c0-2.141,1.734-3.875,3.875-3.875H44.1c2.14,0,3.875,1.734,3.875,3.875v26.713
	C47.975,67.369,46.239,69.104,44.1,69.104z"/>
<path fill="none" stroke="#582D82" stroke-width="1.8" stroke-linecap="round" stroke-miterlimit="10" d="M18.127,38.496
	c1.09-5.193,4.92-9.378,9.908-10.972"/>
<path fill="none" stroke="#582D82" stroke-width="1.8" stroke-linecap="round" stroke-miterlimit="10" d="M38.151,24.285
	L38.151,24.285c2.89,0,5.232,2.343,5.232,5.233v5.122H32.919v-3.752"/>
<circle fill="none" stroke="#582D82" stroke-width="1.8" stroke-linecap="round" stroke-miterlimit="10" cx="32.919" cy="25.655" r="5.232"/>
<line fill="none" stroke="#582D82" stroke-width="1.8" stroke-linecap="round" stroke-miterlimit="10" x1="43.384" y1="28.485" x2="46.593" y2="28.485"/>
<path fill="none" stroke="#582D82" stroke-width="1.8" stroke-linecap="round" stroke-miterlimit="10" d="M58.705,34.092
	l-10.889-2.713c-0.719-0.179-1.224-0.825-1.224-1.567v-2.654c0-0.741,0.505-1.387,1.224-1.566l10.889-2.713
	c1.094-0.273,2.153,0.555,2.153,1.682v7.848C60.858,33.537,59.799,34.364,58.705,34.092z"/>
<line fill="none" stroke="#822C90" stroke-width="1.8" stroke-linecap="round" stroke-linejoin="round" stroke-miterlimit="10" x1="65.844" y1="28.485" x2="72.063" y2="28.485"/>
<line fill="none" stroke="#822C90" stroke-width="1.8" stroke-linecap="round" stroke-linejoin="round" stroke-miterlimit="10" x1="65.917" y1="23.373" x2="70.881" y2="22.28"/>
<line fill="none" stroke="#822C90" stroke-width="1.8" stroke-linecap="round" stroke-linejoin="round" stroke-miterlimit="10" x1="65.917" y1="33.598" x2="70.881" y2="34.691"/>
</svg>
