<svg xmlns="http://www.w3.org/2000/svg" xmlns:xlink="http://www.w3.org/1999/xlink" version="1.1" x="0px" y="0px" viewBox="0 0 64 64" style="enable-background:new 0 0 64 64;" xml:space="preserve">
    <path d="M3,23h6.78l-1.754,8.768L5.035,42.737c-0.001,0.004,0,0.009-0.001,0.013c-0.001,0.003-0.003,0.005-0.004,0.007l-3,12  c-0.006,0.026-0.004,0.052-0.008,0.078c-0.007,0.04-0.01,0.079-0.012,0.12c-0.003,0.069,0.002,0.135,0.013,0.203  c0.004,0.024-0.001,0.048,0.005,0.072c0.003,0.014,0.012,0.024,0.016,0.037c0.02,0.073,0.052,0.141,0.088,0.207  c0.014,0.026,0.023,0.054,0.04,0.079c0.056,0.084,0.123,0.161,0.204,0.227c0.001,0.001,0.002,0.001,0.003,0.001  c0.087,0.069,0.186,0.124,0.292,0.162C2.776,55.981,2.888,56,3,56h11v5c0,0.552,0.448,1,1,1h34c0.552,0,1-0.448,1-1V49h2  c0.552,0,1-0.448,1-1v-3.586l1.707-1.707C54.895,42.52,55,42.265,55,42v-3c0-0.376-0.216-0.691-0.522-0.862l1.58-3.556  c0.928-1.171,1.548-2.569,1.803-4.056l0.053-0.119c0.085-0.19,0.094-0.399,0.045-0.598C57.986,29.519,58,29.256,58,29  c0-4.962-4.038-9-9-9s-9,4.038-9,9c0,0.235,0.011,0.476,0.035,0.737c-0.06,0.22-0.043,0.456,0.051,0.669l0.053,0.119  c0.254,1.487,0.875,2.885,1.803,4.056l1.58,3.556C43.216,38.309,43,38.624,43,39v3c0,0.265,0.105,0.52,0.293,0.707L45,44.414V48  c0,0.552,0.448,1,1,1h2v11H16v-4h11c0.112,0,0.224-0.019,0.331-0.057c0.107-0.037,0.205-0.092,0.292-0.162  c0.001-0.001,0.002-0.001,0.003-0.001c0.081-0.065,0.148-0.143,0.204-0.227c0.016-0.024,0.025-0.053,0.04-0.079  c0.036-0.067,0.068-0.135,0.088-0.207c0.004-0.013,0.013-0.024,0.016-0.037c0.006-0.024,0.001-0.048,0.005-0.072  c0.011-0.067,0.016-0.134,0.013-0.203c-0.002-0.041-0.005-0.08-0.012-0.12c-0.004-0.026-0.001-0.052-0.008-0.078l-3-12  c-0.001-0.003-0.003-0.005-0.004-0.007c-0.001-0.004,0-0.009-0.001-0.013l-2.992-10.969L20.22,23H27c0.435,0,0.82-0.281,0.952-0.695  c0.133-0.414-0.017-0.866-0.371-1.119l-5.821-4.158l1.794-1.196l-1.109-1.664L19.697,16h-0.933l-1.785-6.545  C18.18,8.764,19,7.482,19,6c0-2.206-1.794-4-4-4s-4,1.794-4,4c0,1.482,0.82,2.764,2.021,3.455L11.236,16H9.303l-2.748-1.832  l-1.109,1.664l1.886,1.257L2.36,21.232c-0.323,0.27-0.443,0.712-0.3,1.108C2.203,22.736,2.579,23,3,23z M53,41.586L51.586,43h-5.172  L45,41.586V40h8V41.586z M42.069,29.969c-0.001-0.031-0.003-0.062-0.007-0.093C42.026,29.588,42,29.297,42,29c0-3.86,3.14-7,7-7  s7,3.14,7,7c0,0.297-0.026,0.588-0.062,0.876c-0.004,0.031-0.006,0.062-0.007,0.093c-0.01,0.038-0.019,0.076-0.025,0.114  c-0.191,1.233-0.705,2.388-1.484,3.341c-0.056,0.069-0.103,0.145-0.139,0.227L52.35,38H50v-4.586l2.707-2.707l-1.414-1.414  L49,31.586l-2.293-2.293l-1.414,1.414L48,33.414V38h-2.35l-1.933-4.349c-0.036-0.082-0.083-0.158-0.139-0.227  c-0.779-0.953-1.292-2.108-1.484-3.341C42.087,30.044,42.079,30.006,42.069,29.969z M47,45h4v2h-4V45z M15,47.798L9.303,44h11.395  L15,47.798z M6.626,44.619l6.385,4.257l-8.514,4.257L6.626,44.619z M15,50.118L22.764,54H7.236L15,50.118z M16.989,48.876  l6.385-4.257l2.128,8.514L16.989,48.876z M9.303,42L15,38.202L20.697,42H9.303z M10.536,29.418L11.56,24.3l2.047,2.559  L10.536,29.418z M11.762,31L15,28.302L18.238,31H11.762z M18.238,33L15,35.698L11.762,33H18.238z M16.393,26.859L18.44,24.3  l1.023,5.118L16.393,26.859z M15,25.399L13.081,23h3.839L15,25.399z M9.555,33.765l3.236,2.697l0.539,0.449l-5.664,3.776  L9.555,33.765z M16.669,36.911l0.539-0.449l3.236-2.697l1.888,6.922L16.669,36.911z M15,4c1.103,0,2,0.897,2,2  c0,0.915-0.621,1.68-1.461,1.917c-0.006,0.001-0.011,0-0.017,0.001c-0.085,0.023-0.159,0.039-0.232,0.053C15.195,7.985,15.1,8,15,8  s-0.195-0.015-0.291-0.029c-0.073-0.014-0.147-0.029-0.232-0.053c-0.006-0.002-0.011,0-0.017-0.001C13.621,7.68,13,6.915,13,6  C13,4.897,13.897,4,15,4z M14.946,10c0.016,0,0.033,0,0.049,0c0.002,0,0.003,0,0.005,0s0.003,0,0.005,0c0.016,0,0.033,0,0.049,0  l1.637,6h-3.382L14.946,10z M9.362,18H12h6h1.68l4.2,3H19h-8H5.762L9.362,18z"/>
    <rect x="48" y="15" width="2" height="3"/>
    <rect x="58.586" y="18" transform="matrix(0.7071 -0.7071 0.7071 0.7071 4.1386 47.9914)" width="2.828" height="2"/>
    <rect x="37" y="17.586" transform="matrix(0.7071 -0.7071 0.7071 0.7071 -2.3051 32.435)" width="2" height="2.828"/>
    <path d="M28,12h8c0.167,0,0.326-0.029,0.487-0.049C36.656,11.975,36.824,12,37,12h8c2.206,0,4-1.794,4-4  c0-2.094-1.617-3.817-3.668-3.986C44.458,2.772,42.833,2,41,2c-1.835,0-3.462,0.774-4.334,2.018  c-0.059,0.006-0.116,0.016-0.174,0.024c-0.054-0.007-0.105-0.024-0.16-0.029C35.458,2.772,33.833,2,32,2s-3.458,0.772-4.332,2.014  C25.617,4.183,24,5.906,24,8C24,10.206,25.794,12,28,12z M38.528,4.903C39.08,4.353,40.006,4,41,4c1.29,0,2.465,0.593,2.857,1.442  c0.174,0.379,0.567,0.607,0.981,0.578c0.007,0,0.141-0.016,0.18-0.021C46.113,6.01,47,6.903,47,8c0,1.103-0.897,2-2,2h-5.535  c0.199-0.344,0.34-0.721,0.429-1.118c0.012-0.053,0.022-0.107,0.032-0.161C39.97,8.486,40,8.247,40,8  c0-0.289-0.037-0.568-0.095-0.839c-0.02-0.093-0.054-0.18-0.08-0.271c-0.05-0.173-0.106-0.343-0.178-0.506  c-0.045-0.101-0.097-0.196-0.15-0.293c-0.078-0.143-0.163-0.28-0.258-0.412c-0.064-0.089-0.129-0.176-0.2-0.26  c-0.115-0.135-0.24-0.257-0.371-0.376C38.618,5,38.58,4.945,38.528,4.903z M28,6.003c0.002,0,0.004,0,0.006,0  c0.02,0.003,0.134,0.016,0.155,0.017c0.41,0.031,0.807-0.199,0.981-0.578C29.535,4.593,30.71,4,32,4s2.465,0.593,2.857,1.442  c0.175,0.379,0.565,0.607,0.981,0.578c0.007,0,0.141-0.016,0.18-0.021c0.106,0.001,0.208,0.017,0.309,0.034  c0.002,0,0.004,0.002,0.006,0.002c0.115,0.019,0.226,0.05,0.333,0.087c0.007,0.003,0.015,0.004,0.023,0.007  c0.091,0.033,0.178,0.076,0.262,0.121c0.027,0.015,0.055,0.029,0.082,0.045c0.067,0.04,0.13,0.086,0.192,0.134  c0.039,0.03,0.077,0.061,0.114,0.095c0.048,0.043,0.094,0.089,0.137,0.136c0.042,0.046,0.081,0.095,0.119,0.145  c0.033,0.044,0.066,0.089,0.096,0.135c0.038,0.06,0.07,0.124,0.102,0.189c0.022,0.044,0.045,0.088,0.064,0.134  c0.03,0.076,0.052,0.156,0.073,0.236c0.01,0.04,0.025,0.078,0.033,0.119C37.986,7.743,38,7.87,38,8c0,0.131-0.015,0.258-0.039,0.382  c-0.008,0.041-0.022,0.08-0.033,0.12c-0.021,0.08-0.043,0.16-0.073,0.236c-0.019,0.046-0.042,0.09-0.064,0.135  c-0.031,0.064-0.064,0.128-0.102,0.188c-0.03,0.047-0.063,0.092-0.097,0.137c-0.037,0.049-0.076,0.097-0.118,0.143  c-0.044,0.048-0.09,0.094-0.139,0.138c-0.036,0.032-0.074,0.063-0.112,0.092c-0.062,0.048-0.126,0.094-0.194,0.135  c-0.025,0.015-0.052,0.028-0.078,0.042c-0.086,0.046-0.173,0.089-0.266,0.123c-0.003,0.001-0.006,0.002-0.009,0.003  c-0.11,0.039-0.224,0.07-0.342,0.089c-0.003,0.001-0.006,0.003-0.009,0.003C36.218,9.985,36.111,10,36,10h-8c-1.103,0-2-0.897-2-2  C26,6.899,26.894,6.003,28,6.003z"/>
    <text x="0" y="79" fill="#000000" font-size="5px" font-weight="bold" font-family="'Helvetica Neue', Helvetica, Arial-Unicode, Arial, Sans-serif">Created by Becris</text>
    <text x="0" y="84" fill="#000000" font-size="5px" font-weight="bold" font-family="'Helvetica Neue', Helvetica, Arial-Unicode, Arial, Sans-serif">from the Noun Project</text>
</svg>
