<?xml version="1.0" encoding="utf-8"?>
<!-- Generator: Adobe Illustrator 16.0.0, SVG Export Plug-In . SVG Version: 6.00 Build 0)  -->
<!DOCTYPE svg PUBLIC "-//W3C//DTD SVG 1.1//EN" "http://www.w3.org/Graphics/SVG/1.1/DTD/svg11.dtd">
<svg version="1.1" id="Layer_1" xmlns="http://www.w3.org/2000/svg" xmlns:xlink="http://www.w3.org/1999/xlink" x="0px" y="0px"
	 width="90px" height="90px" viewBox="0 0 90 90" enable-background="new 0 0 90 90" xml:space="preserve">
<path fill="#822B8F" d="M40.487,18.317c-0.889,0-1.61-0.722-1.61-1.61c0-0.888,0.722-1.61,1.61-1.61c0.888,0,1.609,0.722,1.609,1.61
	C42.097,17.595,41.375,18.317,40.487,18.317"/>
<path fill="#822B8F" d="M45.816,23.247c0.006-0.055,0.011-0.109,0.011-0.166v-8.369c0-0.791-0.642-1.431-1.432-1.431
	s-1.433,0.64-1.433,1.431v5.89l2.148,1.24C45.621,22.136,45.879,22.697,45.816,23.247"/>
<path fill="#822B8F" d="M39.863,22.117l3.816,2.204c0.004,0.002,0.008,0.003,0.011,0.005c-0.434-0.246-0.727-0.711-0.727-1.245
	v-2.479l-1.669-0.964c-0.685-0.395-1.561-0.161-1.955,0.524C38.944,20.846,39.178,21.722,39.863,22.117"/>
<path fill="#582D82" d="M43.69,24.326c0.052,0.029,0.104,0.056,0.158,0.078c0.006,0.002,0.013,0.004,0.019,0.006
	c0.046,0.019,0.094,0.035,0.141,0.048c0.018,0.005,0.034,0.009,0.052,0.013c0.038,0.009,0.076,0.017,0.115,0.022
	c0.019,0.003,0.036,0.007,0.056,0.009c0.047,0.006,0.094,0.009,0.141,0.009c0.008,0.001,0.017,0.002,0.024,0.002
	c0.004,0,0.008-0.001,0.012-0.001c0.053,0,0.104-0.004,0.156-0.01c0.016-0.002,0.031-0.005,0.046-0.007
	c0.043-0.007,0.085-0.015,0.126-0.025c0.015-0.003,0.029-0.007,0.044-0.011c0.046-0.013,0.092-0.028,0.137-0.046
	c0.008-0.003,0.016-0.005,0.023-0.008c0.052-0.021,0.103-0.046,0.151-0.073c0.013-0.007,0.024-0.015,0.036-0.022
	c0.035-0.021,0.069-0.044,0.103-0.067c0.017-0.012,0.033-0.024,0.049-0.037c0.032-0.025,0.063-0.052,0.094-0.081
	c0.011-0.009,0.022-0.019,0.032-0.029c0.039-0.039,0.075-0.08,0.109-0.123c0.01-0.012,0.019-0.025,0.028-0.038
	c0.028-0.038,0.055-0.077,0.08-0.119c0.005-0.009,0.011-0.018,0.017-0.027c0.045-0.079,0.081-0.161,0.109-0.244
	c0.003-0.007,0.006-0.013,0.008-0.02c0.026-0.081,0.044-0.164,0.056-0.247c0.002-0.011,0.004-0.021,0.005-0.031
	c0.063-0.55-0.195-1.111-0.705-1.405l-2.148-1.24v2.479C42.963,23.615,43.257,24.08,43.69,24.326"/>
<path fill="#822B8F" d="M23.283,28.681c-0.628,0.628-1.649,0.627-2.277,0c-0.628-0.628-0.628-1.649,0-2.277s1.649-0.628,2.277,0
	C23.91,27.032,23.911,28.053,23.283,28.681"/>
<path fill="#822B8F" d="M30.537,28.398c-0.033-0.043-0.069-0.084-0.109-0.124l-5.918-5.918c-0.56-0.559-1.466-0.559-2.024,0
	s-0.559,1.465,0,2.023l4.165,4.166l2.395-0.642C29.614,27.751,30.193,27.964,30.537,28.398"/>
<path fill="#822B8F" d="M25.529,31.809l4.257-1.141c0.004-0.001,0.008-0.002,0.012-0.003c-0.48,0.132-1.017,0.011-1.395-0.367
	l-1.753-1.753l-1.862,0.499c-0.763,0.205-1.217,0.99-1.012,1.753C23.98,31.56,24.766,32.014,25.529,31.809"/>
<path fill="#582D82" d="M29.798,30.665c0.057-0.016,0.113-0.035,0.167-0.057c0.006-0.003,0.011-0.005,0.017-0.008
	c0.046-0.02,0.091-0.042,0.134-0.066c0.016-0.009,0.03-0.018,0.046-0.027c0.033-0.021,0.065-0.043,0.097-0.066
	c0.016-0.011,0.031-0.021,0.046-0.033c0.037-0.03,0.072-0.061,0.105-0.094c0.006-0.005,0.013-0.01,0.019-0.016
	c0.003-0.003,0.005-0.006,0.008-0.008c0.037-0.038,0.071-0.077,0.104-0.118c0.01-0.012,0.019-0.025,0.027-0.038
	c0.025-0.034,0.05-0.07,0.071-0.106c0.008-0.013,0.016-0.026,0.023-0.039c0.023-0.042,0.045-0.085,0.064-0.129
	c0.004-0.007,0.009-0.015,0.011-0.023c0.021-0.051,0.041-0.104,0.056-0.158c0.004-0.014,0.006-0.028,0.01-0.041
	c0.01-0.04,0.019-0.08,0.025-0.12c0.003-0.02,0.006-0.04,0.008-0.06c0.005-0.041,0.008-0.083,0.01-0.124
	c0-0.015,0.002-0.029,0.002-0.044c0-0.054-0.004-0.109-0.01-0.164c-0.002-0.016-0.005-0.031-0.007-0.046
	c-0.007-0.047-0.016-0.094-0.027-0.141c-0.003-0.01-0.005-0.021-0.008-0.031c-0.024-0.088-0.056-0.172-0.095-0.251
	c-0.003-0.006-0.006-0.013-0.009-0.018c-0.039-0.077-0.085-0.148-0.135-0.215c-0.007-0.009-0.013-0.017-0.02-0.026
	c-0.343-0.433-0.923-0.647-1.492-0.494l-2.395,0.641l1.753,1.753C28.781,30.676,29.318,30.797,29.798,30.665"/>
<path fill="#822B8F" d="M18.446,48.175c0,0.888-0.723,1.61-1.61,1.61s-1.609-0.723-1.609-1.61s0.722-1.61,1.609-1.61
	S18.446,47.287,18.446,48.175"/>
<path fill="#822B8F" d="M23.376,42.845c-0.054-0.006-0.109-0.01-0.165-0.01h-8.37c-0.79,0-1.431,0.64-1.431,1.431
	c0,0.79,0.641,1.431,1.431,1.431h5.892l1.239-2.147C22.266,43.04,22.826,42.781,23.376,42.845"/>
<path fill="#822B8F" d="M22.246,48.799l2.204-3.817c0.002-0.003,0.003-0.007,0.005-0.011c-0.245,0.434-0.71,0.727-1.244,0.727
	h-2.479l-0.965,1.67c-0.395,0.684-0.161,1.559,0.524,1.955C20.975,49.717,21.852,49.483,22.246,48.799"/>
<path fill="#582D82" d="M24.455,44.971c0.03-0.052,0.056-0.104,0.078-0.158c0.003-0.006,0.005-0.012,0.007-0.018
	c0.019-0.047,0.034-0.094,0.048-0.141c0.005-0.017,0.009-0.035,0.014-0.052c0.009-0.038,0.016-0.076,0.021-0.114
	c0.003-0.019,0.007-0.038,0.009-0.057c0.006-0.046,0.008-0.093,0.009-0.14c0-0.008,0.001-0.016,0.001-0.025c0-0.003,0-0.007,0-0.012
	c-0.001-0.052-0.004-0.104-0.01-0.156c-0.002-0.015-0.005-0.03-0.008-0.046c-0.006-0.042-0.014-0.084-0.024-0.125
	c-0.004-0.015-0.007-0.03-0.011-0.044c-0.014-0.047-0.028-0.092-0.046-0.137l-0.009-0.024c-0.021-0.051-0.046-0.102-0.073-0.151
	c-0.007-0.012-0.015-0.024-0.021-0.036c-0.021-0.035-0.043-0.069-0.067-0.103c-0.012-0.016-0.023-0.032-0.036-0.048
	c-0.025-0.033-0.053-0.064-0.081-0.094c-0.01-0.011-0.02-0.022-0.028-0.033c-0.039-0.038-0.082-0.075-0.125-0.109
	c-0.012-0.01-0.024-0.019-0.037-0.028c-0.037-0.028-0.077-0.055-0.118-0.08c-0.011-0.006-0.019-0.011-0.027-0.017
	c-0.079-0.045-0.161-0.081-0.244-0.11c-0.007-0.002-0.014-0.005-0.02-0.007c-0.082-0.026-0.165-0.044-0.248-0.056
	c-0.01-0.001-0.021-0.004-0.031-0.004c-0.55-0.064-1.11,0.195-1.404,0.705l-1.239,2.147h2.479
	C23.745,45.698,24.21,45.405,24.455,44.971"/>
<path fill="#822B8F" d="M28.811,65.379c0.628,0.627,0.628,1.648,0,2.277c-0.628,0.628-1.649,0.628-2.277,0
	c-0.628-0.629-0.628-1.65,0-2.277C27.161,64.751,28.183,64.751,28.811,65.379"/>
<path fill="#822B8F" d="M28.528,58.124c-0.043,0.034-0.085,0.069-0.125,0.11l-5.918,5.918c-0.56,0.559-0.56,1.465,0,2.023
	c0.559,0.559,1.465,0.559,2.024,0l4.164-4.164l-0.641-2.396C27.881,59.047,28.094,58.469,28.528,58.124"/>
<path fill="#822B8F" d="M31.938,63.133l-1.141-4.258c-0.001-0.004-0.003-0.007-0.005-0.011c0.134,0.479,0.013,1.017-0.365,1.394
	l-1.753,1.752l0.499,1.863c0.203,0.764,0.989,1.217,1.753,1.012S32.144,63.896,31.938,63.133"/>
<path fill="#582D82" d="M30.794,58.864c-0.017-0.058-0.034-0.112-0.057-0.167c-0.003-0.006-0.006-0.012-0.008-0.018
	c-0.02-0.045-0.042-0.09-0.066-0.133c-0.009-0.016-0.018-0.031-0.027-0.047c-0.021-0.033-0.042-0.064-0.064-0.097
	c-0.012-0.015-0.022-0.03-0.034-0.045c-0.029-0.037-0.061-0.073-0.094-0.106c-0.005-0.006-0.01-0.013-0.016-0.018
	c-0.003-0.003-0.006-0.006-0.009-0.009c-0.037-0.036-0.077-0.07-0.117-0.103c-0.013-0.01-0.026-0.019-0.038-0.029
	c-0.034-0.024-0.07-0.049-0.106-0.07c-0.013-0.008-0.025-0.016-0.038-0.023c-0.042-0.022-0.086-0.045-0.13-0.063
	c-0.008-0.004-0.015-0.009-0.022-0.011c-0.052-0.021-0.104-0.041-0.158-0.056c-0.014-0.004-0.027-0.007-0.042-0.01
	c-0.039-0.01-0.079-0.019-0.12-0.024c-0.02-0.004-0.04-0.008-0.06-0.01c-0.041-0.005-0.082-0.008-0.124-0.009
	c-0.014-0.001-0.028-0.002-0.043-0.002c-0.055,0-0.109,0.003-0.165,0.009c-0.016,0.002-0.03,0.005-0.046,0.008
	c-0.047,0.006-0.094,0.016-0.141,0.027c-0.011,0.002-0.021,0.005-0.031,0.007c-0.088,0.024-0.171,0.058-0.25,0.095
	c-0.007,0.004-0.014,0.006-0.02,0.01c-0.077,0.039-0.147,0.084-0.214,0.135c-0.009,0.007-0.018,0.012-0.026,0.02
	c-0.434,0.344-0.646,0.922-0.494,1.491l0.642,2.394l1.753-1.752C30.806,59.881,30.927,59.344,30.794,58.864"/>
<path fill="#822B8F" d="M65.508,59.852c0.628-0.629,1.649-0.629,2.277,0c0.628,0.627,0.628,1.648,0,2.276s-1.649,0.628-2.277,0
	C64.881,61.5,64.88,60.479,65.508,59.852"/>
<path fill="#822B8F" d="M58.254,60.134c0.033,0.042,0.069,0.084,0.109,0.124l5.918,5.918c0.559,0.559,1.466,0.559,2.024,0
	s0.559-1.465,0-2.023l-4.166-4.166l-2.395,0.643C59.177,60.781,58.598,60.568,58.254,60.134"/>
<path fill="#822B8F" d="M63.262,56.723l-4.257,1.141c-0.004,0.002-0.008,0.003-0.013,0.004c0.481-0.132,1.018-0.012,1.396,0.367
	l1.752,1.753l1.863-0.499c0.763-0.205,1.217-0.99,1.012-1.753C64.811,56.973,64.025,56.518,63.262,56.723"/>
<path fill="#582D82" d="M58.993,57.867c-0.057,0.016-0.113,0.035-0.167,0.057c-0.006,0.004-0.011,0.006-0.017,0.008
	c-0.046,0.021-0.091,0.043-0.134,0.066c-0.016,0.01-0.03,0.018-0.046,0.027c-0.032,0.021-0.065,0.043-0.097,0.066
	c-0.016,0.01-0.031,0.021-0.046,0.032c-0.037,0.03-0.072,0.06-0.106,0.093c-0.006,0.006-0.012,0.012-0.018,0.018
	c-0.003,0.003-0.005,0.006-0.008,0.008c-0.037,0.038-0.071,0.077-0.104,0.118c-0.01,0.012-0.019,0.024-0.027,0.038
	c-0.025,0.033-0.05,0.07-0.072,0.105c-0.008,0.014-0.014,0.026-0.022,0.039c-0.023,0.042-0.045,0.086-0.064,0.129
	c-0.004,0.008-0.008,0.016-0.011,0.022c-0.021,0.052-0.04,0.104-0.056,0.159c-0.004,0.014-0.006,0.027-0.01,0.041
	c-0.01,0.039-0.019,0.08-0.025,0.119c-0.003,0.021-0.006,0.041-0.008,0.061c-0.006,0.041-0.008,0.083-0.01,0.124
	c0,0.015-0.002,0.028-0.002,0.044c0,0.055,0.003,0.109,0.01,0.164c0.002,0.016,0.004,0.031,0.007,0.046
	c0.007,0.047,0.016,0.095,0.027,0.142c0.003,0.01,0.005,0.021,0.008,0.03c0.024,0.089,0.056,0.173,0.095,0.25l0.009,0.019
	c0.04,0.078,0.085,0.148,0.135,0.216c0.007,0.009,0.013,0.017,0.02,0.026c0.344,0.433,0.923,0.646,1.491,0.494l2.395-0.642
	l-1.751-1.753C60.01,57.856,59.474,57.735,58.993,57.867"/>
<path fill="#822B8F" d="M70.345,40.357c0-0.888,0.723-1.61,1.61-1.61s1.609,0.722,1.609,1.61c0,0.888-0.722,1.61-1.609,1.61
	S70.345,41.246,70.345,40.357"/>
<path fill="#822B8F" d="M65.415,45.687c0.054,0.006,0.108,0.01,0.165,0.01h8.37c0.79,0,1.431-0.641,1.431-1.431
	s-0.641-1.431-1.431-1.431h-5.892l-1.239,2.146C66.525,45.492,65.965,45.75,65.415,45.687"/>
<path fill="#822B8F" d="M66.545,39.734l-2.204,3.816c-0.002,0.004-0.003,0.008-0.005,0.011c0.245-0.433,0.71-0.726,1.244-0.726
	h2.479l0.965-1.67c0.395-0.684,0.161-1.559-0.524-1.955C67.816,38.815,66.939,39.049,66.545,39.734"/>
<path fill="#582D82" d="M64.336,43.561c-0.03,0.052-0.056,0.105-0.078,0.159c-0.003,0.006-0.005,0.011-0.007,0.017
	c-0.02,0.047-0.034,0.094-0.048,0.142c-0.005,0.016-0.01,0.034-0.014,0.051c-0.009,0.038-0.016,0.076-0.021,0.115
	c-0.003,0.018-0.007,0.037-0.009,0.056c-0.007,0.047-0.01,0.094-0.01,0.141c0,0.008-0.001,0.016-0.001,0.024
	c0,0.004,0,0.008,0,0.012c0.001,0.053,0.004,0.104,0.011,0.156c0.002,0.016,0.005,0.031,0.008,0.046
	c0.006,0.042,0.014,0.084,0.023,0.126c0.003,0.015,0.008,0.029,0.012,0.043c0.014,0.047,0.028,0.093,0.046,0.138l0.009,0.023
	c0.021,0.052,0.046,0.102,0.072,0.151c0.008,0.013,0.016,0.024,0.022,0.037c0.021,0.035,0.043,0.069,0.067,0.103
	c0.012,0.016,0.022,0.032,0.036,0.047c0.025,0.033,0.053,0.064,0.081,0.095c0.01,0.01,0.019,0.022,0.028,0.032
	c0.039,0.039,0.081,0.075,0.124,0.109c0.013,0.01,0.025,0.019,0.037,0.029c0.038,0.028,0.078,0.054,0.119,0.079
	c0.01,0.006,0.019,0.011,0.027,0.017c0.079,0.045,0.161,0.081,0.244,0.11c0.007,0.002,0.014,0.005,0.02,0.007
	c0.082,0.027,0.164,0.045,0.248,0.056c0.01,0.002,0.021,0.004,0.031,0.005c0.55,0.063,1.109-0.195,1.403-0.706l1.24-2.146H65.58
	C65.046,42.835,64.581,43.128,64.336,43.561"/>
<path fill="#822B8F" d="M59.98,23.153c-0.628-0.628-0.628-1.649,0-2.277s1.649-0.628,2.277,0s0.628,1.65,0,2.277
	C61.63,23.781,60.608,23.781,59.98,23.153"/>
<path fill="#822B8F" d="M60.263,30.408c0.043-0.034,0.085-0.07,0.125-0.11l5.918-5.918c0.559-0.559,0.559-1.465,0-2.024
	c-0.559-0.559-1.466-0.559-2.024,0l-4.165,4.165l0.642,2.395C60.91,29.485,60.697,30.064,60.263,30.408"/>
<path fill="#822B8F" d="M56.853,25.399l1.141,4.257c0.001,0.004,0.003,0.008,0.004,0.012c-0.133-0.481-0.012-1.017,0.366-1.394
	l1.753-1.753l-0.499-1.862c-0.204-0.764-0.99-1.218-1.753-1.012C57.101,23.852,56.647,24.637,56.853,25.399"/>
<path fill="#582D82" d="M57.997,29.668c0.016,0.058,0.034,0.113,0.057,0.167c0.002,0.006,0.005,0.012,0.007,0.018
	c0.021,0.045,0.043,0.09,0.067,0.133c0.009,0.015,0.017,0.031,0.027,0.045c0.021,0.034,0.042,0.066,0.064,0.097
	c0.012,0.016,0.022,0.031,0.034,0.046c0.029,0.037,0.061,0.073,0.093,0.106c0.005,0.006,0.011,0.013,0.017,0.018
	c0.003,0.003,0.006,0.006,0.009,0.009c0.037,0.036,0.076,0.07,0.117,0.103c0.013,0.009,0.025,0.018,0.038,0.028
	c0.033,0.024,0.069,0.049,0.106,0.071c0.013,0.008,0.025,0.015,0.038,0.023c0.042,0.023,0.085,0.045,0.13,0.064
	c0.007,0.004,0.015,0.008,0.022,0.011c0.052,0.021,0.104,0.04,0.158,0.055c0.014,0.004,0.027,0.007,0.042,0.01
	c0.039,0.01,0.079,0.019,0.12,0.025c0.02,0.004,0.039,0.007,0.06,0.009c0.041,0.005,0.082,0.008,0.124,0.009
	c0.014,0.001,0.028,0.002,0.043,0.002c0.055,0,0.109-0.003,0.165-0.009c0.015-0.002,0.03-0.005,0.046-0.007
	c0.047-0.007,0.094-0.016,0.141-0.028c0.011-0.003,0.021-0.005,0.031-0.007c0.088-0.024,0.171-0.057,0.25-0.095
	c0.007-0.003,0.013-0.006,0.02-0.009c0.076-0.039,0.147-0.084,0.214-0.135c0.009-0.007,0.018-0.012,0.025-0.019
	c0.435-0.344,0.647-0.923,0.495-1.492l-0.642-2.394l-1.753,1.752C57.985,28.652,57.864,29.188,57.997,29.668"/>
<path fill="#582D82" d="M36.099,45.459c-0.614,0-1.113-0.5-1.113-1.114c0-5.208,4.236-9.445,9.443-9.445
	c0.614,0,1.114,0.5,1.114,1.115c0,0.625-0.489,1.114-1.114,1.114c-3.979,0-7.216,3.237-7.216,7.216
	C37.213,44.959,36.713,45.459,36.099,45.459"/>
<path fill="#582D82" d="M36.099,45.459c-0.614,0-1.113-0.5-1.113-1.114c0-5.208,4.236-9.445,9.443-9.445
	c0.614,0,1.114,0.5,1.114,1.115c0,0.625-0.489,1.114-1.114,1.114c-3.979,0-7.216,3.237-7.216,7.216
	C37.213,44.959,36.713,45.459,36.099,45.459"/>
<path fill="#582D82" d="M36.099,45.459c-0.614,0-1.113-0.5-1.113-1.114c0-5.208,4.236-9.445,9.443-9.445
	c0.614,0,1.114,0.5,1.114,1.115c0,0.625-0.489,1.114-1.114,1.114c-3.979,0-7.216,3.237-7.216,7.216
	C37.213,44.959,36.713,45.459,36.099,45.459"/>
<path fill="#582D82" d="M36.099,45.459c-0.614,0-1.113-0.5-1.113-1.114c0-5.208,4.236-9.445,9.443-9.445
	c0.614,0,1.114,0.5,1.114,1.115c0,0.625-0.489,1.114-1.114,1.114c-3.979,0-7.216,3.237-7.216,7.216
	C37.213,44.959,36.713,45.459,36.099,45.459"/>
<path fill="#582D82" d="M36.099,45.459c-0.614,0-1.113-0.5-1.113-1.114c0-5.208,4.236-9.445,9.443-9.445
	c0.614,0,1.114,0.5,1.114,1.115c0,0.625-0.489,1.114-1.114,1.114c-3.979,0-7.216,3.237-7.216,7.216
	C37.213,44.959,36.713,45.459,36.099,45.459"/>
<path fill="#582D82" d="M36.099,45.459c-0.614,0-1.113-0.5-1.113-1.114c0-5.208,4.236-9.445,9.443-9.445
	c0.614,0,1.114,0.5,1.114,1.115c0,0.625-0.489,1.114-1.114,1.114c-3.979,0-7.216,3.237-7.216,7.216
	C37.213,44.959,36.713,45.459,36.099,45.459"/>
<path fill="#822B8F" d="M49.194,67.664h-9.542c-0.868,0-1.565,0.696-1.565,1.564v1.623c0,1.303,0.949,2.366,2.194,2.561l0.388,1.474
	c0.218,0.799,0.938,1.36,1.771,1.36h3.965c0.834,0,1.555-0.562,1.771-1.36l0.401-1.474c1.233-0.184,2.181-1.258,2.181-2.549V69.24
	C50.758,68.371,50.063,67.676,49.194,67.664"/>
<path fill="#582D82" d="M44.442,30.621c4.246,0,8.038,1.938,10.543,4.977c1.95,2.365,3.121,5.397,3.121,8.701
	c0,3.691-1.463,7.039-3.839,9.496c-1.806,1.873-2.972,4.262-3.359,6.811c-0.172,1.097-1.121,1.908-2.24,1.908h-8.489
	c-1.109,0-2.068-0.801-2.229-1.897c-0.4-2.548-1.577-4.972-3.383-6.833c-1.396-1.452-2.478-3.216-3.126-5.176
	c-0.436-1.311-0.677-2.708-0.689-4.159c-0.081-7.611,5.976-13.769,13.586-13.827C44.373,30.621,44.407,30.621,44.442,30.621
	 M44.442,28.121h-0.123c-4.354,0.034-8.418,1.75-11.446,4.834c-3.026,3.081-4.667,7.172-4.621,11.519
	c0.016,1.676,0.29,3.333,0.815,4.918c0.754,2.274,2.032,4.393,3.699,6.125c1.428,1.472,2.389,3.418,2.714,5.486
	c0.331,2.274,2.353,4.01,4.698,4.01h8.489c2.364,0,4.345-1.691,4.71-4.021c0.316-2.079,1.246-3.965,2.689-5.462
	c2.926-3.025,4.539-7.015,4.539-11.231c0-3.749-1.312-7.404-3.691-10.291C53.83,30.267,49.284,28.121,44.442,28.121"/>
<path fill="#582D82" d="M36.099,45.459c-0.614,0-1.113-0.5-1.113-1.114c0-5.208,4.236-9.445,9.443-9.445
	c0.614,0,1.114,0.5,1.114,1.115c0,0.625-0.489,1.114-1.114,1.114c-3.979,0-7.216,3.237-7.216,7.216
	C37.213,44.959,36.713,45.459,36.099,45.459"/>
</svg>
