<?xml version="1.0" encoding="utf-8"?>
<!-- Generator: Adobe Illustrator 16.0.0, SVG Export Plug-In . SVG Version: 6.00 Build 0)  -->
<!DOCTYPE svg PUBLIC "-//W3C//DTD SVG 1.1//EN" "http://www.w3.org/Graphics/SVG/1.1/DTD/svg11.dtd">
<svg version="1.1" id="Layer_1" xmlns="http://www.w3.org/2000/svg" xmlns:xlink="http://www.w3.org/1999/xlink" x="0px" y="0px"
	 width="90px" height="90px" viewBox="0 0 90 90" enable-background="new 0 0 90 90" xml:space="preserve">
<line fill="none" stroke="#582D82" stroke-width="1.8" stroke-linecap="round" stroke-linejoin="round" stroke-miterlimit="10" x1="12.074" y1="69.951" x2="74.502" y2="69.951"/>
<path fill="none" stroke="#582D82" stroke-width="1.8" stroke-linecap="round" stroke-linejoin="round" stroke-miterlimit="10" d="
	M17.399,69.951c-0.31-0.428-0.533-0.93-0.638-1.484c-0.381-2.013,0.942-3.953,2.953-4.332c0.252-0.049,0.502-0.069,0.749-0.065
	h0.006c-0.258-1.368,0.268-2.826,1.471-3.695c0.747-0.54,1.628-0.762,2.48-0.69h0.005c-0.689-1.565-0.219-3.452,1.224-4.495
	c1.659-1.2,3.977-0.828,5.177,0.831c0.391,0.541,0.615,1.154,0.682,1.772l-0.001,0.001c1.615-0.88,3.67-0.443,4.776,1.086
	c0.476,0.657,0.704,1.42,0.703,2.174c1.149,0,2.281,0.532,3.005,1.535c0.718,0.991,0.873,2.221,0.527,3.303v0.002
	c0.12,0.123,0.233,0.259,0.337,0.402c0.796,1.102,0.9,2.491,0.396,3.654"/>
<path fill="none" stroke="#582D82" stroke-width="1.8" stroke-linecap="round" stroke-linejoin="round" stroke-miterlimit="10" d="
	M58.662,69.951c0.257-0.424,0.445-0.9,0.542-1.418c0.438-2.311-1.082-4.54-3.394-4.977c-0.289-0.056-0.576-0.08-0.858-0.074h-0.007
	c0.297-1.572-0.309-3.246-1.69-4.245c-0.858-0.62-1.87-0.875-2.848-0.793L50.4,58.445c0.791-1.799,0.252-3.967-1.405-5.165
	c-1.906-1.378-4.569-0.95-5.947,0.956c-0.449,0.622-0.707,1.324-0.783,2.036l0.001,0.001c-1.855-1.012-4.216-0.51-5.487,1.246
	c-0.273,0.378-0.475,0.785-0.609,1.207"/>
<line fill="none" stroke="#582D82" stroke-width="1.8" stroke-linecap="round" stroke-linejoin="round" stroke-miterlimit="10" x1="64.467" y1="69.951" x2="64.467" y2="40.68"/>
<line fill="none" stroke="#582D82" stroke-width="1.8" stroke-linecap="round" stroke-linejoin="round" stroke-miterlimit="10" x1="64.467" y1="51.137" x2="59.385" y2="46.055"/>
<line fill="none" stroke="#582D82" stroke-width="1.8" stroke-linecap="round" stroke-linejoin="round" stroke-miterlimit="10" x1="64.467" y1="46.055" x2="69.549" y2="40.972"/>
<path fill="none" stroke="#582D82" stroke-width="1.8" stroke-linecap="round" stroke-linejoin="round" stroke-miterlimit="10" d="
	M56.65,52.375c-3.627-0.741-6.355-3.951-6.355-7.797c0-3.297,2.004-6.125,4.86-7.334l0.037-0.005
	c-0.063-0.44-0.097-0.89-0.097-1.349c0-5.161,4.184-9.346,9.346-9.346c5.161,0,9.346,4.185,9.346,9.346c0,0.057,0,0.113-0.002,0.169
	c2.531,1.333,4.256,3.988,4.256,7.047c0,3.589-2.375,6.624-5.641,7.616v0.04c0,4.396-3.563,7.959-7.959,7.959
	c-3.843,0-7.049-2.723-7.796-6.344L56.65,52.375z"/>
<line fill="none" stroke="#582D82" stroke-width="1.8" stroke-linecap="round" stroke-linejoin="round" stroke-miterlimit="10" x1="32.23" y1="57.498" x2="32.23" y2="32.946"/>
<line fill="none" stroke="#582D82" stroke-width="1.8" stroke-linecap="round" stroke-linejoin="round" stroke-miterlimit="10" x1="32.23" y1="43.403" x2="27.148" y2="38.321"/>
<line fill="none" stroke="#582D82" stroke-width="1.8" stroke-linecap="round" stroke-linejoin="round" stroke-miterlimit="10" x1="32.23" y1="38.321" x2="37.312" y2="33.239"/>
<path fill="none" stroke="#582D82" stroke-width="1.8" stroke-linecap="round" stroke-linejoin="round" stroke-miterlimit="10" d="
	M24.414,44.642c-3.627-0.742-6.356-3.951-6.356-7.798c0-3.297,2.004-6.125,4.861-7.333l0.036-0.006
	c-0.063-0.44-0.097-0.89-0.097-1.348c0-5.162,4.185-9.347,9.347-9.347c5.161,0,9.345,4.185,9.345,9.347c0,0.056,0,0.112-0.001,0.168
	c2.53,1.333,4.255,3.988,4.255,7.047c0,3.589-2.375,6.624-5.64,7.616v0.04c0,4.396-3.564,7.959-7.959,7.959
	c-3.843,0-7.05-2.722-7.796-6.344L24.414,44.642z"/>
</svg>
