<svg xmlns="http://www.w3.org/2000/svg" xmlns:xlink="http://www.w3.org/1999/xlink" version="1.1" x="0px" y="0px" viewBox="0 0 100 100" enable-background="new 0 0 100 100" xml:space="preserve">
    <g>
        <path d="M88.2,80.7L69.7,53.6c-0.4-0.5-1-0.9-1.6-0.9c-0.6,0-1.2,0.3-1.6,0.8l-13,16.8L37.6,45.7c-0.4-0.6-1-0.9-1.7-0.9   s-1.3,0.3-1.7,0.9l-22.5,35c-0.4,0.6-0.4,1.4-0.1,2s1,1,1.8,1h45c0,0,0,0,0,0c0,0,0,0,0,0h28.1c0.7,0,1.4-0.4,1.8-1.1   C88.7,82.1,88.6,81.3,88.2,80.7z M67.9,58.1l6.2,9.1l-1.4,1.2l-4.3-3.5c-0.4-0.3-0.9-0.3-1.3,0l-4.3,3.5L61.1,67L67.9,58.1z    M35.9,50.5l7.8,12.2l-3.4,2.7L36,61.9c-0.4-0.3-0.9-0.3-1.3,0l-4.3,3.5l-2.7-2.2L35.9,50.5z M17.1,79.8l9.6-14.9l3.1,2.5   c0.2,0.1,0.4,0.2,0.6,0.2s0.4-0.1,0.6-0.2l4.3-3.5l4.3,3.5c0.4,0.3,0.9,0.3,1.3,0l3.9-3.1l9.9,15.5H17.1z M59.6,79.8l-3.8-6   l4.1-5.3l2.3,1.9c0.2,0.1,0.4,0.2,0.6,0.2s0.4-0.1,0.6-0.2l4.3-3.5l4.3,3.5c0.4,0.3,0.9,0.3,1.3,0l1.9-1.6l7.5,10.9H59.6z"/>
        <path d="M61.9,41c4,0,7.2-3.2,7.2-7.2s-3.2-7.2-7.2-7.2s-7.2,3.2-7.2,7.2S58,41,61.9,41z M61.9,28.6c2.9,0,5.2,2.3,5.2,5.2   S64.8,39,61.9,39s-5.2-2.3-5.2-5.2S59.1,28.6,61.9,28.6z"/>
        <path d="M61.9,22.4c0.6,0,1-0.4,1-1v-4.2c0-0.6-0.4-1-1-1s-1,0.4-1,1v4.2C60.9,21.9,61.4,22.4,61.9,22.4z"/>
        <path d="M60.9,46.2v4.2c0,0.6,0.4,1,1,1s1-0.4,1-1v-4.2c0-0.6-0.4-1-1-1S60.9,45.6,60.9,46.2z"/>
        <path d="M70.7,26c0.3,0,0.5-0.1,0.7-0.3l3-3c0.4-0.4,0.4-1,0-1.4s-1-0.4-1.4,0l-3,3c-0.4,0.4-0.4,1,0,1.4   C70.2,25.9,70.4,26,70.7,26z"/>
        <path d="M52.4,41.8l-3,3c-0.4,0.4-0.4,1,0,1.4c0.2,0.2,0.5,0.3,0.7,0.3s0.5-0.1,0.7-0.3l3-3c0.4-0.4,0.4-1,0-1.4   C53.5,41.4,52.8,41.4,52.4,41.8z"/>
        <path d="M73.3,33.8c0,0.6,0.4,1,1,1h4.2c0.6,0,1-0.4,1-1s-0.4-1-1-1h-4.2C73.7,32.8,73.3,33.2,73.3,33.8z"/>
        <path d="M45.3,34.8h4.2c0.6,0,1-0.4,1-1s-0.4-1-1-1h-4.2c-0.6,0-1,0.4-1,1S44.8,34.8,45.3,34.8z"/>
        <path d="M72.9,46.2c0.2,0.2,0.5,0.3,0.7,0.3s0.5-0.1,0.7-0.3c0.4-0.4,0.4-1,0-1.4l-3-3c-0.4-0.4-1-0.4-1.4,0c-0.4,0.4-0.4,1,0,1.4   L72.9,46.2z"/>
        <path d="M52.4,25.7c0.2,0.2,0.5,0.3,0.7,0.3s0.5-0.1,0.7-0.3c0.4-0.4,0.4-1,0-1.4l-3-3c-0.4-0.4-1-0.4-1.4,0s-0.4,1,0,1.4   L52.4,25.7z"/>
    </g>
    <text x="0" y="115" fill="#000000" font-size="5px" font-weight="bold" font-family="'Helvetica Neue', Helvetica, Arial-Unicode, Arial, Sans-serif">Created by Danilo Gusmão Silveira</text>
    <text x="0" y="120" fill="#000000" font-size="5px" font-weight="bold" font-family="'Helvetica Neue', Helvetica, Arial-Unicode, Arial, Sans-serif">from the Noun Project</text>
</svg>
