<?xml version="1.0" encoding="utf-8"?>
<!-- Generator: Adobe Illustrator 16.0.0, SVG Export Plug-In . SVG Version: 6.00 Build 0)  -->
<!DOCTYPE svg PUBLIC "-//W3C//DTD SVG 1.1//EN" "http://www.w3.org/Graphics/SVG/1.1/DTD/svg11.dtd">
<svg version="1.1" id="Layer_1" xmlns="http://www.w3.org/2000/svg" xmlns:xlink="http://www.w3.org/1999/xlink" x="0px" y="0px"
	 width="90px" height="90px" viewBox="0 0 90 90" enable-background="new 0 0 90 90" xml:space="preserve">
<path fill="none" stroke="#582D82" stroke-width="1.8" stroke-linecap="round" stroke-linejoin="round" stroke-miterlimit="10" d="
	M71.07,34.808H19.487v-4.542c0-0.897,0.728-1.625,1.625-1.625h40.125l1.916-2h4.917l0.083,2h1.292c0.896,0,1.625,0.728,1.625,1.625
	V34.808z"/>
<line fill="none" stroke="#582D82" stroke-width="1.8" stroke-linecap="round" stroke-linejoin="round" stroke-miterlimit="10" x1="25.487" y1="28.642" x2="25.487" y2="26.642"/>
<line fill="none" stroke="#582D82" stroke-width="1.8" stroke-linecap="round" stroke-linejoin="round" stroke-miterlimit="10" x1="25.487" y1="32.496" x2="25.487" y2="34.809"/>
<line fill="none" stroke="#582D82" stroke-width="1.8" stroke-linecap="round" stroke-linejoin="round" stroke-miterlimit="10" x1="29.362" y1="32.496" x2="29.362" y2="34.809"/>
<line fill="none" stroke="#582D82" stroke-width="1.8" stroke-linecap="round" stroke-linejoin="round" stroke-miterlimit="10" x1="33.237" y1="32.496" x2="33.237" y2="34.809"/>
<line fill="none" stroke="#582D82" stroke-width="1.8" stroke-linecap="round" stroke-linejoin="round" stroke-miterlimit="10" x1="37.112" y1="32.496" x2="37.112" y2="34.809"/>
<line fill="none" stroke="#582D82" stroke-width="1.8" stroke-linecap="round" stroke-linejoin="round" stroke-miterlimit="10" x1="40.987" y1="32.496" x2="40.987" y2="34.809"/>
<path fill="none" stroke="#582D82" stroke-width="1.8" stroke-linecap="round" stroke-linejoin="round" stroke-miterlimit="10" d="
	M19.487,33.652l0.182,4.984c0.038,1.038,0.89,1.86,1.928,1.86c2.932,0,4.905,3.002,3.742,5.693l-4.644,10.746
	c-1.059,2.45,0.739,5.186,3.409,5.186h12.178c1.499,0,2.391-1.676,1.554-2.919L35.3,55.434l3.437-9.625
	c1.141-2.438,3.471-4.106,6.147-4.399l21.51-2.355c1.443-0.195,2.72-1.03,3.476-2.274l1.2-1.972"/>
<path fill="none" stroke="#582D82" stroke-width="1.8" stroke-linecap="round" stroke-linejoin="round" stroke-miterlimit="10" d="
	M37.86,48.263h5.774c3.129,0,5.665-2.536,5.665-5.665V41.37"/>
<path fill="none" stroke="#582D82" stroke-width="1.8" stroke-linecap="round" stroke-linejoin="round" stroke-miterlimit="10" d="
	M42.244,42.195c0,0,0.619,2.321,1.869,3.113"/>
<line fill="none" stroke="#582D82" stroke-width="1.8" stroke-linecap="round" stroke-linejoin="round" stroke-miterlimit="10" x1="25.659" y1="44.183" x2="33.654" y2="44.183"/>
</svg>
