<?xml version="1.0" encoding="utf-8"?>
<!-- Generator: Adobe Illustrator 16.0.0, SVG Export Plug-In . SVG Version: 6.00 Build 0)  -->
<!DOCTYPE svg PUBLIC "-//W3C//DTD SVG 1.1//EN" "http://www.w3.org/Graphics/SVG/1.1/DTD/svg11.dtd">
<svg version="1.1" id="Layer_1" xmlns="http://www.w3.org/2000/svg" xmlns:xlink="http://www.w3.org/1999/xlink" x="0px" y="0px"
	 width="90px" height="90px" viewBox="0 0 90 90" enable-background="new 0 0 90 90" xml:space="preserve">
<circle fill="none" stroke="#582D82" stroke-width="1.8" stroke-linecap="round" stroke-linejoin="round" stroke-miterlimit="10" cx="44.573" cy="45.857" r="17.206"/>
<path fill="none" stroke="#822C90" stroke-width="1.8" stroke-linecap="round" stroke-linejoin="round" stroke-miterlimit="10" d="
	M12.868,45.857c0-17.51,14.195-31.706,31.706-31.706"/>
<path fill="none" stroke="#822C90" stroke-width="1.8" stroke-linecap="round" stroke-linejoin="round" stroke-miterlimit="10" d="
	M76.279,45.857c0,17.512-14.194,31.706-31.706,31.706"/>
<ellipse fill="none" stroke="#582D82" stroke-width="1.8" stroke-linecap="round" stroke-linejoin="round" stroke-miterlimit="10" cx="44.574" cy="45.857" rx="8.404" ry="17.206"/>
<line fill="none" stroke="#582D82" stroke-width="1.8" stroke-linecap="round" stroke-linejoin="round" stroke-miterlimit="10" x1="44.574" y1="28.651" x2="44.574" y2="63.063"/>
<line fill="none" stroke="#582D82" stroke-width="1.8" stroke-linecap="round" stroke-linejoin="round" stroke-miterlimit="10" x1="27.368" y1="45.857" x2="61.779" y2="45.857"/>
<line fill="none" stroke="#582D82" stroke-width="1.8" stroke-linecap="round" stroke-linejoin="round" stroke-miterlimit="10" x1="29.231" y1="38.066" x2="59.916" y2="38.066"/>
<line fill="none" stroke="#582D82" stroke-width="1.8" stroke-linecap="round" stroke-linejoin="round" stroke-miterlimit="10" x1="29.231" y1="53.649" x2="59.916" y2="53.649"/>
<ellipse fill="none" stroke="#582D82" stroke-width="1.8" stroke-linecap="round" stroke-linejoin="round" stroke-miterlimit="10" cx="20.138" cy="61.15" rx="4.791" ry="6.011"/>
<path fill="none" stroke="#582D82" stroke-width="1.8" stroke-linecap="round" stroke-linejoin="round" stroke-miterlimit="10" d="
	M20.138,69.865c1.711,0.166,3.29-1.027,3.29-1.027s2.298,1.254,4.065,2.035c1.074,0.474,1.826,1.467,2.004,2.627
	c0.096,0.629,0.202,1.304,0.291,1.871c0.109,0.69-0.425,1.313-1.125,1.313h-8.525h-8.525c-0.7,0-1.234-0.622-1.125-1.313
	c0.089-0.567,0.195-1.242,0.291-1.871c0.178-1.16,0.93-2.153,2.004-2.627c1.767-0.781,4.065-2.035,4.065-2.035
	S18.427,70.031,20.138,69.865z"/>
<ellipse fill="none" stroke="#582D82" stroke-width="1.8" stroke-linecap="round" stroke-linejoin="round" stroke-miterlimit="10" cx="68.854" cy="12.436" rx="4.791" ry="6.01"/>
<path fill="none" stroke="#582D82" stroke-width="1.8" stroke-linecap="round" stroke-linejoin="round" stroke-miterlimit="10" d="
	M68.854,21.149c1.711,0.166,3.289-1.027,3.289-1.027s2.299,1.255,4.065,2.035c1.074,0.475,1.826,1.467,2.004,2.628
	c0.097,0.629,0.202,1.304,0.291,1.87c0.108,0.691-0.425,1.313-1.124,1.313h-8.525h-8.525c-0.7,0-1.234-0.622-1.125-1.313
	c0.089-0.566,0.195-1.241,0.291-1.87c0.178-1.161,0.93-2.153,2.004-2.628c1.768-0.78,4.064-2.035,4.064-2.035
	S67.143,21.315,68.854,21.149z"/>
<polyline fill="none" stroke="#822C90" stroke-width="1.8" stroke-linecap="round" stroke-linejoin="round" stroke-miterlimit="10" points="
	40.801,9.379 45.574,14.152 40.801,18.925 "/>
<polyline fill="none" stroke="#822C90" stroke-width="1.8" stroke-linecap="round" stroke-linejoin="round" stroke-miterlimit="10" points="
	48.347,82.336 43.574,77.564 48.347,72.791 "/>
</svg>
