<svg xmlns:dc="http://purl.org/dc/elements/1.1/" xmlns:cc="http://creativecommons.org/ns#" xmlns:rdf="http://www.w3.org/1999/02/22-rdf-syntax-ns#" xmlns:svg="http://www.w3.org/2000/svg" xmlns="http://www.w3.org/2000/svg" xmlns:sodipodi="http://sodipodi.sourceforge.net/DTD/sodipodi-0.dtd" xmlns:inkscape="http://www.inkscape.org/namespaces/inkscape" viewBox="0 0 32 32" version="1.1" x="0px" y="0px">
    <g transform="translate(0,-1020.3622)">
        <path style="color:#000000;font-style:normal;font-variant:normal;font-weight:normal;font-stretch:normal;font-size:medium;line-height:normal;font-family:sans-serif;text-indent:0;text-align:start;text-decoration:none;text-decoration-line:none;text-decoration-style:solid;text-decoration-color:#000000;letter-spacing:normal;word-spacing:normal;text-transform:none;direction:ltr;block-progression:tb;writing-mode:lr-tb;baseline-shift:baseline;text-anchor:start;white-space:normal;clip-rule:nonzero;display:inline;overflow:visible;visibility:visible;opacity:1;isolation:auto;mix-blend-mode:normal;color-interpolation:sRGB;color-interpolation-filters:linearRGB;solid-color:#000000;solid-opacity:1;fill:#000000;fill-opacity:1;fill-rule:nonzero;stroke:none;stroke-width:1;stroke-linecap:butt;stroke-linejoin:round;stroke-miterlimit:4;stroke-dasharray:none;stroke-dashoffset:0;stroke-opacity:1;color-rendering:auto;image-rendering:auto;shape-rendering:auto;text-rendering:auto;enable-background:accumulate" d="m 16,1029.3613 c -3.860071,0 -7,3.14 -7,7 0,3.8601 3.139929,7 7,7 3.860071,0 7,-3.1399 7,-7 0,-3.86 -3.139929,-7 -7,-7 z m 0,1 c 3.319631,0 6,2.6804 6,6 0,3.3197 -2.680369,6 -6,6 -3.319631,0 -6,-2.6803 -6,-6 0,-3.3196 2.680369,-6 6,-6 z"/>
        <path style="color:#000000;font-style:normal;font-variant:normal;font-weight:normal;font-stretch:normal;font-size:medium;line-height:normal;font-family:sans-serif;text-indent:0;text-align:start;text-decoration:none;text-decoration-line:none;text-decoration-style:solid;text-decoration-color:#000000;letter-spacing:normal;word-spacing:normal;text-transform:none;direction:ltr;block-progression:tb;writing-mode:lr-tb;baseline-shift:baseline;text-anchor:start;white-space:normal;clip-rule:nonzero;display:inline;overflow:visible;visibility:visible;opacity:1;isolation:auto;mix-blend-mode:normal;color-interpolation:sRGB;color-interpolation-filters:linearRGB;solid-color:#000000;solid-opacity:1;fill:#000000;fill-opacity:1;fill-rule:evenodd;stroke:none;stroke-width:1px;stroke-linecap:butt;stroke-linejoin:miter;stroke-miterlimit:4;stroke-dasharray:none;stroke-dashoffset:0;stroke-opacity:1;color-rendering:auto;image-rendering:auto;shape-rendering:auto;text-rendering:auto;enable-background:accumulate" d="m 15.5,1029.8613 0,13 1,0 0,-13 -1,0 z"/>
        <path style="color:#000000;font-style:normal;font-variant:normal;font-weight:normal;font-stretch:normal;font-size:medium;line-height:normal;font-family:sans-serif;text-indent:0;text-align:start;text-decoration:none;text-decoration-line:none;text-decoration-style:solid;text-decoration-color:#000000;letter-spacing:normal;word-spacing:normal;text-transform:none;direction:ltr;block-progression:tb;writing-mode:lr-tb;baseline-shift:baseline;text-anchor:start;white-space:normal;clip-rule:nonzero;display:inline;overflow:visible;visibility:visible;opacity:1;isolation:auto;mix-blend-mode:normal;color-interpolation:sRGB;color-interpolation-filters:linearRGB;solid-color:#000000;solid-opacity:1;fill:#000000;fill-opacity:1;fill-rule:nonzero;stroke:none;stroke-width:1;stroke-linecap:butt;stroke-linejoin:round;stroke-miterlimit:4;stroke-dasharray:none;stroke-dashoffset:0;stroke-opacity:1;color-rendering:auto;image-rendering:auto;shape-rendering:auto;text-rendering:auto;enable-background:accumulate" d="m 16,1029.3613 c -1.217417,0 -2.232308,0.8983 -2.916016,2.168 C 12.400277,1032.799 12,1034.4937 12,1036.3613 c 0,1.8677 0.400277,3.5643 1.083984,4.834 0.683708,1.2698 1.698599,2.166 2.916016,2.166 1.217417,0 2.232308,-0.8962 2.916016,-2.166 C 19.599723,1039.9256 20,1038.229 20,1036.3613 c 0,-1.8676 -0.400277,-3.5623 -1.083984,-4.832 -0.683708,-1.2697 -1.698599,-2.168 -2.916016,-2.168 z m 0,1 c 0.71558,0 1.452113,0.5598 2.035156,1.6426 0.583044,1.0828 0.964844,2.6353 0.964844,4.3574 0,1.7222 -0.3818,3.2766 -0.964844,4.3594 -0.583043,1.0828 -1.319576,1.6406 -2.035156,1.6406 -0.71558,0 -1.452113,-0.5578 -2.035156,-1.6406 C 13.3818,1039.6379 13,1038.0835 13,1036.3613 c 0,-1.7221 0.3818,-3.2746 0.964844,-4.3574 0.583043,-1.0828 1.319576,-1.6426 2.035156,-1.6426 z"/>
        <path style="color:#000000;font-style:normal;font-variant:normal;font-weight:normal;font-stretch:normal;font-size:medium;line-height:normal;font-family:sans-serif;text-indent:0;text-align:start;text-decoration:none;text-decoration-line:none;text-decoration-style:solid;text-decoration-color:#000000;letter-spacing:normal;word-spacing:normal;text-transform:none;direction:ltr;block-progression:tb;writing-mode:lr-tb;baseline-shift:baseline;text-anchor:start;white-space:normal;clip-rule:nonzero;display:inline;overflow:visible;visibility:visible;opacity:1;isolation:auto;mix-blend-mode:normal;color-interpolation:sRGB;color-interpolation-filters:linearRGB;solid-color:#000000;solid-opacity:1;fill:#000000;fill-opacity:1;fill-rule:evenodd;stroke:none;stroke-width:1px;stroke-linecap:butt;stroke-linejoin:miter;stroke-miterlimit:4;stroke-dasharray:none;stroke-dashoffset:0;stroke-opacity:1;color-rendering:auto;image-rendering:auto;shape-rendering:auto;text-rendering:auto;enable-background:accumulate" d="m 10,1033.6113 0,1 12,0 0,-1 -12,0 z"/>
        <path style="color:#000000;font-style:normal;font-variant:normal;font-weight:normal;font-stretch:normal;font-size:medium;line-height:normal;font-family:sans-serif;text-indent:0;text-align:start;text-decoration:none;text-decoration-line:none;text-decoration-style:solid;text-decoration-color:#000000;letter-spacing:normal;word-spacing:normal;text-transform:none;direction:ltr;block-progression:tb;writing-mode:lr-tb;baseline-shift:baseline;text-anchor:start;white-space:normal;clip-rule:nonzero;display:inline;overflow:visible;visibility:visible;opacity:1;isolation:auto;mix-blend-mode:normal;color-interpolation:sRGB;color-interpolation-filters:linearRGB;solid-color:#000000;solid-opacity:1;fill:#000000;fill-opacity:1;fill-rule:evenodd;stroke:none;stroke-width:1px;stroke-linecap:butt;stroke-linejoin:miter;stroke-miterlimit:4;stroke-dasharray:none;stroke-dashoffset:0;stroke-opacity:1;color-rendering:auto;image-rendering:auto;shape-rendering:auto;text-rendering:auto;enable-background:accumulate" d="m 10,1038.1113 0,1 12,0 0,-1 -12,0 z"/>
        <path style="color:#000000;font-style:normal;font-variant:normal;font-weight:normal;font-stretch:normal;font-size:medium;line-height:normal;font-family:sans-serif;text-indent:0;text-align:start;text-decoration:none;text-decoration-line:none;text-decoration-style:solid;text-decoration-color:#000000;letter-spacing:normal;word-spacing:normal;text-transform:none;direction:ltr;block-progression:tb;writing-mode:lr-tb;baseline-shift:baseline;text-anchor:start;white-space:normal;clip-rule:nonzero;display:inline;overflow:visible;visibility:visible;opacity:1;isolation:auto;mix-blend-mode:normal;color-interpolation:sRGB;color-interpolation-filters:linearRGB;solid-color:#000000;solid-opacity:1;fill:#000000;fill-opacity:1;fill-rule:nonzero;stroke:none;stroke-width:0.99999988;stroke-linecap:round;stroke-linejoin:round;stroke-miterlimit:4;stroke-dasharray:none;stroke-dashoffset:0;stroke-opacity:1;color-rendering:auto;image-rendering:auto;shape-rendering:auto;text-rendering:auto;enable-background:accumulate" d="m 0.5,1041.8613 a 0.50004994,0.50004994 0 0 0 -0.5,0.5 l 0,9.5 a 0.50004994,0.50004994 0 0 0 0.5,0.5 l 3,0 a 0.50004994,0.50004994 0 0 0 0.5,-0.5 l 0,-3.5 a 0.50004994,0.50004994 0 1 0 -1,0 l 0,3 -2,0 0,-8.5 2,0 0,2 a 0.50004994,0.50004994 0 1 0 1,0 l 0,-2.5 a 0.50004994,0.50004994 0 0 0 -0.5,-0.5 l -3,0 z"/>
        <path style="color:#000000;font-style:normal;font-variant:normal;font-weight:normal;font-stretch:normal;font-size:medium;line-height:normal;font-family:sans-serif;text-indent:0;text-align:start;text-decoration:none;text-decoration-line:none;text-decoration-style:solid;text-decoration-color:#000000;letter-spacing:normal;word-spacing:normal;text-transform:none;direction:ltr;block-progression:tb;writing-mode:lr-tb;baseline-shift:baseline;text-anchor:start;white-space:normal;clip-rule:nonzero;display:inline;overflow:visible;visibility:visible;opacity:1;isolation:auto;mix-blend-mode:normal;color-interpolation:sRGB;color-interpolation-filters:linearRGB;solid-color:#000000;solid-opacity:1;fill:#000000;fill-opacity:1;fill-rule:evenodd;stroke:none;stroke-width:0.99999988px;stroke-linecap:butt;stroke-linejoin:miter;stroke-miterlimit:4;stroke-dasharray:none;stroke-dashoffset:0;stroke-opacity:1;color-rendering:auto;image-rendering:auto;shape-rendering:auto;text-rendering:auto;enable-background:accumulate" d="M 7.2207031,1042.5488 3.6132812,1043 l 0.125,0.9922 3.6054688,-0.4512 c 0.9567103,-0.1199 1.9263725,0.075 2.763672,0.5547 l 3.271484,1.875 3.892578,0 c 0.555362,0 0.999074,0.4367 1.00586,0.9961 l 0.0039,0.4102 c 0.0067,0.5492 -0.423554,0.9843 -0.96875,0.9843 l -5.726562,0 0,1 5.726562,0 c 1.091572,0 1.981998,-0.9037 1.96875,-1.9961 l -0.0039,-0.4101 c -0.01327,-1.0939 -0.912749,-1.9844 -2.00586,-1.9844 l -3.625,0 -3.041015,-1.7441 c -1.0251804,-0.5877 -2.2128828,-0.8247 -3.3847659,-0.6778 z"/>
        <path style="color:#000000;font-style:normal;font-variant:normal;font-weight:normal;font-stretch:normal;font-size:medium;line-height:normal;font-family:sans-serif;text-indent:0;text-align:start;text-decoration:none;text-decoration-line:none;text-decoration-style:solid;text-decoration-color:#000000;letter-spacing:normal;word-spacing:normal;text-transform:none;direction:ltr;block-progression:tb;writing-mode:lr-tb;baseline-shift:baseline;text-anchor:start;white-space:normal;clip-rule:nonzero;display:inline;overflow:visible;visibility:visible;opacity:1;isolation:auto;mix-blend-mode:normal;color-interpolation:sRGB;color-interpolation-filters:linearRGB;solid-color:#000000;solid-opacity:1;fill:#000000;fill-opacity:1;fill-rule:evenodd;stroke:none;stroke-width:0.99999988px;stroke-linecap:butt;stroke-linejoin:round;stroke-miterlimit:4;stroke-dasharray:none;stroke-dashoffset:0;stroke-opacity:1;color-rendering:auto;image-rendering:auto;shape-rendering:auto;text-rendering:auto;enable-background:accumulate" d="m 25.222656,1044.498 c -0.451642,-0.1755 -0.96559,-0.1867 -1.443359,0.01 l -5.248047,1.8867 0.337891,0.9414 5.267578,-1.8945 a 0.50004994,0.50004994 0 0 0 0.01953,-0.01 c 0.473392,-0.1927 0.99846,0.01 1.232422,0.4825 a 0.50004994,0.50004994 0 0 0 0.0078,0.014 c 0.256323,0.5227 0.03406,1.1456 -0.480468,1.3789 l -7.298828,3.3086 c -1.848455,0.8381 -3.911545,0.885 -5.984376,0.5606 L 3.6542969,1049.9277 3.5,1050.916 l 7.978516,1.2481 c 2.187467,0.3423 4.461166,0.3087 6.550781,-0.6387 l 7.298828,-3.3086 c 1.027759,-0.4661 1.463317,-1.712 0.964844,-2.7285 l 0.01758,0.039 a 0.50004994,0.50004994 0 0 0 -0.01953,-0.049 c -0.227161,-0.4651 -0.616718,-0.805 -1.06836,-0.9805 z"/>
        <path style="opacity:1;fill:#000000;fill-opacity:1;stroke:none;stroke-width:1;stroke-linecap:round;stroke-linejoin:round;stroke-miterlimit:4;stroke-dasharray:none;stroke-opacity:1" d="m 3.99997,1046.6122 a 0.5,0.5 0 0 1 -0.5,0.5 0.5,0.5 0 0 1 -0.5,-0.5 0.5,0.5 0 0 1 0.5,-0.5 0.5,0.5 0 0 1 0.5,0.5 z"/>
        <path style="color:#000000;font-style:normal;font-variant:normal;font-weight:normal;font-stretch:normal;font-size:medium;line-height:normal;font-family:sans-serif;text-indent:0;text-align:start;text-decoration:none;text-decoration-line:none;text-decoration-style:solid;text-decoration-color:#000000;letter-spacing:normal;word-spacing:normal;text-transform:none;direction:ltr;block-progression:tb;writing-mode:lr-tb;baseline-shift:baseline;text-anchor:start;white-space:normal;clip-rule:nonzero;display:inline;overflow:visible;visibility:visible;opacity:1;isolation:auto;mix-blend-mode:normal;color-interpolation:sRGB;color-interpolation-filters:linearRGB;solid-color:#000000;solid-opacity:1;fill:#000000;fill-opacity:1;fill-rule:nonzero;stroke:none;stroke-width:0.99999988;stroke-linecap:round;stroke-linejoin:round;stroke-miterlimit:4;stroke-dasharray:none;stroke-dashoffset:0;stroke-opacity:1;color-rendering:auto;image-rendering:auto;shape-rendering:auto;text-rendering:auto;enable-background:accumulate" d="m 28.5,1020.3622 a 0.50004994,0.50004994 0 0 0 -0.5,0.5 l 0,3.5 a 0.50004994,0.50004994 0 1 0 1,0 l 0,-3 2,0 0,8.5 -2,0 0,-2 a 0.50004994,0.50004994 0 1 0 -1,0 l 0,2.5 a 0.50004994,0.50004994 0 0 0 0.5,0.5 l 3,0 a 0.50004994,0.50004994 0 0 0 0.5,-0.5 l 0,-9.5 a 0.50004994,0.50004994 0 0 0 -0.5,-0.5 l -3,0 z"/>
        <path style="color:#000000;font-style:normal;font-variant:normal;font-weight:normal;font-stretch:normal;font-size:medium;line-height:normal;font-family:sans-serif;text-indent:0;text-align:start;text-decoration:none;text-decoration-line:none;text-decoration-style:solid;text-decoration-color:#000000;letter-spacing:normal;word-spacing:normal;text-transform:none;direction:ltr;block-progression:tb;writing-mode:lr-tb;baseline-shift:baseline;text-anchor:start;white-space:normal;clip-rule:nonzero;display:inline;overflow:visible;visibility:visible;opacity:1;isolation:auto;mix-blend-mode:normal;color-interpolation:sRGB;color-interpolation-filters:linearRGB;solid-color:#000000;solid-opacity:1;fill:#000000;fill-opacity:1;fill-rule:evenodd;stroke:none;stroke-width:0.99999988px;stroke-linecap:butt;stroke-linejoin:miter;stroke-miterlimit:4;stroke-dasharray:none;stroke-dashoffset:0;stroke-opacity:1;color-rendering:auto;image-rendering:auto;shape-rendering:auto;text-rendering:auto;enable-background:accumulate" d="m 14.6875,1023.3622 c -1.091572,0 -1.981998,0.9058 -1.96875,1.9981 l 0.0039,0.4101 c 0.01327,1.0939 0.912749,1.9844 2.00586,1.9844 l 3.625,0 3.041015,1.7422 c 1.02518,0.5876 2.212883,0.8266 3.384766,0.6797 l 3.607422,-0.4512 -0.125,-0.9922 -3.605469,0.4512 c -0.95671,0.1199 -1.926373,-0.075 -2.763672,-0.5547 l -3.271484,-1.875 -3.892578,0 c -0.555362,0 -0.999074,-0.4386 -1.00586,-0.998 l -0.0039,-0.4082 c -0.0067,-0.5493 0.423554,-0.9864 0.96875,-0.9864 l 5.726562,0 0,-1 -5.726562,0 z"/>
        <path style="color:#000000;font-style:normal;font-variant:normal;font-weight:normal;font-stretch:normal;font-size:medium;line-height:normal;font-family:sans-serif;text-indent:0;text-align:start;text-decoration:none;text-decoration-line:none;text-decoration-style:solid;text-decoration-color:#000000;letter-spacing:normal;word-spacing:normal;text-transform:none;direction:ltr;block-progression:tb;writing-mode:lr-tb;baseline-shift:baseline;text-anchor:start;white-space:normal;clip-rule:nonzero;display:inline;overflow:visible;visibility:visible;opacity:1;isolation:auto;mix-blend-mode:normal;color-interpolation:sRGB;color-interpolation-filters:linearRGB;solid-color:#000000;solid-opacity:1;fill:#000000;fill-opacity:1;fill-rule:evenodd;stroke:none;stroke-width:0.99999988px;stroke-linecap:butt;stroke-linejoin:round;stroke-miterlimit:4;stroke-dasharray:none;stroke-dashoffset:0;stroke-opacity:1;color-rendering:auto;image-rendering:auto;shape-rendering:auto;text-rendering:auto;enable-background:accumulate" d="m 17.208984,1020.3974 c -1.103273,0.084 -2.193473,0.329 -3.238281,0.8027 l -7.298828,3.3086 c -1.0277591,0.4661 -1.4633174,1.712 -0.9648438,2.7285 l -0.017578,-0.041 a 0.50004994,0.50004994 0 0 0 0.019531,0.051 c 0.4543204,0.9302 1.55618,1.3617 2.5117187,0.9727 l 5.2480471,-1.8868 -0.337891,-0.9414 -5.267578,1.8946 a 0.50004994,0.50004994 0 0 0 -0.019531,0.01 c -0.473392,0.1927 -0.9984597,-0.01 -1.2324219,-0.4825 a 0.50004994,0.50004994 0 0 0 -0.00781,-0.014 c -0.2563223,-0.5227 -0.034064,-1.1456 0.4804688,-1.3789 l 7.2988271,-3.3086 c 1.848455,-0.8381 3.911545,-0.885 5.984376,-0.5606 l 7.978515,1.2481 0.154297,-0.9883 -7.978515,-1.2481 c -1.093733,-0.1711 -2.209227,-0.248 -3.3125,-0.164 z"/>
        <path style="opacity:1;fill:#000000;fill-opacity:1;stroke:none;stroke-width:1;stroke-linecap:round;stroke-linejoin:round;stroke-miterlimit:4;stroke-dasharray:none;stroke-opacity:1" d="m 28.99997,1026.1131 a 0.5,0.5 0 0 1 -0.5,0.5 0.5,0.5 0 0 1 -0.5,-0.5 0.5,0.5 0 0 1 0.5,-0.5 0.5,0.5 0 0 1 0.5,0.5 z"/>
    </g>
    <text x="0" y="47.000001" fill="#000000" font-size="5px" font-weight="bold" font-family="'Helvetica Neue', Helvetica, Arial-Unicode, Arial, Sans-serif">Created by anbileru adaleru</text>
    <text x="0" y="52.000001" fill="#000000" font-size="5px" font-weight="bold" font-family="'Helvetica Neue', Helvetica, Arial-Unicode, Arial, Sans-serif">from the Noun Project</text>
</svg>
