<?xml version="1.0" encoding="utf-8"?>
<!-- Generator: Adobe Illustrator 16.0.0, SVG Export Plug-In . SVG Version: 6.00 Build 0)  -->
<!DOCTYPE svg PUBLIC "-//W3C//DTD SVG 1.1//EN" "http://www.w3.org/Graphics/SVG/1.1/DTD/svg11.dtd">
<svg version="1.1" id="Layer_1" xmlns="http://www.w3.org/2000/svg" xmlns:xlink="http://www.w3.org/1999/xlink" x="0px" y="0px"
	 width="90px" height="90px" viewBox="0 0 90 90" enable-background="new 0 0 90 90" xml:space="preserve">
<path fill="none" stroke="#582D82" stroke-width="1.8" stroke-linecap="round" stroke-miterlimit="10" d="M76.143,78.561H13.586
	c-0.933,0-1.689-0.756-1.689-1.689v-0.553c0-0.932,0.757-1.689,1.689-1.689h62.557c0.934,0,1.689,0.758,1.689,1.689v0.553
	C77.832,77.805,77.076,78.561,76.143,78.561z"/>
<path fill="none" stroke="#582D82" stroke-width="1.8" stroke-linecap="round" stroke-miterlimit="10" d="M76.143,78.561H13.586
	c-0.933,0-1.689-0.756-1.689-1.689v-0.553c0-0.932,0.757-1.689,1.689-1.689h62.557c0.934,0,1.689,0.758,1.689,1.689v0.553
	C77.832,77.805,77.076,78.561,76.143,78.561z"/>
<path fill="none" stroke="#582D82" stroke-width="1.8" stroke-linecap="round" stroke-miterlimit="10" d="M69.925,74.48H19.804
	c-0.933,0-1.69-0.756-1.69-1.689v-0.553c0-0.934,0.758-1.689,1.69-1.689h50.121c0.934,0,1.688,0.756,1.688,1.689v0.553
	C71.613,73.725,70.858,74.48,69.925,74.48z"/>
<path fill="none" stroke="#582D82" stroke-width="1.8" stroke-linecap="round" stroke-miterlimit="10" d="M69.925,58.117H19.804
	c-0.933,0-1.69-0.756-1.69-1.689v-0.553c0-0.933,0.758-1.689,1.69-1.689h50.121c0.934,0,1.688,0.757,1.688,1.689v0.553
	C71.613,57.361,70.858,58.117,69.925,58.117z"/>
<path fill="none" stroke="#582D82" stroke-width="1.8" stroke-linecap="round" stroke-miterlimit="10" d="M63.654,41.754H25.92
	c-0.933,0-1.688-0.756-1.688-1.689v-0.553c0-0.933,0.756-1.689,1.688-1.689h37.734c0.934,0,1.689,0.756,1.689,1.689v0.553
	C65.344,40.999,64.588,41.754,63.654,41.754z"/>
<rect x="28.61" y="41.754" fill="#582D82" width="3.931" height="12.432"/>
<rect x="35.755" y="41.754" fill="#582D82" width="3.931" height="12.432"/>
<rect x="42.899" y="41.754" fill="#582D82" width="3.931" height="12.432"/>
<rect x="50.044" y="41.754" fill="#582D82" width="3.931" height="12.432"/>
<rect x="57.188" y="41.754" fill="#582D82" width="3.932" height="12.432"/>
<rect x="28.61" y="58.117" fill="#582D82" width="3.931" height="12.432"/>
<rect x="35.755" y="58.117" fill="#582D82" width="3.931" height="12.432"/>
<rect x="21.466" y="58.117" fill="#582D82" width="3.932" height="12.432"/>
<rect x="42.899" y="58.117" fill="#582D82" width="3.931" height="12.432"/>
<rect x="50.044" y="58.117" fill="#582D82" width="3.931" height="12.432"/>
<rect x="57.188" y="58.117" fill="#582D82" width="3.932" height="12.432"/>
<rect x="64.333" y="58.117" fill="#582D82" width="3.931" height="12.432"/>
<path fill="none" stroke="#582D82" stroke-width="1.8" stroke-linecap="round" stroke-miterlimit="10" d="M59.058,37.823H30.672
	c0-7.838,6.354-14.192,14.192-14.192C52.703,23.631,59.058,29.985,59.058,37.823z"/>
<path fill="#582D82" d="M53.239,12.201l-0.594,1.761l-0.215,0.639l0.215,0.639l0.594,1.761h-7.538v-4.8H53.239z M56.024,10.201
	H43.701v8.8h12.323l-1.483-4.4L56.024,10.201z"/>
<rect x="43.701" y="10.201" fill="#582D82" width="2.327" height="14.206"/>
</svg>
