<svg xmlns="http://www.w3.org/2000/svg" xmlns:xlink="http://www.w3.org/1999/xlink" version="1.1" x="0px" y="0px" viewBox="0 0 100 100" style="enable-background:new 0 0 100 100;" xml:space="preserve">
    <g>
        <path d="M50,14c-5.3-5-12.2-7.8-19.5-7.8c-7.6,0-14.7,3-20.1,8.3c-11.1,11.1-11.1,29.1,0,40.2l38.5,38.5c0.3,0.3,0.7,0.4,1.1,0.4   s0.8-0.1,1.1-0.4l38.5-38.5c5.4-5.4,8.3-12.5,8.3-20.1c0-7.6-3-14.7-8.3-20.1C78.7,3.7,61.1,3.5,50,14z M87.5,52.6L50,90.1   L12.5,52.6c-1-1-1.9-2.1-2.7-3.2h7.4l6.8,2.8c0.7,0.3,1.5,0,1.9-0.7l10.8-20.3l9.2,16.9c0.3,0.5,0.8,0.8,1.3,0.8h6.6l7,15.2   c0.2,0.5,0.8,0.9,1.4,0.9c0,0,0.1,0,0.1,0c0.6,0,1.2-0.5,1.3-1l9.9-31.4L81.7,43c0.3,0.4,0.7,0.6,1.2,0.6h10.5   C92.1,46.9,90.1,50,87.5,52.6z M94.2,40.6H83.6L74,28.4c-0.3-0.4-0.9-0.6-1.4-0.5c-0.5,0.1-1,0.5-1.2,1l-9.6,30.4l-5.7-12.5   c-0.2-0.5-0.8-0.9-1.4-0.9H48L37.9,27.3c-0.3-0.5-0.8-0.8-1.3-0.8c0,0,0,0,0,0c-0.6,0-1.1,0.3-1.3,0.8L23.9,48.9L18,46.6   c-0.2-0.1-0.4-0.1-0.6-0.1H8c-1.9-3.6-2.9-7.6-2.9-11.8c0-6.8,2.6-13.2,7.4-18c4.8-4.8,11.2-7.4,18-7.4c6.8,0,13.2,2.6,18,7.4   l0.5,0.5c0.6,0.6,1.5,0.6,2.1,0l0.5-0.5c9.9-9.9,26-9.9,35.9,0c4.8,4.8,7.4,11.2,7.4,18C94.9,36.7,94.7,38.7,94.2,40.6z"/>
    </g>
    <text x="0" y="115" fill="#000000" font-size="5px" font-weight="bold" font-family="'Helvetica Neue', Helvetica, Arial-Unicode, Arial, Sans-serif">Created by Genius Icons</text>
    <text x="0" y="120" fill="#000000" font-size="5px" font-weight="bold" font-family="'Helvetica Neue', Helvetica, Arial-Unicode, Arial, Sans-serif">from the Noun Project</text>
</svg>
