<?xml version="1.0" encoding="utf-8"?>
<!-- Generator: Adobe Illustrator 16.0.0, SVG Export Plug-In . SVG Version: 6.00 Build 0)  -->
<!DOCTYPE svg PUBLIC "-//W3C//DTD SVG 1.1//EN" "http://www.w3.org/Graphics/SVG/1.1/DTD/svg11.dtd">
<svg version="1.1" id="Layer_1" xmlns="http://www.w3.org/2000/svg" xmlns:xlink="http://www.w3.org/1999/xlink" x="0px" y="0px"
	 width="90px" height="90px" viewBox="0 0 90 90" enable-background="new 0 0 90 90" xml:space="preserve">
<path fill="none" stroke="#822C90" stroke-width="1.8" stroke-linecap="round" stroke-linejoin="round" stroke-miterlimit="10" d="
	M36.693,52.087h-14.25c-2.768,0-5.012-2.244-5.012-5.012v-5.388c0-2.768,2.244-5.012,5.012-5.012h14.25"/>
<path fill="none" stroke="#822C90" stroke-width="1.8" stroke-linecap="round" stroke-linejoin="round" stroke-miterlimit="10" d="
	M52.105,36.675h14.25c2.77,0,5.013,2.244,5.013,5.012v5.387c0,2.769-2.243,5.013-5.013,5.013h-14.25"/>
<path fill="none" stroke="#822C90" stroke-width="1.8" stroke-linecap="round" stroke-linejoin="round" stroke-miterlimit="10" d="
	M36.693,36.674v-14.25c0-2.768,2.244-5.012,5.013-5.012h5.388c2.768,0,5.012,2.244,5.012,5.012v14.25"/>
<path fill="none" stroke="#822C90" stroke-width="1.8" stroke-linecap="round" stroke-linejoin="round" stroke-miterlimit="10" d="
	M52.105,52.087v14.25c0,2.769-2.244,5.013-5.012,5.013h-5.388c-2.769,0-5.013-2.244-5.013-5.013v-14.25"/>
<line fill="none" stroke="#582D82" stroke-width="1.8" stroke-linecap="round" stroke-miterlimit="10" x1="44.399" y1="36.674" x2="44.399" y2="52.004"/>
<line fill="none" stroke="#582D82" stroke-width="1.8" stroke-linecap="round" stroke-miterlimit="10" x1="52.063" y1="44.339" x2="36.735" y2="44.339"/>
</svg>
