<?xml version="1.0" encoding="utf-8"?>
<!-- Generator: Adobe Illustrator 16.0.0, SVG Export Plug-In . SVG Version: 6.00 Build 0)  -->
<!DOCTYPE svg PUBLIC "-//W3C//DTD SVG 1.1//EN" "http://www.w3.org/Graphics/SVG/1.1/DTD/svg11.dtd">
<svg version="1.1" id="Layer_1" xmlns="http://www.w3.org/2000/svg" xmlns:xlink="http://www.w3.org/1999/xlink" x="0px" y="0px"
	 width="90px" height="90px" viewBox="0 0 90 90" enable-background="new 0 0 90 90" xml:space="preserve">
<path fill="none" stroke="#582D82" stroke-width="1.8" stroke-linecap="round" stroke-miterlimit="10" d="M66.469,67.223h-43.78
	c-0.933,0-1.688-0.756-1.688-1.689V64.98c0-0.932,0.756-1.689,1.688-1.689h43.78c0.933,0,1.688,0.758,1.688,1.689v0.553
	C68.157,66.467,67.401,67.223,66.469,67.223z"/>
<path fill="none" stroke="#582D82" stroke-width="1.8" stroke-linecap="round" stroke-miterlimit="10" d="M66.469,67.223h-43.78
	c-0.933,0-1.688-0.756-1.688-1.689V64.98c0-0.932,0.756-1.689,1.688-1.689h43.78c0.933,0,1.688,0.758,1.688,1.689v0.553
	C68.157,66.467,67.401,67.223,66.469,67.223z"/>
<line fill="none" stroke="#582D82" stroke-width="1.8" stroke-linecap="round" stroke-miterlimit="10" x1="25.355" y1="63.291" x2="25.355" y2="39.509"/>
<path fill="none" stroke="#582D82" stroke-width="1.8" stroke-linecap="round" stroke-miterlimit="10" d="M45.534,21.842
	L69.796,38.89c0.626,0.439,0.778,1.302,0.341,1.93l-0.664,0.951c-0.438,0.629-1.303,0.783-1.932,0.344L45.529,26.77
	c-0.571-0.398-1.33-0.398-1.901,0L21.616,42.115c-0.629,0.439-1.494,0.285-1.933-0.344l-0.663-0.951
	c-0.438-0.628-0.285-1.491,0.341-1.93l24.262-17.048C44.196,21.439,44.961,21.439,45.534,21.842z"/>
<line fill="none" stroke="#582D82" stroke-width="1.8" stroke-linecap="round" stroke-miterlimit="10" x1="63.802" y1="63.291" x2="63.802" y2="39.509"/>
<path fill="none" stroke="#582D82" stroke-width="1.8" stroke-linecap="round" stroke-miterlimit="10" d="M39.948,63.291h-8.598
	v-13.17c0-0.869,0.702-1.571,1.57-1.571h5.457c0.867,0,1.57,0.702,1.57,1.571V63.291z"/>
<path fill="none" stroke="#582D82" stroke-width="1.8" stroke-linecap="round" stroke-miterlimit="10" d="M57.438,29.958v-5.7
	c0-0.725,0.588-1.312,1.312-1.312h1.627c0.725,0,1.312,0.587,1.312,1.312v8.935"/>
<path fill="none" stroke="#822C90" stroke-width="1.8" stroke-linecap="round" stroke-linejoin="round" stroke-miterlimit="10" d="
	M55.238,49.931h-8.193c-0.871,0-1.576-0.706-1.576-1.576v-8.193c0-0.871,0.705-1.576,1.576-1.576h8.193
	c0.87,0,1.575,0.705,1.575,1.576v8.193C56.813,49.225,56.108,49.931,55.238,49.931z"/>
<line fill="none" stroke="#822C90" stroke-width="1.8" stroke-linecap="round" stroke-linejoin="round" stroke-miterlimit="10" x1="51.142" y1="38.585" x2="51.142" y2="49.931"/>
<line fill="none" stroke="#822C90" stroke-width="1.8" stroke-linecap="round" stroke-linejoin="round" stroke-miterlimit="10" x1="45.469" y1="44.258" x2="56.813" y2="44.258"/>
<path fill="#582D82" d="M38.043,56.092c0,0.523-0.425,0.948-0.948,0.948s-0.948-0.425-0.948-0.948s0.425-0.948,0.948-0.948
	S38.043,55.568,38.043,56.092"/>
</svg>
