<svg xmlns:dc="http://purl.org/dc/elements/1.1/" xmlns:cc="http://creativecommons.org/ns#" xmlns:rdf="http://www.w3.org/1999/02/22-rdf-syntax-ns#" xmlns:svg="http://www.w3.org/2000/svg" xmlns="http://www.w3.org/2000/svg" xmlns:sodipodi="http://sodipodi.sourceforge.net/DTD/sodipodi-0.dtd" xmlns:inkscape="http://www.inkscape.org/namespaces/inkscape" version="1.1" x="0px" y="0px" viewBox="0 0 100 100">
    <g transform="translate(0,-952.36218)">
        <path d="M 49.84375 16 A 2.0002 2.0002 0 0 0 49 16.25 L 7 40.25 A 2.0020131 2.0020131 0 1 0 9 43.71875 L 16 39.71875 L 16 82 A 2.0002 2.0002 0 0 0 18 84 L 82 84 A 2.0002 2.0002 0 0 0 84 82 L 84 39.71875 L 91 43.71875 A 2.0020131 2.0020131 0 1 0 93 40.25 L 84 35.09375 L 84 22 A 2.0002 2.0002 0 0 0 82 20 L 68 20 A 2.0002 2.0002 0 0 0 67.8125 20 A 2.0002 2.0002 0 0 0 66 22 L 66 24.8125 L 51 16.25 A 2.0002 2.0002 0 0 0 49.84375 16 z M 50 20.28125 L 80 37.4375 L 80 80 L 42 80 L 42 54 L 58 54 L 58 68 A 2.0002 2.0002 0 1 0 62 68 L 62 52 A 2.0002 2.0002 0 0 0 60 50 L 40 50 A 2.0002 2.0002 0 0 0 39.8125 50 A 2.0002 2.0002 0 0 0 38 52 L 38 80 L 20 80 L 20 37.4375 L 50 20.28125 z M 70 24 L 80 24 L 80 32.8125 L 70 27.09375 L 70 24 z M 60 73 C 58.895431 73 58 73.895431 58 75 C 58 76.104569 58.895431 77 60 77 C 61.104569 77 62 76.104569 62 75 C 62 73.895431 61.104569 73 60 73 z " transform="translate(0,952.36218)"/>
    </g>
    <text x="0" y="115" fill="#000000" font-size="5px" font-weight="bold" font-family="'Helvetica Neue', Helvetica, Arial-Unicode, Arial, Sans-serif">Created by cathy moser</text>
    <text x="0" y="120" fill="#000000" font-size="5px" font-weight="bold" font-family="'Helvetica Neue', Helvetica, Arial-Unicode, Arial, Sans-serif">from the Noun Project</text>
</svg>
