<svg xmlns="http://www.w3.org/2000/svg" xmlns:xlink="http://www.w3.org/1999/xlink" version="1.1" x="0px" y="0px" viewBox="0 0 100 100" enable-background="new 0 0 100 100" xml:space="preserve">
    <path d="M91.62,43.955l-9.782-9.782c-0.78-0.781-2.048-0.781-2.828,0l-6.801,6.8L61.068,29.831c0.635-0.857,0.905-1.968,0.745-3.127  c-0.162-1.177-0.751-2.324-1.656-3.229l-0.246-0.253c-0.568-0.593-0.86-0.735-1.613-1.021l-0.019-0.007  c0.058-1.41-0.419-2.929-1.666-4.175c-1.792-1.792-3.646-2.658-5.176-2.507c-0.284-0.225-0.611-0.465-0.985-0.73  c-1.544-1.097-3.619-1.376-5.295-0.861l-7.347-7.347c-0.375-0.375-0.884-0.586-1.414-0.586s-1.039,0.211-1.414,0.586l-5.228,5.228  c-0.781,0.781-0.781,2.047,0,2.828l6.962,6.962l-3.74,3.74c-1.459,1.458-1.489,2.894-1.511,3.942  c-0.01,0.488-0.019,0.878-0.158,1.312c-0.29,0.494-21.838,22.19-21.838,22.19c-0.188,0.181-1.836,1.838-1.662,4.278  c0.159,2.217,1.149,3.768,1.261,3.938c0.045,0.067,0.094,0.132,0.146,0.194l11.787,13.801l-1.216,1.216  c-0.753,0.753-0.784,1.964-0.07,2.755l8.008,8.864c0.367,0.407,0.885,0.645,1.433,0.659c0.161,0.007,0.309-0.01,0.458-0.042  l4.247,5.501c0.394,0.51,3.695-1.759,3.02-2.633l-4.214-5.458l11.342-11.341l5.09,4.985c0.79,0.772,3.588-2.085,2.799-2.858  l-5.061-4.956c0.703-0.742,0.735-1.899,0.065-2.678l-7.794-9.078c-0.363-0.422-0.885-0.675-1.442-0.696  c-0.555-0.028-1.096,0.19-1.49,0.584l-0.066,0.066c-0.546-0.792-0.995-1.511-1.225-1.969c0.209-0.29,0.54-0.684,0.833-0.981  c0,0,9.223-9.021,9.7-9.319c0.76-0.083,1.522,0.005,2.323,0.1c1.796,0.21,4.033,0.473,6.058-1.551l3.74-3.74l6.613,6.613  l-6.911,6.912c-0.458,0.458-0.666,1.109-0.558,1.748c0.108,0.639,0.519,1.186,1.102,1.467l13.195,6.37  c0.764,0.368,1.682,0.215,2.284-0.387l3.499-3.499l2.863,2.863c0.781,0.781,2.047,0.781,2.828,0l5.228-5.227  c0.781-0.781,0.781-2.047,0-2.828l-2.863-2.864l6.801-6.801C92.401,46.002,92.401,44.735,91.62,43.955z M56.859,25.934l0.02,0.007  c0.059,0.022,0.108,0.041,0.152,0.058l0.297,0.304c0.496,0.495,0.571,1.032,0.543,1.127l-0.645,0.645  c-0.345-0.765-0.674-1.496-0.97-2.153C56.501,25.919,56.73,25.922,56.859,25.934z M54.161,22.537  c-0.214-0.059-0.442-0.089-0.69-0.051c-1.427,0.22-3.364,2.237-3.629,4.411c-0.05,0.412-0.054,0.806-0.023,1.18l-1.746,1.645  c-0.531,0.533-1.719,0.277-2.542-0.543c-0.44-0.44-0.733-0.993-0.806-1.519c-0.034-0.25-0.046-0.714,0.263-1.022  c0.002-0.002,0.004-0.004,0.006-0.007c0.003-0.003,0.007-0.007,0.01-0.01l6.996-6.996c0.011-0.011,0.014-0.025,0.024-0.036  c0.387,0.159,1.066,0.567,1.759,1.26C54.455,21.518,54.297,22.21,54.161,22.537z M51.592,34.32c-0.452-0.119-0.952-0.211-1.485-0.26  c-0.682-0.351-0.926-0.9-1.008-1.314c-0.14-0.703,0.098-1.319,0.312-1.533c0.009-0.009,0.018-0.019,0.027-0.028  c0.009-0.009,0.019-0.019,0.028-0.028l0.958-0.902c0.361,0.749,0.8,1.31,1.09,1.637L51.592,34.32z M46.134,17.829  c0.233-0.183,1.284-0.296,2,0.214c0.708,0.503,1.024,0.775,1.145,0.886c0.063,0.095,0.135,0.187,0.216,0.272  c0.016,0.018,0.033,0.034,0.05,0.051l-5.955,5.955c-0.532,0.532-1.716,0.282-2.549-0.55c-0.311-0.311-0.544-0.68-0.681-1.054  l0.75-0.75c0.017-0.017,0.034-0.034,0.05-0.052c0.018-0.016,0.035-0.033,0.052-0.05L46.134,17.829z M33.996,13.215l2.399-2.399  l5.547,5.548l-2.399,2.399L33.996,13.215z M37.292,64.352c0.002-0.002,0.004-0.005,0.007-0.007l0.181-0.181l5.181,6.034  l-13.379,13.38l-5.323-5.892L37.292,64.352z M57.36,36.335c-0.168,0.478-1.36,1.958-2.498,3.102l-3.89,3.891  c-0.59,0.589-1.082,0.604-2.764,0.407c-1.048-0.123-2.234-0.262-3.601-0.054c-0.423,0.064-11.725,10.425-11.725,10.425  c-2.395,2.421-2.171,3.672-2.086,4.143c0.217,1.209,1.421,3.083,2.441,4.501l-9.399,9.399L12.366,58.715  c-0.133-0.241-0.5-0.986-0.569-1.948c-0.042-0.586,0.461-1.125,0.471-1.135c0,0,22.471-22.737,22.793-23.662  c0.37-1.06,0.389-1.958,0.403-2.613c0.017-0.79,0.029-0.887,0.34-1.198l3.072-3.072c0.212,0.352,0.459,0.692,0.765,0.998  c0.89,0.89,2.014,1.365,3.067,1.395c0.002,0.149,0.014,0.301,0.035,0.455c0.132,0.962,0.62,1.907,1.373,2.659  c0.86,0.86,1.937,1.334,2.955,1.398c-0.03,0.378-0.011,0.767,0.064,1.145c0.077,0.383,0.203,0.742,0.375,1.07  c-1.278,0.068-2.465,0.553-3.559,1.709c-0.922,0.975-1.17,2.501-0.783,2.107c3.798-3.857,9.7-1.212,10.001-1.401  c0.301-0.189,0.479-0.523,0.467-0.879l-0.138-4.297c-0.009-0.266-0.127-0.522-0.322-0.704c-0.016-0.015-1.605-1.521-1.352-3.602  c0.142-1.165,1.079-2.167,1.642-2.533c0.514,1.137,1.61,3.57,2.708,6.008c0.03,0.099,0.062,0.197,0.107,0.291  C57.293,33.154,57.44,35.871,57.36,36.335z M60.168,39.387c0.496-0.702,0.903-1.419,1.061-2.04c0.095-0.374,0.141-0.916,0.132-1.566  l8.02,8.021L66.982,46.2L60.168,39.387z M81.041,60.26l-1.449-1.449l2.399-2.399l1.449,1.449L81.041,60.26z M71.441,61.306  l-9.38-4.528l6.332-6.332c0.001-0.001,0.001-0.002,0.002-0.003l5.228-5.228c0.001-0.001,0.002-0.002,0.004-0.003l6.797-6.797  l6.954,6.954L71.441,61.306z"/>
    <text x="0" y="115" fill="#000000" font-size="5px" font-weight="bold" font-family="'Helvetica Neue', Helvetica, Arial-Unicode, Arial, Sans-serif">Created by H Alberto Gongora</text>
    <text x="0" y="120" fill="#000000" font-size="5px" font-weight="bold" font-family="'Helvetica Neue', Helvetica, Arial-Unicode, Arial, Sans-serif">from the Noun Project</text>
</svg>
