<?xml version="1.0" encoding="utf-8"?>
<!-- Generator: Adobe Illustrator 16.0.0, SVG Export Plug-In . SVG Version: 6.00 Build 0)  -->
<!DOCTYPE svg PUBLIC "-//W3C//DTD SVG 1.1//EN" "http://www.w3.org/Graphics/SVG/1.1/DTD/svg11.dtd">
<svg version="1.1" id="Layer_1" xmlns="http://www.w3.org/2000/svg" xmlns:xlink="http://www.w3.org/1999/xlink" x="0px" y="0px"
	 width="90px" height="90px" viewBox="0 0 90 90" enable-background="new 0 0 90 90" xml:space="preserve">
<path fill="none" stroke="#582D82" stroke-width="1.8" stroke-linecap="round" stroke-miterlimit="10" d="M70.529,40.491
	l-5.416-0.903c-0.393-1.609-0.967-3.147-1.713-4.582l3.465-4.299c0.738-0.908,0.705-2.215-0.072-3.092l-2.154-2.424
	c-0.779-0.876-2.074-1.061-3.063-0.438l-4.631,2.911c-2.037-1.423-4.345-2.474-6.834-3.084l-0.906-5.443
	c-0.189-1.153-1.188-1.999-2.358-1.999h-3.245c-1.169,0-2.17,0.846-2.356,1.999l-0.91,5.445c-2.058,0.504-3.988,1.317-5.748,2.389
	l-4.405-3.144c-0.949-0.678-2.253-0.571-3.081,0.255l-2.293,2.295c-0.826,0.828-0.932,2.132-0.253,3.081l3.151,4.412
	c-1.061,1.748-1.866,3.666-2.37,5.705l-5.475,0.915c-1.151,0.189-1.999,1.187-1.999,2.358v3.243c0,1.171,0.848,2.17,1.999,2.359
	l5.475,0.914c0.414,1.678,1.014,3.281,1.813,4.768l-3.451,4.273c-0.735,0.908-0.704,2.216,0.073,3.092l2.152,2.424
	c0.781,0.878,2.076,1.06,3.064,0.438l4.698-2.951c1.988,1.359,4.236,2.358,6.65,2.951l0.91,5.445
	c0.186,1.152,1.187,1.997,2.356,1.997h3.245c1.171,0,2.169-0.845,2.358-1.997l0.908-5.445c2.033-0.497,3.938-1.297,5.683-2.348
	l4.588,3.274c0.946,0.682,2.252,0.574,3.079-0.255l2.294-2.294c0.826-0.825,0.938-2.129,0.252-3.079l-3.267-4.58
	c1.064-1.753,1.873-3.675,2.373-5.724l5.416-0.903c1.154-0.189,1.998-1.188,1.998-2.359V42.85
	C72.529,41.678,71.684,40.681,70.529,40.491z"/>
<circle fill="none" stroke="#822C90" stroke-width="1.8" stroke-linecap="round" stroke-linejoin="round" stroke-miterlimit="10" cx="45.197" cy="44.472" r="9.678"/>
</svg>
