<svg xmlns="http://www.w3.org/2000/svg" xmlns:xlink="http://www.w3.org/1999/xlink" version="1.1" x="0px" y="0px" viewBox="0 0 65 65" enable-background="new 0 0 65 65" xml:space="preserve">
    <g>
        <path d="M64.3,47.7L47.5,31.8l4.3-4.3c0.3,0.2,0.7,0.3,1.1,0.3c0.6,0,1.2-0.2,1.6-0.7c0.9-0.9,0.9-2.3,0-3.2l-6.8-6.8   c-0.9-0.9-2.3-0.8-3.2,0c-0.7,0.7-0.8,1.9-0.3,2.7l-1.6,1.6v-14H4.1c-2.4,0-4.4,2-4.4,4.4v41c0,2.4,2,4.4,4.4,4.4h38.5V36.8   l1.5-1.5L59.9,52c0.6,0.6,1.4,1,2.2,1c0.8,0,1.6-0.3,2.2-0.9c0.6-0.6,0.9-1.4,0.9-2.2C65.2,49,64.9,48.3,64.3,47.7z M45.6,18.4   c0.1-0.1,0.3-0.2,0.5-0.2c0.2,0,0.4,0.1,0.5,0.2l6.8,6.8c0.3,0.3,0.3,0.8,0,1.1c-0.3,0.3-0.8,0.3-1.1,0l-6.8-6.8   C45.3,19.1,45.3,18.6,45.6,18.4z M3.4,9.2v39.4c-0.8,0.1-1.5,0.5-2.1,1V12C1.3,10.7,2.2,9.6,3.4,9.2z M41.1,55.9h-37   c-1.6,0-2.9-1.3-2.9-2.9c0-1.6,1.3-2.9,2.9-2.9h37V55.9z M41.1,48.6H4.9V9.1h36.2v14L32.2,32c-0.9-0.5-2-0.4-2.7,0.3   c-0.9,0.9-0.9,2.3,0,3.2l6.8,6.8c0.4,0.4,1,0.7,1.6,0.7c0.6,0,1.2-0.2,1.6-0.7c0.7-0.7,0.8-1.9,0.3-2.7l1.3-1.3V48.6z M38.4,41.2   c-0.3,0.3-0.8,0.3-1.1,0l-6.8-6.8c-0.3-0.3-0.3-0.8,0-1.1c0.1-0.1,0.3-0.2,0.5-0.2c0.2,0,0.4,0.1,0.5,0.2l6.8,6.8   C38.7,40.4,38.7,40.9,38.4,41.2z M63.3,51c-0.6,0.6-1.7,0.6-2.3,0L44.1,33.1l-5.3,5.3l-0.6-0.6L33.4,33l11.8-11.8l5.5,5.5l-5.3,5.3   l17.9,16.9c0.3,0.3,0.5,0.7,0.5,1.1C63.8,50.3,63.6,50.7,63.3,51z"/>
        <rect x="20.2" y="26.2" width="1.5" height="1.5"/>
        <rect x="16.3" y="26.2" width="1.5" height="1.5"/>
        <rect x="24.1" y="26.2" width="1.5" height="1.5"/>
        <rect x="28" y="26.2" width="1.3" height="1.5"/>
        <rect x="8.5" y="26.2" width="1.5" height="1.5"/>
        <rect x="12.4" y="26.2" width="1.5" height="1.5"/>
        <rect x="36.1" y="52.2" width="1.5" height="1.5"/>
        <rect x="28.3" y="52.2" width="1.5" height="1.5"/>
        <rect x="32.2" y="52.2" width="1.5" height="1.5"/>
        <rect x="8.5" y="20.2" width="20.5" height="1.5"/>
        <rect x="8.5" y="32.2" width="12.7" height="1.5"/>
        <rect x="8.5" y="38.2" width="16.7" height="1.5"/>
        <rect x="8.5" y="14.2" width="29" height="1.5"/>
    </g>
    <text x="0" y="80" fill="#000000" font-size="5px" font-weight="bold" font-family="'Helvetica Neue', Helvetica, Arial-Unicode, Arial, Sans-serif">Created by Creative Stall</text>
    <text x="0" y="85" fill="#000000" font-size="5px" font-weight="bold" font-family="'Helvetica Neue', Helvetica, Arial-Unicode, Arial, Sans-serif">from the Noun Project</text>
</svg>
