<?xml version="1.0" encoding="utf-8"?>
<!-- Generator: Adobe Illustrator 16.0.0, SVG Export Plug-In . SVG Version: 6.00 Build 0)  -->
<!DOCTYPE svg PUBLIC "-//W3C//DTD SVG 1.1//EN" "http://www.w3.org/Graphics/SVG/1.1/DTD/svg11.dtd">
<svg version="1.1" id="Layer_1" xmlns="http://www.w3.org/2000/svg" xmlns:xlink="http://www.w3.org/1999/xlink" x="0px" y="0px"
	 width="90px" height="90px" viewBox="0 0 90 90" enable-background="new 0 0 90 90" xml:space="preserve">
<path fill="none" stroke="#582D82" stroke-width="1.8" stroke-linecap="round" stroke-linejoin="round" stroke-miterlimit="10" d="
	M45.253,66.286l-5.217-1.209c-2.561-0.594-4.373-2.875-4.373-5.503V35.163l2.571-1.918l-2.571-2.093V21.63
	c0-5.211,4.225-9.436,9.436-9.436h0.309c5.211,0,9.436,4.225,9.436,9.436v26.653l-3.574,1.57l3.574,1.961v7.76
	c0,2.628-1.813,4.909-4.373,5.503l-1.846,0.428"/>
<line fill="none" stroke="#582D82" stroke-width="1.8" stroke-linecap="round" stroke-linejoin="round" stroke-miterlimit="10" x1="45.407" y1="12.194" x2="45.407" y2="76.748"/>
<line fill="none" stroke="#582D82" stroke-width="1.8" stroke-linecap="round" stroke-linejoin="round" stroke-miterlimit="10" x1="45.407" y1="52.86" x2="35.663" y2="49.434"/>
<line fill="none" stroke="#582D82" stroke-width="1.8" stroke-linecap="round" stroke-linejoin="round" stroke-miterlimit="10" x1="45.407" y1="45.063" x2="35.663" y2="41.636"/>
<line fill="none" stroke="#582D82" stroke-width="1.8" stroke-linecap="round" stroke-linejoin="round" stroke-miterlimit="10" x1="45.407" y1="40.132" x2="54.843" y2="36.813"/>
<line fill="none" stroke="#582D82" stroke-width="1.8" stroke-linecap="round" stroke-linejoin="round" stroke-miterlimit="10" x1="45.407" y1="29.792" x2="54.843" y2="26.474"/>
<line fill="none" stroke="#582D82" stroke-width="1.8" stroke-linecap="round" stroke-linejoin="round" stroke-miterlimit="10" x1="45.407" y1="59.873" x2="54.843" y2="56.554"/>
<line fill="none" stroke="#582D82" stroke-width="1.8" stroke-linecap="round" stroke-linejoin="round" stroke-miterlimit="10" x1="45.407" y1="24.977" x2="35.663" y2="21.549"/>
</svg>
