<svg xmlns="http://www.w3.org/2000/svg" xmlns:xlink="http://www.w3.org/1999/xlink" version="1.1" x="0px" y="0px" viewBox="0 0 200 200" style="enable-background:new 0 0 200 200;" xml:space="preserve">
    <path d="M179.2,169.9c-2.4-0.1-4.8-0.2-7.2-0.3c-0.3-0.6-0.6-1.1-0.9-1.7l-31.5-55.2c-12.7-22.3-25.8-44.4-39.3-66.2l8.2-14.4  c2.5-4.4,3.2-8.7,1.6-9.6h0c-1.6-0.9-4.9,1.9-7.4,6.3l-6.4,11.3c-3.4-5.5-6.9-11-10.4-16.5l0,0c-1.2-1.9-2.5-1.2-1.5,0.8l0,0  c3.2,6.4,6.6,12.8,9.9,19.1L71.3,84c-15.7,27.5-30.8,55.4-45.2,83.5c-3.9,0.3-6.9,1.6-6.9,3.3v0c0,1.2,1.5,2.2,3.8,2.8  c-0.3,0.7-0.7,1.3-1,2v0c-1,2,0.3,2.8,1.5,0.8v0c0.5-0.8,1-1.6,1.5-2.4c0.8,0.1,1.6,0.2,2.5,0.2h36.3H70h15c27,0,54.1-0.6,81-1.9  c2.4,3.8,5.3,6.1,6.8,5.2c1.1-0.6,1.1-2.8,0.2-5.5c2.1-0.1,4.2-0.2,6.3-0.3C181.3,171.5,181.3,170,179.2,169.9z M29.1,167.5  c16.5-26.3,32.6-53.1,48.1-80.2l20.9-36.7c11.6,22,23.5,43.8,35.8,65.4l30.4,53.2c-12.5-0.6-25.1-1-37.6-1.3l-2.6-4.4l-3.5-5.8  l-7.1-11.6c-4.5-7.3-9-14.6-13.6-21.8l3.4-6c2.6-4.5,3.4-8.9,1.8-9.8v0c-1.6-0.9-5,2-7.5,6.5l-29.9,52.4H29.1z M85,167.5h-9.9  l23.5-41.2c3.7,7.3,7.5,14.6,11.3,21.8l6.4,12.1l3.2,6c0.7,1.4,0.6,1.1,0.7,1.4l0.1,0.3C108.6,167.6,96.8,167.5,85,167.5z"/>
    <text x="0" y="215" fill="#000000" font-size="5px" font-weight="bold" font-family="'Helvetica Neue', Helvetica, Arial-Unicode, Arial, Sans-serif">Created by Symbolon</text>
    <text x="0" y="220" fill="#000000" font-size="5px" font-weight="bold" font-family="'Helvetica Neue', Helvetica, Arial-Unicode, Arial, Sans-serif">from the Noun Project</text>
</svg>
