<svg xmlns="http://www.w3.org/2000/svg" xmlns:xlink="http://www.w3.org/1999/xlink" version="1.1" x="0px" y="0px" viewBox="0 0 100 100" enable-background="new 0 0 100 100" xml:space="preserve">
    <path d="M93.45,52.723c-0.676,1.28-6.664,12.581-8.986,15.019c-2.386,2.505-6.281,4.581-6.445,4.668l-5.695,3.503  c-0.067,0.042-1.077,0.745-0.472,3.149l3.735,10.532c0.276,0.781-0.132,1.638-0.913,1.915c-0.165,0.059-0.335,0.087-0.501,0.087  c-0.617,0-1.195-0.384-1.414-0.999l-3.758-10.596c-0.014-0.041-0.026-0.082-0.038-0.124c-1.255-4.828,1.738-6.495,1.866-6.564  l5.702-3.506c0.119-0.067,3.715-1.987,5.761-4.134c1.606-1.687,6.056-9.755,8.097-13.581c-0.451-0.6-1.188-1.348-2.06-1.54  c-0.731-0.159-1.527,0.08-2.419,0.741c-0.431,0.444-2.529,2.602-5.608,5.681c-0.056,0.056-0.116,0.107-0.18,0.153l-2.413,1.75  c-0.025,2.115-1.31,4.324-1.989,5.343c-2.58,3.792-10.216,7.01-11.078,7.365c-0.766,0.316-1.642-0.051-1.957-0.816  c-0.315-0.766,0.05-1.643,0.816-1.958c2.112-0.87,7.979-3.691,9.73-6.266c1.312-1.967,1.691-3.635,1.386-4.262  c-0.171-0.349-0.71-0.506-1.172-0.576c-1.493,0.75-6.646,3.259-9.751,3.723c-5.232,0.783-6.476,1.206-6.619,1.259  c-0.139,0.065-0.287,0.109-0.439,0.129c-0.012,0.002-2.251,0.352-3.539,2.251c-1.054,1.553-1.251,3.767-0.586,6.58  c1.488,6.296,1.733,14.434,1.846,21.567c0.013,0.828-0.648,1.51-1.477,1.523c-0.008,0-0.016,0-0.023,0  c-0.818,0-1.487-0.656-1.5-1.477C51.259,87.031,51.054,80.037,50,74.334c-1.054,5.703-1.259,12.697-1.356,18.928  c-0.013,0.82-0.683,1.477-1.5,1.477c-0.008,0-0.016,0-0.023,0c-0.828-0.013-1.489-0.695-1.477-1.523  c0.112-7.133,0.357-15.271,1.846-21.567c0.669-2.831,0.466-5.054-0.605-6.609c-1.295-1.879-3.498-2.219-3.52-2.222  c-0.152-0.02-0.301-0.063-0.439-0.129c-0.144-0.053-1.387-0.476-6.619-1.259c-3.104-0.464-8.258-2.973-9.751-3.723  c-0.462,0.07-1.001,0.228-1.172,0.576c-0.306,0.626,0.074,2.295,1.394,4.273c1.748,2.568,7.611,5.386,9.723,6.254  c0.767,0.315,1.132,1.191,0.817,1.958c-0.314,0.766-1.188,1.134-1.958,0.817c-0.862-0.354-8.498-3.572-11.07-7.353  c-0.686-1.028-1.972-3.238-1.997-5.354l-2.413-1.75c-0.063-0.046-0.124-0.098-0.18-0.153c-3.079-3.079-5.178-5.237-5.608-5.681  c-0.896-0.664-1.693-0.905-2.43-0.738c-0.904,0.203-1.627,0.979-2.047,1.541c2.042,3.828,6.489,11.891,8.095,13.577  c2.053,2.155,5.642,4.067,5.678,4.086l5.861,3.599c0.052,0.024,3.045,1.692,1.79,6.52c-0.012,0.042-0.024,0.083-0.038,0.124  l-3.758,10.596c-0.219,0.615-0.797,0.999-1.414,0.999c-0.166,0-0.336-0.028-0.501-0.087c-0.781-0.277-1.189-1.134-0.913-1.915  l3.735-10.532c0.605-2.404-0.404-3.106-0.448-3.135l-5.802-3.564c-0.081-0.04-3.977-2.116-6.362-4.621  c-2.322-2.438-8.311-13.739-8.986-15.019c-0.228-0.433-0.23-0.949-0.008-1.384c0.161-0.313,1.651-3.079,4.46-3.711  c1.138-0.256,2.935-0.233,4.997,1.348c0.059,0.045,0.113,0.094,0.165,0.147c0.021,0.022,2.189,2.263,5.571,5.645l1.671,1.211  c0.642-0.634,1.664-1.188,3.321-1.309c0.276-0.02,0.554,0.037,0.8,0.165c1.696,0.879,6.659,3.244,9.222,3.627  c2.682,0.401,5.972,0.955,7.222,1.417c0.792,0.151,3.59,0.855,5.384,3.458c0.25,0.362,0.457,0.75,0.646,1.15  c0.188-0.4,0.396-0.788,0.646-1.15c1.794-2.603,4.592-3.307,5.384-3.458c1.25-0.462,4.54-1.015,7.222-1.417  c2.566-0.384,7.527-2.749,9.222-3.627c0.246-0.127,0.526-0.18,0.8-0.165c1.657,0.121,2.68,0.675,3.321,1.309l1.671-1.211  c3.382-3.382,5.55-5.623,5.571-5.645c0.052-0.053,0.106-0.103,0.165-0.147c2.063-1.58,3.859-1.604,4.997-1.348  c2.809,0.632,4.299,3.397,4.46,3.711C93.681,51.774,93.678,52.291,93.45,52.723z M45.098,16.5c0-4.368,5.037-9.824,5.611-10.432  c0.566-0.6,1.613-0.6,2.18,0C53.463,6.676,58.5,12.132,58.5,16.5c0,4.314-2.567,6.994-6.701,6.994S45.098,20.814,45.098,16.5z   M48.098,16.5c0,2.65,1.245,3.994,3.701,3.994S55.5,19.15,55.5,16.5c0-2.104-2.163-5.224-3.703-7.117  C50.234,11.293,48.098,14.378,48.098,16.5z M59.716,31.965c0-6.619,8.199-15.371,8.549-15.74c0.283-0.3,0.678-0.47,1.09-0.47  s0.807,0.17,1.09,0.47c0.35,0.37,8.548,9.122,8.548,15.74c0,6.228-3.693,10.096-9.638,10.096  C63.409,42.062,59.716,38.193,59.716,31.965z M62.716,31.965c0,5.865,3.61,7.096,6.639,7.096s6.638-1.231,6.638-7.096  c0-3.868-4.114-9.501-6.638-12.458C66.831,22.464,62.716,28.097,62.716,31.965z M31.104,45.71c0-7.894,9.851-18.407,10.271-18.851  c0.283-0.3,0.678-0.47,1.09-0.47s0.807,0.17,1.09,0.47c0.42,0.444,10.27,10.958,10.27,18.851c0,7.461-4.246,11.915-11.359,11.915  S31.104,53.171,31.104,45.71z M34.104,45.71c0,7.757,5.238,8.915,8.36,8.915s8.359-1.158,8.359-8.915  c0-5.311-5.873-12.684-8.359-15.567C39.978,33.027,34.104,40.4,34.104,45.71z M45.137,47.902c-0.216,0.8,0.259,1.623,1.059,1.838  c0.131,0.035,0.262,0.052,0.391,0.052c0.661,0,1.268-0.441,1.447-1.111c1.326-4.928-1.173-8.802-1.279-8.965  c-0.455-0.69-1.379-0.877-2.068-0.429c-0.692,0.45-0.888,1.378-0.441,2.072C44.263,41.389,46.103,44.311,45.137,47.902z"/>
    <text x="0" y="115" fill="#000000" font-size="5px" font-weight="bold" font-family="'Helvetica Neue', Helvetica, Arial-Unicode, Arial, Sans-serif">Created by davidyu</text>
    <text x="0" y="120" fill="#000000" font-size="5px" font-weight="bold" font-family="'Helvetica Neue', Helvetica, Arial-Unicode, Arial, Sans-serif">from the Noun Project</text>
</svg>
