<svg xmlns="http://www.w3.org/2000/svg" xmlns:xlink="http://www.w3.org/1999/xlink" version="1.1" x="0px" y="0px" viewBox="0 0 100 100" enable-background="new 0 0 100 100" xml:space="preserve">
    <path d="M85.174,30.168c0.134,0.112,0.268,0.244,0.4,0.378c3.578,3.545,3.602,9.336,0.056,12.914l-33.65,33.939  c-0.489-3.245-2.012-6.257-4.345-8.579L30.019,51.35c-1.189-1.177-1.2-3.111-0.022-4.3l35.808-36.096l20.148,19.982 M21.44,59.997  c-3.579-3.546-9.369-3.523-12.925,0.055c-3.545,3.59-3.523,9.368,0.056,12.925l17.614,17.471c5.968,5.924,15.614,5.878,21.538-0.09  l42.23-42.585c5.924-5.968,5.879-15.614-0.088-21.527L67.926,4.485c-1.199-1.188-3.121-1.179-4.311,0.011l-37.93,38.253  c-3.556,3.589-3.545,9.379,0.044,12.936l17.615,17.459c3.579,3.557,3.601,9.347,0.055,12.914c-3.556,3.589-9.346,3.611-12.924,0.055  L12.871,68.653c-1.201-1.189-1.211-3.112-0.022-4.301c1.178-1.2,3.112-1.21,4.301-0.021l17.614,17.47  c1.201,1.178,3.124,1.178,4.312-0.022c1.178-1.188,1.167-3.123-0.022-4.301L21.44,59.997z"/>
    <g>
        <polygon points="38.81,50.794 50.212,39.304 63.748,52.729 52.357,64.22  "/>
    </g>
    <g>
        <polygon points="67.26,22.122 53.08,36.414 55.559,38.87 69.728,24.567  "/>
    </g>
    <g>
        <polygon points="78.328,33.091 64.148,47.394 66.615,49.839 80.808,35.547  "/>
    </g>
    <g>
        <polygon points="72.795,27.602 58.613,41.904 61.08,44.36 75.262,30.057  "/>
    </g>
    <text x="0" y="115" fill="#000000" font-size="5px" font-weight="bold" font-family="'Helvetica Neue', Helvetica, Arial-Unicode, Arial, Sans-serif">Created by Aldric Rodríguez</text>
    <text x="0" y="120" fill="#000000" font-size="5px" font-weight="bold" font-family="'Helvetica Neue', Helvetica, Arial-Unicode, Arial, Sans-serif">from the Noun Project</text>
</svg>
