<?xml version="1.0" encoding="utf-8"?>
<!-- Generator: Adobe Illustrator 16.0.0, SVG Export Plug-In . SVG Version: 6.00 Build 0)  -->
<!DOCTYPE svg PUBLIC "-//W3C//DTD SVG 1.1//EN" "http://www.w3.org/Graphics/SVG/1.1/DTD/svg11.dtd">
<svg version="1.1" id="Layer_1" xmlns="http://www.w3.org/2000/svg" xmlns:xlink="http://www.w3.org/1999/xlink" x="0px" y="0px"
	 width="90px" height="90px" viewBox="0 0 90 90" enable-background="new 0 0 90 90" xml:space="preserve">
<path fill="none" stroke="#582D82" stroke-width="1.8" stroke-linecap="round" stroke-linejoin="round" stroke-miterlimit="10" d="
	M33.585,21.059c1.411,3.141,6.9,7.503,14.142,10.933c9.285,4.397,17.935,5.594,19.318,2.673c1.383-2.922-5.023-8.854-14.309-13.252
	c-3.934-1.863-7.752-3.151-10.953-3.796l-0.129-0.025c-1.868-0.297-3.121-0.16-3.426,0.484c-0.756,1.595,4.563,5.695,11.88,9.16
	c0.525,0.249,1.046,0.487,1.562,0.716c0.339,0.15,0.485,0.545,0.327,0.88l-1.984,4.189"/>
<path fill="none" stroke="#582D82" stroke-width="1.8" stroke-linecap="round" stroke-linejoin="round" stroke-miterlimit="10" d="
	M43.712,37.562c-3.603-1.843-6.687-3.892-8.932-5.848"/>
<path fill="none" stroke="#822C90" stroke-width="1.8" stroke-linecap="round" stroke-linejoin="round" stroke-miterlimit="10" d="
	M53.296,48.026c-2.85-0.593-6.173-1.687-9.623-3.235l3.571-5.566c3.531,1.523,6.902,2.563,9.732,3.065L53.296,48.026z"/>
<path fill="none" stroke="#582D82" stroke-width="1.8" stroke-linecap="round" stroke-linejoin="round" stroke-miterlimit="10" d="
	M40.172,43.081c-2.923-1.549-5.476-3.225-7.475-4.857"/>
<path fill="none" stroke="#582D82" stroke-width="1.8" stroke-linecap="round" stroke-linejoin="round" stroke-miterlimit="10" d="
	M49.631,53.741c-2.966-0.699-6.376-1.902-9.878-3.561c-3.553-1.683-6.684-3.59-9.118-5.467"/>
<path fill="none" stroke="#582D82" stroke-width="1.8" stroke-linecap="round" stroke-linejoin="round" stroke-miterlimit="10" d="
	M45.978,59.436c-2.758-0.719-5.854-1.847-9.022-3.348c-3.2-1.516-6.06-3.215-8.374-4.908"/>
<path fill="none" stroke="#582D82" stroke-width="1.8" stroke-linecap="round" stroke-linejoin="round" stroke-miterlimit="10" d="
	M42.336,65.112c-2.538-0.72-5.328-1.768-8.178-3.117c-2.864-1.356-5.454-2.858-7.626-4.374"/>
<line fill="none" stroke="#582D82" stroke-width="1.8" stroke-linecap="round" stroke-linejoin="round" stroke-miterlimit="10" x1="38.229" y1="18.075" x2="36.304" y2="24.558"/>
<path fill="none" stroke="#582D82" stroke-width="1.8" stroke-linecap="round" stroke-linejoin="round" stroke-miterlimit="10" d="
	M42.313,71.501c-3.762-0.461-7.514-1.521-11.126-3.233c-3.61-1.71-6.809-3.938-9.548-6.555"/>
<line fill="none" stroke="#582D82" stroke-width="1.8" stroke-linecap="round" stroke-linejoin="round" stroke-miterlimit="10" x1="21.64" y1="61.713" x2="33.585" y2="21.059"/>
<line fill="none" stroke="#582D82" stroke-width="1.8" stroke-linecap="round" stroke-linejoin="round" stroke-miterlimit="10" x1="67.045" y1="34.664" x2="42.313" y2="71.501"/>
</svg>
