<?xml version="1.0" encoding="utf-8"?>
<!-- Generator: Adobe Illustrator 16.0.0, SVG Export Plug-In . SVG Version: 6.00 Build 0)  -->
<!DOCTYPE svg PUBLIC "-//W3C//DTD SVG 1.1//EN" "http://www.w3.org/Graphics/SVG/1.1/DTD/svg11.dtd">
<svg version="1.1" id="Layer_1" xmlns="http://www.w3.org/2000/svg" xmlns:xlink="http://www.w3.org/1999/xlink" x="0px" y="0px"
	 width="90px" height="90px" viewBox="0 0 90 90" enable-background="new 0 0 90 90" xml:space="preserve">
<path fill="none" stroke="#582D82" stroke-width="2" stroke-linecap="round" stroke-linejoin="round" stroke-miterlimit="10" d="
	M49.02,15.02c4.635,4.501,7.955,16.657,7.955,30.946c0,18.121-5.34,32.811-11.929,32.811c-6.588,0-11.928-14.689-11.928-32.811
	c0-14.289,3.321-26.445,7.956-30.946"/>
<path fill="#822C90" d="M47.348,12.718c0,1.271-1.029,2.302-2.301,2.302c-1.271,0-2.302-1.03-2.302-2.302
	c0-1.271,1.031-2.301,2.302-2.301C46.318,10.417,47.348,11.447,47.348,12.718"/>
<path fill="none" stroke="#582D82" stroke-width="2" stroke-linecap="round" stroke-linejoin="round" stroke-miterlimit="10" d="
	M68.675,65.127c-6.216,1.763-18.403-1.438-30.779-8.583c-15.693-9.061-25.744-21.03-22.45-26.736
	c3.294-5.705,18.686-2.985,34.378,6.075c12.375,7.145,21.242,16.099,22.824,22.363"/>
<path fill="#822C90" d="M71.504,64.83c-1.102-0.636-1.479-2.043-0.843-3.144s2.044-1.478,3.144-0.843
	c1.101,0.636,1.478,2.043,0.843,3.144C74.012,65.088,72.604,65.466,71.504,64.83"/>
<path fill="none" stroke="#582D82" stroke-width="2" stroke-linecap="round" stroke-linejoin="round" stroke-miterlimit="10" d="
	M21.102,65.127c6.215,1.763,18.403-1.438,30.778-8.583c15.693-9.061,25.744-21.03,22.451-26.736
	c-3.294-5.705-18.687-2.985-34.379,6.075C27.577,43.027,18.71,51.981,17.129,58.246"/>
<path fill="#822C90" d="M18.273,64.83c1.101-0.636,1.478-2.043,0.842-3.144c-0.635-1.101-2.042-1.478-3.143-0.843
	c-1.101,0.636-1.478,2.043-0.843,3.144C15.765,65.088,17.172,65.466,18.273,64.83"/>
</svg>
