<?xml version="1.0" encoding="utf-8"?>
<!-- Generator: Adobe Illustrator 16.0.0, SVG Export Plug-In . SVG Version: 6.00 Build 0)  -->
<!DOCTYPE svg PUBLIC "-//W3C//DTD SVG 1.1//EN" "http://www.w3.org/Graphics/SVG/1.1/DTD/svg11.dtd">
<svg version="1.1" id="Layer_1" xmlns="http://www.w3.org/2000/svg" xmlns:xlink="http://www.w3.org/1999/xlink" x="0px" y="0px"
	 width="90px" height="90px" viewBox="0 0 90 90" enable-background="new 0 0 90 90" xml:space="preserve">
<path fill="none" stroke="#582D82" stroke-width="2" stroke-linecap="round" stroke-linejoin="round" stroke-miterlimit="10" d="
	M22.594,61.825v13.118c0,0.887-0.718,1.604-1.604,1.604h-0.959c-0.886,0-1.604-0.718-1.604-1.604V61.825"/>
<path fill="none" stroke="#582D82" stroke-width="2" stroke-linecap="round" stroke-linejoin="round" stroke-miterlimit="10" d="
	M26.76,61.825v13.118c0,0.887-0.718,1.604-1.604,1.604h-0.959c-0.885,0-1.604-0.718-1.604-1.604V61.825"/>
<path fill="none" stroke="#582D82" stroke-width="2" stroke-linecap="round" stroke-linejoin="round" stroke-miterlimit="10" d="
	M64.555,56.825v18.118c0,0.887-0.718,1.604-1.604,1.604h-2.959c-0.887,0-1.604-0.718-1.604-1.604V31.825"/>
<path fill="none" stroke="#582D82" stroke-width="2" stroke-linecap="round" stroke-linejoin="round" stroke-miterlimit="10" d="
	M70.721,31.825v43.118c0,0.887-0.718,1.604-1.604,1.604h-2.958c-0.886,0-1.604-0.718-1.604-1.604V56.825"/>
<path fill="none" stroke="#582D82" stroke-width="2" stroke-linecap="round" stroke-linejoin="round" stroke-miterlimit="10" d="
	M42.608,66.187v9.118c0,0.887-0.718,1.604-1.604,1.604h-0.959c-0.886,0-1.604-0.718-1.604-1.604V59.132l-6.878-6.878
	c-0.626-0.626-0.626-1.642,0-2.269l0.678-0.678c0.626-0.626,1.642-0.626,2.268,0l6.016,6.016h4.166l6.016-6.016
	c0.627-0.626,1.643-0.626,2.269,0l0.678,0.678c0.626,0.627,0.626,1.643,0,2.269l-6.878,6.878v16.173
	c0,0.887-0.719,1.604-1.604,1.604h-0.959c-0.886,0-1.604-0.718-1.604-1.604V66.187"/>
<polyline fill="none" stroke="#582D82" stroke-width="2" stroke-linecap="round" stroke-linejoin="round" stroke-miterlimit="10" points="
	27.094,38.048 31.094,61.825 14.094,61.825 18.094,38.048 "/>
<path fill="none" stroke="#582D82" stroke-width="2" stroke-linecap="round" stroke-linejoin="round" stroke-miterlimit="10" d="
	M16.093,49.937h-1.522c-1.092,0-1.978-0.885-1.978-1.978V38.7c0-4.334,3.514-7.847,7.848-7.847h4.305
	c4.334,0,7.847,3.513,7.847,7.847v9.259c0,1.093-0.885,1.978-1.978,1.978h-1.522"/>
<path fill="none" stroke="#582D82" stroke-width="2" stroke-linecap="round" stroke-linejoin="round" stroke-miterlimit="10" d="
	M58.2,49.937h-3.668c-1.092,0-1.978-0.885-1.978-1.978V30.598c0-4.277,3.467-7.744,7.744-7.744h8.512
	c4.277,0,7.744,3.467,7.744,7.744v17.361c0,1.093-0.886,1.978-1.979,1.978h-3.668"/>
<ellipse fill="none" stroke="#582D82" stroke-width="2" stroke-linecap="round" stroke-linejoin="round" stroke-miterlimit="10" cx="22.594" cy="25.812" rx="4.354" ry="5.042"/>
<ellipse fill="none" stroke="#582D82" stroke-width="2" stroke-linecap="round" stroke-linejoin="round" stroke-miterlimit="10" cx="64.555" cy="17.789" rx="4.354" ry="5.041"/>
<ellipse fill="none" stroke="#582D82" stroke-width="2" stroke-linecap="round" stroke-linejoin="round" stroke-miterlimit="10" cx="42.609" cy="50.256" rx="4.354" ry="5.042"/>
</svg>
