<svg xmlns="http://www.w3.org/2000/svg" xmlns:xlink="http://www.w3.org/1999/xlink" version="1.0" x="0px" y="0px" viewBox="0 0 100 100" enable-background="new 0 0 100 100" xml:space="preserve">
    <g>
        <g>
            <path d="M58.8223686,31.0957203c-0.6632271,0-1.2000008,0.5372391-1.2000008,1.1999989v5.3091621    c0,0.6626396,0.5367737,1.1999969,1.2000008,1.1999969h3.5390396c0.6633606,0,1.2000008-0.5373573,1.2000008-1.1999969    c0-0.6627617-0.5366402-1.2000008-1.2000008-1.2000008h-0.7994423h-1.5396004v-2.3093987v-1.7997627    C60.0223656,31.6329594,59.4857254,31.0957203,58.8223686,31.0957203z"/>
            <path d="M43.984127,31.5995998h3.5390396c0.6632423,0,1.2000008-0.5373592,1.2000008-1.2000008    c0-0.6626396-0.5367584-1.1999989-1.2000008-1.1999989h-0.8002777h-1.5387611v-2.308321v-1.8008385    c0-0.6627617-0.5367584-1.2000008-1.2000008-1.2000008c-0.6632385,0-1.2000008,0.5372391-1.2000008,1.2000008v5.3091583    C42.7841263,31.0622406,43.3208885,31.5995998,43.984127,31.5995998z"/>
            <path d="M86.7575455,70.1320801c-1.1941376-4.4268036-6.9762192-4.048317-7.2128601-4.0289993    c-0.0121155,0.0009613-0.0232773,0.0058823-0.0352783,0.0070801c0.0024033-1.7911224,0.0021591-5.1824417-0.0210037-9.7758026    c-0.0374374-7.6534767-9.8015976-12.2384377-10.1566772-12.4001999c-0.6598816-0.3498001-1.1024399-0.7943993-1.1638794-1.6142387    c-0.0161972-0.4989586,0.1017609-1.127758,0.3975601-1.9528809c0.0344391-0.0962372,0.0331192-0.1934395,0.0424805-0.290638    c0.7532578-2.190239,1.3822784-4.4119225,1.0731583-7.2826805c-0.5028-4.715641-4.8786011-8.5353603-9.7617569-8.5353603    c-0.0304832,0-0.0609474,0-0.0914421,0c-1.8194389,0-3.5671043,0.5307598-5.0714378,1.4384403    c-0.691803-4.5376797-4.9498825-8.1549606-9.7011604-8.1549606c-0.0304794,0-0.0609589,0-0.0914421,0    c-4.8878403,0-9.2636375,3.8197212-9.7664375,8.5341606c-0.3187218,2.9612389,0.3586807,5.23176,1.1414375,7.4859581    c0.7851601,2.27808,0.2788811,3.087841-0.6961174,3.6099625c-0.452282,0.190918-11.0788803,4.7648392-11.1175213,12.4458008    c-0.0220795,4.5725975-0.0170403,6.4389572-0.0104256,7.1972389c-2.094614,0.0607185-4.2332535,0.1220398-6.4547997,0.2143211    c-0.6621742,0.0275993-1.1778145,0.5865593-1.1495991,1.2486c0.0266247,0.6275978,0.5714245,1.0981178,1.1524658,1.1323166    c0.0325184,0.0019226,0.0628796,0.017643,0.0955334,0.0167999c2.2195053-0.0920372,4.3546658-0.1535988,6.4465065-0.2133598    c5.4315586-0.1563568,10.6246929-0.31464,16.1989193-0.9717598c0.4001999-0.0471573,0.7957191-0.0880775,1.200119-0.1406403    c0.395401-0.0514793,0.8012543-0.1156769,1.2010803-0.1726799c0.4731598-0.06744,0.9412804-0.1286392,1.4212799-0.2043571    l2.9118004-0.4597206l9.4421997-1.4908791c1.6804962-0.2665215,2.2124405,0.1095581,2.3343582,0.2320786    c0.3661385,0.3653984,0.4463997,0.8038788,0.3699608,1.2588005c-0.1099205,0.65448-0.5539207,1.3436394-1.0191574,1.9046402    c-0.9528008,1.1473198-4.1004028,2.430481-6.0304832,2.9748001c-2.3217583,0.6555595-6.9242401,2.3591995-9.4336777,3.3056412    c-0.4904404,0.1849213-0.9018021,0.341156-1.1986809,0.4544373c-0.2888412,0.1101608-0.4807205,0.1838379-0.5251198,0.200882    c-0.3215981,0.1237183-0.5502014,0.3812408-0.6704407,0.6859207c-0.07164,0.1815567-0.1143608,0.3757172-0.0889206,0.5797195    c0.0193214,0.1577988,0.0755997,0.3009567,0.1495209,0.4334412c0.1820412,0.3266373,0.5049591,0.5634003,0.8935356,0.6112747    c0.0847054,0.0105591,0.404026,0.0501633,0.9010658,0.1113663c3.6563988,0.4496384,17.2145996,2.0990372,22.3007965,2.4713974    c5.6085587,0.403801,13.6241989-2.0976028,14.8910446-2.5077591c0.6668396-0.0251999,3.7628403-0.006485,4.5175171,2.052475    c-1.1238022,1.5762024-10.0405197,5.5066833-17.9496002,8.2963257l-0.4030762,0.1371536    c-6.392643,2.1802826-12.431282,4.2398453-18.4969215,4.3341675c-3.8003998,0.0503998-9.0890427-1.3441238-14.1538811-2.7030029    c-3.7429199-1.0036774-7.2784805-1.9522781-10.2105446-2.309761l-5.7000008-0.7136383    c-0.0357742-0.0044403-0.0675735,0.0089951-0.1027336,0.0076752c-0.6202812-0.0237579-1.1590805,0.4125671-1.236721,1.0341644    c-0.0819588,0.6573563,0.3843613,1.2573624,1.0418549,1.3394394l5.7034664,0.714241    c2.7679195,0.3375549,6.2237988,1.2644348,9.8824787,2.2459183c5.1093597,1.3705215,10.3886414,2.7867584,14.5370407,2.7867584    c0.0926399,0,0.1851578-0.0005951,0.2766151-0.0018005c6.4441032-0.1007996,12.6562653-2.2195206,19.2339439-4.4625549    l0.3949203-0.1347656C70.6408081,79.9622421,87.8087463,74.0250015,86.7575455,70.1320801z M65.1388092,68.6038818    c-2.2563629-0.1647644-6.2992668-0.5966415-10.3778419-1.0602036c-2.7803993-0.3160782-5.5773582-0.6466751-7.8366013-0.9178772    c2.2792816-0.8349609,4.8620415-1.7485199,6.3620415-2.1721191c0.2192383-0.0615616,5.3883591-1.5392418,7.2257996-3.7522812    c0.8701363-1.0490417,1.3693352-2.1006012,1.5341988-3.0933609c0.0189629-0.1143608,0.0513611-0.230999,0.0608406-0.3435593    c0.0418968-0.4935608-0.019558-0.9654007-0.1597023-1.4144402c-0.1748581-0.5595589-0.4761772-1.0821609-0.9361382-1.5418816    c-0.9175186-0.9175186-2.3964005-1.223999-4.4061584-0.9052773l-12.3540001,1.9505997    c-0.325798,0.0514793-0.6429596,0.09132-0.9657593,0.1388397c0.7293587-5.660881,8.1397209-9.3830414,8.2502403-9.4382401    c0.4503593-0.2388,0.8186378-0.5236816,1.1442146-0.8321991c1.3360634,1.1355591,3.8611031,2.843399,7.0600624,2.9356766    c0.09132,0.0024033,0.1827621,0.0036011,0.2730026,0.0036011c0.5593338,0,1.1119194-0.0644379,1.6603203-0.163681    c0.3907204-0.070797,0.7786789-0.1645203,1.163517-0.2854767c0.3810005-0.1197624,0.7593613-0.260643,1.1341209-0.4294815    c1.049778-0.4729195,2.0746803-1.1328011,3.0695992-1.9879189c0.3226852,0.311039,0.6878433,0.5990372,1.1356812,0.8421593    c0.1472397,0.0796776,0.3038406,0.1171188,0.4606781,0.1317596c1.6582794,0.8554802,8.4256821,4.6766396,8.4514847,10.0775986    c0.0266342,5.2744827,0.0230408,8.9704781,0.0196762,10.4592018c-0.8058014,0.2259598-1.7888412,0.4856415-2.8762817,0.7383575    C71.4011459,68.2014008,67.8920898,68.805481,65.1388092,68.6038818z M26.9141273,56.7442818    c-0.0059986-0.7422028-0.0111599-2.5962029,0.0110416-7.1148033c0.0304794-6.0984001,9.555479-10.2058792,9.746397-10.292038    c0.4504814-0.2386818,0.8186417-0.5236816,1.1443214-0.8321991c1.3359604,1.1355591,3.8611221,2.843277,7.0600815,2.9351997    c0.09132,0.0022774,0.181572,0.0040779,0.2729988,0.0040779c2.0079613,0,3.9471588-0.6549606,5.7964783-1.9263573    c0.0838814,0.254158,0.1695633,0.5074768,0.2574005,0.7603188c0.7851601,2.2781982,0.2788811,3.0879593-0.756958,3.637558    c-0.3824425,0.1878014-9.1533623,4.5832825-9.593399,11.9037628    C36.0660477,56.4001198,31.5462475,56.6019592,26.9141273,56.7442818z M44.9825287,19.9418392    c0.0235176,0,0.0445175,0,0.0680389,0c3.6339607,0,7.0101738,2.9191208,7.3804779,6.3907204    c0.0464401,0.4327202,0.0480003,0.8365211,0.0472984,1.2410412c-1.3155746,1.4435997-2.2069359,3.2505589-2.416935,5.2189178    c-0.1584015,1.4718018-0.0700798,2.7726021,0.1541977,3.98592c0.0159607,0.0859222,0.0364799,0.1689606,0.0536423,0.2541618    c-1.7095222,1.368721-3.472683,2.0445595-5.3054428,2.0095215c-2.4472771-0.063961-4.4450378-1.4134827-5.5231171-2.3168411    c-0.1694412-0.1420822-0.3193207-0.2696419-0.4401627-0.3822021c0.19524-1.0142403,0.0778809-2.197319-0.3941841-3.5657997    c-0.8495979-2.4473991-1.2644539-4.199398-1.0230141-6.4457989    C37.9536476,22.8603592,41.3286476,19.9418392,44.9825287,19.9418392z M67.2950897,33.0491982    c0.2413177,2.2453232-0.1735229,3.9973221-1.0242004,6.4477234c-0.3676834,1.0662003-0.5169449,2.0187569-0.4762802,2.8719597    c0.006134,0.2579994,0.0337372,0.5046005,0.0770416,0.7432785c-0.141243,0.1311607-0.2823639,0.263279-0.4244461,0.3848419    c-0.7717209,0.6596375-1.5562782,1.1801987-2.3513985,1.5524368c-0.377037,0.1765213-0.756958,0.3105621-1.1381989,0.4214401    c-0.4083595,0.1186829-0.8185196,0.2089195-1.2310791,0.2516403c-0.2986794,0.0309601-0.5981865,0.0454826-0.8986816,0.0362396    c-2.4391022-0.0635986-4.4494781-1.4134789-5.5300789-2.3169594c-0.167881-0.1402779-0.3128395-0.2680779-0.4335594-0.3801575    c0.1958389-1.0147209,0.0784798-2.1984024-0.3937225-3.5677223c-0.0135574-0.0388794-0.0218391-0.0710411-0.0351601-0.1095581    c-0.1845589-0.5355606-0.3483582-1.0398026-0.4876785-1.5222015c-0.040905-0.1413612-0.0684013-0.2770805-0.1051178-0.4153214    c-0.1660805-0.6250801-0.2796021-1.2314377-0.3542404-1.8285599c-0.0841217-0.673439-0.1066818-1.3610382-0.0596428-2.0797195    c0.0108032-0.1657181,0.0003624-0.3194389,0.0187225-0.4905586c0.1005745-0.942482,0.4286385-1.8409195,0.9176407-2.65452    c0.3955193-0.6580811,0.896637-1.2593994,1.4817581-1.7770805c1.3556404-1.1997604,3.1403999-1.9580402,4.9998016-1.9580402    c0.0235176,0,0.0446396,0,0.0680389,0C63.5485687,26.6583595,66.9247665,29.5774803,67.2950897,33.0491982z"/>
        </g>
    </g>
    <text x="0" y="115" fill="#000000" font-size="5px" font-weight="bold" font-family="'Helvetica Neue', Helvetica, Arial-Unicode, Arial, Sans-serif">Created by Yu luck</text>
    <text x="0" y="120" fill="#000000" font-size="5px" font-weight="bold" font-family="'Helvetica Neue', Helvetica, Arial-Unicode, Arial, Sans-serif">from the Noun Project</text>
</svg>
