<?xml version="1.0" encoding="utf-8"?>
<!-- Generator: Adobe Illustrator 16.0.0, SVG Export Plug-In . SVG Version: 6.00 Build 0)  -->
<!DOCTYPE svg PUBLIC "-//W3C//DTD SVG 1.1//EN" "http://www.w3.org/Graphics/SVG/1.1/DTD/svg11.dtd">
<svg version="1.1" id="Layer_1" xmlns="http://www.w3.org/2000/svg" xmlns:xlink="http://www.w3.org/1999/xlink" x="0px" y="0px"
	 width="90px" height="90px" viewBox="0 0 90 90" enable-background="new 0 0 90 90" xml:space="preserve">
<path fill="none" stroke="#582D82" stroke-width="1.8" stroke-linecap="round" stroke-linejoin="round" stroke-miterlimit="10" d="
	M50.179,68.212H26.306c-3.768,0-6.821-3.055-6.821-6.821V20.266c0-3.768,3.054-6.821,6.821-6.821h20.959l-0.021,8.541
	c-0.009,3.78,3.058,6.848,6.838,6.838l8.541-0.021v26.964"/>
<line fill="none" stroke="#582D82" stroke-width="1.8" stroke-linecap="round" stroke-linejoin="round" stroke-miterlimit="10" x1="47.265" y1="13.444" x2="62.623" y2="28.803"/>
<line fill="none" stroke="#582D82" stroke-width="1.8" stroke-linecap="round" stroke-linejoin="round" stroke-miterlimit="10" x1="25.795" y1="20.274" x2="41.894" y2="20.274"/>
<line fill="none" stroke="#582D82" stroke-width="1.8" stroke-linecap="round" stroke-linejoin="round" stroke-miterlimit="10" x1="25.795" y1="26.965" x2="41.894" y2="26.965"/>
<line fill="none" stroke="#582D82" stroke-width="1.8" stroke-linecap="round" stroke-linejoin="round" stroke-miterlimit="10" x1="25.795" y1="53.725" x2="51.179" y2="53.725"/>
<line fill="none" stroke="#582D82" stroke-width="1.8" stroke-linecap="round" stroke-linejoin="round" stroke-miterlimit="10" x1="25.795" y1="60.415" x2="44.935" y2="60.415"/>
<polygon fill="#582D82" points="25.033,35.331 33.024,35.331 33.024,37.781 30.502,37.781 30.502,46.44 27.527,46.44 27.527,37.781
	25.033,37.781 "/>
<path fill="#582D82" d="M34.34,46.44l3.161-9.179c0.51-1.478,1.14-2.046,2.174-2.046c0.982,0,1.679,0.658,2.15,2.046l3.109,9.179
	h-3.138l-0.653-2.308H38.03L37.4,46.44H34.34z M40.49,41.815l-0.93-3.305l-0.9,3.305H40.49z"/>
<polygon fill="#582D82" points="49.771,46.44 46.451,46.44 50.09,40.79 46.586,35.331 49.985,35.331 51.791,38.315 53.642,35.331
	56.865,35.331 53.385,40.729 57.074,46.44 53.652,46.44 51.678,43.25 "/>
<circle fill="none" stroke="#582D82" stroke-width="1.8" stroke-linecap="round" stroke-linejoin="round" stroke-miterlimit="10" cx="60.151" cy="65.739" r="10.277"/>
<line fill="none" stroke="#822C90" stroke-width="2" stroke-linecap="round" stroke-linejoin="round" stroke-miterlimit="10" x1="55.957" y1="69.934" x2="64.346" y2="61.546"/>
<path fill="#822C90" d="M58.839,62.558c0,0.875-0.71,1.585-1.585,1.585c-0.876,0-1.586-0.71-1.586-1.585
	c0-0.876,0.71-1.585,1.586-1.585C58.129,60.973,58.839,61.682,58.839,62.558"/>
<path fill="#822C90" d="M64.887,68.626c0,0.864-0.7,1.565-1.564,1.565s-1.565-0.701-1.565-1.565s0.701-1.565,1.565-1.565
	S64.887,67.762,64.887,68.626"/>
</svg>
