<svg xmlns="http://www.w3.org/2000/svg" xmlns:xlink="http://www.w3.org/1999/xlink" version="1.1" x="0px" y="0px" viewBox="0 0 100 100" style="enable-background:new 0 0 100 100;" xml:space="preserve">
    <path d="M65.6,14.3H34.4c-9.1,0-16.5,7.4-16.5,16.5v38.9c0,6.3,5,11.5,11.2,11.8c0.1,0,0.2,0,0.3,0h0.3h0h4.1l-5,9.8  c-0.6,1.2-0.2,2.8,1.1,3.4c0.4,0.2,0.8,0.3,1.2,0.3c0.9,0,1.8-0.5,2.2-1.4l2.3-4.5h28.6l2.5,4.6c0.5,0.8,1.3,1.3,2.2,1.3  c0.4,0,0.8-0.1,1.2-0.3c1.2-0.7,1.7-2.2,1-3.4l-5.3-9.7h4.7c0.1,0,0.3,0,0.4,0c6.2-0.4,11.1-5.5,11.1-11.8V30.8  C82.1,21.7,74.7,14.3,65.6,14.3z M38.2,84.1l2.6-5h17.8l2.8,5H38.2z M77,69.7c0,3.7-3.2,6.8-6.9,6.8h-9.4h-3.4H42.2h-2.5h-9.9  c-3.8,0-6.8-3.1-6.8-6.8V30.8c0-6.3,5.2-11.5,11.5-11.5h31.1c6.3,0,11.5,5.2,11.5,11.5V69.7z M71,27.1H29c-1.9,0-3.4,1.5-3.4,3.4V54  c0,1.9,1.5,3.4,3.4,3.4H71c1.9,0,3.4-1.5,3.4-3.4V30.4C74.4,28.6,72.9,27.1,71,27.1z M71.9,54c0,0.5-0.4,0.8-0.8,0.8H29  c-0.5,0-0.8-0.4-0.8-0.8V30.4c0-0.5,0.4-0.8,0.8-0.8H71c0.5,0,0.8,0.4,0.8,0.8V54z M60.9,24.3H39.1v-2.5h21.9V24.3z M38.2,8.4  c0-1.9,1.5-3.4,3.4-3.4C43.4,5,45,6.5,45,8.4s-1.5,3.4-3.4,3.4C39.7,11.7,38.2,10.2,38.2,8.4z M55,8.4C55,6.5,56.6,5,58.4,5  c1.9,0,3.4,1.5,3.4,3.4s-1.5,3.4-3.4,3.4C56.6,11.7,55,10.2,55,8.4z M34.9,63c-2.8,0-5,2.3-5,5s2.3,5,5,5c2.8,0,5-2.3,5-5  S37.6,63,34.9,63z M34.9,70.6c-1.4,0-2.5-1.1-2.5-2.5c0-1.4,1.1-2.5,2.5-2.5c1.4,0,2.5,1.1,2.5,2.5C37.4,69.5,36.3,70.6,34.9,70.6z   M65.1,63L65.1,63c-2.8,0-5,2.3-5,5s2.3,5,5,5h0c2.8,0,5-2.3,5-5S67.9,63,65.1,63z M65.1,70.6c-1.4,0-2.5-1.1-2.5-2.5  c0-1.4,1.1-2.5,2.5-2.5c1.4,0,2.5,1.1,2.5,2.5C67.7,69.5,66.5,70.6,65.1,70.6z M54.7,39.3l-8,8l-1.8-1.8l8-8L54.7,39.3z M54.2,43  l1.8,1.8l-3.4,3.4l-1.8-1.8L54.2,43z M45.8,41.4l-1.8-1.8l3.4-3.4l1.8,1.8L45.8,41.4z"/>
    <text x="0" y="115" fill="#000000" font-size="5px" font-weight="bold" font-family="'Helvetica Neue', Helvetica, Arial-Unicode, Arial, Sans-serif">Created by AfterGrind</text>
    <text x="0" y="120" fill="#000000" font-size="5px" font-weight="bold" font-family="'Helvetica Neue', Helvetica, Arial-Unicode, Arial, Sans-serif">from the Noun Project</text>
</svg>
