<?xml version="1.0" encoding="utf-8"?>
<!-- Generator: Adobe Illustrator 16.0.0, SVG Export Plug-In . SVG Version: 6.00 Build 0)  -->
<!DOCTYPE svg PUBLIC "-//W3C//DTD SVG 1.1//EN" "http://www.w3.org/Graphics/SVG/1.1/DTD/svg11.dtd">
<svg version="1.1" id="Layer_1" xmlns="http://www.w3.org/2000/svg" xmlns:xlink="http://www.w3.org/1999/xlink" x="0px" y="0px"
	 width="90px" height="90px" viewBox="0 0 90 90" enable-background="new 0 0 90 90" xml:space="preserve">
<path fill="none" stroke="#582D82" stroke-width="1.8" stroke-linecap="round" stroke-linejoin="round" stroke-miterlimit="10" d="
	M77.577,22.549c-4.271-2.489-9.122-1.167-12.44,0.38l-9.891,4.612l-17.011-8.556L28.104,19.42l14.047,14.241l-8.952,4.253
	l-9.314-3.545l-6.235,2.908l5.636,6.998c-0.596,0.71-1.135,1.71-0.646,2.761c0.641,1.372,2.531,2.063,5.634,2.063
	c0.636,0,1.323-0.03,2.061-0.088c3.404-0.269,7.096-1.138,9.404-2.214l35.355-16.486c3.054-1.425,4.575-2.92,4.65-4.572
	C79.782,24.882,79.438,23.633,77.577,22.549z"/>
<line fill="none" stroke="#582D82" stroke-width="1.8" stroke-linecap="round" stroke-linejoin="round" stroke-miterlimit="10" x1="11.865" y1="65.209" x2="77.458" y2="65.209"/>
<polyline fill="none" stroke="#582D82" stroke-width="1.8" stroke-linecap="round" stroke-linejoin="round" stroke-miterlimit="10" points="
	74.706,60.169 79.746,65.209 74.706,70.249 "/>
<line fill="none" stroke="#822C90" stroke-width="1.8" stroke-linecap="round" stroke-linejoin="round" stroke-miterlimit="10" x1="12.891" y1="50.159" x2="17.397" y2="48.059"/>
<line fill="none" stroke="#822C90" stroke-width="1.8" stroke-linecap="round" stroke-linejoin="round" stroke-miterlimit="10" x1="9.228" y1="56.464" x2="19.664" y2="51.601"/>
</svg>
