<svg version="1" xmlns="http://www.w3.org/2000/svg" width="2266.667" height="2266.667" viewBox="0 0 1700.000000 1700.000000"><path d="M833.8 44c-28.5 5.2-51.8 26.2-60.5 54.9-1.6 5.2-1.8 17.9-2.3 161.7l-.5 156.2-34.2-19.8c-18.9-10.8-35.8-20.9-37.6-22.3-5.8-4.4-15.9-9.4-23.7-11.9-6.3-1.9-9.7-2.3-21.5-2.3-15.8 0-23.4 1.7-35.6 8.1-18.8 9.9-33.9 29.4-38.4 49.9-2.6 11.6-1.7 30.4 1.9 41 6.9 20.3 23.2 38.1 41.8 45.7 7.5 3.1 170.6 97.3 174.3 100.7 7.2 6.7 18.4 12.6 29.7 15.8 10 2.8 31 2.5 40.8-.5 25.8-8.1 44.8-27.6 51.9-53.2 1.2-4.1 2.1-9.1 2.1-11.2 0-2 .7-4.3 1.5-5.2 1.3-1.3 1.5-26.6 1.5-215.5 0-181.1-.2-214.1-1.4-214.1-1 0-1.4-1.9-1.5-7.4-.6-31.1-24.3-60.6-55.6-69.1-7-1.9-25.9-2.8-32.7-1.5z"/><path d="M634.5 140c-35 5.5-62.6 31.4-69.6 65.4-12.2 59.2 39.5 110.9 98.7 98.7 31.3-6.5 56.4-31.1 64-62.7 2.3-9.5 2.3-26.7 0-36.6-7.1-31.2-31.6-56.3-61.9-63.3-8.2-1.9-23.7-2.6-31.2-1.5zM1275.7 277.5c-29.5 5.6-54.2 27-63.6 55-10.7 32-2.5 64.9 21.8 87.7 11.4 10.6 21.6 16.3 37.2 20.5 9.9 2.7 31 2.4 41.3-.5 14.7-4.2 27.1-11.5 37.6-22.2 16.6-16.7 25.1-39.4 23.7-63.5-2.6-42.9-36.5-76.2-79.7-78-6.9-.3-13.2.1-18.3 1z"/><path d="M1098.8 397c-13.6 2.2-28.8 9.3-39.6 18.6-9.6 8.2-19.1 23.8-22.8 37.4-1.4 5-1.7 9.5-1.5 19.7.2 7.3.4 56.4.4 109 .2 77-.1 97.6-1.2 105-4.6 31.1 12.3 62.8 41.2 77.1 12.3 6.1 19.1 7.6 33.7 7.6 13.1 0 20.6-1.4 29.6-5.4 2.5-1.2 5.3-1.9 6.2-1.6 2.3.7 371.8-212.7 371.5-214.6-.1-.7 3-3.3 6.9-5.8 30.7-19.6 42.3-63.5 25.6-96.5-6.1-11.9-18.1-24.8-29.2-31.4-20.1-12-46.7-13.8-68.1-4.8-2.7 1.2-63.7 36-135.4 77.4-71.7 41.4-130.5 75.3-130.8 75.3-.2 0-.4-23.5-.3-52.3.2-50.6.1-52.4-1.9-59.5-9.4-32.4-36.3-53.8-69.9-55.6-4.8-.3-11.3-.1-14.4.4zM202.5 412.5c-32.5 6.1-56.5 30.9-61.6 63.5-4.1 26.6 7.8 55.9 29.1 71.5 2.6 1.9 63.2 37.2 134.6 78.5 71.4 41.3 130 75.4 130.1 75.8.3.8-64 38.1-71.2 41.3-13.5 5.9-25.3 15.9-33.4 28.3-9.3 14.2-12.5 26.3-11.9 44.6.4 10.7.9 13.7 3.5 21.3 8.6 24.4 27 41.8 52 48.9 11.1 3.2 28.6 3.1 39.8 0 8.7-2.5 20.7-8.5 27-13.6C445 869 609.2 774 610.9 774c.6 0 4-1.3 7.5-2.9 21.5-9.7 36.8-28.1 42.7-51 2.4-9.5 2.6-26.8.3-36-3.9-15.6-13.5-30.9-25.4-40.8-3.8-3-7-6.3-7.3-7.2-.6-2.2-370.9-215.9-371.5-214.3-.3.9-1.3.7-3.6-.8-5.2-3.2-16.4-7.1-24.6-8.6-9.2-1.6-17.4-1.6-26.5.1z"/><path d="M190.7 630.5c-47.7 9.1-77.7 56.1-65.7 103 7.5 29.4 30.6 52.3 60.5 60.1 9.7 2.5 30.3 2.5 40 0 17.2-4.5 34.3-15.4 44.7-28.4 6.8-8.6 13.9-22.8 16.3-32.5 9.2-38.3-8.8-77.2-44.2-95-14.2-7.2-35.7-10.2-51.6-7.2zM1294.8 811c-12.7 2.3-26.5 8.3-35.3 15.4-4.5 3.6-168.7 98.6-170.4 98.6-.6 0-4 1.3-7.5 2.9-21.5 9.7-36.8 28.1-42.7 51-2.4 9.5-2.6 26.8-.3 36 3.9 15.6 13.5 30.9 25.4 40.8 3.8 3 7 6.3 7.3 7.2.6 2.2 370.9 215.9 371.5 214.3.2-.8 1.6-.4 4.5 1.2 6.8 3.9 18.1 7.5 27.7 8.8 34.4 4.5 69.1-16.9 80.5-49.9 10.9-31.2.2-66.9-25.5-85.8-2.6-1.9-63.2-37.2-134.6-78.5-71.4-41.3-130-75.4-130.1-75.8-.3-.8 64-38.1 71.2-41.3 13.5-5.9 25.3-15.9 33.4-28.3 9.3-14.2 12.5-26.3 11.9-44.6-.4-10.7-.9-13.7-3.5-21.3-8.5-24.2-27.1-41.8-51.5-48.7-8.2-2.3-24.7-3.4-32-2z"/><path d="M1479.5 904.4c-26.9 5.3-48.3 21.7-59.9 45.9-7.4 15.4-10 31.6-7.7 47.5 5.8 39.8 37.4 69.1 77.4 71.8 36.6 2.5 71.8-21 83.8-55.9 15.8-46.2-10.9-96-58.1-108.1-8.9-2.3-26.7-2.9-35.5-1.2zM578 928.1c-6.5 1.1-11 2.5-16.8 5.1-2.4 1-5.1 1.7-6 1.4-2.3-.7-371.8 212.7-371.5 214.6.1.7-3 3.3-6.9 5.8-30.7 19.6-42.3 63.5-25.6 96.5 6.1 11.9 18.1 24.8 29.2 31.4 20.1 12 46.7 13.8 68.1 4.8 2.8-1.2 63.7-36 135.4-77.4 71.7-41.4 130.5-75.3 130.8-75.3.2 0 .4 23.5.3 52.2-.2 51-.2 52.5 2 59.8 7.6 26.4 27.7 46.2 53.9 53.2 11.1 3 27.9 2.9 38.6-.1 21.8-6.1 38.7-20 48.4-39.6 6.2-12.6 7.5-18.8 7.2-34.3-.2-7.2-.4-56.3-.4-109-.2-76.9.1-97.5 1.2-105 3.7-24.9-6.6-51-26.7-67.7-7.2-6-19.9-12.6-28.7-14.9-7.4-2-25.1-2.8-32.5-1.5zM837.5 1076.4c-28.4 6.6-49.8 26.9-57.4 54.6-1.2 4.1-2.1 9.1-2.1 11.2 0 2-.7 4.3-1.5 5.2-1.3 1.3-1.5 26.6-1.5 215.5 0 175.4.2 214.1 1.3 214.1.9 0 1.4 2.1 1.5 7.5 1.1 31.7 24.3 60.3 56.2 69.2 10.1 2.7 30.2 2.5 40-.6 25.9-8 44.8-27 52.7-53 1.6-5.2 1.8-17.9 2.3-161.7l.5-156.2 34.2 19.8c18.9 10.8 35.8 20.9 37.6 22.3 5.8 4.4 15.9 9.4 23.7 11.9 6.3 1.9 9.7 2.3 21.5 2.3 15.8 0 23.4-1.7 35.6-8.1 18.8-9.9 33.9-29.4 38.4-49.9 2.6-11.6 1.7-30.4-1.9-41-6.9-20.3-23.2-38.1-41.8-45.7-7.5-3.1-170.6-97.3-174.3-100.7-7.1-6.6-18.4-12.6-29.2-15.6-8-2.3-28.1-2.9-35.8-1.1z"/><path d="M395.8 1257c-24.1 4.4-44.7 18.2-57.2 38.3-9.1 14.6-13.3 31.5-12.3 49.2 3.3 56.4 60.5 92.9 113.5 72.5 21.9-8.4 40.6-28 48.1-50.5 10.7-32 2.5-64.9-21.8-87.7-11.3-10.5-21.7-16.3-36.7-20.3-6.9-1.9-26.8-2.8-33.6-1.5zM1036 1394.9c-31 6.6-56.1 31.3-63.6 62.7-2.3 9.5-2.3 26.7 0 36.6 7.1 31.4 31.2 55.9 62.4 63.5 10.1 2.4 29.5 2.2 39.7-.6 31-8.3 54.2-32.7 60.6-63.5 12.2-59.3-39.9-111.2-99.1-98.7z"/></svg>